<svg xmlns="http://www.w3.org/2000/svg" viewBox="0 0 833.67 728.53"><defs><style>.cls-1{fill:#895e29;}.cls-2{fill:#fff;}.cls-3{fill:#dfecad;}.cls-4{fill:#ffd630;}.cls-5{fill:#f0485b;}</style></defs><g id="レイヤー_2" data-name="レイヤー 2"><g id="レイヤー_1-2" data-name="レイヤー 1"><path class="cls-1" d="M833.6,431.58c.9,16.13-6.65,26.61-20.86,32.84-9.36,4.1-18.92,7.75-29.27,12,.34,2.11.35,4.74,1.19,7.08,9.22,25.49,13.41,52.06,17.23,78.74,2.49,17.42,4.86,34.93,8.73,52.07,2.84,12.54,7.58,24.72,12.29,36.73,4.51,11.52,5,23.4,4.89,35.37-.09,8.07-7.69,14.19-16.56,13.68-8.06-.46-15.75-2.58-22.48-7.36-3.5-2.47-6.63-5.6-11.62-2.68-5.33,3.12-11.92,4.38-13.44,12a82.6,82.6,0,0,1-4.38,14.28c-3.42,8.63-9.22,12.06-18.57,12.22-17,.3-27.64-9.36-36.06-22.71-9.68-15.35-15.93-32.13-20.22-49.6a302.48,302.48,0,0,0-19-53.4c-5.09-11.18-10.39-22.27-15.27-33.55a13.86,13.86,0,0,0-10.23-8.51c-5.48-1.31-11.22-4.15-16.39-3.35-6.31,1-5.36,9.17-8.57,13.59-4.66,6.44-9.61,12.68-14.29,19.1-2.53,3.47-4.56,7.32-7.19,10.7-4.42,5.7-9.21,11.11-13.74,16.72-12.18,15.11-27.41,26.86-42.61,38.6a95.14,95.14,0,0,1-12.71,7.81c-16.86,9.22-33.65,18.6-50.77,27.31-6.74,3.43-14.22,5.51-21.5,7.77-24.07,7.47-48,15.71-73.67,15.81s-51.24,1.14-76.74-.36c-18.15-1.07-36.14-5.36-54.08-8.8-11.74-2.25-23.54-4.77-34.82-8.61a271.9,271.9,0,0,1-34.76-15c-13.64-6.89-27.29-14-40-22.43C117.3,645.81,98.09,630,82.64,610c-11.77-15.24-24-30.13-36.1-45.09-12.79-15.8-20.81-34.14-26.6-53.22A509.86,509.86,0,0,1,4.52,447.7C0,420.61-.67,393.45.52,366.16c.62-14.29,1.88-28.56,2.06-42.85.16-12.69,5.11-24,9-35.56,7.16-21,15.11-41.72,27.66-60.47,12-17.94,24.92-35.13,38.47-51.93a301.37,301.37,0,0,1,59.75-56.66,163.29,163.29,0,0,1,15.73-10.28c5.08-2.81,5.62-6.25,4.31-11.54q-4.29-17.41-7.31-35.12c-1.38-8.08-.73-8.5,7.06-11.75s8.38-4.76,5.85-12.91c-.88-2.85-2-5.66-2.64-8.56-1.8-8.24-1.2-11,6.43-14.46C178.39,8.91,190.39,4.92,202.18.51c3.62-1.35,6.64.1,8.85,2.9a23.14,23.14,0,0,1,4,6.84c2.63,8,6.35,13.73,16.4,11.89,4-.74,6.33,2.72,7.77,6.47,5.12,13.3,10.22,26.62,15.69,39.78,1.71,4.12,4.56,7.77,6,10.14,7-1.57,12.24-3.59,17.58-3.81,17.76-.73,35.33.06,51.08,10.09,2.11,1.35,5.07,1.53,7.68,1.87a295.65,295.65,0,0,1,67.52,17c18,6.87,36,13.69,54.23,20,17.16,6,32.83,15,47.26,25.48,14.18,10.3,29.28,19.28,42.49,31.17a383.86,383.86,0,0,1,48.51,52.85c11.7,15.34,22.36,31.41,30.06,49.18,5.54,12.8,11.08,25.65,15.5,38.86,2.82,8.42,4,17.47,5.15,26.33,1,7.21,5.71,12,10.11,16.6,1.78,1.88,6.85,1.3,10.28.81,11.51-1.62,22.94-3.86,34.45-5.53a102.3,102.3,0,0,1,13.91-.65c9.06-.07,16.78-2.81,23.1-9.71a39.64,39.64,0,0,1,19.41-11.43c15.61-4.24,23.41-1.63,30.34,12.55,5.37,11,10,22.38,14.49,33.78,1.78,4.52,3.53,8.11,8.45,10.2C828.91,401.17,832.69,415.49,833.6,431.58ZM819.92,441c5.44-13.93-2.74-32.55-16.61-37.59-4.63-1.68-6.59-4.5-8.26-8.91-4.81-12.67-10.27-25.1-15.56-37.58-4.15-9.8-11-10.81-20.48-6.34-6.79,3.2-12.83,8.15-18.82,12.81-5.63,4.38-11.09,7.6-18.81,7.11-20.1-1.26-39.73,1.41-58.59,8.92-5.6,2.23-8.76.69-12.39-4.87-3.26-5-6.22-10.27-9.83-15-6.36-8.38-15.11-10.43-22.23-4.55-13.84,11.46-22.87,26.64-30.07,42.8-2,4.53-.42,10.72-7.68,12.07-1,.18-1.94,3.39-1.92,5.19,0,6-.54,12.23,1.08,17.8,3.81,13.07,8.61,25.86,13.28,38.66,4.26,11.71,14,17.56,25.07,20.66,11.51,3.2,22.8,8.65,35.38,5.82.83-.18,1.87.57,3.6,1.15l1.56,9.68c-3.68,0-6.43,0-9.18,0-12,.14-23.92.19-35.88.49-6.86.17-11.65,4-15.51,9.44-4.43,6.2-3.84,11.67,2.44,16.22a74.38,74.38,0,0,0,39.82,14.51c9.84.5,14.87,5.25,18.33,12.44,13.12,27.23,25.34,54.84,34.16,83.88a417,417,0,0,0,15.28,42c4,9.4,9.21,18.67,18.47,24.15,11.46,6.79,20.84,7.55,23.51-9.29,1.6-10.14,3.65-19.77,16.2-21.79,1.18-.19,2.2-1.41,3.29-2.15,3.22-2.19,6.26-4.73,9.69-6.5,5.92-3,9.92-1.17,12.07,5,.61,1.75,1.27,4.37,2.56,4.85,6.7,2.49,13.22,6.11,20.56,5.54a9.51,9.51,0,0,0,1.22-2.14,15.72,15.72,0,0,0,.31-2.92c.89-16.09-5.66-30.34-10.74-45a187.17,187.17,0,0,1-8-29.68c-4-23.56-6.86-47.31-10.7-70.9-2.89-17.71-6.45-35.28-13-52.14-1.91-4.89-3.94-7-9.31-6.38-4.23.5-8.7.1-11.7-5.83,2.77-1.61,5.33-4.31,8-4.47,12.45-.73,23.54-6.31,35.27-9.46,6.53-1.75,12.51-6,18.28-9.83A17.32,17.32,0,0,0,819.92,441ZM633.12,339.51c-.84-4.82-1-9.48-2.49-13.66-4-11.22-8.06-22.51-13.19-33.26-6.69-14-13.23-28.39-22-41.11a352.64,352.64,0,0,0-46.9-55.56c-12.39-11.79-26.3-21.23-41.16-31.55-5,3.93-10.66,7.11-14.59,11.76-12.33,14.58-26.73,26.66-42.22,37.63C430,228.34,410.07,244,388.84,257.52c-28.77,18.38-55.83,39.32-86.26,55.32C277.26,326.15,252,339.22,225,348.78c-12.84,4.56-25.79,9-39,12.31-17.32,4.35-34.85,8-52.44,11.08A240.72,240.72,0,0,1,97.09,376c-25.82.51-50.8-6.08-76-10.45-3.51-.61-7-1.27-11-2,0,17.37-.8,34,.17,50.47,1.64,27.67,8.1,54.58,15.41,81.23,7,25.51,16.69,49.68,34.79,69.79C68,573.4,74.21,583,81.61,591.47c14.59,16.82,29.52,33.28,47,47.38,8.48,6.85,15.71,10.6,27.48,7.18s25-3.06,37.61-3.87c13.61-.87,27.28-.81,40.87-1.87,8.58-.67,17-3.44,25.59-3.89,30.48-1.58,60.89-3.75,91.1-8.28.33,0,.67,0,1-.07,10.11-1.74,20.23-3.39,30.32-5.26,11.43-2.13,22.86-4.28,34.22-6.73,14.9-3.22,30.27-5.29,44.49-10.45,22.38-8.12,43.69-19.14,66-27.55,22.45-8.47,41.08-24.52,64.29-31.22.54-.16.9-.92,2.19-2.32q-12.26-8.35-8.73-23.14c2.39-10,9.93-15.19,20.46-22a57.08,57.08,0,0,1-6-2.55c-12.9-7.55-18.22-19.87-21.63-33.66-2.71-11-6.7-21.6-9.33-32.57-2.82-11.73-2.61-23.08,7.32-32.26,6.85-6.33,6.27-13.88,3-22a140.09,140.09,0,0,1-6.6-20.84c-3.62-15.72-1.38-30.15,9.22-43.21,3.58-4.42,7.1-6.14,11.74-4.57s9.53,3.65,12.81,7a49.9,49.9,0,0,1,10.44,15.61C619.55,337.82,624.45,340.21,633.12,339.51Zm-27.3,10.78c1.45-2,2.87-4.7,2.73-7-.57-9.18-10.87-20.25-21.37-22.89-10.13,17.43-6.48,34.17,2.3,50.91C595.05,364.21,600.6,357.37,605.82,350.29Zm-5.49,216.18c1.45-2.9,3-5.74,5.19-9.86-11.27,4-20.75,6.92-29.78,10.82-12.48,5.4-24.49,11.84-36.92,17.34-22.74,10.06-45.53,20-68.53,29.49-14.47,5.94-29.68,9-45.31,11-16.73,2.15-33.05,7.31-49.75,9.92-23.64,3.71-47.42,6.57-71.21,9.24-16.14,1.81-32.75,1-48.51,4.37-20.14,4.32-40.33,3.58-60.51,4.58-12.52.63-25.09.3-37.52,3.94,10.52,5.42,19.58,13.17,31.77,13.94q29.83,1.9,59.64,4.2c18.37,1.39,36.54-.41,54.76-2.43,29-3.22,58.39-3.38,86.68-12.21,21.88-6.82,44.12-12.5,66.13-18.9,4.4-1.29,8.42-3.85,12.78-5.34,14.73-5,29.71-9.35,44.25-14.84,11.75-4.44,22.79-10.75,34.54-15.18a71.71,71.71,0,0,0,25.4-16.74c1.82-1.8,4-3.69,6.4-4.36C590,582.56,595.87,575.36,600.33,566.47Zm-35.55,45.46c-3.57,1.05-5.81,1.4-7.76,2.34-8.63,4.19-17,9-25.77,12.78-32.44,13.79-66.59,22.58-99.93,33.75-1.88.63-3.93.75-5.86,1.24-10,2.53-20.24,4.26-29.81,7.86-16.35,6.17-33.52,7.83-50.46,10.35-14.08,2.09-28.69.79-42.72,3.09A255.35,255.35,0,0,1,235,685.16c-6.76-.68-13.64-.11-20.47-.11l-.24,1c7,1.62,14,3,20.9,4.88,24.1,6.54,48.56,11.69,73.49,12.48,28.17.88,56.43.68,84.59-.5,24.84-1,47.85-10.65,70.57-19.83,14.67-5.92,28.57-13.93,42.42-21.71a306.42,306.42,0,0,0,28.26-18.45c5.85-4.21,10.63-9.91,16.49-14.11S560.66,619.4,564.78,611.93ZM490.51,162.32c1.87-1.77,2.17-5.22,3.41-8.46-10-5.53-19.2-10.6-28.19-15.56-1.49,1.14-2.51,1.59-3,2.36-1.2,2-2.2,4.08-3.2,6.17-1.43,3-2.47,6.17-4.21,8.94C435,188.09,405.94,211,374.28,231.21c-20.76,13.28-42.71,24.23-64.92,34.69-15.3,7.2-30.74,14.16-46.39,20.54-10.14,4.14-20.75,7.13-31.2,10.5-24.61,8-48.2,19.13-74.11,23.08-20.71,3.15-41.21,7.94-62,10.28-27.38,3.08-54.86,6.06-83.57,3.93-.75,4.21-1.36,7.43-1.89,10.67-.79,4.83,1.22,7.62,6.1,8.45,21,3.57,41.89,7.88,63,10.55,14,1.78,28.35,3.3,42.62,0,12.9-3,25.91-5.72,39-7.84,35.76-5.79,69.22-18.54,102-33.32,8.72-3.94,16.93-9,25.32-13.64,11-6.09,22.43-11.55,32.79-18.58,31-21,61.6-42.61,92.24-64.15,12.49-8.78,25.14-17.45,36.86-27.2C464.1,187.47,477.26,174.83,490.51,162.32Zm-36-28.29c-3.15-1.91-6.19-4.44-9.7-5.76-11.19-4.24-22.43-8.42-33.87-11.9-19.7-6-39.46-11.91-59.41-17-17.68-4.55-36.13-5.26-53.74-10.84-7.35-2.33-15.77-1.36-23.71-1.76-3.6-.18-7.22,0-11.21,0L248,98.06a38,38,0,0,0-.34,6.2,10.06,10.06,0,0,1-5.92,10.62c-4.3,2.07-8.59.58-12-2.53-2.36-2.17-4.23-4.88-6.81-7.94-6.9,24.2-18.11,20.4-32.94,6.66-1.16,3.29-1.86,6.51-3.4,9.25-1.2,2.12-3.33,5-5.24,5.17-5.55.45-12.05,1.38-16.59-1-7.69-4-13.05-1.28-17.88,3.45-51.85,30.78-80.19,83.72-78.85,80.4-6.78,3.62-7.65,9.34-10.77,13.27A158.16,158.16,0,0,0,32.5,265.28c-5.86,15.84-12,31.6-17.33,47.63-2.91,8.73-1.51,10.47,7.92,11.18a264.71,264.71,0,0,0,26.73.34c36.38-.94,72.22-6.57,107.9-13.22a148.23,148.23,0,0,0,20.34-5c22.33-7.57,44.52-15.55,66.79-23.32,6.91-2.41,14.15-4,20.77-7.07,25.37-11.61,51-22.74,75.64-35.82,18.11-9.63,35-21.62,51.95-33.32A195.7,195.7,0,0,0,419.1,185C433.73,170.61,444.92,153.59,454.48,134ZM246,84.16c-.83-4.58-.89-7.15-1.78-9.38-4.78-12-9.85-23.88-14.64-35.87-1.36-3.42-3.77-4.14-7-4.23-4.28-.12-9.83.89-12.48-1.35-3-2.53-3.78-8.06-4.77-12.45-1.1-4.85-3.83-6.5-8.48-6.45-7.93.09-14.82,2.9-21.48,7-4.57,2.79-5.84,6.15-3.52,10.81,4.29,8.6,2.19,15.34-5.7,20.49-4.45,2.91-5.9,7-4.77,12.06,3.11,13.93,6.18,27.88,9.42,41.78.75,3.22,2.11,6.29,7.94,6.31-.37-3.88-.59-7.24-1-10.56C176.48,93.13,175,84,173.9,74.81c-.53-4.48,1.61-7.78,6.06-9.08s8.93-1.08,11.72,3c1.79,2.6,2.63,6,3.37,9.15,1.68,7.1,2.7,14.36,4.65,21.37,1.09,4,2.54,8.46,8.11,8.7,1.23-5.71,1-5.61-1.44-11.13-4-8.88-6.91-18.14-4.59-28,2.26-9.62,6-11.31,15.8-7.87.56-.76,1.19-1.5,1.71-2.32,1.75-2.74,3.82-4.4,7.43-3.5s5.21,3.2,6.31,6.76a144.65,144.65,0,0,0,6.87,17.36C240.58,80.73,242.71,81.56,246,84.16Zm-10.81,11-4.76-7.74-1.79,1.49,4.88,7.32Z"/><path class="cls-2" d="M803.31,403.38c13.87,5,22.05,23.66,16.61,37.59a17.32,17.32,0,0,1-5.82,7.83c-5.77,3.82-11.75,8.08-18.28,9.83-11.73,3.15-22.82,8.73-35.27,9.46-2.7.16-5.26,2.86-8,4.47,3,5.93,7.47,6.33,11.7,5.83,5.37-.65,7.4,1.49,9.31,6.38,6.58,16.86,10.14,34.43,13,52.14,3.84,23.59,6.71,47.34,10.7,70.9a187.17,187.17,0,0,0,8,29.68c5.08,14.69,11.63,28.94,10.74,45a15.72,15.72,0,0,1-.31,2.92,9.51,9.51,0,0,1-1.22,2.14c-7.34.57-13.86-3.05-20.56-5.54-1.29-.48-1.95-3.1-2.56-4.85-2.15-6.13-6.15-8-12.07-5-3.43,1.77-6.47,4.31-9.69,6.5-1.09.74-2.11,2-3.29,2.15-12.55,2-14.6,11.65-16.2,21.79-2.67,16.84-12.05,16.08-23.51,9.29-9.26-5.48-14.47-14.75-18.47-24.15a417,417,0,0,1-15.28-42c-8.82-29-21-56.65-34.16-83.88-3.46-7.19-8.49-11.94-18.33-12.44a74.38,74.38,0,0,1-39.82-14.51c-6.28-4.55-6.87-10-2.44-16.22,3.86-5.41,8.65-9.27,15.51-9.44,12-.3,23.92-.35,35.88-.49,2.75,0,5.5,0,9.18,0l-1.56-9.68c-1.73-.58-2.77-1.33-3.6-1.15-12.58,2.83-23.87-2.62-35.38-5.82C607,489,597.29,483.17,593,471.46c-4.67-12.8-9.47-25.59-13.28-38.66-1.62-5.57-1-11.84-1.08-17.8,0-1.8,1-5,1.92-5.19,7.26-1.35,5.66-7.54,7.68-12.07,7.2-16.16,16.23-31.34,30.07-42.8,7.12-5.88,15.87-3.83,22.23,4.55,3.61,4.76,6.57,10,9.83,15,3.63,5.56,6.79,7.1,12.39,4.87,18.86-7.51,38.49-10.18,58.59-8.92,7.72.49,13.18-2.73,18.81-7.11,6-4.66,12-9.61,18.82-12.81,9.49-4.47,16.33-3.46,20.48,6.34,5.29,12.48,10.75,24.91,15.56,37.58C796.72,398.88,798.68,401.7,803.31,403.38Zm-50.51-9c.18-3.89-3.74-3.86-6.75-3.7-2,.09-3.92.56-7,1a65,65,0,0,0-8.74.09c-3,.37-5.92,1.61-5.76,5.52s2.38,6.55,6.12,6.5c5.9-.08,12-.35,17.61-1.89C750.38,401.36,752.67,397.09,752.8,394.39Zm-23.25,33.37c5.39-8.39,3.17-12.89-7.63-14.38l-5.8,7.57c-2.25-1.64-3.53-2.62-4.85-3.54-5.78-4-9.43-3.4-13.26,2.22a33.61,33.61,0,0,0-1.65,3.6c-3.93,7.75-5.88,8.15-12.46,2.53-.76-.65-1.28-1.81-2.12-2.07-2.67-.84-5.85-2.54-8.08-1.76-3.73,1.31-3.27,5.24-2.47,8.64,2.07,8.72,9.46,9.41,16.28,10.19,3.82.44,6.7,1.11,9.51,4.13,7.73,8.32,17.69,6.85,23.74-3C723.65,437.15,726.55,432.42,729.55,427.76ZM660,407.44c1.29-.63,2.08-5.23,1.12-6.74s-4.57-2.75-6.69-2.35c-3.79.71-7.3,2.81-11,4.19-3.08,1.14-6.3,1.9-9.31,3.18-3.81,1.61-4.1,5.1-3.13,8.37.43,1.46,2.59,2.41,4.27,3.86C643.81,414.43,652.09,411.3,660,407.44Z"/><path class="cls-1" d="M746.05,390.69c3-.16,6.93-.19,6.75,3.7-.13,2.7-2.42,7-4.56,7.56-5.63,1.54-11.71,1.81-17.61,1.89-3.74.05-6-2.63-6.12-6.5s2.75-5.15,5.76-5.52a65,65,0,0,1,8.74-.09C742.13,391.25,744.08,390.78,746.05,390.69Z"/><path class="cls-1" d="M721.92,413.38c10.8,1.49,13,6,7.63,14.38-3,4.66-5.9,9.39-8.79,14.11-6,9.87-16,11.34-23.74,3-2.81-3-5.69-3.69-9.51-4.13-6.82-.78-14.21-1.47-16.28-10.19-.8-3.4-1.26-7.33,2.47-8.64,2.23-.78,5.41.92,8.08,1.76.84.26,1.36,1.42,2.12,2.07,6.58,5.62,8.53,5.22,12.46-2.53a33.61,33.61,0,0,1,1.65-3.6c3.83-5.62,7.48-6.2,13.26-2.22,1.32.92,2.6,1.9,4.85,3.54ZM708.9,435c-.89-.85-1.49-1.87-2.23-2-.59-.09-1.35.93-2,1.46l2.24,2.69Z"/><path class="cls-1" d="M661.13,400.7c1,1.51.17,6.11-1.12,6.74-7.92,3.86-16.2,7-24.72,10.51-1.68-1.45-3.84-2.4-4.27-3.86-1-3.27-.68-6.76,3.13-8.37,3-1.28,6.23-2,9.31-3.18,3.68-1.38,7.19-3.48,11-4.19C656.56,398,660.1,399.08,661.13,400.7Z"/><path class="cls-3" d="M630.63,325.85c1.5,4.18,1.65,8.84,2.49,13.66-8.67.7-13.57-1.69-16.65-9.18A49.9,49.9,0,0,0,606,314.72c-3.28-3.35-8.23-5.45-12.81-7s-8.16.15-11.74,4.57c-10.6,13.06-12.84,27.49-9.22,43.21a140.09,140.09,0,0,0,6.6,20.84c3.26,8.12,3.84,15.67-3,22-9.93,9.18-10.14,20.53-7.32,32.26,2.63,11,6.62,21.61,9.33,32.57,3.41,13.79,8.73,26.11,21.63,33.66a57.08,57.08,0,0,0,6,2.55c-10.53,6.81-18.07,12-20.46,22s.56,17.57,8.73,23.14c-1.29,1.4-1.65,2.16-2.19,2.32-23.21,6.7-41.84,22.75-64.29,31.22-22.28,8.41-43.59,19.43-66,27.55-14.22,5.16-29.59,7.23-44.49,10.45-11.36,2.45-22.79,4.6-34.22,6.73-10.09,1.87-20.21,3.52-30.32,5.26-.33.06-.67,0-1,.07-30.21,4.53-60.62,6.7-91.1,8.28-8.57.45-17,3.22-25.59,3.89-13.59,1.06-27.26,1-40.87,1.87-12.6.81-25.7.41-37.61,3.87s-19-.33-27.48-7.18c-17.45-14.1-32.38-30.56-47-47.38C74.21,583,68,573.4,60.43,565c-18.1-20.11-27.8-44.28-34.79-69.79C18.33,468.58,11.87,441.67,10.23,414c-1-16.5-.17-33.1-.17-50.47,4,.73,7.49,1.39,11,2,25.23,4.37,50.21,11,76,10.45a240.72,240.72,0,0,0,36.5-3.81c17.59-3.08,35.12-6.73,52.44-11.08,13.2-3.32,26.15-7.75,39-12.31,27-9.56,52.24-22.63,77.56-35.94,30.43-16,57.49-36.94,86.26-55.32C410.07,244,430,228.34,450.56,213.76c15.49-11,29.89-23,42.22-37.63,3.93-4.65,9.61-7.83,14.59-11.76,14.86,10.32,28.77,19.76,41.16,31.55a352.64,352.64,0,0,1,46.9,55.56c8.78,12.72,15.32,27.08,22,41.11C622.57,303.34,626.59,314.63,630.63,325.85ZM493.35,477c7.63-20.44,8-41.27-.2-62.29-5.95-15.23-16.25-24.5-31.78-26.78-8.81-1.3-18.12.5-27.16,1.31-1.69.15-3.67,1.94-4.69,3.5-3.8,5.78-8.47,11.39-10.54,17.8-3,9.34-4.06,19.31-6,29-.11,18.28,5.64,34.31,14.82,49.46,8,13.2,27.2,19.8,41.82,14.56C482.49,499,489.14,488.33,493.35,477ZM330.1,525.23c5-21.48,3-41.93-15.13-57.32-11.31-9.59-24.17-15.23-39.56-9.94-3.07,1-6.48,2.22-9.59,1.89-5.24-.54-8,2-10.53,5.85-10.51,15.91-13.07,33.78-13.41,58.41-1.49,8.38,5.9,18.45,15.82,27.69,12.67,11.8,26.85,14.64,43.18,9.32,7.87-2.56,14.93-6.17,19-13.53C323.81,540.41,328.26,533.07,330.1,525.23ZM160.61,556.91c4.18-17.87,2.89-25.43-12.84-38.13-1.8-1.45-4-2.43-5.66-4-10.34-10.12-22.05-10.7-35-5.86-3.84,1.44-6.29,3.32-7.23,7.26-1.53,6.41-3.14,12.8-4.71,19.19,0,15,12.49,33.7,27.58,39.51a86.09,86.09,0,0,0,15.31,4.2c6.5,1.2,11.93-1.66,15.37-6.92C156.5,567.46,159.35,562.26,160.61,556.91Z"/><path class="cls-2" d="M608.55,343.3c.14,2.29-1.28,5-2.73,7-5.22,7.08-10.77,13.92-16.34,21-8.78-16.74-12.43-33.48-2.3-50.91C597.68,323.05,608,334.12,608.55,343.3Z"/><path class="cls-4" d="M605.52,556.61c-2.18,4.12-3.74,7-5.19,9.86-4.46,8.89-10.36,16.09-20.5,19-2.37.67-4.58,2.56-6.4,4.36A71.71,71.71,0,0,1,548,606.55c-11.75,4.43-22.79,10.74-34.54,15.18-14.54,5.49-29.52,9.82-44.25,14.84-4.36,1.49-8.38,4-12.78,5.34-22,6.4-44.25,12.08-66.13,18.9-28.29,8.83-57.66,9-86.68,12.21-18.22,2-36.39,3.82-54.76,2.43q-29.8-2.25-59.64-4.2c-12.19-.77-21.25-8.52-31.77-13.94,12.43-3.64,25-3.31,37.52-3.94,20.18-1,40.37-.26,60.51-4.58,15.76-3.37,32.37-2.56,48.51-4.37,23.79-2.67,47.57-5.53,71.21-9.24,16.7-2.61,33-7.77,49.75-9.92,15.63-2,30.84-5.06,45.31-11,23-9.45,45.79-19.43,68.53-29.49,12.43-5.5,24.44-11.94,36.92-17.34C584.77,563.53,594.25,560.66,605.52,556.61Z"/><path class="cls-5" d="M557,614.27c2-.94,4.19-1.29,7.76-2.34-4.12,7.47-8,12.72-13.81,16.87s-10.64,9.9-16.49,14.11a306.42,306.42,0,0,1-28.26,18.45c-13.85,7.78-27.75,15.79-42.42,21.71-22.72,9.18-45.73,18.78-70.57,19.83-28.16,1.18-56.42,1.38-84.59.5-24.93-.79-49.39-5.94-73.49-12.48-6.9-1.87-13.93-3.26-20.9-4.88l.24-1c6.83,0,13.71-.57,20.47.11a255.35,255.35,0,0,0,67.51-1.82c14-2.3,28.64-1,42.72-3.09,16.94-2.52,34.11-4.18,50.46-10.35,9.57-3.6,19.84-5.33,29.81-7.86,1.93-.49,4-.61,5.86-1.24,33.34-11.17,67.49-20,99.93-33.75C540.06,623.31,548.39,618.46,557,614.27Z"/><path class="cls-1" d="M493.15,414.73c8.21,21,7.83,41.85.2,62.29-4.21,11.31-10.86,22-23.68,26.57-14.62,5.24-33.82-1.36-41.82-14.56-9.18-15.15-14.93-31.18-14.82-49.46,1.89-9.7,2.94-19.67,6-29,2.07-6.41,6.74-12,10.54-17.8,1-1.56,3-3.35,4.69-3.5,9-.81,18.35-2.61,27.16-1.31C476.9,390.23,487.2,399.5,493.15,414.73ZM489,444.85c-1.1-5.57-1.72-14-4.49-21.71-7.94-21.94-14.36-24.06-35-26.6-8.17-1-13.72,2.72-18.11,9.63-5.65,8.88-6.22,18.7-7.05,28.63-1.28,15.4,2.35,29.75,9.52,43.17a30,30,0,0,0,17.18,14.42c11.46,3.95,18.94,1.55,25.9-8.4C484.61,473.06,488.1,460.79,489,444.85Z"/><path class="cls-4" d="M493.92,153.86c-1.24,3.24-1.54,6.69-3.41,8.46-13.25,12.51-26.41,25.15-40.4,36.8-11.72,9.75-24.37,18.42-36.86,27.2C382.61,247.86,352,269.44,321,290.47c-10.36,7-21.8,12.49-32.79,18.58-8.39,4.65-16.6,9.7-25.32,13.64-32.77,14.78-66.23,27.53-102,33.32-13.08,2.12-26.09,4.81-39,7.84-14.27,3.35-28.57,1.83-42.62,0-21.11-2.67-42-7-63-10.55-4.88-.83-6.89-3.62-6.1-8.45.53-3.24,1.14-6.46,1.89-10.67,28.71,2.13,56.19-.85,83.57-3.93,20.79-2.34,41.29-7.13,62-10.28,25.91-3.95,49.5-15.11,74.11-23.08,10.45-3.37,21.06-6.36,31.2-10.5,15.65-6.38,31.09-13.34,46.39-20.54,22.21-10.46,44.16-21.41,64.92-34.69C405.94,211,435,188.09,455.33,155.77c1.74-2.77,2.78-6,4.21-8.94,1-2.09,2-4.19,3.2-6.17.48-.77,1.5-1.22,3-2.36C474.72,143.26,483.92,148.33,493.92,153.86Z"/><path class="cls-2" d="M484.48,423.14c2.77,7.67,3.39,16.14,4.49,21.71-.87,15.94-4.36,28.21-12,39.14-7,9.95-14.44,12.35-25.9,8.4A30,30,0,0,1,433.89,478c-7.17-13.42-10.8-27.77-9.52-43.17.83-9.93,1.4-19.75,7.05-28.63,4.39-6.91,9.94-10.63,18.11-9.63C470.12,399.08,476.54,401.2,484.48,423.14Z"/><path class="cls-5" d="M444.78,128.27c3.51,1.32,6.55,3.85,9.7,5.76-9.56,19.56-20.75,36.58-35.38,51a195.7,195.7,0,0,1-25.89,21.7c-16.93,11.7-33.84,23.69-51.95,33.32-24.61,13.08-50.27,24.21-75.64,35.82-6.62,3-13.86,4.66-20.77,7.07-22.27,7.77-44.46,15.75-66.79,23.32a148.23,148.23,0,0,1-20.34,5C122,317.86,86.2,323.49,49.82,324.43a264.71,264.71,0,0,1-26.73-.34c-9.43-.71-10.83-2.45-7.92-11.18,5.33-16,11.47-31.79,17.33-47.63a158.16,158.16,0,0,1,24.78-43.63c3.12-3.93,4-9.65,10.77-13.27-1.34,3.32,27-49.62,78.85-80.4,4.83-4.73,10.19-7.4,17.88-3.45,4.54,2.34,11,1.41,16.59,1,1.91-.16,4-3,5.24-5.17,1.54-2.74,2.24-6,3.4-9.25,14.83,13.74,26,17.54,32.94-6.66,2.58,3.06,4.45,5.77,6.81,7.94,3.38,3.11,7.67,4.6,12,2.53a10.06,10.06,0,0,0,5.92-10.62,38,38,0,0,1,.34-6.2L262.84,86.7c4,0,7.61-.15,11.21,0,7.94.4,16.36-.57,23.71,1.76,17.61,5.58,36.06,6.29,53.74,10.84,19.95,5.13,39.71,11,59.41,17C422.35,119.85,433.59,124,444.78,128.27Z"/><path class="cls-1" d="M315,467.91c18.14,15.39,20.17,35.84,15.13,57.32-1.84,7.84-6.29,15.18-10.25,22.37-4,7.36-11.1,11-19,13.53-16.33,5.32-30.51,2.48-43.18-9.32-9.92-9.24-17.31-19.31-15.82-27.69.34-24.63,2.9-42.5,13.41-58.41,2.52-3.81,5.29-6.39,10.53-5.85,3.11.33,6.52-.84,9.59-1.89C290.8,452.68,303.66,458.32,315,467.91Zm6.22,43.8c2.41-33.94-25.37-54.37-54.17-42.14-3.43,1.45-5.75,3.32-6.74,6.6-2.75,9.16-5.95,18.27-7.69,27.63-3,16.09,1.79,29.14,14,41.12,14.33,14,39.78,9.59,48.41-9.38C318.78,527.31,322.29,519.07,321.19,511.71Z"/><path class="cls-2" d="M267,469.57c28.8-12.23,56.58,8.2,54.17,42.14,1.1,7.36-2.41,15.6-6.14,23.83-8.63,19-34.08,23.4-48.41,9.38-12.26-12-17-25-14-41.12,1.74-9.36,4.94-18.47,7.69-27.63C261.27,472.89,263.59,471,267,469.57Z"/><path class="cls-4" d="M244.26,74.78c.89,2.23,1,4.8,1.78,9.38-3.33-2.6-5.46-3.43-6.14-4.93A144.65,144.65,0,0,1,233,61.87c-1.1-3.56-2.59-5.84-6.31-6.76s-5.68.76-7.43,3.5c-.52.82-1.15,1.56-1.71,2.32-9.82-3.44-13.54-1.75-15.8,7.87-2.32,9.86.63,19.12,4.59,28,2.46,5.52,2.67,5.42,1.44,11.13-5.57-.24-7-4.75-8.11-8.7-1.95-7-3-14.27-4.65-21.37-.74-3.16-1.58-6.55-3.37-9.15-2.79-4.06-7.29-4.29-11.72-3s-6.59,4.6-6.06,9.08c1.1,9.18,2.58,18.32,3.81,27.49.45,3.32.67,6.68,1,10.56-5.83,0-7.19-3.09-7.94-6.31-3.24-13.9-6.31-27.85-9.42-41.78-1.13-5.08.32-9.15,4.77-12.06,7.89-5.15,10-11.89,5.7-20.49-2.32-4.66-1.05-8,3.52-10.81,6.66-4.08,13.55-6.89,21.48-7,4.65,0,7.38,1.6,8.48,6.45,1,4.39,1.78,9.92,4.77,12.45,2.65,2.24,8.2,1.23,12.48,1.35,3.26.09,5.67.81,7,4.23C234.41,50.9,239.48,62.78,244.26,74.78Z"/><path class="cls-1" d="M147.77,518.78c15.73,12.7,17,20.26,12.84,38.13-1.26,5.35-4.11,10.55-7.15,15.22-3.44,5.26-8.87,8.12-15.37,6.92a86.09,86.09,0,0,1-15.31-4.2C107.69,569,95.16,550.39,95.2,535.34c1.57-6.39,3.18-12.78,4.71-19.19.94-3.94,3.39-5.82,7.23-7.26,12.92-4.84,24.63-4.26,35,5.86C143.74,516.35,146,517.33,147.77,518.78Zm-1.43,44.81c6-6,8.54-20.36,3.42-26.92-9-11.57-18.84-22.3-36-21-5.11.37-7.37,1.86-8,6.45-.33,2.29-.26,4.63-.36,6.54.28,18.68,11,34.51,31.17,38.4C140.81,567.83,143.67,566.25,146.34,563.59Z"/><path class="cls-2" d="M149.76,536.67c5.12,6.56,2.6,20.93-3.42,26.92-2.67,2.66-5.53,4.24-9.76,3.43-20.17-3.89-30.89-19.72-31.17-38.4.1-1.91,0-4.25.36-6.54.66-4.59,2.92-6.08,8-6.45C130.92,514.37,140.72,525.1,149.76,536.67Z"/></g></g></svg>