<svg xmlns="http://www.w3.org/2000/svg" viewBox="0 0 449.3 753.67"><defs><style>.cls-1{fill:#895e29;}.cls-2{fill:#fff;}.cls-3{fill:#f0485b;}</style></defs><g id="レイヤー_2" data-name="レイヤー 2"><g id="レイヤー_1-2" data-name="レイヤー 1"><path class="cls-1" d="M444.09,187.34a33.05,33.05,0,0,1,3,29.77c-1.74,4.64-4.55,7.78-9.83,8.79-7.93,1.51-14.79,5.31-21.36,10.14-14.5,10.64-30.16,11.15-45-.6-2.36-1.87-5.76-2.75-8.83-3.37-6-1.21-12.1-1.91-18.65-2.9-1.75,6.07,1.28,12.54,3.38,19.07a57.71,57.71,0,0,1,1.32,32.42c-1.43,5.72-3.68,10.28-9.26,13.35-4,2.18-7,6-11.06,9.63.08-.24-.39.42-.3,1,3.05,19.63.74,39.13-1.29,58.65-1,9.71-4.91,16.22-14.91,20a100.17,100.17,0,0,1-27,5.93c-10.59.91-21.16,2.12-31.1,3.14-1.22,8-3.25,15.61-3.31,23.25a95.82,95.82,0,0,0,2.92,24.56c5,19,10.93,37.66,16.37,56.5,1.1,3.83,1.6,7.82,2.52,11.7,1.06,4.43,2.29,8.81,3.51,13.48,3.63-1.84,6.12-3.86,8.88-4.38,21.11-3.93,28.26-19.75,32.73-37.91,2.05-8.34,3.53-16.84,6-25.07,1.91-6.45,5.43-12,12.19-14.89,6-2.51,11.15-1.2,14.36,4.35,3.44,5.94,5,12.36,3.5,19.21-2,9.09-4,18.2-6.29,27.21A83.24,83.24,0,0,1,320.25,533c-8.33,7.23-19,11.83-28.65,17.48-3.34,1.94-6.9,3.5-10.14,5.13.32,8.45,3.77,14.29,9,19.25,3.15,3,6,6,11.28,3.74,1.65-.71,5.45.81,6.78,2.48,12,15.05,17.9,31.74,12.19,51.07-3,10-16.42,15.69-26.16,10.46-4.54-2.44-8.27-6.37-12.77-9.95-4.28,4.57-5.67,9.89-5.12,16.7,1,12.48.48,25.08,1.22,37.59.71,11.88,1.82,23.77,3.48,35.55,2.39,17-5.31,23.35-18.39,28.66-7.9,3.21-12.74.77-14.54-7.76-3.55-16.87-6.66-33.84-9.64-50.83a172.74,172.74,0,0,0-10.37-35.14c-21.14,9.25-39.12,6.25-56.88-21-7,4-10.52,9.13-10.55,17.89-.08,21.6-1.08,43.2-2.18,64.78a118.17,118.17,0,0,1-3.39,21.59c-1.71,7.12-10.94,12.83-19.45,13s-13.13-3-15.88-12.06A64.28,64.28,0,0,1,117,725c-.47-17.72-3-35.09-8.51-51.9-2.16-6.57-5.49-12.75-8.34-19.09-1.34-3-2.79-5.93-4.39-9.3-8.32,5.77-17.4,7-27.18,4-10.56-3.21-17-10.11-18.92-20.86a130.51,130.51,0,0,1-1.38-15.85c-.59-10.56,3.38-19.22,12.58-24.35,6.82-3.8,7.38-8.83,7.12-15.73-.54-13.93,0-27.91.1-41.87.05-9.59,0-19.18,0-29.69-3.17-.22-6.4-.23-9.55-.71a86.47,86.47,0,0,1-12.63-2.58c-11.59-3.62-13.86-10.53-6.85-20.31a20.68,20.68,0,0,1,4.17-4.29C50.7,466.8,56.07,459.32,62,452.13,72,440,75.83,426,78.5,411.29a22.32,22.32,0,0,0-.09-9.93c-3.39-11.33-1.64-21.62,6-31.65-2.82-1-4.85-1.9-7-2.39-13.91-3.24-27.77-6.77-41.79-9.45-12.88-2.45-22.14-10.34-30.54-19.28C-2.14,330.91-.11,321.06,1.77,312c2.66-12.91,8.81-24.3,17-34.62,1.6-2,2.88-4.29,4.32-6.47C9.87,259.23,6.6,245.43,11.57,229.21c3.66-11.91,8.09-23.31,17.94-31.56A19,19,0,0,1,37.33,194c6.08-1.37,10.32-4.5,11-10.6,1.71-15.08,9.15-27.69,17-40a436.62,436.62,0,0,1,52.49-67.63c13.05-13.67,26.46-27,40.25-39.94,5.51-5.15,12.4-8.86,18.82-13,9.49-6.1,18.94-12.28,28.76-17.8,4.5-2.53,9.88-5.17,14.77-5a174.84,174.84,0,0,1,53.67,10.11c13.17,4.74,23.2,14.33,32.7,24.07,8.55,8.78,15.94,18.69,23.9,28.05,16.67,19.59,29.15,42,43.27,63.34,4.74,7.17,10.5,13.69,16,20.37,2.74,3.35,6.18,4.39,10.69,3.17,13.9-3.78,22.65-.3,30.42,11.64a26.68,26.68,0,0,1,3.33,6.13A89.53,89.53,0,0,0,444.09,187.34Zm-6.37,23.17c2-6.33-1-15-6.71-18.87-3.84-2.56-6.14-5.26-5.29-10.59.89-5.65-1.19-11-4.73-15.78-6.46-8.71-14.09-9.71-21.78-2.25-1.59,1.55-2.37,3.94-3.15,5.31L384.52,164c-2.79,3.29-6.28,6.41-8.49,10.27s-4.48,5.69-9.09,6.25c-9.07,1.1-12.06,4.9-11.47,13.82.28,4.16-.6,6.67-4.22,9.07-5,3.32-5.57,9-2.36,13.77,4.09,6.12,8.61,6.49,15.9,1.27,5.76-4.12,8.31-3.05,10.67,3.46a19.84,19.84,0,0,0,5.72,8.65C391.89,239,404,236.75,413,224.4c3.28-4.48,6.2-6.84,12.15-6.26C431.86,218.79,436.11,215.49,437.72,210.51Zm-57.08-56.72c-4.82-6.62-9-12-12.85-17.74-13.49-20.14-26.57-40.56-40.36-60.49a191.34,191.34,0,0,0-19.75-23.73c-8.75-9.07-17.62-18.27-27.67-25.75C262.32,12.9,241.36,11,220.06,12.24a23.84,23.84,0,0,0-10.13,3.56c-8.87,5.18-17.2,11.36-26.27,16.14-21,11.06-37.22,27.83-53.21,44.56C116,91.6,103,108.05,90.1,124.56A208,208,0,0,0,59.21,179c-.62,1.65-.35,3.64-.57,6.38,4.7-.31,8.61-.65,12.52-.78,3.28-.12,7.18-1.14,9.75.22,12.17,6.48,25.21,9.46,38.65,11.4,6.18.9,12.26,3.23,18.42,3.35,20.62.39,41.25,0,61.88,0,15.47,0,30.25,1.64,43.34,11.75,7.56,5.84,16.61,9.39,27.15,6.93,4.25-1,9.15.91,13.76,1.31,4.85.43,9.77,1.25,14.56.82,8.82-.8,17.26-.3,25.26,3.84,2.57,1.33,5.2,2.57,8.66,4.28.33-4.2.86-7.44.79-10.67-.35-17.09-4-33.66-8.8-50-4.68-15.91-10-31.61-15.11-47.4-1.07-3.36-.2-6.51,3.17-7.15,1.94-.37,4.45,1.67,6.52,2.92.71.43,1,1.7,1.28,2.65,4.41,15.29,8.82,30.59,13.13,45.91,2.55,9,4.92,18.1,7.16,26.36,3.51-5.61,5.93-12.26,10.6-16.33C359.89,167.38,369.78,161.43,380.64,153.79ZM341.83,462c.54-3.09-1.13-6.56-1.77-9.85l-2.51-.14a63.34,63.34,0,0,0-8,19.47,189.91,189.91,0,0,1-9.34,29.18c-5.37,12.54-15.78,20.26-28.32,25.12-4.69,1.82-8.72,6.26-15.59,2.79,1.19,5.69,2.1,10.07,3,14.36,10.45-1.12,29-11.76,39.06-21.83C334.68,504.81,338.1,483.32,341.83,462Zm-2-194c-1.39-5.42-1.92-11.26-4.34-16.17-9.58-19.51-21.92-25.67-38.92-19.25-5.87,2.22-10.34,1.77-14.83-1.37-4.81-3.35-9.78-3.73-15.22-2.56-15.07,3.27-27.14-1.25-36.26-13.84a11.06,11.06,0,0,0-5.63-3.77c-4.44-1.26-9.06-2.57-13.63-2.65-18.63-.32-37.26-.4-55.88-.07-5.22.09-10.51,1.57-15.59,3-5.4,1.56-10.32,2-15.14-1.61a28.24,28.24,0,0,0-22.76-5.11c-5.66,1-9.91-.43-13.57-4.13-10.93-11.06-23.44-7.07-35.34-3.11-3.33,1.11-6.23,3.25-10,2.57-6.21-1.14-10.25,2-13.22,6.85-6,9.77-10.14,20.37-11.14,31.74-.54,6.13.36,12.7,4.74,17.87,2.71,3.2,5.39,5.48,10.18,2.51,3.52-2.18,7.9-3.21,12-4.07a8.33,8.33,0,0,1,6.27,1.35c11.17,9.31,24.5,10.95,37.73,8.7,19.65-3.32,37.61,2.08,54.79,9.41,11,4.7,20.3,5.53,30-.88,4-2.68,7.32-2.35,10.94.21,6,4.2,12.12,8.14,17.87,12.62,4.91,3.83,9.81,7.05,16.36,5.25,9.19-2.52,17.75-.73,26.15,3.23,6.21,2.93,12.43,2.74,17.82-1.77,5.9-4.94,11.52-4,17.32-.13,2.22,1.48,4.69,2.68,6.62,4.46,9.93,9.2,20.36,8.71,30.89,1.5a116.52,116.52,0,0,0,13-10.82C336.72,282.72,339.47,276.11,339.79,268Zm-24,95.7c3.1-17,4.27-34.24,1.81-52.81-2.76.47-4.38.6-5.92,1-10.11,2.81-19,.26-27.16-5.92-1.59-1.2-3.34-2.2-5-3.35-3.56-2.53-6.95-3.05-11.07-.65-8.91,5.19-18.17,5.6-27.66,1.06-2.77-1.32-6-1.67-8.14-2.23-.94,5.69-1.46,10.44-2.57,15-.88,3.7-3.58,5.55-7.49,4.54-3.71-1-5.53-3.35-5-7.39.4-2.89.49-5.82.76-9.28-10.33-.67-16.71-7.15-23.54-12.86-1.79-1.5-3.76-2.78-5.46-4.35-5.4-5-11-5-17.28-1.55-9.25,5.07-18.45,4.13-27.64-.67a49.81,49.81,0,0,0-11.13-4.07c-5.46-1.35-11-2.89-16.59-3-9.38-.2-18.8-4.94-27.6-.68-3,8.31-5.51,16-8.65,23.52-.68,1.64-3.59,3.29-5.42,3.23s-4.25-1.93-5.06-3.64c-.88-1.86-.46-4.5-.14-6.74.82-5.81,1.89-11.59,2.8-17-8.24-2.73-15.35-5.48-22.69-7.34-2.87-.73-6.9-.51-9.27,1-9.93,6.46-17,15.87-22.41,26.12-3.62,6.9-5.6,14.9-7.07,22.64s1.92,14.65,8.77,18.72C26.6,341,33.43,344.87,40.63,347c21.63,6.35,43.51,11.87,65.3,17.67a194,194,0,0,0,42.21,6.4c9.47.37,9.48,0,8.46,11.44a72.59,72.59,0,0,1-22-1.5c-10.38-2.1-20.68-4.63-31-7.17-8.12-2-17.45,3.7-16.54,13.13a81.15,81.15,0,0,0,2.13,12.59c1.91,7.5,7.33,12.05,14.07,10.14,7.73-2.19,12.59-1.59,15.47,6.77,1.19,3.45,4.8,4.31,8.35,2,8.13-5.31,8.13-5.29,15.57.27a44.35,44.35,0,0,0,4.14,2.75c8.76,5,10.89,4.38,15.22-4.61,3.75-7.79,6.72-8.58,13.68-3.39,2.39,1.79,4.4,4.08,6.77,5.9a112.22,112.22,0,0,0,11.32,8.11c8.36,4.93,14.52,2.92,18.49-5.71,1-2.11,1.5-4.44,2.59-6.48,2.26-4.17,5.91-5,10-2.39,1.1.7,1.86,1.94,3,2.68,5.74,3.92,11.06,2,12.9-4.83a33.67,33.67,0,0,0,.64-7.87c.1-3.52,0-7.05,0-10.84-4.45,0-8.49.53-12.29-.21a9.34,9.34,0,0,1-5.81-4.55c-.69-1.44.42-5,1.83-5.91,1.92-1.22,4.93-1.24,7.39-1,7.58.77,15.16,2.95,22.67,2.68a330.82,330.82,0,0,0,40.61-3.9C304.73,377.72,314,374,315.83,363.71Zm-4.05,262.53c4-12.86-3.68-22.82-7.21-34.22-8.2,1.9-13.75-.52-17.78-6.9-1.18-1.87-3.51-4.51-5.08-4.35-5.58.54-5.13-5.38-9.23-7.86-2.45,1.87-5.76,3.26-7.18,5.73-2.94,5.1-6.76,5.79-11.77,4.37q-10.47-3-20.95-5.87c-11.32-3.1-18-2-19.36,11.71-.22,2.22-.55,4.42-.81,6.47-10.18,1.6-10.89,1-11-8.32-.06-4.75-.75-9.23-5.06-12.32-5.94,1.11-8.05,4.91-9.3,10.33-1.14,4.92-5.41,5.8-9.09,2.36-1.4-1.31-2.21-3.26-3.26-4.94-3.57-5.72-6.77-7.26-13.28-5.66-5.87,1.45-11.53,3.06-12.58,10.79-.3,2.15-3.51,5.12-5.77,5.51-3.58.62-6.06-2-6.42-6a8.87,8.87,0,0,0-.7-2.89c-2.65-5.69-8-7.17-13.18-3.53-1.33,1-2.21,2.52-3.51,3.53-4.33,3.38-7.23,2.69-10.75-1.72-2.2-2.76-4.56-6.08-7.6-7.33-9.67-4-13.46-5.67-23.35,5.95l4,10.45-6.79,6.81-9.9-2.41c-9.34,8.06-8,17.87-6.58,28,1.37,9.87,8,14.16,16.35,16.72,5,1.54,9.89.7,13.77-3.36,7.57-7.93,8-7.59,17.18-1.92a151.2,151.2,0,0,0,22.21,11.06c5.59,2.3,11.58,2,17.6.21,9.49-2.88,14.6-10,18.49-18.24,1.93-4.08,3.38-8,10.55-8.41,2.75,4.66,5.65,9.43,8.4,14.28,4.24,7.46,9.85,13.25,18.18,16.17,15.51,5.45,16.81,4.93,23.47-10.51,2.69-6.23,6.63-7.39,12.64-4.15,5.83,3.13,11.75,6.17,17.84,8.76,3.82,1.63,7.31.93,8.08-4.14.55-3.65,2.24-6,6.13-6.85,1.52-.36,3-2.22,3.88-3.74,2-3.39,3.48-7.17,5.66-10.46,1.16-1.76,3.72-4.25,5-3.91,2.08.54,3.91,2.92,5.33,4.89,2.48,3.45,3.95,7.84,6.94,10.66C302.44,637,309.15,634.69,311.78,626.24ZM257.53,739.83c10.74-2.88,13.66-7.11,13-16.43-1.37-18.88-2.5-37.76-3.84-56.64-.29-4.2-1-8.38-1.37-11.25l-29.25-6.94C249,678.3,248.68,710.11,257.53,739.83Zm16.25-176.7c-3.52-17.24-5.77-35.45-11.22-53.32-2.13,1-3.05,1.33-3.91,1.8-11.16,6.08-21,3.95-25.31-7.49a137.32,137.32,0,0,1-7.9-33.67c-.75-6.89,1.65-14.43,3.93-21.25,1.85-5.52,4.89-11.29,13.71-9.72l-2.92-10.29-18.67-2.63c-7.64,13.32-22.64,17.6-36.67,7-4.16-3.16-8.69-5.83-13-8.66-11,12.3-17.13,13.45-30.46,5.75-3.38-1.95-6.28-2.22-10.27-1.14-8,2.17-15.85,1.29-22-5.61a12.12,12.12,0,0,0-5.64-3.74c-5.32-1.33-10.8-2.05-17.36-3.22-1.71,11.26-3.62,22.33-5,33.47-1.11,8.91-2.6,18-2,26.85.58,8.71-.61,16.83-1.6,25.38-2.31,20.09-1.55,40.53-2,60.83,0,.88.65,1.77,1.05,2.77,14-2,27.93-3.87,39.35,7.26,9.88-5.88,19.19-6.69,27.63,2.2,13.09-6.92,25-13.37,36.68-4.51,6.6-2.91,11.52-6.14,16.85-7.16,6.46-1.23,8.76,5.79,12.78,9.53,7.28-7,15.23-6.88,23.58-3.82,4,1.48,8.22,2.72,12.09,4.58,4.23,2,7.8.71,11.34-1.3C262.54,569.82,268.05,566.5,273.78,563.13ZM249.3,505.49c3,.53,5.44-4.93,4.46-9.34-2.8-12.53-8.26-24-14-35.29l-2.16.67c-.25,2.88-1,5.84-.66,8.63,1.41,10.07,2.84,20.18,5.17,30.06C242.65,502.5,246.58,505,249.3,505.49ZM150.15,683.08A154.58,154.58,0,0,0,150,665.2c-.2-3.1-1.47-6.12-1.78-7.35l-35.13-4.08a237,237,0,0,1,15,77.59,29.73,29.73,0,0,0,.8,4.91c.79,4.05,3.23,6.68,7.34,6.94s8-1.25,9.58-5.62a24.84,24.84,0,0,0,1.32-6.8C148.22,714.89,149.3,699,150.15,683.08ZM69.93,483.2c.83-8.79,3.46-17.55,2-27.12-8.31,9.65-15.91,18.49-23.86,27.71,6,5.59,11.84,4.12,17.28,3.64C67.05,487.28,69.77,484.81,69.93,483.2Z"/><path class="cls-2" d="M431,191.64c5.76,3.84,8.76,12.54,6.71,18.87-1.61,5-5.86,8.28-12.56,7.63-6-.58-8.87,1.78-12.15,6.26-9.05,12.35-21.12,14.58-31.83,6.14a19.84,19.84,0,0,1-5.72-8.65c-2.36-6.51-4.91-7.58-10.67-3.46-7.29,5.22-11.81,4.85-15.9-1.27-3.21-4.82-2.63-10.45,2.36-13.77,3.62-2.4,4.5-4.91,4.22-9.07-.59-8.92,2.4-12.72,11.47-13.82,4.61-.56,6.9-2.41,9.09-6.25s5.7-7,8.49-10.27l11.54,4.35c.78-1.37,1.56-3.76,3.15-5.31,7.69-7.46,15.32-6.46,21.78,2.25,3.54,4.78,5.62,10.13,4.73,15.78C424.87,186.38,427.17,189.08,431,191.64Z"/><path class="cls-3" d="M367.79,136.05c3.81,5.7,8,11.12,12.85,17.74-10.86,7.64-20.75,13.59-29.31,21.05-4.67,4.07-7.09,10.72-10.6,16.33-2.24-8.26-4.61-17.33-7.16-26.36-4.31-15.32-8.72-30.62-13.13-45.91-.27-1-.57-2.22-1.28-2.65-2.07-1.25-4.58-3.29-6.52-2.92-3.37.64-4.24,3.79-3.17,7.15,5.07,15.79,10.43,31.49,15.11,47.4,4.8,16.29,8.45,32.86,8.8,50,.07,3.23-.46,6.47-.79,10.67-3.46-1.71-6.09-2.95-8.66-4.28-8-4.14-16.44-4.64-25.26-3.84-4.79.43-9.71-.39-14.56-.82-4.61-.4-9.51-2.3-13.76-1.31-10.54,2.46-19.59-1.09-27.15-6.93-13.09-10.11-27.87-11.73-43.34-11.75-20.63,0-41.26.34-61.88,0-6.16-.12-12.24-2.45-18.42-3.35-13.44-1.94-26.48-4.92-38.65-11.4-2.57-1.36-6.47-.34-9.75-.22-3.91.13-7.82.47-12.52.78.22-2.74,0-4.73.57-6.38A208,208,0,0,1,90.1,124.56C103,108.05,116,91.6,130.45,76.5c16-16.73,32.22-33.5,53.21-44.56,9.07-4.78,17.4-11,26.27-16.14a23.84,23.84,0,0,1,10.13-3.56c21.3-1.24,42.26.66,59.95,13.84,10.05,7.48,18.92,16.68,27.67,25.75a191.34,191.34,0,0,1,19.75,23.73C341.22,95.49,354.3,115.91,367.79,136.05Z"/><path class="cls-2" d="M340.06,452.18c.64,3.29,2.31,6.76,1.77,9.85-3.73,21.29-7.15,42.78-23.51,59.1-10.08,10.07-28.61,20.71-39.06,21.83-.89-4.29-1.8-8.67-3-14.36,6.87,3.47,10.9-1,15.59-2.79,12.54-4.86,22.95-12.58,28.32-25.12a189.91,189.91,0,0,0,9.34-29.18,63.34,63.34,0,0,1,8-19.47Z"/><path class="cls-2" d="M335.45,251.84c2.42,4.91,2.95,10.75,4.34,16.17-.32,8.1-3.07,14.71-8.74,20a116.52,116.52,0,0,1-13,10.82c-10.53,7.21-21,7.7-30.89-1.5-1.93-1.78-4.4-3-6.62-4.46-5.8-3.87-11.42-4.81-17.32.13-5.39,4.51-11.61,4.7-17.82,1.77-8.4-4-17-5.75-26.15-3.23-6.55,1.8-11.45-1.42-16.36-5.25-5.75-4.48-11.91-8.42-17.87-12.62-3.62-2.56-6.89-2.89-10.94-.21-9.68,6.41-19,5.58-30,.88C126.92,267,109,261.6,89.31,264.92c-13.23,2.25-26.56.61-37.73-8.7a8.33,8.33,0,0,0-6.27-1.35c-4.14.86-8.52,1.89-12,4.07-4.79,3-7.47.69-10.18-2.51-4.38-5.17-5.28-11.74-4.74-17.87,1-11.37,5.16-22,11.14-31.74,3-4.85,7-8,13.22-6.85,3.74.68,6.64-1.46,10-2.57,11.9-4,24.41-8,35.34,3.11,3.66,3.7,7.91,5.17,13.57,4.13a28.24,28.24,0,0,1,22.76,5.11c4.82,3.64,9.74,3.17,15.14,1.61,5.08-1.46,10.37-2.94,15.59-3,18.62-.33,37.25-.25,55.88.07,4.57.08,9.19,1.39,13.63,2.65a11.06,11.06,0,0,1,5.63,3.77c9.12,12.59,21.19,17.11,36.26,13.84,5.44-1.17,10.41-.79,15.22,2.56,4.49,3.14,9,3.59,14.83,1.37C313.53,226.17,325.87,232.33,335.45,251.84Z"/><path class="cls-2" d="M317.64,310.9c2.46,18.57,1.29,35.81-1.81,52.81-1.87,10.24-11.1,14-20,15.45a330.82,330.82,0,0,1-40.61,3.9c-7.51.27-15.09-1.91-22.67-2.68-2.46-.25-5.47-.23-7.39,1-1.41.89-2.52,4.47-1.83,5.91a9.34,9.34,0,0,0,5.81,4.55c3.8.74,7.84.21,12.29.21,0,3.79.07,7.32,0,10.84a33.67,33.67,0,0,1-.64,7.87c-1.84,6.84-7.16,8.75-12.9,4.83-1.09-.74-1.85-2-3-2.68-4.12-2.62-7.77-1.78-10,2.39-1.09,2-1.61,4.37-2.59,6.48-4,8.63-10.13,10.64-18.49,5.71a112.22,112.22,0,0,1-11.32-8.11c-2.37-1.82-4.38-4.11-6.77-5.9-7-5.19-9.93-4.4-13.68,3.39-4.33,9-6.46,9.65-15.22,4.61a44.35,44.35,0,0,1-4.14-2.75c-7.44-5.56-7.44-5.58-15.57-.27-3.55,2.32-7.16,1.46-8.35-2-2.88-8.36-7.74-9-15.47-6.77-6.74,1.91-12.16-2.64-14.07-10.14A81.15,81.15,0,0,1,87.06,387c-.91-9.43,8.42-15.13,16.54-13.13,10.28,2.54,20.58,5.07,31,7.17a72.59,72.59,0,0,0,22,1.5c1-11.45,1-11.07-8.46-11.44a194,194,0,0,1-42.21-6.4c-21.79-5.8-43.67-11.32-65.3-17.67-7.2-2.12-14-6-20.55-9.86-6.85-4.07-10.26-10.9-8.77-18.72s3.45-15.74,7.07-22.64c5.37-10.25,12.48-19.66,22.41-26.12,2.37-1.54,6.4-1.76,9.27-1,7.34,1.86,14.45,4.61,22.69,7.34-.91,5.38-2,11.16-2.8,17-.32,2.24-.74,4.88.14,6.74.81,1.71,3.27,3.59,5.06,3.64s4.74-1.59,5.42-3.23c3.14-7.48,5.67-15.21,8.65-23.52,8.8-4.26,18.22.48,27.6.68,5.56.12,11.13,1.66,16.59,3a49.81,49.81,0,0,1,11.13,4.07c9.19,4.8,18.39,5.74,27.64.67,6.27-3.44,11.88-3.4,17.28,1.55,1.7,1.57,3.67,2.85,5.46,4.35,6.83,5.71,13.21,12.19,23.54,12.86-.27,3.46-.36,6.39-.76,9.28-.57,4,1.25,6.43,5,7.39,3.91,1,6.61-.84,7.49-4.54,1.11-4.6,1.63-9.35,2.57-15,2.13.56,5.37.91,8.14,2.23,9.49,4.54,18.75,4.13,27.66-1.06,4.12-2.4,7.51-1.88,11.07.65,1.63,1.15,3.38,2.15,5,3.35,8.15,6.18,17.05,8.73,27.16,5.92C313.26,311.5,314.88,311.37,317.64,310.9Zm-128.19,6.89c2.58-4.15,2-6.84-2.13-9.06-2-1.07-4.31-1.39-6.26-2-8.39,9-12,9.51-21.47,3.63-.56-.35-1.11-.73-1.67-1.08-7.65-4.86-8.6-4.78-15.38,1.34-7.23,6.52-9.9,6.61-17.63.45-2.48-2-4.88-3.58-7.85-1,1.48,17.39,12.83,20.94,33.47,10.45,4.83,2,9.67,4.15,14.65,6C176.39,330.61,185.78,323.69,189.45,317.79Z"/><path class="cls-2" d="M304.57,592c3.53,11.4,11.2,21.36,7.21,34.22C309.15,634.69,302.44,637,296,631c-3-2.82-4.46-7.21-6.94-10.66-1.42-2-3.25-4.35-5.33-4.89-1.27-.34-3.83,2.15-5,3.91-2.18,3.29-3.62,7.07-5.66,10.46-.92,1.52-2.36,3.38-3.88,3.74-3.89.9-5.58,3.2-6.13,6.85-.77,5.07-4.26,5.77-8.08,4.14-6.09-2.59-12-5.63-17.84-8.76-6-3.24-9.95-2.08-12.64,4.15-6.66,15.44-8,16-23.47,10.51-8.33-2.92-13.94-8.71-18.18-16.17-2.75-4.85-5.65-9.62-8.4-14.28-7.17.4-8.62,4.33-10.55,8.41-3.89,8.21-9,15.36-18.49,18.24-6,1.83-12,2.09-17.6-.21a151.2,151.2,0,0,1-22.21-11.06c-9.14-5.67-9.61-6-17.18,1.92-3.88,4.06-8.8,4.9-13.77,3.36-8.31-2.56-15-6.85-16.35-16.72-1.4-10.11-2.76-19.92,6.58-28l9.9,2.41,6.79-6.81-4-10.45c9.89-11.62,13.68-9.92,23.35-5.95,3,1.25,5.4,4.57,7.6,7.33,3.52,4.41,6.42,5.1,10.75,1.72,1.3-1,2.18-2.58,3.51-3.53,5.13-3.64,10.53-2.16,13.18,3.53a8.87,8.87,0,0,1,.7,2.89c.36,4,2.84,6.64,6.42,6,2.26-.39,5.47-3.36,5.77-5.51,1-7.73,6.71-9.34,12.58-10.79,6.51-1.6,9.71-.06,13.28,5.66,1.05,1.68,1.86,3.63,3.26,4.94,3.68,3.44,8,2.56,9.09-2.36,1.25-5.42,3.36-9.22,9.3-10.33,4.31,3.09,5,7.57,5.06,12.32.12,9.35.83,9.92,11,8.32.26-2.05.59-4.25.81-6.47,1.33-13.67,8-14.81,19.36-11.71Q243.07,580,253.53,583c5,1.42,8.83.73,11.77-4.37,1.42-2.47,4.73-3.86,7.18-5.73,4.1,2.48,3.65,8.4,9.23,7.86,1.57-.16,3.9,2.48,5.08,4.35C290.82,591.5,296.37,593.92,304.57,592Z"/><path class="cls-2" d="M270.52,723.4c.67,9.32-2.25,13.55-13,16.43-8.85-29.72-8.5-61.53-21.47-91.26l29.25,6.94c.36,2.87,1.08,7,1.37,11.25C268,685.64,269.15,704.52,270.52,723.4Z"/><path class="cls-3" d="M262.56,509.81c5.45,17.87,7.7,36.08,11.22,53.32-5.73,3.37-11.24,6.69-16.83,9.87-3.54,2-7.11,3.33-11.34,1.3-3.87-1.86-8-3.1-12.09-4.58-8.35-3.06-16.3-3.16-23.58,3.82-4-3.74-6.32-10.76-12.78-9.53-5.33,1-10.25,4.25-16.85,7.16-11.68-8.86-23.59-2.41-36.68,4.51-8.44-8.89-17.75-8.08-27.63-2.2-11.42-11.13-25.32-9.27-39.35-7.26-.4-1-1.07-1.89-1.05-2.77.41-20.3-.35-40.74,2-60.83,1-8.55,2.18-16.67,1.6-25.38-.59-8.87.9-17.94,2-26.85,1.38-11.14,3.29-22.21,5-33.47,6.56,1.17,12,1.89,17.36,3.22a12.12,12.12,0,0,1,5.64,3.74c6.11,6.9,13.94,7.78,22,5.61,4-1.08,6.89-.81,10.27,1.14,13.33,7.7,19.47,6.55,30.46-5.75,4.27,2.83,8.8,5.5,13,8.66,14,10.62,29,6.34,36.67-7l18.67,2.63,2.92,10.29c-8.82-1.57-11.86,4.2-13.71,9.72-2.28,6.82-4.68,14.36-3.93,21.25a137.32,137.32,0,0,0,7.9,33.67c4.33,11.44,14.15,13.57,25.31,7.49C259.51,511.14,260.43,510.78,262.56,509.81ZM154.12,493.73c15.83,0,25.37-11.47,21-26.14-1.26-4.2-4.33-8.23-7.5-11.4-12-12-12.16-11.87-25.77-2.67-7.94,5.38-11.21,16.73-7.92,27.57C136.44,489.39,143.33,493.71,154.12,493.73Zm11.29,29.48c.22-11.74-4.73-16.3-16.3-15.44-1.32,0-2.64-.08-4,0-9.5.69-13,3.8-14.73,12.9-1.81,9.72,3.52,17.91,14.8,22.76,8.67,3.73,14.87,1.3,18-7.66A41.09,41.09,0,0,0,165.41,523.21Z"/><path class="cls-2" d="M253.76,496.15c1,4.41-1.5,9.87-4.46,9.34-2.72-.49-6.65-3-7.19-5.27-2.33-9.88-3.76-20-5.17-30.06-.39-2.79.41-5.75.66-8.63l2.16-.67C245.5,472.17,251,483.62,253.76,496.15Z"/><path class="cls-1" d="M187.32,308.73c4.09,2.22,4.71,4.91,2.13,9.06-3.67,5.9-13.06,12.82-24.27,8.75-5-1.81-9.82-4-14.65-6-20.64,10.49-32,6.94-33.47-10.45,3-2.62,5.37-1,7.85,1,7.73,6.16,10.4,6.07,17.63-.45,6.78-6.12,7.73-6.2,15.38-1.34.56.35,1.11.73,1.67,1.08,9.5,5.88,13.08,5.33,21.47-3.63C183,307.34,185.36,307.66,187.32,308.73Z"/><path class="cls-1" d="M175.11,467.59c4.38,14.67-5.16,26.18-21,26.14-10.79,0-17.68-4.34-20.2-12.64-3.29-10.84,0-22.19,7.92-27.57,13.61-9.2,13.76-9.35,25.77,2.67C170.78,459.36,173.85,463.39,175.11,467.59Zm-8,6.45c.06-6.25-7.06-13.42-13.51-13.61-5.79-.17-12,6.18-12,12.3,0,5.46,7.54,12.15,13.76,12.2C162,485,167,480.29,167.09,474Z"/><path class="cls-2" d="M153.58,460.43c6.45.19,13.57,7.36,13.51,13.61S162,485,155.37,484.93c-6.22-.05-13.76-6.74-13.76-12.2C141.61,466.61,147.79,460.26,153.58,460.43Z"/><path class="cls-1" d="M149.11,507.77c11.57-.86,16.52,3.7,16.3,15.44a41.09,41.09,0,0,1-2.22,12.58c-3.1,9-9.3,11.39-18,7.66-11.28-4.85-16.61-13-14.8-22.76,1.7-9.1,5.23-12.21,14.73-12.9C146.47,507.69,147.79,507.77,149.11,507.77Zm3.7,26.37c.66-4.76,1.19-8.63,1.79-12.91l-12.15-2.57C141,528.68,141.7,529.91,152.81,534.14Z"/><path class="cls-2" d="M154.6,521.23c-.6,4.28-1.13,8.15-1.79,12.91-11.11-4.23-11.84-5.46-10.36-15.48Z"/><path class="cls-2" d="M150,665.2a154.58,154.58,0,0,1,.11,17.88c-.85,15.91-1.93,31.81-3,47.71a24.84,24.84,0,0,1-1.32,6.8c-1.6,4.37-5.33,5.89-9.58,5.62s-6.55-2.89-7.34-6.94a29.73,29.73,0,0,1-.8-4.91,237,237,0,0,0-15-77.59l35.13,4.08C148.57,659.08,149.84,662.1,150,665.2Z"/><path class="cls-2" d="M71.92,456.08c1.47,9.57-1.16,18.33-2,27.12-.16,1.61-2.88,4.08-4.59,4.23-5.44.48-11.28,1.95-17.28-3.64C56,474.57,63.61,465.73,71.92,456.08Z"/></g></g></svg>