<svg xmlns="http://www.w3.org/2000/svg" viewBox="0 0 973.39 945.48"><defs><style>.cls-1{fill:#cfaa89;}.cls-2{fill:#fff1d2;}.cls-3{fill:#895e29;}.cls-4{fill:#fff;}.cls-5{fill:#83ac75;}.cls-6{fill:#f0b897;}.cls-7{fill:#f0485b;}.cls-8{fill:#bf7c52;}.cls-9{fill:#ffd630;}</style></defs><g id="レイヤー_2" data-name="レイヤー 2"><g id="レイヤー_1-2" data-name="レイヤー 1"><path class="cls-1" d="M638.45,20.69S619.23,226,629.76,231.13s79.06-.53,87.3,16.3,12.23,72.84,12.23,72.84-3,344.72,0,366.86-29.13,100-29.13,100L488.92,846.43,95.64,945.48S9.27,913.39,8.78,876.33s-19.51-110.24,0-150.65-16.52-107.55,16-141.48S38,498.09,79.65,460.68s77.64-152.41,75.64-184.41,63.05-205,130-211.49,94-61.51,160-64.51S638.45,20.69,638.45,20.69Z"/><path class="cls-2" d="M634.66,229.51,234.29,347.27l-37,9s-44.67,9.91-50,25c-6,17,26.25,4.93,26.25,4.93s-4.25,34.07,12.75,52.07c11.3,12,42.78,13.59,42.78,13.59l505-136.71-15.79-69.88Z"/><path class="cls-3" d="M973.39,787c-.16,2.24.14,6.36-1,10-.56,1.82-3.75,2.84-5.75,4.22-1-1.88-2.94-3.85-2.76-5.62.71-7.3.43-14.38-2.08-21.35-1.12-3.12-.85-6.07,3.08-6.94,3.44-.75,6.15,1,6.83,4.19C972.69,776,972.76,780.67,973.39,787Z"/><path class="cls-3" d="M950.68,782.17c3.07,10.55,4.78,21.2,1.66,32.15-1.15,4-3.45,5.65-7.24,4.44-4.09-1.31-3.09-4.5-1.88-7.36,3.44-8.13,0-16.34.42-24.5.15-2.55,1.1-5,2-8.79C948.32,780.22,950.32,781,950.68,782.17Z"/><path class="cls-3" d="M246.87,456.55l.64-.11.38-.14c10.34-.21,21,1.06,30.88-1.23,9.36-2.18,18.46-2,27.65-1.91,10.9.11,21.8,1.49,32.7,2.31,2.29.17,4.86,1.06,6.82.33,11.35-4.25,22.51-9.05,33.85-13.34,9.59-3.63,19.2-7.36,29.06-10.09,25-6.89,50.23-12.77,75.11-19.95,25.61-7.4,51.24-14.16,78.08-14.83,5.92-.15,10.1-2.23,12-8.38,1.74-5.77,6.11-8.24,12.11-8.41,9.29-.26,18.6-.47,27.85-1.32,5-.46,9.88-2.21,15.07-3.44l-14-17.58c-3.26.17-6.89.29-10.52.57-11.69.89-22.88,4.55-34.5,6.23-17,2.46-33.69,7.43-50.39,11.76q-45.83,11.89-91.49,24.39c-9.27,2.54-18.14,6.48-27.36,9.28-13.95,4.24-28,8-42.07,12-28.15,8-56.35,15.82-84.43,24.07-8.95,2.63-17.59,6.3-26.37,9.52h-.49Zm695.9-74.11c4.29,15,9.84,29.63,9.51,45.65-.29,13.62-4.53,26.3-9.62,38.43-3.21,7.62-10,13.74-16.31,22.05a9.65,9.65,0,0,1,.51,4.4c-3.64,21.95-.3,43.82.51,65.72.8,21.61.84,43.26,2.36,64.82,1,13.85,3.88,27.59,6.2,41.33,2.38,14,5.08,28,7.68,42,.58,3.12.59,5.88-2.54,7.88-3.61,2.32-6.82,5.37-10.63,7.25-10.65,5.29-21.53,10.14-32.91,15.43.81,5.82,2.12,11.68,2.32,17.57.46,13.57,1,27.2.34,40.73-.73,13.91-2.77,27.76-4.53,41.6-1.51,11.81-13.2,24-23.35,25.67-9.23,1.51-14-2.09-14.28-10.75-.39-12.82-5.14-23.61-11.81-36.09-2.35,12.25-4.19,23.1-6.57,33.83a76.2,76.2,0,0,1-5.43,17c-3.69,7.51-9.92,9.8-18.33,8.12-5.4-1.08-8.74-5.49-9.68-13.42-1.2-10.08-4.83-19-10-27.86-7.94-13.76-13.94-28.63-21.5-42.63-5-9.32-11.29-18-17.12-26.86a8,8,0,0,0-3.67-3.26c-10.69-3.33-21.45-6.42-32.15-9.58-2.64,8.43-5,15.45-7,22.57-2.89,10.2-4.59,11.06-14.63,13.13-14.57,3-28.93,7-43.37,10.67-3.53.89-7.06,1.75-10.53,2.83-13.25,4.14-26.54,8.17-39.7,12.59-16.7,5.61-33.46,11.12-49.87,17.5-12.66,4.92-24.9,11-37.18,16.82-5.29,2.52-9.9,6.79-15.36,8.57a86.22,86.22,0,0,1-21.33,3.62c-1.78.11-4.41-3.55-5.56-6-1.07-2.26-.93-5.21-.91-7.85.09-10.53.58-21.07.46-31.59a175.38,175.38,0,0,0-1.65-20.86c-.27-2-2.29-3.86-3.64-5.67-4-5.3-8.23-10.39-11.91-15.86-2-3-4.08-4.15-8.5-2.34,1.32,24.1,3.63,48.37,8.77,71.74,1.29.86,1.81,1.5,2.38,1.55,4.14.35,8.19.94,9.17,5.94s-2.68,6.65-6.48,8.52c-2.57,1.27-4.53,3.83-6.69,5.89-2.76,2.61-5.68,3.67-9.76,3.81-5.5.19-11,2.11-16.37,3.57-11.54,3.11-23.13,6.12-34.52,9.7-18.8,5.91-38,9.59-57.49,12.26-14.16,1.94-28.3,4-42.39,6.43-5.89,1-11.78,2.69-13.32,11.4l-11.7-6.8c-23.57.22-46.79,8.69-70.48,14.85-5.46,1.41-10.92,2.86-16.33,4.48-2.86.86-5.63,1.09-6.58-2.18-.89-3.09.15-6,3.62-7.23,2.45-.85,5-1.45,7.35-2.11-4.43-21.24-8.74-42-13.11-62.9L154,852.43c-1.36,5.54-2.42,12.47-.88,19.79A118.47,118.47,0,0,1,155.37,889c.29,4.46-.55,8.59-6.21,9.76-12,2.49-21.71,9.86-32.16,15.63-1.46.81-2.77,1.85-4.17,2.75-3,1.94-5.88,1.85-7.38-1.74s.76-5.16,3.81-6.76c9.92-5.23,19.78-10.6,29.33-16.46,2.48-1.52,5.39-5.1,5.27-7.61-.51-11.19-2-22.33-3.27-34.2-4.2.36-7.12.49-10,.87-13.41,1.78-27,3-40.17,5.76-6.15,1.31-12.13,5.2-17.22,9.16-4.6,3.58-7.39,9.43-11.87,13.23a209.22,209.22,0,0,1-22.37,16.3c-3.21,2-5.6-.29-5.93-3.86,6.06-4.84,12-9.57,17.91-14.35,1.28-1,2.91-2,3.53-3.43,5.68-13,16.68-19,29.37-22.9,1.48-.45,2.74-1.6,5-3-8.55-5.31-16-10.42-21-18.5-6-9.57-7.81-19.71-6.6-30.57.37-3.35.95-4.81,3.13-5.24a24,24,0,0,1,6.43.21c-5.09,20.73,3.73,36,21,45.82,14.78,8.41,30.48,8.85,45.59-3.56q-5-23.56-10.25-48.56c-21.43-2.6-42.4-.39-63.26,3.59-1.56.29-3.12.6-4.68.91-9,1.82-16.81-1.88-23-7.21-6.82-5.82-12.09-13.55-11.27-23.47,1.47-17.91,5.71-34.79,19.59-47.57,3.49-3.2,5.4-7,4.72-11.51C46.94,687.71,52.24,677.17,66,671c1.14-.52,2-1.69,3.41-3-2-4.09-4.71-8-5.82-12.24-1.07-4.09-.88-8.64-.58-12.93,1.16-16.46,5.08-32.71,13.23-46.65,5.36-9.14,8.18-18.28,11.06-28,2.31-7.81,6.56-15.15,10.6-22.33,6.26-11.11,15.42-19.89,24.74-28.4,2.12-1.94,5-3,8-4.74-.53-6,3.09-9.8,7.69-13.7,17.22-14.61,37.53-22,59.11-26.85a21.3,21.3,0,0,0,5.23-2.36c3.45-1.87,6.78-4,10.27-5.75,3.31-1.7,7.28-1.85,8.07-7.24.3-2,5.05-4,8.1-4.9,22.63-6.68,45.36-13.05,68-19.62,6.7-1.94,13.27-4.36,20-6.28,25.55-7.33,51.21-14.28,76.68-21.89,20-6,39.72-13,59.72-19,9.18-2.76,18.82-4,28.1-6.43,18.29-4.87,36.42-10.39,54.74-15.15,24.06-6.24,48-13,72.75-16.29.58-.08,1.08-.72,1.61-1.1.21-.63.74-1.36.56-1.86-4-11.38,1.82-20.47,6.87-29.74,3.74-6.86,9.19-9.45,17.5-8.79,6.91.55,9.91,4.92,11,10.95,1.18,6.73,1.88,13.54,2.81,20.52a150.41,150.41,0,0,0,55.65-16.06c2.06-1.05,4.11-2.17,6.26-3,10.33-4.09,10.79-4.67,10.84-16.08.07-16.48-4-32.24-8.4-49-4.48,0-9.08-.68-13.42.11-25.17,4.55-50.32,9.26-75.4,14.34-9.08,1.84-17.82,5.39-26.9,7.21-24.13,4.83-47.64,11.88-71.21,18.75-12.43,3.62-24.58,8.25-37.07,11.63-11.21,3-22.86,4.45-34.06,7.49-16,4.36-31.75,9.93-47.8,14.25-14.33,3.85-29,6.61-43.41,10-19.69,4.63-39.72,7.49-58.74,15.24-19.56,8-40,13.88-60,20.83-14.38,5-28.67,10.28-43,15.28-3.12,1.08-6.54,1.27-9.71,2.25-5.95,1.86-11.93,3.72-17.67,6.13-3.16,1.33-5.84,3.41-9.12-.75,2.44-7.53,8.47-11.28,15.61-13.35,13.08-3.8,26.35-6.92,39.39-10.84,10.16-3.06,20.1-6.84,30.11-10.39,22.82-8.09,45.3-17.41,68.55-24,18.07-5.11,36.54-9.67,55.81-9.72,8.73,0,17.56-2.89,26.17-5.14,9.58-2.5,19.08-5.45,28.42-8.75,24.54-8.65,50.4-12.32,75.11-20,12.64-3.94,25.63-7,37.93-11.68,19.41-7.42,39.71-10.94,59.75-15.49,29.45-6.69,59.13-12.35,88.69-18.56,2.09-.44,4-1.79,5.8-4.21l-57.22-7.9c-17.79,6.74-36.87,13.27-57.81,11.62,4.24-5.68,10.66-6.92,16.57-9,6.9-2.39,14-4.23,20.91-6.6,4.42-1.52,7.07-4.34,6.73-9.7-.65-10.28-1.07-20.6-1-30.9,0-12.28-.17-24.64,1.08-36.83,2.18-21.2,5.12-42.32,4-63.71-.09-1.67,0-3.34-.12-5-.16-3.34.87-6.94,4.47-6.11,2.41.55,5.1,4,5.82,6.71.79,3-.62,6.53-.87,9.84-1.63,21.89-3.65,43.75-4.66,65.66-.6,13.27.25,26.61.71,39.91.23,7,1.08,13.88,1.56,20.82.27,3.92,2.47,6.23,6.1,6.84,6.21,1,12.47,1.81,18.73,2.5,8.91,1,18,1.2,26.72,2.86,9.95,1.88,19.76,4.5,29.76,6.33,2.65.49,5.52,5.34,6.41,8.68,1.85,7,2.52,14.31,3.54,21.51.92,6.54,1.69,13.11,2.46,19.67.91,7.83,1.75,15.68,2.7,24.24,3.58-.93,6.36-1.77,9.19-2.37,13.45-2.83,20.35.08,27.76,11.69,2.81,4.41,5.6,8.85,8.3,13.34s5.32,9.13,8.08,13.9c9.51-.58,19.06-1.61,28.62-1.62a257.86,257.86,0,0,1,30.82,1.65c6.91.83,12.09-.79,17.18-5.42,10.56-9.63,21.48-18.86,32.37-28.11,7-6,14.18-5.47,19.85,2.05A71.68,71.68,0,0,1,926,337.48c3.31,8.64,5.12,17.84,8.08,26.63C936.24,370.51,935.8,378.28,942.77,382.44Zm-5,71.2c8-24.59,5.88-47.61-8.44-69.34a13.18,13.18,0,0,1-1.62-4.42c-1.71-7.74-2.48-15.82-5.19-23.18a132.23,132.23,0,0,0-12.33-24.78c-3.38-5.35-6.7-5.2-11.63-1.26-11.13,8.91-23,17.11-30.74,29.5-3.12,5-6.49,5.13-11.74,4-21.59-4.68-43.3-7.35-65-.49a28.18,28.18,0,0,1-6.87,1c-3.43.19-5.94-1.24-6.17-5-.73-11.42-8.31-19.43-14.4-27.93-7.74-10.8-17.38-11.74-28.54-3.74-19.48,14-34.28,32.24-47.23,52.12a13.23,13.23,0,0,0-2.16,7.42c.35,6-2.1,10.41-6.42,13.88-10.1,8.14-14.24,19.82-18.75,31.23-1.3,3.27-1.29,7-1.87,10.57l7.27,4.25a15.82,15.82,0,0,0,2.86-1.84c7.06-7.54,11.22-7.46,16.59,1.12,3.87,6.17,8.53,7.3,15.25,5.18,5.29-1.67,9.56.75,10.57,4.63,1,3.68-2.51,7.09-8.2,8-.65.11-1.33.06-2,.13-9.39,1-17.83-1-24-7.8l-15,4.06c5.67,6.7,15.28,13,27.14,17.17,24.08,8.41,48.43,15.71,73.6,20.46,24.47,4.62,48.64,10.83,73,16.16,14,3.07,27.6,3.06,39.58-6.13-.1-.83-.21-1.67-.31-2.5-5.85.54-11.7,1.09-17.55,1.6-2.64.23-5.5,1.07-7.86.34-2.14-.67-4.88-2.89-5.22-4.81-.29-1.62,2.12-4.27,4-5.57s4.35-1.71,6.62-1.92c9.27-.86,18.55-1.47,27.83-2.21s18.62-1.67,26.47-7.51c2.87-2.15,5.13-5.39,8.26-6.86C928.58,474,934.06,465,937.74,453.64Zm-4.51,252.43c-3-34.32-11.58-68.29-12.27-103.28-.69-34.78-3.33-69.52-5.15-104.89-10.69,3.69-20.07,10.5-29.23,17.39-14.07,10.6-29.78,15.17-46.86,12.17-14-2.46-27.6-7.19-41.45-10.62q-37.24-9.25-74.6-18.11c-4.5-1.06-9.21-1.21-13.81-1.91a26.58,26.58,0,0,1-6.74-1.56c-13.66-6.07-27.24-12.3-40.86-18.47-2-.88-3.94-1.69-6-2.56-5.93,10-4.27,20.75-6.17,30.75-.24,1.25,1,3.13,2.09,4.24,8.19,8.63,16.18,17.54,28.8,22.7,0,12.26-.28,24.79.13,37.28.18,5.51,1.89,11,2.64,16.47a27,27,0,0,1-.26,6.53c-.21,1.93-1.06,3.84-1,5.75.85,34.49,1.81,69,2.7,103.49.26,9.9.4,19.81.57,28.54,15.91,4.54,30.94,7.67,45.07,13.12,25.35,9.75,51.2,10.65,77.57,7.46,13.84-1.67,27.67-3.49,41.42-5.7a67.7,67.7,0,0,0,17.2-4.79C889.35,729.92,912,720.35,933.23,706.07Zm-45,117c2.09-20.82,3.76-41.54,2.49-62.4-.37-6-.11-12.64-5.13-18.09-12.71,5.74-25.23,11.76-39.49,12.41-3.43.16-4.14,3.54-3.77,6.92.74,6.9,1.08,13.84,1.83,20.74.29,2.58.66,5.48,2,7.54,8.63,13,14.71,27.14,19.91,41.71,2.27,6.36,4,12.93,6.21,20.37C879.19,842.86,887,835.85,888.26,823.11Zm-56.8,12.65c7.28-25.77,2.75-51.37-.59-77-.06-.48-1-.86-.71-.66l-60.39,5.35c6.2,10.95,12.12,20.93,17.57,31.16,7,13.18,13.26,26.76,20.55,39.77,4.28,7.62,8.41,15,9.09,23.93.16,2,1.82,3.81,2.78,5.69,6.09-1.7,8.1-5.72,8.93-10.52C829.7,847.58,829.84,841.47,831.46,835.76Zm-114.41-506-1-1.71c-21.34,13.47-46.47,14.09-70.93,22.64-.92,6.61-2,14.29-3.23,23.34,20.41-2.26,22.92,11.79,26.26,24.92,8-6.9,7.9-6.92,9.41-16,.53-3.21,1.18-6.79,3-9.33,6.19-8.61,12.72-17,19.49-25.16C705.44,342,711.37,336,717.05,329.76Zm-9.34,425c1.7-4.49.67-7.69-4-9.56-5.53-2.2-11.06-4.29-17.38-1.85-2.3.89-7.27.47-7.93-.87-3.24-6.6-8.29-4.34-12.88-3.34-11.66,2.53-23.31,5.15-34.83,8.27-10.46,2.82-20.74,6.34-31.68,9.74,3.54,15.5,6.81,29.86,10.21,44.75,3.43-1,5.73-1.41,7.76-2.36,16-7.46,33.35-10.81,50.12-15.91,8.56-2.6,17.24-4.84,26-6.86,6.59-1.54,10.52-4.91,11.4-11.94C704.86,761.39,706.46,758.07,707.71,754.76ZM675.37,725V682.84l-37.22,4.79c2,11.13,3.94,21.07,5.52,31.07.66,4.22.58,8.55.88,13.45ZM675,671.27c-.27-25.21.13-50.2-1.75-76C638.32,600,606.09,609.5,573,619.47c5.53,23,10.9,45.33,16.28,67.66C618.79,682.8,647.43,681.48,675,671.27Zm-3.18-118.55c.76-11.07-6-15.63-12.82-20-6.48,4.81-12.32,8.94-17.94,13.34q-22.63,17.73-45.11,35.67c-10.77,8.59-21.45,15.9-36.82,12.5-6.67-1.48-11-4.23-14.13-9.43-3-5-5.43-10.47-8.43-16.37-6.16,5-15.32,2.11-20.1,8.66,3.42,14.93,6.72,29.31,10.45,45.56l146.2-40.62C672.55,571.87,671.14,562.23,671.78,552.72ZM646.57,409.3c9.93-3.59,12-10.48,6.54-18.45-2.78-4-6.76-4.94-11.35-4.58-18.83,1.48-37.66,2.83-56.47,4.4-1.78.15-4.42,1.09-5,2.41-3,6.41-4.83,13.23-2,20.16,1.47,3.57,4.39,5.69,8.72,5.07,5.22-.75,10.51-1.09,15.7-1.95,8.46-1.41,16.87-3.1,25.3-4.67.09.49.19,1,.28,1.47C634.4,411.92,640.77,411.39,646.57,409.3ZM645,452.55l10.91-35.19L583.68,432c2,12.78,3.55,23.58,5.36,34.35a60.88,60.88,0,0,0,3,12.54c3.57,8.92,2.09,14.35-4,21.15-6.83,7.67-17.61,12.4-19.07,24.37-.11.88-1.95,1.6-3,2.3-15.08,9.61-22,32.33-14.69,48.2,3.77,8.18,17.32,12.1,24.75,7.08,4.64-3.14,9.27-6.32,13.7-9.75q21.16-16.43,42.17-33c6.51-5.11,12.92-10.31,15.89-19.53-3-2.76-6.38-5.48-9.35-8.58-7.8-8.17-15-16.64-20.59-26.73-4.41-8-3.51-15.13-.6-22.81,2.08-5.49,5.86-8.83,11.91-9C634.7,452.46,640.23,452.55,645,452.55Zm-5.85,42.31L650,464.11c-5-1-10.09-2.46-15.24-2.77-6.29-.37-9,2.53-9,8.9C625.71,480.44,631.47,487.4,639.13,494.86Zm-2.7-149a41.43,41.43,0,0,0,.86-22.53c-.48-2.07-3-4.36-5.14-5.2-3.18-1.26-4.53,1.59-5.59,4.18a57.5,57.5,0,0,1-2.6,5.36c-5.77,10.78-2.65,26.68,7.22,35.95C632.93,357.58,634.5,351.64,636.43,345.81Zm-8.12,390.51c4.81-36.76,1.82-36.88-3.76-46.51-8.6,1-17.56,1.43-26.26,3.16-7.15,1.43-13.3,7.43-21.5,4.57-1-.34-2.43.88-3.69,1.28-3.76,1.18-7.52,2.37-11.31,3.46-6.62,1.9-13.27,3.73-19.67,5.53-.07,10,9.83,47.05,14,53.42ZM598.4,807c-1-8.2-1.81-15.65-2.88-23-1.12-7.77-2.53-15.49-6.84-23.3-13,4.09-25,7.79-37,11.65-6.93,2.24-14.07,4.13-20.6,7.25A369.17,369.17,0,0,0,497,797.72c-4.44,2.72-9.62,7.6-10.43,12.2a79.38,79.38,0,0,0,2.31,36.52c5.92-1.1,11-2,16-3,1.28-.24,3.06-.15,3.73-1,4.19-5,10.67-4.75,15.92-7.26,8-3.85,15.92-8.19,24.23-11.35,12.38-4.71,25.09-8.57,37.65-12.8C590.47,809.75,594.48,808.37,598.4,807ZM565.16,508.57c10.09-12,20.64-22.23,12.13-39.29l-29.15,6.3C551.17,488,559.2,497,565.16,508.57ZM576.05,456c.78-17.52-6.2-33.16-9.81-50.83-2.9,0-5.54-.31-8.09,0-19.76,2.73-39.48,5.47-58.66,11.34-15.88,4.87-31.79,9.91-48,13.26-23.78,4.91-47,11.33-69.37,20.73-1.87.79-3.43,2.29-5.14,3.46,6.65,1.65,12.82,1.49,19,1.69,8,.25,14.61,4.11,15.12,10.33.63,7.73,5.58,9.51,11.36,11.65,9.91,3.67,19.58,8,29.52,11.57a15,15,0,0,0,8.59,0c11.54-3.19,22.89-7,34.44-10.18,25-6.77,50-13.21,75-19.91C572.13,458.61,574,457.11,576.05,456Zm2.86,233.5c-4.11-18.86-7.72-36.45-11.89-53.9-1.11-4.62-4-8.83-5.94-13.1-8.59,2-16,3.54-23.34,5.46-2.42.64-5.21,1.69-6.74,3.48a9.69,9.69,0,0,1-9.82,3.42c-6.35-1.23-11.84,1.17-17.31,3.46-10.68,4.49-21.24,9.29-32.75,14.35,3.39,20.37,6.74,40.56,10.24,61.6,3.06-.27,6-.15,8.81-.84,5.79-1.44,11.5-3.23,17.2-5,8.52-2.66,16.91-5.85,25.55-8,6.39-1.61,13.22-1.44,19.62-3C561.4,695.23,570,692.2,578.91,689.5ZM552.32,524.56c3.92-4.75,4-8.47,1.63-13.42-4.21-8.65-8.17-17.42-12.26-26.13-3.36-7.12-4.61-7.43-12.39-5.2-15.62,4.46-31.37,8.48-47,13-7.14,2.08-14.87,3-20.79,8.09a51.21,51.21,0,0,0,.57,6.43c2.82,12.46-1.2,22.7-9.52,32-4.83,5.39-8.88,11.49-13.55,17.63,2,2.95,4.82,5.42,5.46,8.38,1.86,8.59,7.77,8.94,14.47,8.17,11.84-1.37,23.63-3.4,35.5-4.2,13.08-.87,24.71-6.41,36.77-10.41,3.7-1.23,8.43-4.11,9-9.62C541.33,539.61,546.47,531.65,552.32,524.56Zm-10.75,231.3C542.28,741,536.35,728,531,714.79c-1.53-3.79-4.34-4.81-8-3.6-5.9,1.93-11.86,3.7-17.61,6-8.21,3.31-16.24,7.06-24,10.47,1.14,18.42,2.18,36.27,3.41,54.11.19,2.75,1.27,5.43,2.19,9.18l55.54-26.16C542.2,762.3,541.42,759.06,541.57,755.86Zm-24.2-131.65c-2.91-13.5-5.53-26.09-8.37-38.64-1.42-6.26-3.84-8.43-10.23-8.52a140.08,140.08,0,0,0-44.61,7c10.15,18.25,13.47,37.74,16.25,58.73ZM475.25,772.55c-.78-8.42-1.53-16-2.15-23.53-1.41-17.18-2.23-34.44-4.29-51.54-1.94-16.11-5.07-32.09-7.86-48.09-2.26-13-4.21-26.14-7.36-38.95-3.76-15.26-12.76-28.18-20.15-41.55-12.3-.43-12.58-.84-9.2-13.07-18.28-12.76-38.2-20.16-61-19.21a12.28,12.28,0,0,0,0,3c8.22,23.57,12.08,48.17,16.76,72.54,2.87,15,4.75,30.12,7.16,45.17,1.5,9.31,4.48,17.89,11.35,24.88,7.22,7.34,14.11,15,21,22.65,12,13.27,24.94,25.76,33.9,41.52,2.65,4.66,6,8.73,11.71,8.14C470,759.88,463.78,769.7,475.25,772.55ZM451.94,521.3c1.35-4.13,2.41-9.29.36-13.3-.68-6.69-12.39-12.16-11.54-12.55-5-2.71-9.22-5.43-13.77-7.3-5.43-2.23-11.15-3.72-17.95-5.92-1.18,11.65-11.26,19.39-11.42,32.93,0,.27-4.48,10.57-5,10.68-1.56.35-2.8,2.15-4.73,3.72,15.45,6.12,31.5,8.5,44.58,18.68C442.31,541.51,448.41,532.12,451.94,521.3ZM451.33,849c-3.66-25.73-7.24-50.83-11-77.2l-14.94,5.86c4.27,26.21,1.91,52.55,8.43,78.69ZM435,765c3.72-.88,5.47-3.31,5-7.37-1.48-13.19-5.19-25.16-17.44-33.24-2,12.84-9.32,19.64-21.88,20.78a39.77,39.77,0,0,0-7.84,1.32c-6.87,2.08-13.66,4.42-21.59,7l7.9,4.76c-1.13,8.63-2.07,15.9-3.25,25l40.41-13c-1-6.16-2-11.32-2.53-16.53-.51-4.62,2.1-8.62,5.38-7.69,2.64.75,4.89,3.7,6.73,6.12.77,1,0,3.18-.08,4.82-.17,2.63-.4,5.26-.72,9.38C429.25,765.78,432.2,765.68,435,765Zm-13.17,97.94c-.45-15.47-.48-28.94-1.35-42.35s-1.31-26.78-4.91-41l-38.7,13.41c2.88,27.89-.31,55.15,6,83.28C396.2,869.46,410.54,868.15,421.83,862.94ZM403,735.85c7.77-2.34,11.28-10.84,5.86-15.17a143.48,143.48,0,0,0-21.17-13.52,18.4,18.4,0,0,0-22.16,3c-.5,5.84-1.54,11.79-1.39,17.71.22,9.07-.46,10.15-9.55,12.28-3,.69-5.66,2.5-8.48,3.8.24.84.47,1.69.7,2.53a24.77,24.77,0,0,0,4.72,0c12.62-2.49,25.22-5.07,37.82-7.65C394,737.88,398.6,737.19,403,735.85Zm-1.9-259.48c2.55-6.72-1.52-11.22-9.2-12-5.62-.58-11.26-.9-16.9-1.11a63.85,63.85,0,0,0-11.9.21c-7.5,1.15-12.11,5-14.15,13.12-4,15.74-8.52,31.26-7,49.29,8.15.68,16.08,1.16,24,2.06,4.47.51,7.28-1.24,10.34-4.37C389.3,510.26,394.83,493.06,401.14,476.37Zm-4,220.22c-2.65-3.23-4.5-6.57-7.28-8.7-13.54-10.41-12.42-12.58-27.79-1.92.56,2.74,1.18,5.82,1.61,7.93Zm-37.37-22.67c16.23.27,19.05-2.17,17.09-16.34-3.28-23.69-6.8-47.37-11.1-70.9-3.09-16.88-7.61-33.49-11.59-50.66-2.61-.56-5.2-1.68-7.73-1.54a116.78,116.78,0,0,1-20.62-1.15c-10.52-1.28-21.58-2.27-31.84-.34-10.83,2-21.39,1.79-32.13,1.72a3.73,3.73,0,0,0-1,.2c-17.2,4.25-34.47,8.22-51.56,12.86-8.29,2.25-16.19,5.89-24.36,8.62-8.45,2.84-15,9-22.84,13-12,6.07-20.18,16.94-24.52,30.07-1.46,4.43-2.55,9-3.84,13.45-4.17,14.42-7.45,28.59-2,43.77,7.38,20.56,11.86,42.19,23.07,61.31,11.95,2,20.61-6.42,30.78-9.79,4.09-1.36,7.17-2.47,11.1-.47,1.7.86,3.79.92,5.62,1.32,6.24-8.73,6-19.08,9-28.42,4-12.44,7-24.86,6.26-38.1-1-17.89-.19-35.81-4.28-53.6-1.62-7-4.73-16.44,5.07-22,1.31-.73,1.55-3.52,2.1-5.4,1-3.51,1.58-7.19,2.94-10.56,2.3-5.69,7.9-7.06,11.9-2.47,9.37,10.73,19,21.48,22.75,35.78,4.07,15.41,7.89,30.88,11.89,46.3,1,3.89,2.25,7.71,3.39,11.56,2-3.07,2.19-5.69,2.45-8.31,1-10.56,1.55-21.21,3.3-31.65,1.14-6.78,3.9-13.33,6.28-19.85,1.5-4.08,4.72-6.18,9.24-6.43,4.33-.23,5.83,2.94,7.19,5.85a106.58,106.58,0,0,1,5.82,14.79c3,10.2,5.52,20.56,8.42,30.8.44,1.58,1.86,2.88,4.1,6.2.37-4.08.44-5.95.73-7.78,1.06-6.55,1.84-13.18,3.48-19.58.56-2.15,3.21-4.93,5.2-5.19,1.8-.24,4.82,2.11,5.88,4.08a112.87,112.87,0,0,1,7.66,17.28C348.78,639.34,354.13,656.46,359.75,673.92Zm12.44,204.92c-1.58-28.23-3.05-54.5-4.6-82.17l-39,10.71c1.94,25.82.23,51.41,7.89,76.64C349.11,884.83,360.58,880.28,372.19,878.84Zm-10.64-89.22c4.5-1.38,5.73-4.87,5.32-9.44-.62-6.87-.82-13.79-1.22-21-4.36-2.42-9.12-2.56-14.58-.55-7,2.56-11.31.65-15.55-5.2-1.31-1.82-2.41-3.79-3.5-5.52L306.23,759c0,17.51-7,20.49-24,16.29-3.64,10.73-.82,21.41-.75,33.48l36-7.55c0-8.24-.3-15.52.15-22.76.16-2.59,1.58-6.53,3.39-7.2s5.1,1.59,7.54,2.92c1,.56,1.59,2,2.61,3.38-4.14,6.33-5.72,13-2.06,21.57C340.05,795.91,350.84,792.9,361.55,789.62Zm-19.69-52.14c9.23-3.36,14.74-9.22,13.56-20-1-8.91-.15-18.19-2.33-26.75-5.56-21.84-12.34-43.38-18.71-65-.33-1.11-1.35-2-2.51-3.68-1.55,6.68-2.32,12.65-4.35,18.16-2.62,7.12-9.25,7.87-13.87,1.9a22.71,22.71,0,0,1-3.53-7.08c-3.6-11.74-6.89-23.58-10.5-35.31-1.19-3.86-3-7.53-5.18-12.92-2.14,3.12-3.41,4.28-3.83,5.7-3.8,12.73-6.7,25.55-6.55,39,.08,7.89-1.51,15.79-2.32,23.69-.33,3.17-1.14,6-4.84,6.6-3.92.58-6.44-1.53-7.6-5-2.73-8.15-5.6-16.28-7.77-24.58-4.11-15.74-7.24-31.76-11.82-47.36-3-10.13-8.53-19.15-19.42-25.06-2.25,7-4.43,13.18-6.22,19.48-1,3.67-2.76,7.82-2,11.25,4.53,19.72,3.21,39.73,3.53,59.64a86.93,86.93,0,0,1-2.21,18.76c-2.29,11.05-5.21,22-7.71,33-.55,2.43-.44,5-.66,7.84l33.72,6.43c-1-5-1.66-8.63-2.52-12.16-1.89-7.69-.92-15.06,1.93-22.34,3.38-8.68,5.81-9.39,12.61-3.44,2.51,2.19,4.83,4.62,7.45,6.65,4.4,3.41,6.65,3,9.85-1.53,2.67-3.76,5.2-7.63,8-11.32s6.14-3.76,9.41-.74a60.77,60.77,0,0,1,6.77,7.31c5.37,7,5.27,7,11.78,1.83a57.81,57.81,0,0,1,6.53-4.56c8.14-4.79,13.81-3,17.41,5.66,3.85,9.27,6.47,18.87,5.83,29.06C343.22,719.56,342.51,728.52,341.86,737.48Zm-3.25-252.82a37.79,37.79,0,0,0,.41-14.59c-.8-4.82-2.26-6.6-7-7.69-13.59-3.16-27-1.17-40.53.12-4.92.47-6.83,4.18-7.76,8-4.43,18-3.32,35.95.42,54.44h45.69C332.87,511.11,335.76,497.89,338.61,484.66Zm-6.75,244c3.37-13.17,3.2-26.3-1.51-39.13-.79-2.16-2.94-3.81-6.33-8-3,4.24-4.86,7.42-7.21,10.2-6.86,8.1-12.85,6-18.68-1.48-1.9-2.45-4.07-4.69-6.65-7.64-3.52,4.81-6,8.7-9,12.17-5.73,6.68-10.3,7-17.11,1.47-2.44-2-4.72-4.13-7.7-6.75-4.25,10.92-1.18,19.78,2.09,28.4,2.44,6.45,9.69,6.14,14.79,8.84a12.81,12.81,0,0,0,5.65,1.72c7,0,11.76,3.52,15.41,9.11.9,1.38,2.21,2.5,3.11,3.88,3.23,4.93,8.39,5.94,13.14,4.55C320.93,743.31,329.22,739,331.86,728.65Zm-8.21,157.06c-4-25.34,0-50.49-5.7-74.7-11.76-1.08-25.75,2.12-36.11,8.08a410.3,410.3,0,0,0,3.6,73.56C299.08,890.47,311.55,889.8,323.65,885.71ZM291.09,765.6c1.74-.57,4.47-3.36,4.17-4.08-2.66-6.26-5.9-12.28-9-18.36-16.56-7.48-32.62-16.31-50.52-20.31-8.24-1.84-16.73-2.53-25.18-3.75-.94,14.87,2.53,23.39,12.72,32.69,3.68,3.36,3.67,4.71-.55,7.25-1.59,1-3.6,1.24-5.11,1.74-12.42-11.79-19-26.48-17.56-39.45-9.71-3.22-11.87-2.49-15.6,5.12-1,2.08-1.71,4.32-2.59,6.47-3.89,9.57-5.71,19.55-7,29.8-1,7.95-.87,10,6.63,12.79a46.47,46.47,0,0,0,30.33.91c6.24-1.87,13.11-3.18,19.5-2.6,9.1.82,17-1.24,24.85-5.25a42,42,0,0,1,29.05-3.91C287.24,765.09,289.44,766.15,291.09,765.6ZM275.15,893.35c-1.5-24.83-2.9-48.2-4.35-72.2L227.54,833c1.79,22.54,3.55,44.75,5.41,68.19Zm-2.27-418.8c.41-9-2.37-12.44-11.52-11.54a358.82,358.82,0,0,0-39.25,6.08c-9.05,1.92-14.27,10-14.36,19.24-.15,16.35,4.59,31.33,12.9,46.43l52.69-9.39c-.66-9.36-1.67-17.63-1.73-25.91S272.5,482.86,272.88,474.55Zm-2,334.65c.3-11.42.7-22.94-1.67-35.6-6,3.33-11,5.74-15.57,8.78-5.29,3.5-10.34,5.16-16.82,2.93-3.52-1.21-8-.95-11.69-.08-5.77,1.34-11.23,4-16.95,5.64a16.84,16.84,0,0,1-8.46.48c-6.74-1.74-13.35-4-19.91-6.37-7.27-2.6-12.68-7.74-14.57-15.06-1.64-6.33-2.43-13,.65-19.67,2.36-5.07,3.54-10.67,5.31-16,1.18-3.55,2.46-7.06,4.09-11.74l-16,4.13q-2.37,60-4.7,119c5.25-1.88,10.36-3.88,15.59-5.54,7.16-2.27,7.65-2.67,7.65-10.52,0-3.31-.76-6.66-.52-9.94.48-6.77,1.39-13.5,2.1-20.06,6.2-.72,9.94.45,11.88,5.08-4.89,9.41-3.59,19-3.3,29.53l29.8-6.59c-.82-9.54-1.26-17.81-2.34-26-.7-5.34,1-8.27,7.08-9.41l7.95,8.56c-5.51,7.68-3.91,15.21-2.07,23.36,12.66-3.2,24.59-6,36.34-9.38C267.23,814,270.83,811.14,270.88,809.2Zm-48.12,94.51c1.16-23.39-3.3-45-5.9-67.45l-30.15,7c3.08,23.21,6.32,45,12.56,66.78ZM202,540.73c8.46-3.07,9.19-4.23,5.58-12.92-5.77-13.86-10.28-28-9.68-44.66-4-.18-7.05-1-9.75-.33a103.34,103.34,0,0,0-40.73,20.09c-6.36,5.13-7.48,11.57-4.09,18.74a110.68,110.68,0,0,0,21,29.89c2.85,2.92,5.58,2,9,.5C182.76,547.94,192.35,544.24,202,540.73ZM147.67,747.28c.32-10.69-.69-20.67-4.64-30.9-4.6-11.89-8.22-24.17-11.92-36.42.17-.13.32-.26.5-.38l-.77-.49q-1.78-5.93-3.65-11.83c-.09-.29-.83-.37-1.53-.64-.48,2.75-.92,5.32-1.44,8.26l6.62,4.21.27.87c-8.2,6.14-7.4,13.36-6.81,20.52.24,3,.45,5.95.77,8.91,2.16,19.77,3.46,39.69,6.8,59.26,3.17,18.53,8.5,36.69,12.89,55l1.37-.12c.21-3.23.56-6.46.61-9.69C147.05,791.66,147,769.46,147.67,747.28Zm12.21-185.92C150.19,548.74,141.17,537,131,523.82c-3.08,1.89-6.91,3.4-9.64,6-15.84,15.32-25.63,33.78-28,55.92-.57,5.3.48,10.6,4.52,13.66,7.74,5.87,15,13.08,25.28,14.56,4.16-10.59,7.87-20.84,12.28-30.78,1.51-3.42,4.42-6.48,7.33-9C148,569.83,153.73,566,159.88,561.36Zm-34.81,217c-2.86-18.51-5.48-35.53-8-52.19-9.39-3.57-17.58-6.93-25.94-9.79-14.26-4.88-28.42-2.87-39.55,6.44-9.87,8.25-15.39,20.34-17.09,33.69-2.11,16.55,10.6,28.75,27.3,26.4,10.16-1.43,20.44-2.15,30.68-2.87C103.19,779.28,114,778.91,125.07,778.35Zm-10-96.54c1.69-19.88,3.25-38.26,4.79-56.42L85.41,603c-.85.75-2.72,1.6-3.18,2.93-3.62,10.29-8,20.47-10.1,31.08-1.94,9.56.06,19.38,7.52,26.67C89.05,672.89,100.4,678.63,115.05,681.81Zm.15,27.48a38.13,38.13,0,0,0,0-15.6c-.54-2.39-4.3-4.62-7.07-5.84-10.29-4.52-20.79-8.58-31.41-12.9C60,683.64,54.49,689.53,60.36,706c15.89.15,31.58-.9,46.41,5.75C108.93,712.76,114.91,710.73,115.2,709.29Z"/><path class="cls-4" d="M929.3,384.3c14.32,21.73,16.44,44.75,8.44,69.34-3.68,11.32-9.16,20.39-20.3,25.65-3.13,1.47-5.39,4.71-8.26,6.86-7.85,5.84-17.15,6.77-26.47,7.51s-18.56,1.35-27.83,2.21c-2.27.21-4.83.66-6.62,1.92s-4.26,3.95-4,5.57c.34,1.92,3.08,4.14,5.22,4.81,2.36.73,5.22-.11,7.86-.34,5.85-.51,11.7-1.06,17.55-1.6.1.83.21,1.67.31,2.5-12,9.19-25.59,9.2-39.58,6.13-24.34-5.33-48.51-11.54-73-16.16-25.17-4.75-49.52-12.05-73.6-20.46-11.86-4.14-21.47-10.47-27.14-17.17L677,457c6.15,6.8,14.59,8.77,24,7.8.66-.07,1.34,0,2-.13,5.69-.95,9.17-4.36,8.2-8-1-3.88-5.28-6.3-10.57-4.63-6.72,2.12-11.38,1-15.25-5.18-5.37-8.58-9.53-8.66-16.59-1.12a15.82,15.82,0,0,1-2.86,1.84l-7.27-4.25c.58-3.52.57-7.3,1.87-10.57,4.51-11.41,8.65-23.09,18.75-31.23,4.32-3.47,6.77-7.92,6.42-13.88a13.23,13.23,0,0,1,2.16-7.42c13-19.88,27.75-38.16,47.23-52.12,11.16-8,20.8-7.06,28.54,3.74,6.09,8.5,13.67,16.51,14.4,27.93.23,3.72,2.74,5.15,6.17,5a28.18,28.18,0,0,0,6.87-1c21.74-6.86,43.45-4.19,65,.49,5.25,1.13,8.62,1,11.74-4,7.69-12.39,19.61-20.59,30.74-29.5,4.93-3.94,8.25-4.09,11.63,1.26a132.23,132.23,0,0,1,12.33,24.78c2.71,7.36,3.48,15.44,5.19,23.18A13.18,13.18,0,0,0,929.3,384.3ZM712.83,413.83c1.63-4.75-.14-10-3.81-11.14-5-1.53-7.61,2.16-9.1,5.79-3.79,9.18-6.74,18.63-4.27,29.31h8.53C707.23,429.38,710.15,421.64,712.83,413.83Z"/><path class="cls-5" d="M921,602.79c.69,35,9.23,69,12.27,103.28-21.23,14.28-43.88,23.85-66.2,34a67.7,67.7,0,0,1-17.2,4.79c-13.75,2.21-27.58,4-41.42,5.7-26.37,3.19-52.22,2.29-77.57-7.46-14.13-5.45-29.16-8.58-45.07-13.12-.17-8.73-.31-18.64-.57-28.54-.89-34.5-1.85-69-2.7-103.49,0-1.91.81-3.82,1-5.75a27,27,0,0,0,.26-6.53c-.75-5.51-2.46-11-2.64-16.47-.41-12.49-.13-25-.13-37.28-12.62-5.16-20.61-14.07-28.8-22.7-1.07-1.11-2.33-3-2.09-4.24,1.9-10,.24-20.72,6.17-30.75,2,.87,4,1.68,6,2.56,13.62,6.17,27.2,12.4,40.86,18.47a26.58,26.58,0,0,0,6.74,1.56c4.6.7,9.31.85,13.81,1.91q37.35,8.86,74.6,18.11c13.85,3.43,27.44,8.16,41.45,10.62,17.08,3,32.79-1.57,46.86-12.17,9.16-6.89,18.54-13.7,29.23-17.39C917.63,533.27,920.27,568,921,602.79Z"/><path class="cls-4" d="M890.75,760.71c1.27,20.86-.4,41.58-2.49,62.4-1.29,12.74-9.07,19.75-15.91,29.2-2.25-7.44-3.94-14-6.21-20.37-5.2-14.57-11.28-28.73-19.91-41.71-1.38-2.06-1.75-5-2-7.54-.75-6.9-1.09-13.84-1.83-20.74-.37-3.38.34-6.76,3.77-6.92,14.26-.65,26.78-6.67,39.49-12.41C890.64,748.07,890.38,754.68,890.75,760.71Z"/><path class="cls-4" d="M830.87,758.76c3.34,25.63,7.87,51.23.59,77-1.62,5.71-1.76,11.82-2.77,17.72-.83,4.8-2.84,8.82-8.93,10.52-1-1.88-2.62-3.73-2.78-5.69-.68-8.94-4.81-16.31-9.09-23.93-7.29-13-13.54-26.59-20.55-39.77-5.45-10.23-11.37-20.21-17.57-31.16l60.39-5.35C829.92,757.9,830.81,758.28,830.87,758.76Z"/><path class="cls-3" d="M709,402.69c3.67,1.12,5.44,6.39,3.81,11.14-2.68,7.81-5.6,15.55-8.65,24h-8.53c-2.47-10.68.48-20.13,4.27-29.31C701.41,404.85,704,401.16,709,402.69Z"/><path class="cls-6" d="M703.68,745.2c4.7,1.87,5.73,5.07,4,9.56-1.25,3.31-2.85,6.63-3.28,10.07-.88,7-4.81,10.4-11.4,11.94-8.72,2-17.4,4.26-26,6.86-16.77,5.1-34.09,8.45-50.12,15.91-2,1-4.33,1.34-7.76,2.36-3.4-14.89-6.67-29.25-10.21-44.75,10.94-3.4,21.22-6.92,31.68-9.74,11.52-3.12,23.17-5.74,34.83-8.27,4.59-1,9.64-3.26,12.88,3.34.66,1.34,5.63,1.76,7.93.87C692.62,740.91,698.15,743,703.68,745.2Z"/><path class="cls-6" d="M673.21,595.3c1.88,25.77,1.48,50.76,1.75,76-27.53,10.21-56.17,11.53-85.73,15.86-5.38-22.33-10.75-44.67-16.28-67.66C606.09,609.5,638.32,600,673.21,595.3Z"/><path class="cls-4" d="M653.11,390.85c5.49,8,3.39,14.86-6.54,18.45-5.8,2.09-12.17,2.62-18.28,3.86-.09-.49-.19-1-.28-1.47-8.43,1.57-16.84,3.26-25.3,4.67-5.19.86-10.48,1.2-15.7,1.95-4.33.62-7.25-1.5-8.72-5.07-2.86-6.93-1-13.75,2-20.16.61-1.32,3.25-2.26,5-2.41,18.81-1.57,37.64-2.92,56.47-4.4C646.35,385.91,650.33,386.81,653.11,390.85Z"/><path class="cls-7" d="M655.89,417.36,645,452.55c-4.75,0-10.28-.09-15.81,0-6,.13-9.83,3.47-11.91,9-2.91,7.68-3.81,14.79.6,22.81,5.55,10.09,12.79,18.56,20.59,26.73,3,3.1,6.33,5.82,9.35,8.58-3,9.22-9.38,14.42-15.89,19.53q-21.06,16.56-42.17,33c-4.43,3.43-9.06,6.61-13.7,9.75-7.43,5-21,1.1-24.75-7.08C544,559,550.9,536.3,566,526.69c1.1-.7,2.94-1.42,3-2.3,1.46-12,12.24-16.7,19.07-24.37,6.06-6.8,7.54-12.23,4-21.15a60.88,60.88,0,0,1-3-12.54c-1.81-10.77-3.38-21.57-5.36-34.35Z"/><path class="cls-4" d="M650,464.11l-10.86,30.75c-7.66-7.46-13.42-14.42-13.4-24.62,0-6.37,2.73-9.27,9-8.9C639.9,461.65,645,463.15,650,464.11Z"/><path class="cls-6" d="M629,376c-5.19,1.23-10.07,3-15.07,3.44-9.25.85-18.56,1.06-27.85,1.32-6,.17-10.37,2.64-12.11,8.41-1.86,6.15-6,8.23-12,8.38-26.84.67-52.47,7.43-78.08,14.83-24.88,7.18-50.14,13.06-75.11,19.95-9.86,2.73-19.47,6.46-29.06,10.09-11.34,4.29-22.5,9.09-33.85,13.34-2,.73-4.53-.16-6.82-.33-10.9-.82-21.8-2.2-32.7-2.31-9.19-.1-18.29-.27-27.65,1.91-9.86,2.29-20.54,1-30.88,1.23,8.78-3.22,17.42-6.89,26.37-9.52,28.08-8.25,56.28-16.08,84.43-24.07,14-4,28.12-7.78,42.07-12,9.22-2.8,18.09-6.74,27.36-9.28q45.64-12.56,91.49-24.39c16.7-4.33,33.38-9.3,50.39-11.76,11.62-1.68,22.81-5.34,34.5-6.23,3.63-.28,7.26-.4,10.52-.57Z"/><path class="cls-6" d="M554,511.14c2.41,5,2.29,8.67-1.63,13.42-5.85,7.09-11,15.05-12.05,24.7-.6,5.51-5.33,8.39-9,9.62-12.06,4-23.69,9.54-36.77,10.41-11.87.8-23.66,2.83-35.5,4.2-6.7.77-12.61.42-14.47-8.17-.64-3-3.47-5.43-5.46-8.38,4.67-6.14,8.72-12.24,13.55-17.63,8.32-9.26,12.34-19.5,9.52-32a51.21,51.21,0,0,1-.57-6.43c5.92-5.06,13.65-6,20.79-8.09,15.6-4.54,31.35-8.56,47-13,7.78-2.23,9-1.92,12.39,5.2C545.78,493.72,549.74,502.49,554,511.14Z"/><path class="cls-6" d="M531,714.79c5.35,13.22,11.28,26.25,10.57,41.07-.15,3.2.63,6.44.9,8.95L486.93,791c-.92-3.75-2-6.43-2.19-9.18-1.23-17.84-2.27-35.69-3.41-54.11,7.78-3.41,15.81-7.16,24-10.47,5.75-2.32,11.71-4.09,17.61-6C526.66,710,529.47,711,531,714.79Z"/><path class="cls-8" d="M473.1,749c.62,7.56,1.37,15.11,2.15,23.53-11.47-2.85-5.28-12.67-10.09-18.08-5.73.59-9.06-3.48-11.71-8.14-9-15.76-21.91-28.25-33.9-41.52-6.91-7.64-13.8-15.31-21-22.65-6.87-7-9.85-15.57-11.35-24.88-2.41-15-4.29-30.2-7.16-45.17-4.68-24.37-8.54-49-16.76-72.54a12.28,12.28,0,0,1,0-3c22.81-1,42.73,6.45,61,19.21-3.38,12.23-3.1,12.64,9.2,13.07,7.39,13.37,16.39,26.29,20.15,41.55,3.15,12.81,5.1,25.93,7.36,38.95,2.79,16,5.92,32,7.86,48.09C470.87,714.58,471.69,731.84,473.1,749Z"/><path class="cls-3" d="M408.9,720.68c5.42,4.33,1.91,12.83-5.86,15.17-4.44,1.34-9.09,2-13.65,3-12.6,2.58-25.2,5.16-37.82,7.65a24.77,24.77,0,0,1-4.72,0c-.23-.84-.46-1.69-.7-2.53,2.82-1.3,5.52-3.11,8.48-3.8,9.09-2.13,9.77-3.21,9.55-12.28-.15-5.92.89-11.87,1.39-17.71a18.4,18.4,0,0,1,22.16-3A143.48,143.48,0,0,1,408.9,720.68Z"/><path class="cls-6" d="M391.94,464.37c7.68.78,11.75,5.28,9.2,12-6.31,16.69-11.84,33.89-24.84,47.2-3.06,3.13-5.87,4.88-10.34,4.37-7.88-.9-15.81-1.38-24-2.06-1.53-18,3-33.55,7-49.29,2-8.12,6.65-12,14.15-13.12a63.85,63.85,0,0,1,11.9-.21C380.68,463.47,386.32,463.79,391.94,464.37Z"/><path class="cls-8" d="M376.84,657.58c2,14.17-.86,16.61-17.09,16.34-5.62-17.46-11-34.58-16.7-51.57a112.87,112.87,0,0,0-7.66-17.28c-1.06-2-4.08-4.32-5.88-4.08-2,.26-4.64,3-5.2,5.19-1.64,6.4-2.42,13-3.48,19.58-.29,1.83-.36,3.7-.73,7.78-2.24-3.32-3.66-4.62-4.1-6.2-2.9-10.24-5.41-20.6-8.42-30.8a106.58,106.58,0,0,0-5.82-14.79c-1.36-2.91-2.86-6.08-7.19-5.85-4.52.25-7.74,2.35-9.24,6.43-2.38,6.52-5.14,13.07-6.28,19.85-1.75,10.44-2.27,21.09-3.3,31.65-.26,2.62-.49,5.24-2.45,8.31-1.14-3.85-2.39-7.67-3.39-11.56-4-15.42-7.82-30.89-11.89-46.3-3.77-14.3-13.38-25-22.75-35.78-4-4.59-9.6-3.22-11.9,2.47-1.36,3.37-1.91,7-2.94,10.56-.55,1.88-.79,4.67-2.1,5.4-9.8,5.53-6.69,14.93-5.07,22,4.09,17.79,3.24,35.71,4.28,53.6.78,13.24-2.27,25.66-6.26,38.1-3,9.34-2.73,19.69-9,28.42-1.83-.4-3.92-.46-5.62-1.32-3.93-2-7-.89-11.1.47-10.17,3.37-18.83,11.78-30.78,9.79-11.21-19.12-15.69-40.75-23.07-61.31-5.45-15.18-2.17-29.35,2-43.77,1.29-4.48,2.38-9,3.84-13.45,4.34-13.13,12.47-24,24.52-30.07,7.88-4,14.39-10.13,22.84-13,8.17-2.73,16.07-6.37,24.36-8.62,17.09-4.64,34.36-8.61,51.56-12.86a3.73,3.73,0,0,1,1-.2c10.74.07,21.3.31,32.13-1.72,10.26-1.93,21.32-.94,31.84.34a116.78,116.78,0,0,0,20.62,1.15c2.53-.14,5.12,1,7.73,1.54,4,17.17,8.5,33.78,11.59,50.66C370,610.21,373.56,633.89,376.84,657.58Z"/><path class="cls-7" d="M355.42,717.47c1.18,10.79-4.33,16.65-13.56,20,.65-9,1.36-17.92,1.93-26.9.64-10.19-2-19.79-5.83-29.06-3.6-8.69-9.27-10.45-17.41-5.66a57.81,57.81,0,0,0-6.53,4.56c-6.51,5.18-6.41,5.16-11.78-1.83a60.77,60.77,0,0,0-6.77-7.31c-3.27-3-6.64-2.93-9.41.74s-5.3,7.56-8,11.32c-3.2,4.52-5.45,4.94-9.85,1.53-2.62-2-4.94-4.46-7.45-6.65-6.8-6-9.23-5.24-12.61,3.44-2.85,7.28-3.82,14.65-1.93,22.34.86,3.53,1.49,7.12,2.52,12.16l-33.72-6.43c.22-2.83.11-5.41.66-7.84,2.5-11,5.42-21.93,7.71-33a86.93,86.93,0,0,0,2.21-18.76c-.32-19.91,1-39.92-3.53-59.64-.79-3.43.93-7.58,2-11.25,1.79-6.3,4-12.49,6.22-19.48,10.89,5.91,16.44,14.93,19.42,25.06,4.58,15.6,7.71,31.62,11.82,47.36,2.17,8.3,5,16.43,7.77,24.58,1.16,3.49,3.68,5.6,7.6,5,3.7-.55,4.51-3.43,4.84-6.6.81-7.9,2.4-15.8,2.32-23.69-.15-13.49,2.75-26.31,6.55-39,.42-1.42,1.69-2.58,3.83-5.7,2.19,5.39,4,9.06,5.18,12.92,3.61,11.73,6.9,23.57,10.5,35.31a22.71,22.71,0,0,0,3.53,7.08c4.62,6,11.25,5.22,13.87-1.9,2-5.51,2.8-11.48,4.35-18.16,1.16,1.67,2.18,2.57,2.51,3.68,6.37,21.64,13.15,43.18,18.71,65C355.27,699.28,354.45,708.56,355.42,717.47Z"/><path class="cls-6" d="M339,470.07a37.79,37.79,0,0,1-.41,14.59c-2.85,13.23-5.74,26.45-8.74,40.25H284.18c-3.74-18.49-4.85-36.44-.42-54.44.93-3.79,2.84-7.5,7.76-8,13.5-1.29,26.94-3.28,40.53-.12C336.76,463.47,338.22,465.25,339,470.07Z"/><path class="cls-9" d="M330.35,689.52c4.71,12.83,4.88,26,1.51,39.13-2.64,10.31-10.93,14.66-20,17.32-4.75,1.39-9.91.38-13.14-4.55-.9-1.38-2.21-2.5-3.11-3.88-3.65-5.59-8.37-9.13-15.41-9.11a12.81,12.81,0,0,1-5.65-1.72c-5.1-2.7-12.35-2.39-14.79-8.84-3.27-8.62-6.34-17.48-2.09-28.4,3,2.62,5.26,4.78,7.7,6.75,6.81,5.51,11.38,5.21,17.11-1.47,3-3.47,5.45-7.36,9-12.17,2.58,2.95,4.75,5.19,6.65,7.64,5.83,7.49,11.82,9.58,18.68,1.48,2.35-2.78,4.23-6,7.21-10.2C327.41,685.71,329.56,687.36,330.35,689.52Z"/><path class="cls-3" d="M295.26,761.52c.3.72-2.43,3.51-4.17,4.08s-3.85-.51-5.79-.94a42,42,0,0,0-29.05,3.91c-7.83,4-15.75,6.07-24.85,5.25-6.39-.58-13.26.73-19.5,2.6a46.47,46.47,0,0,1-30.33-.91c-7.5-2.78-7.61-4.84-6.63-12.79,1.25-10.25,3.07-20.23,7-29.8.88-2.15,1.57-4.39,2.59-6.47,3.73-7.61,5.89-8.34,15.6-5.12-1.43,13,5.14,27.66,17.56,39.45,1.51-.5,3.52-.78,5.11-1.74,4.22-2.54,4.23-3.89.55-7.25-10.19-9.3-13.66-17.82-12.72-32.69,8.45,1.22,16.94,1.91,25.18,3.75,17.9,4,34,12.83,50.52,20.31C289.36,749.24,292.6,755.26,295.26,761.52Z"/><path class="cls-3" d="M247.89,456.3l-.38.14-.64.11.53-.24Z"/><path class="cls-6" d="M207.58,527.81c3.61,8.69,2.88,9.85-5.58,12.92-9.65,3.51-19.24,7.21-28.66,11.31-3.4,1.48-6.13,2.42-9-.5a110.68,110.68,0,0,1-21-29.89c-3.39-7.17-2.27-13.61,4.09-18.74a103.34,103.34,0,0,1,40.73-20.09c2.7-.66,5.77.15,9.75.33C197.3,499.81,201.81,514,207.58,527.81Z"/><path class="cls-8" d="M143,716.38c3.95,10.23,5,20.21,4.64,30.9-.65,22.18-.62,44.38-.93,66.57-.05,3.23-.4,6.46-.61,9.69l-1.37.12c-4.39-18.32-9.72-36.48-12.89-55-3.34-19.57-4.64-39.49-6.8-59.26-.32-3-.53-5.94-.77-8.91-.59-7.16-1.39-14.38,6.81-20.52C134.81,692.21,138.43,704.49,143,716.38Z"/><path class="cls-3" d="M131.61,679.58c-.18.12-.33.25-.5.38l-.27-.87Z"/><path class="cls-6" d="M127.12,787.75q5.28,25,10.25,48.56c-15.11,12.41-30.81,12-45.59,3.56-17.28-9.83-26.1-25.09-21-45.82a24,24,0,0,0-6.43-.21l-.48-2.5C84.72,787.36,105.69,785.15,127.12,787.75Z"/><path class="cls-6" d="M117,726.16c2.56,16.66,5.18,33.68,8,52.19-11.1.56-21.88.93-32.64,1.68-10.24.72-20.52,1.44-30.68,2.87-16.7,2.35-29.41-9.85-27.3-26.4,1.7-13.35,7.22-25.44,17.09-33.69,11.13-9.31,25.29-11.32,39.55-6.44C99.45,719.23,107.64,722.59,117,726.16Z"/><path class="cls-6" d="M119.84,625.39c-1.54,18.16-3.1,36.54-4.79,56.42-14.65-3.18-26-8.92-35.4-18.11-7.46-7.29-9.46-17.11-7.52-26.67,2.15-10.61,6.48-20.79,10.1-31.08.46-1.33,2.33-2.18,3.18-2.93Z"/></g></g></svg>