<svg xmlns="http://www.w3.org/2000/svg" viewBox="0 0 1111.92 780.22"><defs><style>.cls-1{fill:#895e29;}.cls-2{fill:#cfd2ed;}.cls-3{fill:#83ac75;}.cls-4{fill:#dfecad;}.cls-5{fill:#a28670;}.cls-6{fill:#e5e7e5;}.cls-7{fill:#d6af94;}.cls-8{fill:#ffd630;}.cls-9{fill:#f0485b;}.cls-10{fill:#ffe7ea;}.cls-11{fill:#fad8b8;}</style></defs><g id="レイヤー_2" data-name="レイヤー 2"><g id="レイヤー_1-2" data-name="レイヤー 1"><path class="cls-1" d="M1111.08,673.17a64.64,64.64,0,0,1,.8,13.27c-.1,4.16-2,6-6.89,6.92-22.7,4.42-42.74-1.87-61.47-13.92-5.21-3.35-7.66-.56-9.18,3.27-3.77,9.52-11.31,14.18-20.19,17.95-6.19,2.62-9.92,1.4-14.27-3.77-7.18-8.55-9.88-18.53-12.44-28.91-.68-2.78,2.08-9.2-4.45-8s-16.23-1.57-17.06,10c-.35,5-.19,10.29-1.9,14.83-3.22,8.54-6.41,17.41-13,24.08-4.92,5-10.09,4.93-15.34-.65-9-9.57-10-21.21-9.6-33.3.14-4.36-.11-6-5.79-5.24-12,1.57-23.86,1.44-34.6,9.11-6.15,4.39-14.83-6.16-14-17.44,1.58-20.78-.26-41.51-.26-62.27,0-37.3-.2-74.6-.22-111.9,0-14.43-.68-28.94.63-43.26,1.7-18.57,5.44-36.93,7.56-55.47.9-7.88,3.28-15.21-6.12-22.59-14.79-11.6-18.54-29.51-14.7-47.84,3-14.46,5.18-28.64,2.27-43.35-1.37-7,.79-14,3.51-20.13,3.31-7.44,5.59-14.84,2.77-22.29a21.15,21.15,0,0,1-1.31-4.76c.8,1.18,1.51,1.94,2,2,3.12.27,2.69-2.06,2.79-4.09a32,32,0,0,0-.08-3.95,46.76,46.76,0,0,1,6-.64q56.65-3.8,113.23-8.77c12.13-1.06,24.11-3.78,36.15-5.8,4.4-.73,7.59-2.77,6.91-7.88-1.28-9.56-1.08-19.35-4.75-28.51-6.17-15.4-20.48-16-33.66-18.4-3.66-.68-7.55-.11-11.34-.11-14.24-.94-28.26,1-40.1,9-10.49,7.12-19.45-.3-29.08-.68-12.49-.5-25.23-1.45-36.07,5.92-7.11,4.84-9.36,13.39-10.5,21.53-1,7.24,2.6,24.41,3.26,34.32-3.34.68-5.23,2.14-4.75,6-2.73-4.1-6.37-13.28-6.27-15.14.85-14.83-3.52-29.56,5.64-44.26,9.4-15.1,28.46-24.26,46-18.83,10.12,3.12,20.15,3.18,31-1.43,20-8.53,41.24-8.45,62.66-4.21,31.87,6.33,32.88,14.59,37.06,46.37,1.36,10.35,4.68,20.49,2.25,31.74-1.31,6.08,6.76,12.06,9.35,19.06a490.05,490.05,0,0,1,21,72.82c4.78,23.47,12.4,46.08,20.85,68.41,1,2.53,3.68,4.38,5.49,6.61,6,7.45,3.57,13.92-5.75,15.58-4.59.82-8.61,3.27-13.71,3.21-4.07-.05-5,4.31-3.83,8.27,2.22,7.42,5.26,14.61,7.57,21.92,8.2,25.91,16.91,51.69,17.42,79.51.65,35.41-4,70.69-1.4,106.18C1102.48,640.52,1108.07,656.51,1111.08,673.17Zm-23.31,9.76c9.12-.39,12.87-4.4,10.82-13.24a277.36,277.36,0,0,1-6.61-43.31c-1.45-20.64.82-41.09,1.59-61.61.85-22.86,3.58-46-.88-68.43a307.52,307.52,0,0,0-21.88-68.5c-2.74-6-5.62-14.74-13.71-15.64a44.45,44.45,0,0,1-26.17-12.13c-5.43-5.16-11.51-10.29-11.17-20.59.64-19.05-3.81-22.35-19.39-19.73-2.82.47-5.53,2-8.31,2.11-3.42.08-4,2-4.52,4.56-4.67,21.37-12.46,41.57-24.24,60-5,7.87-5.07,12.94,3.8,17.23,2.16,1.05,4.57,3.62,5,5.86,2.39,12.29,4.73,24.77.23,37.06C969,495.63,961.09,503,962,513.72c.49,5.51,1.1,11,1.66,16.51.15,21.75,7.31,41.31,17.18,60.52,6.27,12.21,14.32,23.16,20.91,35.08s17.33,21.66,27.11,30.15c7.83,6.81,17.39,14.46,28.21,18.37C1067.11,678,1076.36,683.43,1087.77,682.93Zm-3.48-287.88c3.63-1.06,4-4,3.08-7-2.5-7.93-5.24-15.79-7.87-23.68-6.61-19.75-12.78-39.5-16.22-60.24-3.77-22.67-9.69-45-21.42-65.34-2.27-3.93-3.61-4.5-7.32-1.49-7.85,6.37-10.61,17-19.5,22.5-.94.58-1.21,3.52-.7,5,9.5,27-.1,56.26,10.5,83.53,4.19,10.78,4.29,23.06,10,34.15,7.67,14.87,11.74,18.89,28.78,18.18C1070.44,402.31,1077,397.18,1084.29,395.05ZM1024.08,227.8c4.48-1.26,5-3.79,4.8-7.27-.15-2.46-1.24-4.31-4.32-3.6-12.45,2.87-25.38-.05-37.88,3.42-12.72,3.54-26,1.67-38.95,2.69-16.15,1.27-32.2,3.8-48.29,5.79l-.12-.93c-3.91.62-8,.8-11.7,2-3.91,1.22-10.89.13-9.35,7.29,1.44,6.63,7.12,5,12.07,4.19,27.63-4.37,54.95-11,83.3-10C990.5,232,1007.46,232.46,1024.08,227.8Zm-12.46,461.74c4.19.35,17.29-13.13,17.25-17.37a3.76,3.76,0,0,0-2.23-2.79c-4.28-.8-6.46-4.25-9.55-6.62-4.35-3.34-9.54-5.48-15.39-3.94-3.31.88-3.68,3.42-3.37,8.63.33,1.37,1.14,5,2.1,8.66C1002.07,682.32,1003.63,688.88,1011.62,689.54Zm-.48-444.3c1-1,2.59-2.37,1.16-4a5,5,0,0,0-3.4-1.51c-8.16.12-16.34.09-24.46.74-16.82,1.34-33.87-.76-50.54,3.11-8.72,2.65-18,1.33-26.71,3.37-19.38,4.55-24.1,14-15.67,30.43,1.56,3,2.93,6.48,8.44,2.86,7-4.6,10.51-11.25,14-18,5.55-10.62,9.79-11.55,17.73-2.82,12.57,13.82,15.43,13.3,22.24-4.08,3.65-9.29,10.33-10.93,17.92-4.27,3.84,3.36,7.66,6.76,11.17,10.45,3,3.19,6.59,3.61,9.52,1.13C999,257.22,1005,251.15,1011.14,245.24Zm-8.87,101.25c6.2-2.14,9.83-3.34,9.05-10.05-2.41-20.89.44-42-3.06-62.88-.77-4.56-3.4-6.42-6.65-3.42-11.36,10.53-20.3,6.93-29.36-3.3-3.28-3.71-7.85-3.8-11,1.55-2,3.42-4.71,6.43-6.86,9.77-5.4,8.37-12.8,8.78-19.31,1-10.27-12.31-14-11.83-21.22,2.75-6.69,13.57-21.41,15.2-29.46,3.29-1.75-2.6-4.58-5.67-5.84-.51-3.21,13-10.29,25.23-9.18,39.28-1.38,26,15.15,42.33,38.33,43.08,19.5.63,37.2-7.07,55.83-10.31A250.29,250.29,0,0,0,1002.27,346.49ZM995.42,648c7-.45,7.44-2.83,4.13-8.11-7.43-11.85-16.27-22.67-22.84-35.23-12.72-24.31-22.4-49.24-23.21-77-.42-5.46-.92-10.92-1.24-16.38-.2-3.54-1.69-4.21-5.21-3.86-9.88,1-19.71,3.48-29.77,1.53-3.86-.75-5,1.52-5.17,5-1.63,37.43-2.49,74.84,6.79,111.57,2.66,10.52,4.77,20.79,19.37,23.08C957.57,651.57,976.38,649.21,995.42,648Zm-21.7-271.42c1-2.91,3.56-5.49,1.11-8.49-2.26-2.79-4.9,0-7.33.26-20.09,2.46-39.29,10.33-60.57,10.08-2.22,3-10.08-4.57-9.83,4,.27,9,2.23,17.93,3.81,26.83.34,1.91,1.21,5,3.81,4.74,2.39-.26,1.92-3,1.89-5-.05-3.87,2.58-5.42,5.66-4.58,4.38,1.18,9.83,2.22,12.44,5.32,6.09,7.25,14.6,9.49,22.32,13.46,3.55,1.82,5.4.1,7.33-3C962.88,406.53,968.5,391.65,973.72,376.54Zm-40.3,120.29c25.27-1.34,40.85-25.1,28.19-42.69-11.14-15.48-26.23-27.83-45.15-34-2-.67-3.65-.19-3.89,2.17-.91,9.1-4.51,17.28-7.75,25.73-4.76,12.41,1.4,22.83,7.38,33.62C917.57,491.33,922.4,499.5,933.42,496.83ZM954.94,670c-.09-4.75,2.62-9.16-5.43-9.23-7-.05-13.32-.42-13,9.33.16,4.82,0,9.64,0,17.08,0-1.06-.21.54.13,2,.9,3.91,2.85,8,6.36,9.26,3.87,1.38,5.36-3.29,6.93-5.92C954.09,685.61,955.11,678.05,954.94,670Zm-40.62-11c2.3-.38,5.37-1.66,3.25-4.13-6.33-7.4-6.33-16.55-8.38-25.23-8.75-37-5.88-74.77-7.64-112.24-.58-12.14,5.11-24.37-4.23-36.73-5.28-7-8.42-19.33-3.92-28.13,7.93-15.54,1.13-29-2.25-43.22a4.76,4.76,0,0,0-3-3c-2-.37-2.18,1.7-2.43,3.23-4.22,25.91-4.47,52.13-5.27,78.25-.89,29-.2,58.13-.2,87.2H884c0,25.91-.17,51.83.18,77.74.06,3.94.4,10.16,6.49,9.85C898.61,662.15,906.45,660.27,914.32,659Z"/><path class="cls-2" d="M1098.59,669.69c2.05,8.84-1.7,12.85-10.82,13.24-11.41.5-20.66-5-30.66-8.58-10.82-3.91-20.38-11.56-28.21-18.37-9.78-8.49-20.46-18.1-27.11-30.15S987.15,603,980.88,590.75c-9.87-19.21-17-38.77-17.18-60.52-.56-5.5-1.17-11-1.66-16.51-.95-10.72,7-18.09,10.29-27.18,4.5-12.29,2.16-24.77-.23-37.06-.43-2.24-2.84-4.81-5-5.86-8.87-4.29-8.84-9.36-3.8-17.23,11.78-18.4,19.57-38.6,24.24-60,.55-2.52,1.1-4.48,4.52-4.56,2.78-.08,5.49-1.64,8.31-2.11,15.58-2.62,20,.68,19.39,19.73-.34,10.3,5.74,15.43,11.17,20.59a44.45,44.45,0,0,0,26.17,12.13c8.09.9,11,9.66,13.71,15.64a307.52,307.52,0,0,1,21.88,68.5c4.46,22.42,1.73,45.57.88,68.43-.77,20.52-3,41-1.59,61.61A277.36,277.36,0,0,0,1098.59,669.69Z"/><path class="cls-3" d="M1087.37,388c1,3,.55,6-3.08,7-7.3,2.13-13.85,7.26-20.65,5.56-17,.71-21.11-3.31-28.78-18.18-5.73-11.09-5.83-23.37-10-34.15-10.6-27.27-1-56.51-10.5-83.53-.51-1.45-.24-4.39.7-5,8.89-5.47,11.65-16.13,19.5-22.5,3.71-3,5-2.44,7.32,1.49,11.73,20.31,17.65,42.67,21.42,65.34,3.44,20.74,9.61,40.49,16.22,60.24C1082.13,372.24,1084.87,380.1,1087.37,388Z"/><path class="cls-3" d="M1032.86,198.37c.68,5.11-2.51,7.15-6.91,7.88-12,2-24,4.74-36.15,5.8q-56.56,5-113.23,8.77a46.76,46.76,0,0,0-6,.64c-.66-9.91-4.28-27.08-3.26-34.32,1.14-8.14,3.39-16.69,10.5-21.53,10.84-7.37,23.58-6.42,36.07-5.92,9.63.38,18.59,7.8,29.08.68,11.84-8,25.86-10,40.1-9,3.79,0,7.68-.57,11.34.11,13.18,2.42,27.49,3,33.66,18.4C1031.78,179,1031.58,188.81,1032.86,198.37Z"/><path class="cls-4" d="M1028.88,220.53c.22,3.48-.32,6-4.8,7.27-16.62,4.66-33.58,4.21-50.44,3.59-28.35-1-55.67,5.58-83.3,10-5,.78-10.63,2.44-12.07-4.19-1.54-7.16,5.44-6.07,9.35-7.29,3.75-1.16,7.79-1.34,11.7-2l.12.93c16.09-2,32.14-4.52,48.29-5.79,13-1,26.23.85,38.95-2.69,12.5-3.47,25.43-.55,37.88-3.42C1027.64,216.22,1028.73,218.07,1028.88,220.53Z"/><path class="cls-5" d="M1028.87,672.17c0,4.24-13.06,17.72-17.25,17.37-8-.66-9.55-7.22-11.19-13.43-1-3.63-1.77-7.29-2.1-8.66-.31-5.21.06-7.75,3.37-8.63,5.85-1.54,11,.6,15.39,3.94,3.09,2.37,5.27,5.82,9.55,6.62A3.76,3.76,0,0,1,1028.87,672.17Z"/><path class="cls-6" d="M1012.3,241.26c1.43,1.61-.13,3-1.16,4-6.11,5.91-12.1,12-18.58,17.47-2.93,2.48-6.48,2.06-9.52-1.13-3.51-3.69-7.33-7.09-11.17-10.45-7.59-6.66-14.27-5-17.92,4.27-6.81,17.38-9.67,17.9-22.24,4.08-7.94-8.73-12.18-7.8-17.73,2.82-3.51,6.71-7,13.36-14,18-5.51,3.62-6.88.18-8.44-2.86-8.43-16.39-3.71-25.88,15.67-30.43,8.71-2,18-.72,26.71-3.37,16.67-3.87,33.72-1.77,50.54-3.11,8.12-.65,16.3-.62,24.46-.74A5,5,0,0,1,1012.3,241.26Z"/><path class="cls-7" d="M1011.32,336.44c.78,6.71-2.85,7.91-9.05,10.05a250.29,250.29,0,0,1-38.73,10.22C944.91,360,927.21,367.65,907.71,367c-23.18-.75-39.71-17.1-38.33-43.08-1.11-14.05,6-26.23,9.18-39.28,1.26-5.16,4.09-2.09,5.84.51,8.05,11.91,22.77,10.28,29.46-3.29,7.19-14.58,10.95-15.06,21.22-2.75,6.51,7.81,13.91,7.4,19.31-1,2.15-3.34,4.85-6.35,6.86-9.77,3.15-5.35,7.72-5.26,11-1.55,9.06,10.23,18,13.83,29.36,3.3,3.25-3,5.88-1.14,6.65,3.42C1011.76,294.4,1008.91,315.55,1011.32,336.44ZM990,330.05c.43-11.64-7.54-14.38-15-18.09-5.18-2.58-5.92-4.65-.43-7.22s6.47-7.16,3.93-11.45c-1.8-3-6.22-6.25-10.11-2.63-3.57,3.34-10.38,6.66-3.7,13.34.78.79,4.11,2.71.68,3.81-7.53,2.4-15.3,4.07-21.12,5.57-18.1-.59-29.53,10.6-34.22,31.51-.89,4-2,8.21,2.14,11s7.87,1.38,11.86-.79c8.24-4.49,16.55-8.07,26.56-5.24,5.12,1.45,10.94,1.91,14.73-4.1,2.67-4.21,5.75-5.26,11.68-4.08C983.28,342.89,989.62,340,990,330.05Zm-83-21.24c.09-4.48-2-7.11-7.06-7.57-3.88,2.46-11.5.11-11.43,8.72,0,6.09,3.19,10.58,8.81,10.35C903.3,320.06,906.82,315.27,906.94,308.81Z"/><path class="cls-4" d="M999.55,639.85c3.31,5.28,2.82,7.66-4.13,8.11-19,1.25-37.85,3.61-57.15.59-14.6-2.29-16.71-12.56-19.37-23.08-9.28-36.73-8.42-74.14-6.79-111.57.15-3.44,1.31-5.71,5.17-5,10.06,1.95,19.89-.57,29.77-1.53,3.52-.35,5,.32,5.21,3.86.32,5.46.82,10.92,1.24,16.38.81,27.73,10.49,52.66,23.21,77C983.28,617.18,992.12,628,999.55,639.85Z"/><path class="cls-1" d="M975,312c7.47,3.71,15.44,6.45,15,18.09-.36,9.95-6.7,12.84-13,11.6-5.93-1.18-9-.13-11.68,4.08-3.79,6-9.61,5.55-14.73,4.1-10-2.83-18.32.75-26.56,5.24-4,2.17-7.92,3.45-11.86.79s-3-7-2.14-11c4.69-20.91,16.12-32.1,34.22-31.51,5.82-1.5,13.59-3.17,21.12-5.57,3.43-1.1.1-3-.68-3.81-6.68-6.68.13-10,3.7-13.34,3.89-3.62,8.31-.41,10.11,2.63,2.54,4.29,1.52,8.89-3.93,11.45S969.79,309.38,975,312Zm-.26,15.48c2.65-1.18,1.32-5.13-1.81-6.08-2.89-.87-6.1-.67-9.15-1.08-8.09-1.08-14.29,7.91-22.62,4.54-7.85-3.19-11.43,1.19-14.74,7-1,1.75-2.73,3.31-1.54,5.38,1.4,2.46,3.87,1.6,6,1.12,7.08-1.6,13.94-4.92,23.16-2.08C958.37,329,967.47,330.65,974.71,327.44Z"/><path class="cls-4" d="M974.83,368.05c2.45,3-.1,5.58-1.11,8.49-5.22,15.11-10.84,30-19.36,43.65-1.93,3.1-3.78,4.82-7.33,3-7.72-4-16.23-6.21-22.32-13.46-2.61-3.1-8.06-4.14-12.44-5.32-3.08-.84-5.71.71-5.66,4.58,0,2,.5,4.75-1.89,5-2.6.29-3.47-2.83-3.81-4.74-1.58-8.9-3.54-17.85-3.81-26.83-.25-8.61,7.61-1,9.83-4,21.28.25,40.48-7.62,60.57-10.08C969.93,368,972.57,365.26,974.83,368.05Z"/><path class="cls-6" d="M972.9,321.36c3.13.95,4.46,4.9,1.81,6.08-7.24,3.21-16.34,1.54-20.71,8.84-9.22-2.84-16.08.48-23.16,2.08-2.12.48-4.59,1.34-6-1.12-1.19-2.07.54-3.63,1.54-5.38,3.31-5.85,6.89-10.23,14.74-7,8.33,3.37,14.53-5.62,22.62-4.54C966.8,320.69,970,320.49,972.9,321.36Z"/><path class="cls-8" d="M961.61,454.14c12.66,17.59-2.92,41.35-28.19,42.69-11,2.67-15.85-5.5-21.22-15.18-6-10.79-12.14-21.21-7.38-33.62,3.24-8.45,6.84-16.63,7.75-25.73.24-2.36,1.86-2.84,3.89-2.17C935.38,426.31,950.47,438.66,961.61,454.14Zm-33.38,27.92c6.74,0,15-10.12,14.81-18.92-.18-7.32-3.56-14.24-10.8-15.49-11.24-1.94-18.41,5.57-18.77,17.34C913.28,471.29,922.57,482,928.23,482.06Z"/><path class="cls-5" d="M949.51,660.72c8,.07,5.34,4.48,5.43,9.23.17,8.1-.85,15.66-5,22.55-1.57,2.63-3.06,7.3-6.93,5.92-3.51-1.26-5.46-5.35-6.36-9.26-.34-1.49-.18-3.09-.13-2,0-7.44.13-12.26,0-17.08C936.19,660.3,942.47,660.67,949.51,660.72Z"/><path class="cls-9" d="M943,463.14c.22,8.8-8.07,18.95-14.81,18.92-5.66,0-15-10.77-14.76-17.07.36-11.77,7.53-19.28,18.77-17.34C939.48,448.9,942.86,455.82,943,463.14Z"/><path class="cls-2" d="M917.57,654.82c2.12,2.47-1,3.75-3.25,4.13-7.87,1.32-15.71,3.2-23.63,3.6-6.09.31-6.43-5.91-6.49-9.85-.35-25.91-.18-51.83-.18-77.74h-3.74c0-29.07-.69-58.16.2-87.2.8-26.12,1-52.34,5.27-78.25.25-1.53.38-3.6,2.43-3.23a4.76,4.76,0,0,1,3,3c3.38,14.2,10.18,27.68,2.25,43.22-4.5,8.8-1.36,21.13,3.92,28.13,9.34,12.36,3.65,24.59,4.23,36.73,1.76,37.47-1.11,75.22,7.64,112.24C911.24,638.27,911.24,647.42,917.57,654.82Z"/><path class="cls-1" d="M899.88,301.24c5.08.46,7.15,3.09,7.06,7.57-.12,6.46-3.64,11.25-9.68,11.5-5.62.23-8.76-4.26-8.81-10.35C888.38,301.35,896,303.7,899.88,301.24Z"/><path class="cls-1" d="M870.62,221.46a32,32,0,0,1,.08,3.95c-.1,2,.33,4.36-2.79,4.09-.53-.05-1.24-.81-2-2C865.39,223.6,867.28,222.14,870.62,221.46Z"/><path class="cls-1" d="M870.31,692.55c3.49,6.57-5.43,14.38-15.6,13.48-15.06-1.34-29.64-4.81-42.93-12.51-2.83-1.65-5.71-3.25-5.94,2.53-.48,11.6-6,20.48-14.77,28.07-7.54,6.52-22,4.57-27-5.11-3.09-6-6.39-12.23-5.23-19.48.73-4.58-1-6.56-5.76-6.35-12.11.53-24.22.81-36.33,1.25-5.28.19-4.53,4.25-4.85,7.69-1.06,11.53.22,24-13.78,29.75-12.71,5.22-26-1.67-29-15-1.56-7-2.44-13.91-1.36-21.05.38-2.54.05-5.14-2.82-6.1-2.49-.84-3.76,1.2-5.53,2.63-7.91,6.39-15.13,13.84-25,17.34-8.18,2.9-14.51-2.87-14.18-12.82,2.72-34.31-5-67.84-7.49-101.76-1.18-16.36-1.66-32.73,0-49.13.57-5.57-4-9.7-5.23-15.13-4-18.13-9-36.38-4.8-54.77,7.17-31.34,7.33-64,18.56-94.53,1-2.75,1.91-4.85-1.79-7.16C601.7,363.27,597.57,350,600.65,329c.82-5.64,2.52-11.16,3.89-16.72.5-2,.93-4.66-1-5.43-6.61-2.57-5.58-8-5.12-12.93,1.75-18.76,3.13-37.68,11.26-55.08a42.21,42.21,0,0,1,8.54-11.74c9-8.89,4.13-20.57,6.81-30.68a33.81,33.81,0,0,0,1.07-6.54c1.22-19.14,3.69-20.64,21.65-13,21.27,9,33.38,5.66,48-13.3,3.65-4.72,13-4.39,15.8.56C718.27,176,726.14,179.2,739.44,175c8.13-2.59,16.58-4.3,24.15-8.69,3-1.76,7.54-4.67,10.25-.8a17,17,0,0,1,2.39,11.67,127.89,127.89,0,0,0-1.89,23.05c-.06,7.46,6.7,11,11,15.36,14.18,14.54,18.21,33,22.37,51.72,1.15,5.19,1.08,10.34,1.85,15.43,1.37,8.95-5.28,17.25-1.56,26.17,5.18,12.45.83,23.75-2.93,35.67-2.16,6.85,4.45,13.43,7,20.1,9.78,26,17.67,52.2,18.48,80.39.83,29.19,4.07,58.31,4.77,87.49.65,27.12,4.76,53.69,10.38,80,4,18.89,10.4,37.29,15.81,55.88C863.85,676.63,866.19,684.79,870.31,692.55Zm-17.94.12c3.56-3.14,1.31-8,.79-12.4-.91-7.6-3.91-14.55-5.51-21.84-5.08-23-12.11-45.53-15.39-69.16-6.43-46.29-7.32-92.86-10.91-144-.09-21.46-5.52-46.35-16.51-70.37-6.46-14.1-7.88-16.15-19.68-7.35-3.87,2.89-10.71.45-11.93,6.92-3.71,19.75-11.81,37.9-20,56-1.14,2.52-1.47,7.41-2.7,7.58-10.15,1.47-12.46,11.24-18.64,16.75-4.44,4-7.6,8.23,1.17,11.75,3.2,1.28,5.48,5,8.05,7.69,7,7.4,3.93,17.28,5.73,25.87,4.16,19.8,3.32,20.06-16.62,25.55-5.73,1.58-8.52,5.06-8.8,10.89-.41,8.66,2.07,16.62,4.28,25a209.82,209.82,0,0,0,21.87,53.18c6.92,11.76,13.44,24.29,22.74,34,19.32,20.12,41.44,37,69.29,44C843.64,693.64,848.89,695.75,852.37,692.67Zm-62-408c6.07-3.25,7.39-9.35,6.06-16.06a165.08,165.08,0,0,0-11.89-36.39c-1.93-4.23-4.07-5.43-7.89-1.7-3.6,3.52-7.8,4.14-12.86,2.33a89.66,89.66,0,0,0-27.9-5.23,205.87,205.87,0,0,0-37.08,2.69c-21.74,3.8-44.55,1.51-64.83,13.11-1.81,1-6.08.73-6.1-3.72,0-1.81,1.87-4.46-1.26-4.77-1.34-.13-3.28,2-4.36,3.51C611.77,253,612.08,270,611.71,286.72c-.12,5.43,4.55,4.34,6.36,2.11,4.72-5.84,10.88-11.42,9.14-20.23-.51-2.55-1-4.89,1.61-6.52,2.38-1.47,4.45-.51,6.87.43,6.63,2.59,11.73,9,19.77,8.07,10.57,0,12.9-1.56,19.38-10,3.31-4.3,7.71-11.76,13.75-4.76,9.8,11.33,29.83,20.44,44.3,3,3.56-4.28,9.88-10.73,14.54-1.61C753.14,268.44,760,277.58,771,284.2,778,288.43,784.2,287.92,790.32,284.64ZM796,333.38c3.7-11.34,0-22.08-1.51-32.63-.75-5.09-9.28,2.22-14.36,0a17.69,17.69,0,0,0-3.24-.62c-15.72-3.29-26.77-13.11-36-25.59-1.43-1.94-2.79-5.3-6.22-3.25-16.8,10-33.32,11.56-49.72-.95-2-1.52-3.68-.65-6.12,1.2-10.57,8-22.24,12.46-35.49,6.19-3.6-1.71-5.85-.08-7.86,2.75-4.12,5.79-5.63,12.92-11,18.25-10.84,10.76-12.63,25.66-14.16,39.67-1.48,13.56,21.17,32.68,34.56,31,1.52-.19,3.87-1.48,4.08-2.59.41-2.18-2.19-2.39-3.74-2.88-6.69-2.13-8.93-7.43-6.5-13,8.4-19.11,24.85-28.49,44.22-32.6,21-4.44,40.22-1.48,55.41,16.12,6.88,8,11.36,16.45,10.15,26.76-.79,6.6,1.17,8.2,3.77,7.68,5.69-.72,8.43-.38,10.45-1.43C777.45,359.77,790.34,350.51,796,333.38Zm-5.27,371.67c-1.83-5.06-.22-13.84-7.61-14.45-4.48-.36-14.82-2.1-14.57,7,.2,7.16-.55,18,10.94,18.77C785.45,716.77,790.16,712.57,790.68,705.05Zm-9.24-30.64c.66-2.67-2.68-3.24-4.4-4.28-16-9.65-21.82-27.29-32.47-41.1-8.18-10.61-12.41-23.49-17.25-35.93-7-17.87-16.55-34.91-16.75-54.84,0-4-2.09-4.85-5.72-4.17-9.62,1.81-19,5.06-29.13,4.08-2.15-.21-7.78-1.18-8.14,3.42-1.68,21.47-3.13,43,.74,64.39,3.15,17.4,10.17,34.18,8.08,52.57,2.24,7.89-4.35,19,8.3,23.26,4.94,1.65,9.66,4,15.29,3.68,12.21-.73,24.48-.45,36.67-1.33,12.94-.94,26.19.93,38.74-4.06C778.31,679,780.77,677.16,781.44,674.41ZM753.4,222c7,.52,13.81.11,12.12-10.65-1.24-7.85-1-16-1.27-23.93-.11-3.11-1.84-5.95-4.42-5.74-6.43.5-13.4.79-19,3.51-11.47,5.53-27.95,4.19-35.47-5.94-1.23-1.66-2.18-5-5.57-2.55-4.13,2.93-8.65,5.36-12.44,8.66-13.43,11.68-24.14,12.49-40.2,3.83-4.62-2.49-10.56-4.24-12.47,4.81-1.19,5.64,0,11.08-1,16.95,0,3.6.05,7.61,0,11.61s1.77,7.58,5.62,6C652.8,223,667,224.16,681,223.33c13.21-.79,26.28-3.16,39.38-4.5C731.17,217.72,742.35,221.21,753.4,222Zm6.34,166.8c2.48-6.21,5.41-12.8-6.67-9.49-2.17.59-5.45-2.42-8.07-4-5.2-3.16-22.89,2.52-24.22,8.41-2.18,9.7-7.62,17.76-12.07,26.31-1.78,3.4-3.87,6.63-8.32,7.9-8.63,2.46-31.51-5.51-38.81-14.25-1.33-1.59-2.46-3.64-4.66-2.95-2.59.8-2.41,3.46-2.33,5.67.27,7.09.63,14.19.95,21.28h-.26c0,6.23-.06,12.46.06,18.68,0,1.12.81,2.23,1.24,3.34.7-.79,1.45-1.53,2.08-2.36,3.24-4.3,8.66-8.9,12.4-4.53,9,10.56,21.85,11.71,33.2,16.61,7.46,3.21,13.21,1.65,17.31-5.23,5.27-8.84,13.79-14.84,18.77-24.32A436.51,436.51,0,0,0,759.74,388.82Zm-34.29-25.65c7.39,3.92,11.37.87,10.74-7.48-.86-11.54-15.28-27.34-26.85-28-15.81-.91-31.61,0-46,7.76-6,3.23-11.73,8.31-11.32,15.22.31,5.09,6.77,4.39,11.53,4.1,2.77.56,7.23-2.19,8.63,1.77,1.33,3.75,1,7.88-3.87,10.7s-5.82,8.17-5.21,13.59c1.32,11.89,19.07,26.25,31,25a5.57,5.57,0,0,0,3.53-1.4,69.69,69.69,0,0,0,14.72-31.73c.48-2.58-3.83-5.68.32-8.15C716.64,362.23,720.46,360.52,725.45,363.17ZM712.4,521.85c24.63-7.89,28.5-10.61,21.81-35.17-1.3-4.78-4-12.23-10.67-13-18.8-2.28-35.75-10-53.12-16.62-3.39-1.28-5.39-1.53-7.8,2.72-4.83,8.55-8.49,19.28-22.36,17.2-4.21-.63-9.07,1.51-13.33,3.16-14,5.38-16.47,16.38-12.2,36.79,2.58,12.33,7.08,15.85,19.61,13.83,19.84-3.2,40.35.17,60.34-4.1C700.59,525.05,706.58,523.72,712.4,521.85Zm-11.09,187c0-9.82-7.17-15.35-19.66-15.72-4.22-.12-4.57,2.85-4.67,5.79-.49,14.92,4.12,23.79,12.6,23.61C698.63,722.36,699.67,715,701.31,708.86ZM665.56,671.3c.1-9.76,1.76-19.82,0-29.24-5.5-29.73-11.15-59.34-7.65-94.42,2-7.61-3.43-9.72-13.8-6.13-1.38.48-3.56-.59-4.54.15-4.91,3.71-15.11-3.69-16.2,7-1.84,17.86-2.69,35.82-.69,53.75,3.18,28.49,8.87,56.73,8.22,85.61-.07,3,.49,7,4.74,6.26,13.47-2.5,17.85-17.47,29.75-22.31C665.53,671.88,665.55,671.52,665.56,671.3ZM643.35,388.86c1.67-3.6,3.2-8.51-3.15-7.65-3.51.48-9-3.81-10.29,3.24-4.22,22.56-8.27,45.16-12.46,67.72-3.87,20.89-1.71,23.26,17,17.6,4.16-1.26,8.79-3.48,8.84-8.76C643.46,437,643.35,412.91,643.35,388.86Z"/><path class="cls-4" d="M853.16,680.27c.52,4.37,2.77,9.26-.79,12.4s-8.73,1-12.8,0c-27.85-7-50-23.85-69.29-44-9.3-9.69-15.82-22.22-22.74-34a209.82,209.82,0,0,1-21.87-53.18c-2.21-8.34-4.69-16.3-4.28-25,.28-5.83,3.07-9.31,8.8-10.89,19.94-5.49,20.78-5.75,16.62-25.55-1.8-8.59,1.25-18.47-5.73-25.87-2.57-2.72-4.85-6.41-8.05-7.69-8.77-3.52-5.61-7.79-1.17-11.75,6.18-5.51,8.49-15.28,18.64-16.75,1.23-.17,1.56-5.06,2.7-7.58,8.22-18.13,16.32-36.28,20-56,1.22-6.47,8.06-4,11.93-6.92,11.8-8.8,13.22-6.75,19.68,7.35,11,24,16.42,48.91,16.51,70.37,3.59,51.19,4.48,97.76,10.91,144,3.28,23.63,10.31,46.11,15.39,69.16C849.25,665.72,852.25,672.67,853.16,680.27Z"/><path class="cls-5" d="M796.38,268.58c1.33,6.71,0,12.81-6.06,16.06S778,288.43,771,284.2c-11-6.62-17.84-15.76-23.55-26.95-4.66-9.12-11-2.67-14.54,1.61-14.47,17.4-34.5,8.29-44.3-3-6-7-10.44.46-13.75,4.76-6.48,8.44-8.81,10-19.38,10-8,.93-13.14-5.48-19.77-8.07-2.42-.94-4.49-1.9-6.87-.43-2.63,1.63-2.12,4-1.61,6.52,1.74,8.81-4.42,14.39-9.14,20.23-1.81,2.23-6.48,3.32-6.36-2.11.37-16.74.06-33.75,10.5-48.31,1.08-1.52,3-3.64,4.36-3.51,3.13.31,1.25,3,1.26,4.77,0,4.45,4.29,4.75,6.1,3.72,20.28-11.6,43.09-9.31,64.83-13.11a205.87,205.87,0,0,1,37.08-2.69,89.66,89.66,0,0,1,27.9,5.23c5.06,1.81,9.26,1.19,12.86-2.33,3.82-3.73,6-2.53,7.89,1.7A165.08,165.08,0,0,1,796.38,268.58Z"/><path class="cls-10" d="M794.44,300.75C796,311.3,799.65,322,796,333.38c-5.61,17.13-18.5,26.39-33.27,34.08-2,1.05-4.76.71-10.45,1.43-2.6.52-4.56-1.08-3.77-7.68,1.21-10.31-3.27-18.79-10.15-26.76-15.19-17.6-34.42-20.56-55.41-16.12-19.37,4.11-35.82,13.49-44.22,32.6-2.43,5.54-.19,10.84,6.5,13,1.55.49,4.15.7,3.74,2.88-.21,1.11-2.56,2.4-4.08,2.59-13.39,1.72-36-17.4-34.56-31,1.53-14,3.32-28.91,14.16-39.67,5.37-5.33,6.88-12.46,11-18.25,2-2.83,4.26-4.46,7.86-2.75,13.25,6.27,24.92,1.84,35.49-6.19,2.44-1.85,4.14-2.72,6.12-1.2,16.4,12.51,32.92,11,49.72.95,3.43-2.05,4.79,1.31,6.22,3.25,9.22,12.48,20.27,22.3,36,25.59a17.69,17.69,0,0,1,3.24.62C785.16,303,793.69,295.66,794.44,300.75ZM735,319.13c5.11.75,8.07-3.18,7.53-5.32-.84-3.29,1.2-9.29-5.12-9.74a9.14,9.14,0,0,0-9.73,7.53C727.05,315.64,730.62,319.24,735,319.13Zm-92.47,5.07c8-.89,5.65-9,7.79-13.67-.36-3.07-1.24-6.86-4.11-6.06-5.78,1.61-10.9,5.32-11.66,11.91C633.93,321.66,638.55,324.63,642.52,324.2Z"/><path class="cls-5" d="M783.07,690.6c7.39.61,5.78,9.39,7.61,14.45-.52,7.52-5.23,11.72-11.24,11.32C768,715.6,768.7,704.76,768.5,697.6,768.25,688.5,778.59,690.24,783.07,690.6Z"/><path class="cls-2" d="M777,670.13c1.72,1,5.06,1.61,4.4,4.28s-3.13,4.54-6,5.69c-12.55,5-25.8,3.12-38.74,4.06-12.19.88-24.46.6-36.67,1.33-5.63.34-10.35-2-15.29-3.68-12.65-4.24-6.06-15.37-8.3-23.26,2.09-18.39-4.93-35.17-8.08-52.57-3.87-21.42-2.42-42.92-.74-64.39.36-4.6,6-3.63,8.14-3.42,10.16,1,19.51-2.27,29.13-4.08,3.63-.68,5.68.21,5.72,4.17.2,19.93,9.78,37,16.75,54.84,4.84,12.44,9.07,25.32,17.25,35.93C755.22,642.84,761.08,660.48,777,670.13Z"/><path class="cls-9" d="M765.52,211.37c1.69,10.76-5.08,11.17-12.12,10.65-11-.81-22.23-4.3-33-3.19-13.1,1.34-26.17,3.71-39.38,4.5-14,.83-28.23-.36-41.78,5.25-3.85,1.58-5.68-2.08-5.62-6s0-8,0-11.61c1.05-5.87-.18-11.31,1-16.95,1.91-9.05,7.85-7.3,12.47-4.81,16.06,8.66,26.77,7.85,40.2-3.83,3.79-3.3,8.31-5.73,12.44-8.66,3.39-2.4,4.34.89,5.57,2.55,7.52,10.13,24,11.47,35.47,5.94,5.63-2.72,12.6-3,19-3.51,2.58-.21,4.31,2.63,4.42,5.74C764.54,195.42,764.28,203.52,765.52,211.37Z"/><path class="cls-2" d="M753.07,379.33c12.08-3.31,9.15,3.28,6.67,9.49a436.51,436.51,0,0,1-19.4,41.06c-5,9.48-13.5,15.48-18.77,24.32-4.1,6.88-9.85,8.44-17.31,5.23-11.35-4.9-24.18-6.05-33.2-16.61-3.74-4.37-9.16.23-12.4,4.53-.63.83-1.38,1.57-2.08,2.36-.43-1.11-1.22-2.22-1.24-3.34-.12-6.22-.06-12.45-.06-18.68h.26c-.32-7.09-.68-14.19-.95-21.28-.08-2.21-.26-4.87,2.33-5.67,2.2-.69,3.33,1.36,4.66,2.95,7.3,8.74,30.18,16.71,38.81,14.25,4.45-1.27,6.54-4.5,8.32-7.9,4.45-8.55,9.89-16.61,12.07-26.31,1.33-5.89,19-11.57,24.22-8.41C747.62,376.91,750.9,379.92,753.07,379.33Z"/><path class="cls-1" d="M742.52,313.81c.54,2.14-2.42,6.07-7.53,5.32-4.37.11-7.94-3.49-7.32-7.53a9.14,9.14,0,0,1,9.73-7.53C743.72,304.52,741.68,310.52,742.52,313.81Z"/><path class="cls-5" d="M736.19,355.69c.63,8.35-3.35,11.4-10.74,7.48-5-2.65-8.81-.94-12.77,1.42-4.15,2.47.16,5.57-.32,8.15a69.69,69.69,0,0,1-14.72,31.73,5.57,5.57,0,0,1-3.53,1.4c-11.94,1.21-29.69-13.15-31-25-.61-5.42.46-10.81,5.21-13.59s5.2-6.95,3.87-10.7c-1.4-4-5.86-1.21-8.63-1.77-4.76.29-11.22,1-11.53-4.1-.41-6.91,5.32-12,11.32-15.22,14.39-7.77,30.19-8.67,46-7.76C720.91,328.35,735.33,344.15,736.19,355.69Z"/><path class="cls-8" d="M734.21,486.68C740.9,511.24,737,514,712.4,521.85c-5.82,1.87-11.81,3.2-17.72,4.77-20,4.27-40.5.9-60.34,4.1-12.53,2-17-1.5-19.61-13.83-4.27-20.41-1.76-31.41,12.2-36.79,4.26-1.65,9.12-3.79,13.33-3.16,13.87,2.08,17.53-8.65,22.36-17.2,2.41-4.25,4.41-4,7.8-2.72,17.37,6.58,34.32,14.34,53.12,16.62C730.2,474.45,732.91,481.9,734.21,486.68Zm-44.65,10.18c.82-9.24-11.28-19.67-21.68-19.47-5.78.11-17.11,17.49-17.35,26.6-.22,8.42,8.05,14.92,19.06,15C681.28,521,688.65,507.19,689.56,496.86Z"/><path class="cls-5" d="M681.65,693.14c12.49.37,19.69,5.9,19.66,15.72-1.64,6.11-2.68,13.5-11.73,13.68-8.48.18-13.09-8.69-12.6-23.61C677.08,696,677.43,693,681.65,693.14Z"/><path class="cls-1" d="M667.88,477.39c10.4-.2,22.5,10.23,21.68,19.47-.91,10.33-8.28,24.1-20,22.12-11-.07-19.28-6.57-19.06-15C650.77,494.88,662.1,477.5,667.88,477.39Zm9.19,25.51c1.26-10.59-4.16-12.39-9.17-12.61-7.3-.32-4.95,7.3-6.62,11.09-1.27,2.88,2.27,7.26,6.74,7.18C673.55,508.45,676.48,504.78,677.07,502.9Z"/><path class="cls-9" d="M667.9,490.29c5,.22,10.43,2,9.17,12.61-.59,1.88-3.52,5.55-9.05,5.66-4.47.08-8-4.3-6.74-7.18C663,497.59,660.6,490,667.9,490.29Z"/><path class="cls-4" d="M665.58,642.06c1.74,9.42.08,19.48,0,29.24,0,.22,0,.58-.15.63-11.9,4.84-16.28,19.81-29.75,22.31-4.25.79-4.81-3.28-4.74-6.26.65-28.88-5-57.12-8.22-85.61-2-17.93-1.15-35.89.69-53.75,1.09-10.65,11.29-3.25,16.2-7,1-.74,3.16.33,4.54-.15,10.37-3.59,15.79-1.48,13.8,6.13C654.43,582.72,660.08,612.33,665.58,642.06Z"/><path class="cls-1" d="M650.31,310.53c-2.14,4.68.25,12.78-7.79,13.67-4,.43-8.59-2.54-8-7.82.76-6.59,5.88-10.3,11.66-11.91C649.07,303.67,650,307.46,650.31,310.53Z"/><path class="cls-4" d="M640.2,381.21c6.35-.86,4.82,4.05,3.15,7.65,0,24.05.11,48.1-.09,72.15,0,5.28-4.68,7.5-8.84,8.76-18.68,5.66-20.84,3.29-17-17.6,4.19-22.56,8.24-45.16,12.46-67.72C631.23,377.4,636.69,381.69,640.2,381.21Z"/><path class="cls-1" d="M601.94,746.6c2.41,11.31.09,14-11.69,13.19-19.79-1.36-40.31,1.85-58.8-7.82-7.5-3.92-12.14-3.86-17.54,3.19-5.83,7.62-15,11.46-23.49,15.36C479.33,775.61,470,767.71,467,754c-4.69-21.13-6.54-21-24.54-16-7.19,2-14.88,2.26-22.35,3.23-2,.26-4.85.42-4.25,3,3.37,14.27-8.44,20.66-15.23,29.45-4.45,5.77-10.93,8.78-18.18,4.77-8.48-4.7-12.5-12.1-11.43-22,.55-5,1-10,1.24-15s-1.69-6.41-6.47-3.88c-12,6.36-24,12.81-37.45,15.72-8.47,1.83-14-2.33-11.71-10.37,2.85-10,3.15-20,3.36-30.17.43-21.28.11-42.62,1.7-63.82,1.63-21.87-.58-44,4.61-65.64.59-2.47,1.33-6.22-2.35-6.58-16.66-1.67-18.35-12.79-17.31-26.09,1.16-14.7-3-29-3.41-43.64-.18-6.79,2.73-12.14,4.86-18.2,3.11-8.86,8.08-8.29,14.84-9.18,5.78-.77,3.13-7.47,4.53-11.33,2.6-7.18,2.35-13.11-8.59-10.95-6.73,1.33-10.14-4.41-9-9.4,5.6-23.65,1.24-47.3,1-70.91-.23-25.3,5.3-49.27,14.07-72.7,5.05-13.48,12-25.78,22.62-35.8,10.2-9.62,12.22-23.83,19.42-35.23,9.27-14.64,18.33-29.56,25.72-45.19,7.6-16.07,16.7-30.59,29.77-42.7,11.1-10.28,24.79-9.46,38.22-9.45,6.35,0,12.7,1.33,19,2.1,9.16,1.1,13.3,8.68,16.11,15.39,6.74,16.09,14.24,31.88,18,49.28,1.88,8.79,8.24,16.64,10.44,25.88,3.8,16,5,32.11,4.83,48.65-.06,7.67,5.51,16.17,10.42,22.92,6.76,9.31,7.13,20.09,10,30.33,7.1,25.47,4.17,51.77,6.63,77.62a364.62,364.62,0,0,0,8.55,52.22c1.49,6,3.25,12.17-5.08,17-5.44,3.14.84,9.93,1.46,15.08,3.49,29,13.83,56.86,15.42,86.32s1.66,59.32,8.69,88.51C591.51,693.42,596.32,720.11,601.94,746.6Zm-31.4,1.09c5,1,17.68,3.8,16.58-7.67-2.27-23.68-5.5-47.48-11-70.59-6.08-25.6-6.83-51.44-8.37-77.79.85-9.43-1.56-19-3.35-28.51-3.85-20.58-7.54-41.23-12.52-61.55-2.24-9.14-2.19-21.83-11.83-25.66-19.74-7.85-27.54-23.67-32.49-41.79-2.18-8-6.32-9-12.54-7-13.36,4.29-27.65,6.06-41,6.72-35.3,1.74-70.9,1.3-105.79-6.49-3.22-.72-4.34-.49-4.94,2.83-2.28,12.39-5.07,24.35-3.42,37.52,1,8.31,3.81,7.78,9.43,7.77,24.28-.07,48.49-1.54,72.3-6.08,9.73-1.86,22.43,6.22,29-7.67,3-6.33,8.1-11,13-15.79,2.94-2.93,5.85-2,8.25.26s2.31,5.25-.35,7.51a31.05,31.05,0,0,0-4.77,5.17c-3.49,4.84-11.66,7.22-10.14,14.73,4.41,21.8,6.17,44.17,13.26,65.4,3.91,11.71.61,18.48-11.18,20.92q-12.63,2.61-25.38,4.62c-12.58,2-14.27,4.48-10.94,16.83,2.52,9.32,5.13,18.61,7.46,28,4.86,19.53,16.26,35.54,27,52.08,11.49,17.74,21.84,36.38,38,50.37,13.67,11.83,28,22.77,45.35,29.36C550.09,744.94,560.47,745.71,570.54,747.69Zm-21.6-281.62c5.2.24,7-1.66,5.26-6.76-10.07-29-7.06-59.45-9.26-82.36-.11-21-5.42-34.4-6.42-48.11-1.88-25.91-19.55-36.56-39.5-46.06-4.18-2-5.69-.56-5.49,3.91.6,13.89,1.63,27.84,2,41.65,1,41.81,12.08,80.86,29.21,118.32C529,456,536.14,465.46,548.94,466.07ZM517,275.4c1.64-1.27,1.23-3.31.4-4.89-3.58-6.84-9.64-10.89-16.61-13.46-9-3.3-18.72-3.41-27.81-5.52a299.21,299.21,0,0,0-68.46-7.42c-13.18-.24-25,4.82-36.51,10.42-3.92,1.9-5.79,7-5,11.46.56,3.21,4.13,3.34,6.64,1.92,6.74-3.8,14.23-3.43,21.42-3.81,28-1.47,56.07.53,83.72,4.52,12.79,1.84,27.13-2.21,38.56,7.46C514,276.6,516.1,276.1,517,275.4Zm-5.87-27.52c7.91-.07,6-4.59,4.92-7.51-7.36-19.9-10.82-41.18-20.23-60.29-5.6-11.35-5.38-26.09-22-31.3-20.92-6.56-49.37,1.83-59.49,20.5q-16.86,31.13-33.52,62.39c-.67,1.26-1.61,3-1.2,4.11.79,2,3.08,1.48,4.72,1.06a111.25,111.25,0,0,1,44.13-2.12c16.3,2.45,32.77,4,48.88,7.38C489.05,244.55,501.2,243.88,511.13,247.88Zm-7.38,500.23c4.23-3.79,5.69-7.61,0-13.12-7.88-7.62-16-1.69-24.76-2.82-1,2.29-8.62-3.87-6.23,4.14,2,6.64,5.61,12.84,8.94,19,1.2,2.22,3,5.72,6.54,3.58C493.61,755.63,499.09,752.29,503.75,748.11ZM489.36,416.25c6-1.89,13.16-4.08,7.46-13.43-1.87-3.06-2-7.19-2.91-10.84-5.18-21.07-5.48-42.75-8.1-64.15-1.56-12.82-1.8-26-7.64-38.1-1.93-4,3.12-11.42-6.36-11.63-8.19-.18-16.36-1-24.55-1.34-3.31-.15-4.62,2.42-6.27,4.87-6.11,9.06-4.85,19.58-6.24,29.54-1.52,10.88-6.65,14.64-15.34,9.51-14.72-8.69-24.94-20.87-25.93-38.93-.31-5.74-1.32-8.71-8.51-5.69-12,5-14.51,16.24-18.89,26.11-12.33,27.83-23.35,56.09-22.49,87.33,0,2.22,0,4.45,0,6.68.23,16.38,5.25,22.53,21.75,24.2,18.61,1.89,37.32,3.13,56,4.06C444.44,425.58,467.25,423.23,489.36,416.25ZM477.74,720.7c1.93-.29,7.9-.38,3.53-5.48-15.3-17.87-27.1-38.15-39.42-58-4.68-7.55-10.44-14.54-13.54-23.22-6.73-18.9-13.34-37.79-17.25-57.54-.58-3-1.18-6.47-5.64-6C393,571.72,380.48,573,368,574.35c-3.83.42-4.64,2.44-4.14,6.49,3.46,28,4.26,56.23,8.83,84.13,1.86,11.36-2,23,.15,32.42.47,24.32,1.11,24.76,21.93,31.35,9.15,2.9,17.89.14,26.82.15C440.75,728.9,459.06,723.53,477.74,720.7ZM441.49,554.45c17.32-3,17.83-3.31,16.23-20.75-1.77-19.28-6.69-24.46-24.41-23.26-5.42.36-10.74,1.39-16.17.4-7.75-1.42-9.75,2.25-8.34,9.19,1.35,6.67,1,12.05-4.71,17.81-8.41,8.43-17.2,11.83-27.4,6.95-11.47-5.49-17.33-15.92-13.4-27.53,3.7-10.94-2.68-9.35-8.81-8.59-7.57.94-14.83,3.08-22.69,3.22-6,.11-16.75.42-17.54,5.8-1.38,9.36-1,20,3.35,29.23,2,4.18,7.1,7,1.87,12.39-1.37,1.41.66,4.19,2.82,4.28,12.52.53,24.86,3.9,37.48,2.74,13.63-1.24,27.23-2.73,34.41-3.45C414.72,562.12,427.82,556.78,441.49,554.45Zm4.22-56.55c2.21-.25,4.5-.46,4.13-3.86-1.07-10.05-7.62-15.7-18.12-14.94-31,2.23-61.94,4.23-92.8,7.36-4.92.5-12.25-.21-15.37,5.76-2,3.82-3.63,3-6.07,1.22-1.71-1.25-3.34-4-5.62-2-3.07,2.71-.53,6.34-.25,9.45.27,2.91,3,2.26,5.35,2.05,14.55-1.32,29.27-1.52,43.63-3.92,20.65-3.45,40.87,1.26,61.31,1.4C429.84,499.61,437.78,498.81,445.71,497.9ZM425.78,287.8c1.58-9.61,1.61-17.12-14.59-11.65-.72.61-8.39-7-8.84,2.29-.55,11.5,4.7,20.89,13.43,28.28,2,1.71,4.52,3.88,7.07,2.7s2.84-4.17,2.79-7C425.54,297.56,425,292.57,425.78,287.8ZM400.21,742.46c0-3.47-6.77-2.57-10.62-2.26-9.17.72-4.66,8.24-6.38,12.77.35,3.35-.48,7.53,1.23,9.72,7,9,9.23,1,12.43-4S400.17,747.61,400.21,742.46ZM386.4,535.37c4.38.12,11.69-6.46,10.79-10.21-1.54-6.46-4.58-14.48-10.56-15.56-5.59-1-12.92,2.91-12.6,11.93C374.33,530,378.71,534.33,386.4,535.37ZM364.29,285c1-2.34.46-6-1.54-4.87-5.8,3.34-13.86.86-18.2,7.38-16.32,24.56-22.08,52.34-23.68,81.08-1.19,21.39,4.38,42.62,2.64,65.85.05.78-1.27,4.26,2.53,4.79,4,.57,3.91-3,4.65-5.84a24.22,24.22,0,0,0-.72-15.6c-.77-1.89-1-3.75,1-4.52,5.49-2.05,4.58-6.26,4.05-10.54-2.7-21.77.78-43.14,7.18-63.64C348,320.52,356.79,302.93,364.29,285ZM361,720.79c1.93-17.07,2.82-34.52,1.54-51.62-1.76-23.57-2.52-47.3-6.68-68,.31-22.2-2.15-25.88-14.46-25.18-9.92.56-5.33,8.5-5.75,12.61-1.44,14-1.4,28.14-2,42.22-1.05,24.6-4.49,49.12-.7,73.84,1.07,7,0,14.49-1.3,21.53-.77,4.11-3.37,8.9-.85,12,2.9,3.49,7.65,0,11.11-1.33C350,733.7,359.9,730.2,361,720.79Z"/><path class="cls-3" d="M587.12,740c1.1,11.47-11.57,8.65-16.58,7.67-10.07-2-20.45-2.75-30.4-6.52-17.39-6.59-31.68-17.53-45.35-29.36-16.19-14-26.54-32.63-38-50.37-10.72-16.54-22.12-32.55-27-52.08-2.33-9.37-4.94-18.66-7.46-28-3.33-12.35-1.64-14.83,10.94-16.83q12.74-2,25.38-4.62c11.79-2.44,15.09-9.21,11.18-20.92-7.09-21.23-8.85-43.6-13.26-65.4-1.52-7.51,6.65-9.89,10.14-14.73a31.05,31.05,0,0,1,4.77-5.17c2.66-2.26,2.8-5.2.35-7.51s-5.31-3.19-8.25-.26c-4.86,4.83-10,9.46-13,15.79-6.59,13.89-19.29,5.81-29,7.67-23.81,4.54-48,6-72.3,6.08-5.62,0-8.39.54-9.43-7.77-1.65-13.17,1.14-25.13,3.42-37.52.6-3.32,1.72-3.55,4.94-2.83,34.89,7.79,70.49,8.23,105.79,6.49,13.37-.66,27.66-2.43,41-6.72,6.22-2,10.36-1,12.54,7,4.95,18.12,12.75,33.94,32.49,41.79,9.64,3.83,9.59,16.52,11.83,25.66,5,20.32,8.67,41,12.52,61.55,1.79,9.54,4.2,19.08,3.35,28.51,1.54,26.35,2.29,52.19,8.37,77.79C581.62,692.54,584.85,716.34,587.12,740Z"/><path class="cls-2" d="M554.2,459.31c1.77,5.1-.06,7-5.26,6.76-12.8-.61-20-10.11-24.24-19.41-17.13-37.46-28.21-76.51-29.21-118.32-.33-13.81-1.36-27.76-2-41.65-.2-4.47,1.31-5.9,5.49-3.91,20,9.5,37.62,20.15,39.5,46.06,1,13.71,6.31,27.09,6.42,48.11C547.14,399.86,544.13,430.3,554.2,459.31Z"/><path class="cls-4" d="M517.4,270.51c.83,1.58,1.24,3.62-.4,4.89-.9.7-3,1.2-3.65.68-11.43-9.67-25.77-5.62-38.56-7.46-27.65-4-55.68-6-83.72-4.52-7.19.38-14.68,0-21.42,3.81-2.51,1.42-6.08,1.29-6.64-1.92-.79-4.48,1.08-9.56,5-11.46,11.49-5.6,23.33-10.66,36.51-10.42A299.21,299.21,0,0,1,473,251.53c9.09,2.11,18.84,2.22,27.81,5.52C507.76,259.62,513.82,263.67,517.4,270.51Z"/><path class="cls-8" d="M516.05,240.37c1.08,2.92,3,7.44-4.92,7.51-9.93-4-22.08-3.33-33.79-5.78-16.11-3.37-32.58-4.93-48.88-7.38a111.25,111.25,0,0,0-44.13,2.12c-1.64.42-3.93,1-4.72-1.06-.41-1.07.53-2.85,1.2-4.11q16.71-31.23,33.52-62.39c10.12-18.67,38.57-27.06,59.49-20.5,16.62,5.21,16.4,19.95,22,31.3C505.23,199.19,508.69,220.47,516.05,240.37Z"/><path class="cls-5" d="M503.73,735c5.71,5.51,4.25,9.33,0,13.12-4.66,4.18-10.14,7.52-15.53,10.78-3.53,2.14-5.34-1.36-6.54-3.58-3.33-6.16-7-12.36-8.94-19-2.39-8,5.26-1.85,6.23-4.14C487.75,733.3,495.85,727.37,503.73,735Z"/><path class="cls-11" d="M496.82,402.82c5.7,9.35-1.49,11.54-7.46,13.43-22.11,7-44.92,9.33-68,8.19-18.69-.93-37.4-2.17-56-4.06-16.5-1.67-21.52-7.82-21.75-24.2,0-2.23,0-4.46,0-6.68-.86-31.24,10.16-59.5,22.49-87.33,4.38-9.87,6.94-21.08,18.89-26.11,7.19-3,8.2-.05,8.51,5.69,1,18.06,11.21,30.24,25.93,38.93,8.69,5.13,13.82,1.37,15.34-9.51,1.39-10,.13-20.48,6.24-29.54,1.65-2.45,3-5,6.27-4.87,8.19.36,16.36,1.16,24.55,1.34,9.48.21,4.43,7.62,6.36,11.63,5.84,12.13,6.08,25.28,7.64,38.1,2.62,21.4,2.92,43.08,8.1,64.15C494.81,395.63,495,399.76,496.82,402.82Zm-37.3-17.89c2.1-3.18,2.91-6.55.27-9s-5.29-.93-8.05,1.58c-12.15,11-27.07,15.79-42.39,3.18-2.92-2.4-6.57-2.57-9.26-.27s-1.56,5.51.12,8.36c6.19,10.53,18.06,5.66,25.73,10.67C438.47,396,451.61,396.86,459.52,384.93Zm-2.31-41c-.33-3.62-1.82-7.59-6.33-7.44-5.19.17-9.91,3.41-10.16,8.79-.22,4.62,1.28,10.8,7.12,11.31C456,357.26,455.42,349.56,457.21,343.89Zm-73.33,10c.08-5.1-3.42-9.17-8.51-9.32s-9.92,2.45-9.52,8.55c.29,4.44,0,10.28,7.44,10.84C379,363.19,383.76,360.48,383.88,353.88Z"/><path class="cls-5" d="M481.27,715.22c4.37,5.1-1.6,5.19-3.53,5.48-18.68,2.83-37,8.2-56.12,8.19-8.93,0-17.67,2.75-26.82-.15-20.82-6.59-21.46-7-21.93-31.35-2.18-9.41,1.71-21.06-.15-32.42-4.57-27.9-5.37-56.15-8.83-84.13-.5-4.05.31-6.07,4.14-6.49,12.45-1.39,24.92-2.63,37.39-3.91,4.46-.45,5.06,3.07,5.64,6C415,596.21,421.58,615.1,428.31,634c3.1,8.68,8.86,15.67,13.54,23.22C454.17,677.07,466,697.35,481.27,715.22Z"/><path class="cls-1" d="M459.79,376c2.64,2.42,1.83,5.79-.27,9-7.91,11.93-21,11.07-33.58,14.55-7.67-5-19.54-.14-25.73-10.67-1.68-2.85-2.8-6.07-.12-8.36s6.34-2.13,9.26.27c15.32,12.61,30.24,7.84,42.39-3.18C454.5,375,457.3,373.68,459.79,376Z"/><path class="cls-8" d="M457.72,533.7c1.6,17.44,1.09,17.79-16.23,20.75-13.67,2.33-26.77,7.67-47.31,8.43-7.18.72-20.78,2.21-34.41,3.45-12.62,1.16-25-2.21-37.48-2.74-2.16-.09-4.19-2.87-2.82-4.28,5.23-5.39.11-8.21-1.87-12.39-4.36-9.2-4.73-19.87-3.35-29.23.79-5.38,11.54-5.69,17.54-5.8,7.86-.14,15.12-2.28,22.69-3.22,6.13-.76,12.51-2.35,8.81,8.59-3.93,11.61,1.93,22,13.4,27.53,10.2,4.88,19,1.48,27.4-6.95,5.73-5.76,6.06-11.14,4.71-17.81-1.41-6.94.59-10.61,8.34-9.19,5.43,1,10.75,0,16.17-.4C451,509.24,456,514.42,457.72,533.7Z"/><path class="cls-1" d="M450.88,336.45c4.51-.15,6,3.82,6.33,7.44-1.79,5.67-1.18,13.37-9.37,12.66-5.84-.51-7.34-6.69-7.12-11.31C441,339.86,445.69,336.62,450.88,336.45Z"/><path class="cls-8" d="M449.84,494c.37,3.4-1.92,3.61-4.13,3.86-7.93.91-15.87,1.71-23.81,2.55-20.44-.14-40.66-4.85-61.31-1.4-14.36,2.4-29.08,2.6-43.63,3.92-2.33.21-5.08.86-5.35-2.05-.28-3.11-2.82-6.74.25-9.45,2.28-2,3.91.72,5.62,2,2.44,1.77,4.07,2.6,6.07-1.22,3.12-6,10.45-5.26,15.37-5.76,30.86-3.13,61.85-5.13,92.8-7.36C442.22,478.34,448.77,484,449.84,494Z"/><path class="cls-1" d="M411.19,276.15c16.2-5.47,16.17,2,14.59,11.65-.78,4.77-.24,9.76-.14,14.65.05,2.8-.38,5.85-2.79,7s-5.05-1-7.07-2.7c-8.73-7.39-14-16.78-13.43-28.28C402.8,269.17,410.47,276.76,411.19,276.15Z"/><path class="cls-5" d="M389.59,740.2c3.85-.31,10.65-1.21,10.62,2.26,0,5.15-.15,11.19-3.34,16.24s-5.4,12.95-12.43,4c-1.71-2.19-.88-6.37-1.23-9.72C384.93,748.44,380.42,740.92,389.59,740.2Z"/><path class="cls-9" d="M397.19,525.16c.9,3.75-6.41,10.33-10.79,10.21-7.69-1-12.07-5.35-12.37-13.84-.32-9,7-12.94,12.6-11.93C392.61,510.68,395.65,518.7,397.19,525.16Z"/><path class="cls-1" d="M375.37,344.56c5.09.15,8.59,4.22,8.51,9.32-.12,6.6-4.9,9.31-10.59,10.07-7.43-.56-7.15-6.4-7.44-10.84C365.45,347,370.37,344.42,375.37,344.56Z"/><path class="cls-2" d="M362.75,280.08c2-1.14,2.52,2.53,1.54,4.87-7.5,18-16.27,35.57-22.05,54.09-6.4,20.5-9.88,41.87-7.18,63.64.53,4.28,1.44,8.49-4.05,10.54-2.08.77-1.81,2.63-1,4.52a24.22,24.22,0,0,1,.72,15.6c-.74,2.87-.6,6.41-4.65,5.84-3.8-.53-2.48-4-2.53-4.79,1.74-23.23-3.83-44.46-2.64-65.85,1.6-28.74,7.36-56.52,23.68-81.08C348.89,280.94,357,283.42,362.75,280.08Z"/><path class="cls-3" d="M362.51,669.17c1.28,17.1.39,34.55-1.54,51.62-1.07,9.41-10.94,12.91-19.08,16-3.46,1.3-8.21,4.82-11.11,1.33-2.52-3.05.08-7.84.85-12,1.32-7,2.37-14.56,1.3-21.53-3.79-24.72-.35-49.24.7-73.84.59-14.08.55-28.23,2-42.22.42-4.11-4.17-12,5.75-12.61,12.31-.7,14.77,3,14.46,25.18C360,621.87,360.75,645.6,362.51,669.17Z"/><path class="cls-1" d="M273.46,97.34c2.27,10.17,6.94,19.63.11,29.75-2.23,3.31-4.94,4.83-8.35,3.48-11.25-4.47-23.28-5.08-35-7.39-5.64-1.12-6.06-4.74-5.66-8.73.64-6.37,27.13-28.65,34.43-28.86C265.11,87.26,271.4,88.14,273.46,97.34Zm-7.09,13.51c-.9-6.42-2.19-12.74-10.24-14-2.68-.43-18,12.2-16.92,13.82,5.39,8.33,14.73,6.47,22.63,7.66C266.17,119,266,114.24,266.37,110.85Z"/><path class="cls-8" d="M256.13,96.83c8.05,1.28,9.34,7.6,10.24,14-.38,3.39-.2,8.11-4.53,7.46-7.9-1.19-17.24.67-22.63-7.66C238.16,109,253.45,96.4,256.13,96.83Z"/><path class="cls-1" d="M222,244.68c7.64,3.29,7.86,10,3.59,16.06a157.73,157.73,0,0,1-16.21,18.93c-5.06,5.15-10.79,2.66-12.81-4.09-3.26-10.81-2.05-22-3.47-32.91-.59-4.59,3.63-4,7.73-4.41C207.29,240.15,215,241.65,222,244.68Zm-14.34,18.74c3-.14,5.13-2.46,4.61-6s-1.94-6.7-5.73-7-3.2,3.36-3.87,6C204.22,258.84,203,263.64,207.68,263.42Z"/><path class="cls-8" d="M212.29,257.43c.52,3.53-1.57,5.85-4.61,6-4.73.22-3.46-4.58-5-6.93.67-2.66.11-6.28,3.87-6S211.78,254,212.29,257.43Z"/><path class="cls-1" d="M207.22,119.39c1.41,3.75,1.66,8.35-1.53,11.9a105.08,105.08,0,0,0-17.26,27.23c-3.17,7-1.16,12.92-1,19.27.4,12.38,1.88,24.74,1.89,37.1,0,11.3-3.75,13.37-14.73,10.21a160.54,160.54,0,0,1-30.08-12.31c-5.43-2.86-9.16-1.25-12.87,2.88-8.79,9.78-21,14.94-32.66,18.67-10.36,3.31-9.28-7.27-10.11-16.74-1.59-8.47,2.85-19.09,2.88-30.17,0-8.72-3.73-11.84-9.79-15.15-8.91-4.86-17.11-10.49-23.12-19.06-4.5-6.42-.41-11.07,3.57-13.69,11.73-7.71,21.66-17.76,34.17-24.6,5.17-2.83,8-10.61,11-16.61,5-10,12.17-18.23,19.5-26.42,6-6.64,12.58-3.3,17.77,7.85,4.54,9.76,9.94,19.15,15.4,28.44a10.29,10.29,0,0,0,8.95,4.87c10.3.12,20.12,5.34,30.82,2.59C202.09,115.12,206.48,117.43,207.22,119.39Zm-16,12.86c2.66-3.58,1.18-5.83-2-6.46-8.65-1.72-17.59-4.43-26.12-3.64-8.78.81-11.4-3.71-13.8-9.73-2.88-7.2-5-14.73-8-21.87-1.87-4.43-5.23-10.71-10.64-6.23-8.88,7.37-16.58,16.33-17.57,28.91-.58,7.34-2.69,12.83-11.92,9.92a6.57,6.57,0,0,0-6.27,1.39c-7,5.62-14.24,11-21,16.87-3.43,3-3.52,6.75.14,10.38A53.53,53.53,0,0,0,96.9,165c4.94,1.48,6.82,4.06,7,9.49.54,12.54-1.82,24.75-3,36.94-1.28,9.74,2.48,10,9.64,5.84,5.3-3.07,9.21-7.46,13.22-11.79,7.68-8.3,15.28-12.45,26.05-3.93,5.92,4.69,13.85,6.75,20.54,10.59,4.49,2.57,7.05-.06,7.13-3.16.26-10.62,2.14-21.5-1.41-31.84-3.65-10.63-3-20,4.4-29C184.61,143.26,187.41,137.36,191.21,132.25Z"/><path class="cls-8" d="M189.19,125.79c3.2.63,4.68,2.88,2,6.46-3.8,5.11-6.6,11-10.65,15.89-7.41,8.94-8.05,18.32-4.4,29,3.55,10.34,1.67,21.22,1.41,31.84-.08,3.1-2.64,5.73-7.13,3.16-6.69-3.84-14.62-5.9-20.54-10.59-10.77-8.52-18.37-4.37-26.05,3.93-4,4.33-7.92,8.72-13.22,11.79-7.16,4.15-10.92,3.9-9.64-5.84,1.14-12.19,3.5-24.4,3-36.94-.23-5.43-2.11-8-7-9.49a53.53,53.53,0,0,1-22.84-13.16c-3.66-3.63-3.57-7.38-.14-10.38,6.73-5.91,14-11.25,21-16.87a6.57,6.57,0,0,1,6.27-1.39c9.23,2.91,11.34-2.58,11.92-9.92,1-12.58,8.69-21.54,17.57-28.91,5.41-4.48,8.77,1.8,10.64,6.23,3,7.14,5.1,14.67,8,21.87,2.4,6,5,10.54,13.8,9.73C171.6,121.36,180.54,124.07,189.19,125.79Z"/><path class="cls-1" d="M153.63.55c7.78-2.55,11.78,4.26,9.14,9-6.05,10.78-5.61,23-10,33.89-2.39,5.93-5.3,5.26-8.33.76Q134,28.67,123.84,12.93c-1.62-2.54-1-5.57.06-8.36C124.88,2,127,2.63,129,2.76,137.41,4.32,145.45,3.23,153.63.55Zm-5.92,18.22c.17-3.86-1.79-4.61-4.18-4.58-3,0-5.05,1.37-4.95,4.75.11,4,3.92,4.8,6.18,7C145.84,23.27,146.92,20.66,147.71,18.77Z"/><path class="cls-8" d="M143.53,14.19c2.39,0,4.35.72,4.18,4.58-.79,1.89-1.87,4.5-3,7.12-2.26-2.15-6.07-2.92-6.18-6.95C138.48,15.56,140.5,14.22,143.53,14.19Z"/><path class="cls-1" d="M88.94,254.09c4,2,4.51,5.12,2.78,8.87-4.94,10.75-.15,21.5.08,32.23.09,4.28.2,9-3.26,11-3.86,2.24-7.72-1.22-10.39-4.11-6-6.47-15.87-8.37-19.71-17.2-.79-1.81-1.57-3.62-2.15-5,0-8.79,9.22-7.6,12.67-12.78,2.54-3.83,7-6.5,9.93-10.51C81.17,253.52,84.84,252,88.94,254.09ZM77.67,288.75c4.27.42,1.55-4.05,2.62-6.17-.85-3.28,1.16-8.39-4.21-8.77-3-.21-6.26,2.89-6,6.06C70.54,284,73.27,288.31,77.67,288.75Z"/><path class="cls-8" d="M80.29,282.58c-1.07,2.12,1.65,6.59-2.62,6.17s-7.13-4.71-7.54-8.88c-.31-3.17,3-6.27,6-6.06C81.45,274.19,79.44,279.3,80.29,282.58Z"/><path class="cls-1" d="M50,145.5c.35,6.2-.49,12.51-9.85,11.12C32,155.11,26.19,162.44,18.38,163c-5.66.4-11.72,4.6-16.6-1.89s1.71-11.28,2.62-16.9c.69-4.27,4-8.21,4.28-12.43.73-10.82,7.78-16.22,16.66-17.08s14.58,7.08,19.41,13.9C48.25,133.51,49.63,139.58,50,145.5ZM17.4,152.09c9.75-.14,21.31-6,20.54-10.77C36.67,133.4,30.68,125,24.3,126.69c-8.8,2.28-8.13,14-10.64,22.09C13,151.06,14.51,152.54,17.4,152.09Z"/><path class="cls-8" d="M37.94,141.32c.77,4.82-10.79,10.63-20.54,10.77-2.89.45-4.45-1-3.74-3.31,2.51-8.05,1.84-19.81,10.64-22.09C30.68,125,36.67,133.4,37.94,141.32Z"/></g></g></svg>