<svg xmlns="http://www.w3.org/2000/svg" viewBox="0 0 834.64 600.25"><defs><style>.cls-1{fill:#895e29;}.cls-2{fill:#fad8b8;}.cls-3{fill:#ffd630;}.cls-4{fill:#dfecad;}.cls-5{fill:#fff1d2;}.cls-6{fill:#fff;}</style></defs><g id="レイヤー_2" data-name="レイヤー 2"><g id="レイヤー_1-2" data-name="レイヤー 1"><path class="cls-1" d="M771.89,62.48c41.69-32.11,66.43,19.8,62.3,57.25-1.26,5.37-4.1,15.53-10.52,16.23-7.14-.82-16.31-1-15.2-10.55,1.14-8.75-6.3-43.9-17.47-31.14-15.82,30.21-11.43,78.84-7,112,5,30.76,4.64,62,6.14,92.9A200.56,200.56,0,0,1,796,357c-2.06,7.82-.18,15.93-1.47,23.73-1.3,1.9.44,3.38.79,5.11-1.13,4,.83,7.85.75,11.79,2.18,25.57,4.52,52.33,3.9,78.6-1,10.54-3.54,20.71-2.55,31.52.68,19.77,6.29,39.72-.36,59.11-2.3,7.55-6,21-16.36,15.51-8.46-1.9-10.33-7-13.25-14.25,0-38-.76-76.25,0-114.73,3.6-47.19-2.47-93.71-2.8-141-1.63-5.4-4.86,8.13-5.59,9.54-.3.94-.15,2.26-1.18,2.59-2.9.94-2.76,3.31-3,5.6-.64,6.38-3.28,12.12-6.23,17.67-11.47,22.52-35.17,37.35-54,13.14-1.6-1.2-2.22-2-3.77.2-4.29,5.37.14,3.92-4.39,10.21,0,13.36-15.86,22.25-13.74,29.43,1,1.61,2.43.67,3.61.47,5.25-.92,10.48-.27,15.72-.18,17.55-.22,18.73,34,23.66,46.91-2.21,12-15.09,15.18-24.37,20.31-5.84,3.69,1.67,11.89,2.28,17.11,4.23,13.31,11.5,26.35,9.19,40.67-5.66,5.37-12.13,12-20.44,14.28-8.1,3,.24,26.25-3.27,34.27-.82,5.63-5.66,8.07-10.79,9.61-10.81,4.73-18-8.3-22.16-16.42-3.67-5.39-1.87-21.6-11.5-18-17.76,2-34.79,7.91-52.69,9.3-8.93-.08-17.85,1-26.8.2-2.25.36-7.4-.57-5.76,3.36.83,2-.38,3.4-1.26,5.23-6.4,10.5-9.35,24.15-20.78,30.58-9.48,5.5-22.46-3.22-20.43-14.46-.31-5.51,3.66-30.71-5.22-29.17-8.74-.78-28.68,2.14-24.36-12,1.33-28.71,2.73-57.21,10.77-85.12,2.42-6.75,3.7-15.78,9.33-20.37a40.45,40.45,0,0,1,6.47-3.86,6.44,6.44,0,0,0,2.29,2.39c-1.49,2-4.08,4.36-4.49,5.29a49,49,0,0,0-4.06,13.17c-5.12,15.74-9.25,31.22-10.12,47.73.43,9.14-5.69,40.7,4.54,42.93a366.58,366.58,0,0,0,59.9,7c30.67,3.08,59.71-6.4,89.67-11.82,13.12-4,53.47-6.89,51-25.18-2.12-16.7-11.18-31.71-14-48.08-3.75-14.27-10.73,10.59-21.05-17.67-3.19-6.48-4.9-13.14-7.14-19.93-.56-.78.42-2.8.93-4.17,2.13-7.45-18.89.4-23.43-1.4-2.9-.05-3.57.6-2.71,3.08,4.86,15,5.84,31.41,13.91,45.31,1.32,3.24.95,7.64,4.14,10.28,4.53,3.27,4.53,13.69-2.81,12.13-8.32-2-4-6.53-8-14.07-4.63-12.55-9.62-25-12.49-38.14-1.72-5-6.48-11-2.31-16.09,2.53-5.34-16.42.34-19.71-.4-13.49.85-27.17,3.53-40.58,3.44-2.13-.9-4.12-1.19-5.74.94a1.51,1.51,0,0,1-1.77.54c-3.64-1.05-7.23.38-10.88.25s-5.39,1.71-5.31,5.56c.44,8.88-2.44,17.39-2,26.26.49,11.23-1.73,22.89,2.26,33.59,1.89,5.71-7.35,9.58-8.87,3.18-2.63-19.74-1.13-39.53,0-59.33,1.61-11.62-11.94-.17-18.95-4.37.91-1.21,1.41-2.28.77-2.81s-1.71-.17-3.06.42a12.23,12.23,0,0,1-1.33-3.82c-.57-3.9-1.6-7.93.22-11.78.86-1.81-.8-3.26-.12-5.26a20.13,20.13,0,0,1,.79-2c3.59,1.72,5.31-.24,5.33-3.73a8.88,8.88,0,0,1,1.68.23c7.84,1.8,15-2.27,22.39-4.47a4.3,4.3,0,0,0,1.1,2.4,6.77,6.77,0,0,0,3.16-.68c2.78,2.84,2.12,7.61,5.94,6.36,3.43-1.14,6.91-.9,10.39-.58,4.17-.54,11.32.11,12.34-5.07.81-5.07,6.34-7.29,6.17-12.55-.21-1.09,1.16-2.7,2.14-3.76,24.06-34.14,39.14-75.11,44.25-116.68,1-7.8,4.58-15.6,4.58-23.61.52-4.21,3.28-9.36,8-8.17,5,3.78-.08,11.41-1,16.28-3.93,14-7.39,28.09-9,42.5-3.82,17.86-10.48,34.8-16.65,52-6,16.07-17.91,28.92-24.73,44.41-10.75,19.89-1.95,10.64,12.18,13.26,6.57-3.51,12.88-8.75,20.57-10.64,4.89-.58,5-4.86,8.72-5.91,14-6.05,23.51-22.84,30.33-35.64,0-7.35,12.47-10.13,13.57-1.58.79,2.74-5,3.85-5.9,8C649.92,376,642.36,391,628.39,399.36c-14.84,9.38,20.27.73,23.49-.95,3.6-1.7,9.17-.18,10.57-5,4.49-3.68,9-7.08,11.17-13.21,2.22-7.11,5.73-14.45,5.57-21.8.08-1.61,4.25-11.25,4-11.55-3.5-7.76-9.67-14.92-7.86-23.76.28-1.65,3.64-4.73,5-2.56,3.23,4,2.31,9.83,6.69,13.1,2.53,2.27,2.24,6.46,5.39,8.12,10.44,12.78,19.2,27.3,38.62,12.93,14.1-10.44,10.48-21.36,10.62-23.68-.06-9.8-4.92-18.19-6.63-27.69-.15-1.89-2.58-2.14-4.12-1.6-14.54,3.26-29.34,5.88-44.28,6.47-8.34-.46-24.61,4.85-23.56-8.68,1.15-22,2.09-44,4.33-65.94-.63-3,2.14-15.82-1.59-14.31-3.52,2.35-8.77.74-11.43,5.17-9.25,3.09-20,4.71-29.54,8.06-4.9,3.1-17.21.23-17.49,6.12-4.58,36.17-19.61,70.5-31.18,104.87-3.84,11.16-25.42,55.07-38.87,61.09a6.56,6.56,0,0,0-3.84-1.85l-.42.13c-.59-3.34,1-8.33,4.31-9.22,22.86-21.15,31.95-54.6,42.3-83.48,7.42-23.06,15-45.69,19.64-69.45,2.73-9.06-16-.21-20.34-4.12-1.7-1.12-4.31.95-6.6,1.26-8.71,1.12,2,15,4.33,18.85,2.14,6.29,14.22,8.52,11.53,13.76-9.56,15.27-27.9-20.4-26.85-29-1.35-7.53-28.35-1.76-35.77-5.4-9.82-2.12-10.13-1.87-13.81,7.5-6.94,10.91-9.09,24.9-18,34.75.05,4.57-3.45,6.94-6.11,9.8-6.37,12.92-20.23,23.29-28.65,35.29-3.26,5.23-13,7.86-9.91,15.68,9,4.33,23.71-1.89,32.57-6.11,6.41-2.68,15.41-18.65,22.18-11.84,1.77,6.22-4,10.79-3,16.66-.36,14-14.09,40.78-1.64,51.4,6.37,5,9.78,13,9.76,18-2.6-.11-4.15,1.24-5.33,3.73-2.37-1.14-5.57-3.89-9.62-8.88a17.79,17.79,0,0,0-7.14-7.32c-7-12.21-.73-29.22,1.56-42.45,0-2.41,5-14-.43-11.37-13.66,7.4-29.26,12.08-44.89,11.55a31.59,31.59,0,0,1-17,2.4c-2.21-.72-2.88.23-3.16,2.34C420.8,371,420.61,388.77,408.61,398c-11.68,13.19-30.56,13.46-46.26,18.89-3.71,1-7.7,3.65-11.9,1.13a118.94,118.94,0,0,1-23.64.56c-5.43-1.81-3.91,4.6-3.92,8-.64,8.58,7.39,14.19,9.24,22.18,3.08,8.3,2.06,17.22-1.13,25-3.51,8-6.37,16.23-12,23.16-3.57,4.37-4.43,9.47-1.61,14.93,2.8,11.49,1.26,23.8,4.07,35.49,1.83,18.24,2.94,21.61-16.8,23.69-13.61,0-7.07,8.43-15.16,14.91-15.78,12.49-33.26-19.26-35.38-31.47-.73-3.92-1.6-4.69-5.73-4.13-10,.19-19.27-5.76-27.43-11-1.93-1.39-3.38-.57-4.82.83-7.95,7.54-17.66,14-28.89,15-11.56,1.24-23.44-.66-32.91-7.89-4.26-1.47-9.08-9.57-13.28-5.64-4.82,7-15.7,5-19.75,12.46-.35.91-1,2.08-.76,2.8,2.94,10.13-4.71,18.66-5.34,28.66-2.22,9.3-17.93,9.4-22.22.67-2.43-3.38-4.92,2-5.87,4-14.21,18.85-37-23-37.69-35.59-5-6.45-2.92-19.41-9-23.59-9.62-1.09-17.94-4.67-23-13.21C2.88,506.81-1.46,490,.46,472.11-1.49,456.43,3,439.35,9.77,424.92c4.88-21.72,19.41-43.76,41.57-50.34,13.42-6,30.12,6.95,31.88-.21,4.52-12.71,19.77-14.64,30.7-19.58,14-3.42,30.82-.53,40,10.79a15.63,15.63,0,0,0,3.09,3.89c3.17,3.37,3.1,5.4,7.81.43A40,40,0,0,1,200.56,357c6.7,1-3.12-10.88-2.1-14.66-1.69-13.79,0-28.87,11.36-38.51,6.58-3.69,10.24-13.16,18.69-12.41,3,.05,3.77-1.41,3.77-3.92-.09-5.33-.6-11.4,6.49-11.81,14.93-13.45,28.35-30,51.49-22.87,7,3.25,6.09-11.16,19.3-12.49,9.05-2.58,17.47.68,26,3.09,5.06-.64,9,1.87,12.62,4.74,4.24,3.38,8.73,6.52,12.27,10.76,2,2.38,2.76,2.29,4.35-.42,5.94-10.32,19.49-6.44,29.3-6.89a2.69,2.69,0,0,1,1.86.5c3.39,2.88,8,3.47,11.15,6.76,16,5.34,13.18,26.15,11.23,39.39-.71,6.93-11.45,14.11-7,19.63,2.81,1.79,6.63,18.53,9.17,14.26,5.35-6.39,22.44-6.44,29.87-12,8.62-10.3,23.59-18.84,23.3-33.72,0-15.53.72-31.16,1.71-46.66,1-7.69-2.5-17.77,3.41-23.85,2.43-1.74,2.56-3.34.21-5.15-4.55-7.1-4.67-16.17-5.41-24.4a259,259,0,0,1,9.54-58.47c2.49-6.4-1.9-13.68.33-20.12,4.52-18.18-8.5-5.48-.87-32.73.73-3.08,3.28-5.64,1.76-9.35-.63-3.51,5.72-3.9,4.52-8.13.08-4.91-1.64-9.9.39-14.79a4.69,4.69,0,0,0-.62-3.87c-2-3.58-.6-7.4-.82-11.08,3.67-13,19.92-14.46,30.69-19.6,13.94-4.79,28.37-6.11,42.81-7.9,18-.56,36.21-.46,53.88,2,50.87,7,81.7,15.35,88.65,21.59,10.37,7.76,9.48,8.55,15.92,19.06,2.68,4.35-.19,10.34.41,15.32.11,8.51-4.94,15.24-9.1,22.4-.84.78-.29,2.57.1,3.85,13.5,38.74,28,76.41,34.34,116.79,1.51,4.27.24,9.79.64,14.33,6.17,17.94,5.54,37.56,8.3,56.23,1,4.92,5.56,8.52,3.63,14.06-1.35,2.56,3.29,8.93,4.81,4.48.73-12-2.56-24-2.79-36.1-1.79-26.07-6.9-52-9.33-78.09-1.63-19.88-9.05-41.55-1.09-60.73C755.08,97.23,756.2,75.8,771.89,62.48Zm52.25,48.29c.61-10.19-1.73-20.6-4.63-30.42C813.9,68.89,800.38,56,787.09,62.88c-15.08,7.35-22.67,22.79-24.5,39.32-1.05,7.55-7.52,40.94-6.62,46.73,12.29,77.68,18,156.51,20.32,235.08,1.29,53.21-1.84,106.35.81,159.78-1.7,25.62,8.95,42.2,13.34,4-.55-17.79-2.62-35.47-1.83-53.36,1.39-15.94,4.08-32,2.36-48.09-1.52-33.08-7.46-66.26-3-99.28-1.47-19-5.31-37.87-7.56-56.7,0-17.33-.17-34.52-1.86-51.7.47-23.42-8.08-45.77-8-69.11C773,152,768,134.11,773.43,117c1.19-8.4,6.85-34.36,15.05-35.89,7-.29,16-1.09,19.54,6.44,5.82,10,9.67,20.21,10,32.07.06,1.81,1.25,2.66,3,2.57C825.66,121.21,822.86,114.27,824.14,110.77Zm-75.7,204.07c4.91-.25,6.13-7.57,6-10.87-.16-2.41.22-7.54-2.7-6.28-2.34,2-6.74-.72-7.72,3.64C745.59,305.33,744.8,312.48,748.44,314.84Zm-6.27-30.52c5.48-9.43,1.91-21.93,1-32.41-1.82-10-2-20.63-2.83-30.54-2.12-1.9-1.68-4.45-2.27-6.77-2.85-22.1-6-43.86-14.17-64.7-1.5-4.16-2.18-8.61-4.5-12.57-2.19-3.75-.39-8.78-3.51-12.57-2.71-9.75-8.69-18.82-12.07-28.55-1.42-3.75-1.49-3.55-5.5-2.92-1.86.3-4.15,2-5.64.2s-2.61-1.47-4.31-1.31c-8.16,1.1-2.1-9.13-11.72-9.08-11.26-.59-22.18-2.78-33.5-3.82-14.39,0-28.59-3.15-42.75-4-27.9-6.88-59.24-4.64-87.47-3.1-13.2-.46-22.4-1.73-23,13.82-.19,2.48.8,3.55,3.05,3.28,5.13-.55,10.3,1.48,15.26,1.56,38.4.61,76.66-1.48,115,.27,18.85,1.18,37,7.08,55.63,8.81,10.4-.76-1.69,17.44,1,24.18.28,30.45,1.44,60.56-3.62,90.65-.56,26-4.47,51.86-4.32,77.92.62,9.68,23.25,5.33,29.87,4.19C715.43,292.22,731.15,295.75,742.17,284.32ZM704.44,66.47c5,6.93,5.28-8.6,6.06-11.7C710,32,684.14,23.45,665.92,17.59c-12.93-5.4-87.74-11.4-106.5-6.85-12.71,1.7-25.78,1.3-37.89,6.64-7.7,4.55-21.84,3.83-24.06,14.07-8.1,23,25.3,12.83,37.54,13.35C559.18,42.61,583.08,51,607,50c12.18.55,24.6,3,36.39,1.23,18,1.68,35.07,9,53.26,10.1C699.67,61.31,703.89,61.58,704.44,66.47Zm-14.18,9.6a1.72,1.72,0,1,0,1.26-3.17c-30.64-12.59-64.31-11.43-96.8-13.77-25.35-3.52-50.61-6-76.18-4.71-4.78.7-20.1-.56-20,5.35-.27,1.41.3,2.59,1.64,2.48,3.25-.28,6.18,1.57,9.28,1.35,31.08-1.8,62.27-3,93.09,2.74C631.21,70.94,661.44,69.31,690.26,76.07ZM669.08,204.19c.82-15.29,4.77-30.14,2.87-45.48-.29-4.56-1.78-9.19,0-13.78-.39-4.69-1.29-9.19,0-14.29-2-10.39-28.69,16-43.52-10.58-2.75-9.28-12.59,21.89-34.89,3.52-8.62-11-5.14-4.56-12.92,3.92-6.56,10.09-22.23,5-28.82-2.85-1.84-2.43-2.72-2.26-4.58.1-4.25,5.42-8.91,9.89-16.69,7.65a15.32,15.32,0,0,1-13.2-3.62c-3.44-.81-9.36-13.44-11.07-8.1-2.72,3.37-6.48,11.91-11.79,9.68-6.43-3.66-11.48,46-11.67,51.7C482,243.2,565,227.85,605.46,226.68c2.62-.29,5.22-1.47,7.81-1.39,8.3.77,13.45-6.74,21.27-7.42,9.9-.62,19.48-8.26,30.05-9.52C668.72,208.29,668.72,208.17,669.08,204.19Zm-2.37-87.76c3.22-1,3.45-1.18,2.54-4.33-2-6.38-11.07-6.32-16.75-6.89-4.55.63-17.23-6.9-18.83-.27.7,7.6,7.08,18.69,15.64,16.35C655.67,122,660.86,118.18,666.71,116.43Zm3.63,443.82a60.51,60.51,0,0,0-2.2-14.62c.15-2.82-1.82-3-3.65-2.54-4.74,1.95-16.61,1.48-13.38,9.13C652.34,567.44,670.33,587.8,670.34,560.25ZM623.63,102.88c2.87-2.27-2.76-3.81-4.59-3.85-9.36,2.38-18.79-1.92-27.91-.94l-.2-.12a1.42,1.42,0,0,1-.12.13c-27.78.52-55.51.46-83.27.06L497.78,98c-3.8.57-4.7,1.54-3.8,5.26,1.34,5.38-3.88,8.8-1,14.24,2.87,6.2,10.05-5.15,10.34-8.91.71-2.66.72-7.4,4.14-7.83h.06c6.5,0,7.9,1.57,8.52,7.89.18,7,6.25,10.2,10.15,14.78.2.71,1,.66,1.66.65,12.91-.26,9.77-6.18,16.34-10.37a1.59,1.59,0,0,0,.15-1.3c-2.75-4,2.39-10.25,7-9.13,6.51,1.28,2.75,12.54,11.88,17.43,5,4,11.27,2.22,13.77-3.64,1.55-3.4,5.48-5,5.73-9,.7-4.76,5.31-6.59,8.14-10h.32c5,3,4.2,8.38,6.24,13.19C607.1,127.66,618.55,113.64,623.63,102.88ZM537.94,563.64c1-3.69-.41-5.4-4.27-5.24-3.87.31-8.52-1.49-12.12-1.44-9.7-.6-2.47,13-5.21,18.72-.54,3.93-1.46,13.54,4.29,13.42,2.87-.7,6.16-.83,7.72-4.49C531.9,577.79,536.3,571.32,537.94,563.64ZM505.16,234.31c2.6-5.34-13.53-9.06-16.58-10.18-1-.38-1.55-2.18-3.21-1.41s-1.33,2.12-1.39,3.44c-.45,10.11-1.15,20.22-1.24,30.33-.05,4.66-1.49,9.18-.85,13.88.32,2.39,1.93,4.76.42,7.08.37,11.59,14.38-20.76,17-22.37C500.53,252.2,503.87,239.34,505.16,234.31ZM437.41,340.23c0-5.88-10.24.79-14-1.26-4.95,1.71.13,9,6.11,7.35C436.71,346.45,437.13,346,437.41,340.23Zm-28.48-46.3c2.21-10.52,1-25.92-10.84-30.14-6.11-3.28-14.19-6.06-20.7-2.74a17.41,17.41,0,0,1-8.62,4.7c-1.51.4-2.36,1-1.74,2.8,5.74,15.4-6,29-20.7,32.76-12.45,4.5-19.49-5.78-23.06,2.65-6.38,14.43-26.41,12.8-39.07,9-5.94-2.55-10.49,2.68-16.2,2.84-19.17,6.32-25.38-12.58-35.32-7.39-1.66,1.09-3.25,2.24-5.51,1.42-21.46,2.62-21,30-12,44.52.24,5.6,2.2,6.63,7.29,8.06,6.49,3.36,11.35,8.5,15.75,14.19,4.6,7.4,13.16-.75,20.19.5,7.33,1.42,14.85,2.13,20.67,6.78a4.89,4.89,0,0,0,4.14,1c2.81-.49,5.86-.81,8.29.66,4.77,2.92,10.51.78,15.16,3.89,13.47,12.12,12.27,21.84,34.58,20.82,20.63-1.61,45.17-4.34,61-19.3,18.15-20.61,11.53-50.23-2.7-70.89-5.14-5-2.67-12.74,2.94-15.82C407.55,302.37,408.5,297.81,408.93,293.93Zm-69.07-1.79c9.24,2.18,23.06-10.76,19.18-19.73-1.36-3.71-14.3-22-18.08-18.37-5,6-12-7-22.12-7.49-20.1-2.08-13.09,19.92-21.4,17.61a7.32,7.32,0,0,1-4.64-1.62c-4.33-4.08-10.09-3.85-15.3-5.24-12,1.92-33,15.28-27,29.32,1.26,2.39-.07,3.48-3.73,4.34-12.41-.51,5.79,12.69,9.11,14.83,5.36,3.89,13.11-.14,15.33-6,5-8.49,11.59-1.18,16.43,3.14,10.61,6.18,28.82,3.76,28.32-11.71.06-3.5,2.71-4.71,4.95-6.25s3.37.83,4.64,1.74C329.48,290.92,335,290.2,339.86,292.14ZM287.93,505c20.65-.67,36.83-32.26,36.28-50.84-3.67-21.77-19.4-9.82-12-27.15,1.81-12.15-3-25.34-14.39-30.93-1.93-1.54-4-.48-5.37,1.76-1.6,6.19-11.55,7.11-13.29.41-.21-4.13-5.69-4-7.86-6.72-6.95-7.21-21.37-7.06-26.18,2.46-4.25,5.31-16.23-5-15.67-11.28-.14-1.36-.33-2.89-1.62-3.48-11.84-12.92-34.38-18.14-49.48-7.35-9.09,2.29-10.94,28-21.94,15.68-5.68-16.35-22.38-30.53-41.15-23.32-16.82,6.46-23.1,8.72-26.42,27.35-2.28,5.36-9.61,4.63-9.61-1.68,1.51-9.42-24.83-11.28-30-6.43C21.34,396,6.46,438.83,6.94,468c-.87,26.44,7,35.41,26.7,51.24,2.86,1.42,3.54,1.6,5.11-1.11.8-1.39,26.68-5.47,27.57-3.91,7,16.47,18.18,35.63,38.79,32.85,12.1-1.87,27.93-5.52,32.8-18.2,6.57-15.83,24.37,30.71,59.48,13.16,10.77-3,11.68-15.68,21.35-19.5.93-.46,1.87.14,2.56,1,6.43,7.65,15,14.15,24.83,16.21,13.93.91,28-7.13,36.16-18.07a2.24,2.24,0,0,0,.37-2.74C280.9,514.71,281.9,505.49,287.93,505Zm25.27,54.23c-.61-15.49-2-30.71-3.91-46.23,2.6-11.61-15.73,4.41-16.82,9-.78,1.71.22,3.66-1.42,5.06-4.22,4.38,1.79,9.76,2.13,14.67,3.62,6.81-1.65,23.55,9.46,22.74C305.17,563.72,313.18,562,313.2,559.26Zm-30,18.46c5.67-7.51,7.62-38-4.21-39.88-5.39,2.62-10.24,7.34-16.37,8.77-1.71.48-1.93,1.44-1.66,3C262.22,558.3,272.48,582.45,283.17,577.72ZM111,560.1c.77-7.6-7.2-3.72-11.37-3.28-4.45.75-5.53,1.89-4.58,6.06,2.33,5.36,1.4,15.25,7.72,17.31C109.68,577.52,108.92,565.83,111,560.1Zm-27.7,7.4c1.2-5.23-4.83-9.34-4-14.91,0-1.71-.43-4-1.87-4.26-5-2.33-6.37-8.06-10.17-11.78-1.74-1.71-3.46-3.53-4.11-6.07-.37-1.45-1.46-2.44-3-2-2.93,1.09-10.17-1.2-8.66,4C51.88,545.69,80.21,611.78,83.31,567.5Z"/><path class="cls-1" d="M819.51,80.35c2.9,9.82,5.24,20.23,4.63,30.42-1.28,3.5,1.52,10.44-3.09,11.39-1.77.09-3-.76-3-2.57-.34-11.86-4.19-22.06-10-32.07-3.51-7.53-12.58-6.73-19.54-6.44-8.2,1.53-13.86,27.49-15.05,35.89-5.43,17.14-.46,35-2.92,52.61,0,23.34,8.52,45.69,8,69.11,1.69,17.18,1.84,34.37,1.86,51.7,2.25,18.83,6.09,37.67,7.56,56.7-4.47,33,1.47,66.2,3,99.28,1.72,16.07-1,32.15-2.36,48.09-.79,17.89,1.28,35.57,1.83,53.36-4.39,38.17-15,21.59-13.34-4-2.65-53.43.48-106.57-.81-159.78-2.28-78.57-8-157.4-20.32-235.08-.9-5.79,5.57-39.18,6.62-46.73,1.83-16.53,9.42-32,24.5-39.32C800.38,56,813.9,68.89,819.51,80.35Z"/><path class="cls-2" d="M754.46,304c.11,3.3-1.11,10.62-6,10.87-3.64-2.36-2.85-9.51-4.4-13.51,1-4.36,5.38-1.6,7.72-3.64C754.68,296.43,754.3,301.56,754.46,304Z"/><path class="cls-3" d="M743.16,251.91c.92,10.48,4.49,23-1,32.41-11,11.43-26.74,7.9-40.41,12.52-6.62,1.14-29.25,5.49-29.87-4.19-.15-26.06,3.76-51.89,4.32-77.92,5.06-30.09,3.9-60.2,3.62-90.65-2.71-6.74,9.38-24.94-1-24.18-18.66-1.73-36.78-7.63-55.63-8.81-38.31-1.75-76.57.34-115-.27-5-.08-10.13-2.11-15.26-1.56-2.25.27-3.24-.8-3.05-3.28.62-15.55,9.82-14.28,23-13.82,28.23-1.54,59.57-3.78,87.47,3.1,14.16.87,28.36,4,42.75,4,11.32,1,22.24,3.23,33.5,3.82,9.62,0,3.56,10.18,11.72,9.08,1.7-.16,2.93-.36,4.31,1.31s3.78.1,5.64-.2c4-.63,4.08-.83,5.5,2.92,3.38,9.73,9.36,18.8,12.07,28.55,3.12,3.79,1.32,8.82,3.51,12.57,2.32,4,3,8.41,4.5,12.57,8.2,20.84,11.32,42.6,14.17,64.7.59,2.32.15,4.87,2.27,6.77C741.17,231.28,741.34,241.92,743.16,251.91Z"/><path class="cls-4" d="M741.64,331c-.14,2.32,3.48,13.24-10.62,23.68-19.42,14.37-28.18-.15-38.62-12.93-3.15-1.66-2.86-5.85-5.39-8.12-4.38-3.27-3.46-9.11-6.69-13.1-1.33-2.17-4.69.91-5,2.56-1.81,8.84,4.36,16,7.86,23.76.23.3-3.94,9.94-4,11.55.16,7.35-3.35,14.69-5.57,21.8-2.16,6.13-6.68,9.53-11.17,13.21-1.4,4.86-7,3.34-10.57,5-3.22,1.68-38.33,10.33-23.49.95,14-8.34,21.53-23.33,30.74-36.19.89-4.18,6.69-5.29,5.9-8-1.1-8.55-13.57-5.77-13.57,1.58-6.82,12.8-16.32,29.59-30.33,35.64-3.68,1.05-3.83,5.33-8.72,5.91-7.69,1.89-14,7.13-20.57,10.64-14.13-2.62-22.93,6.63-12.18-13.26,6.82-15.49,18.76-28.34,24.73-44.41,6.17-17.2,12.83-34.14,16.65-52,1.6-14.41,5.06-28.48,9-42.5.94-4.87,6-12.5,1-16.28-4.68-1.19-7.44,4-8,8.17,0,8-3.55,15.81-4.58,23.61-5.11,41.57-20.19,82.54-44.25,116.68-1,1.06-2.35,2.67-2.14,3.76.17,5.26-5.36,7.48-6.17,12.55-1,5.18-8.17,4.53-12.34,5.07-3.48-.32-7-.56-10.39.58-3.82,1.25-3.16-3.52-5.94-6.36,13.45-6,35-49.93,38.87-61.09,11.57-34.37,26.6-68.7,31.18-104.87.28-5.89,12.59-3,17.49-6.12,9.55-3.35,20.29-5,29.54-8.06,2.66-4.43,7.91-2.82,11.43-5.17,3.73-1.51,1,11.31,1.59,14.31-2.24,21.91-3.18,43.94-4.33,65.94-1,13.53,15.22,8.22,23.56,8.68,14.94-.59,29.74-3.21,44.28-6.47,1.54-.54,4-.29,4.12,1.6C736.72,312.77,741.58,321.16,741.64,331Z"/><path class="cls-3" d="M710.5,54.77c-.78,3.1-1.09,18.63-6.06,11.7-.55-4.89-4.77-5.16-7.82-5.13-18.19-1.13-35.25-8.42-53.26-10.1C631.57,53,619.15,50.56,607,50c-23.89,1-47.79-7.4-72-5.21-12.24-.52-45.64,9.63-37.54-13.35,2.22-10.24,16.36-9.52,24.06-14.07,12.11-5.34,25.18-4.94,37.89-6.64,18.76-4.55,93.57,1.45,106.5,6.85C684.14,23.45,710,32,710.5,54.77Z"/><path class="cls-4" d="M692.81,515.1c2.45,18.29-37.9,21.14-51,25.18-30,5.42-59,14.9-89.67,11.82a366.58,366.58,0,0,1-59.9-7c-10.23-2.23-4.11-33.79-4.54-42.93.87-16.51,5-32,10.12-47.73a49,49,0,0,1,4.06-13.17c.41-.93,3-3.3,4.49-5.29,7,4.2,20.56-7.25,18.95,4.37-1.14,19.8-2.64,39.59,0,59.33,1.52,6.4,10.76,2.53,8.87-3.18-4-10.7-1.77-22.36-2.26-33.59-.49-8.87,2.39-17.38,2-26.26-.08-3.85,1.53-5.69,5.31-5.56s7.24-1.3,10.88-.25a1.51,1.51,0,0,0,1.77-.54c1.62-2.13,3.61-1.84,5.74-.94,13.41.09,27.09-2.59,40.58-3.44,3.29.74,22.24-4.94,19.71.4-4.17,5.06.59,11.11,2.31,16.09C623,455.57,628,468,632.64,480.58c4,7.54-.3,12.05,8,14.07,7.34,1.56,7.34-8.86,2.81-12.13-3.19-2.64-2.82-7-4.14-10.28-8.07-13.9-9.05-30.27-13.91-45.31-.86-2.48-.19-3.13,2.71-3.08,4.54,1.8,25.56-6.05,23.43,1.4-.51,1.37-1.49,3.39-.93,4.17,2.24,6.79,4,13.45,7.14,19.93,10.32,28.26,17.3,3.4,21.05,17.67C681.63,483.39,690.69,498.4,692.81,515.1Z"/><path class="cls-1" d="M691.52,72.9a1.72,1.72,0,1,1-1.26,3.17c-28.82-6.76-59-5.13-87.72-9.73-30.82-5.76-62-4.54-93.09-2.74-3.1.22-6-1.63-9.28-1.35-1.34.11-1.91-1.07-1.64-2.48-.09-5.91,15.23-4.65,20-5.35,25.57-1.32,50.83,1.19,76.18,4.71C627.21,61.47,660.88,60.31,691.52,72.9Z"/><path class="cls-2" d="M672,158.71c1.9,15.34-2.05,30.19-2.87,45.48-.36,4-.36,4.1-4.49,4.16-10.57,1.26-20.15,8.9-30.05,9.52-7.82.68-13,8.19-21.27,7.42-2.59-.08-5.19,1.1-7.81,1.39C565,227.85,482,243.2,482.87,182.06c.19-5.72,5.24-55.36,11.67-51.7,5.31,2.23,9.07-6.31,11.79-9.68,1.71-5.34,7.63,7.29,11.07,8.1a15.32,15.32,0,0,0,13.2,3.62c7.78,2.24,12.44-2.23,16.69-7.65,1.86-2.36,2.74-2.53,4.58-.1,6.59,7.81,22.26,12.94,28.82,2.85,7.78-8.48,4.3-14.89,12.92-3.92,22.3,18.37,32.14-12.8,34.89-3.52,14.83,26.53,41.49.19,43.52,10.58-1.32,5.1-.42,9.6,0,14.29C670.17,149.52,671.66,154.15,672,158.71Zm-84.73,49.68c45,1.53,44-32.19,26.62-19.34-7.49,8.8-20.81,10.11-31.66,7.6-6-.4-9-5.62-14.45-6.59-1.48-.24-3.35-.09-4.17,1.91C560.22,203.53,579.87,208,587.22,208.39ZM614,168.12c8,1.81,8.3-12,4.44-16.16C606.44,140.15,596.77,170.1,614,168.12ZM517.34,168c7.13-5-.17-18-7.43-14-2,2.44-5.77,4.45-4.72,8.39C503.47,169.51,512.27,170.5,517.34,168Z"/><path class="cls-1" d="M669.25,112.1c.91,3.15.68,3.36-2.54,4.33-5.85,1.75-11,5.61-17.4,4.86-8.56,2.34-14.94-8.75-15.64-16.35,1.6-6.63,14.28.9,18.83.27C658.18,105.78,667.22,105.72,669.25,112.1Z"/><path class="cls-2" d="M668.14,545.63a60.51,60.51,0,0,1,2.2,14.62c0,27.55-18,7.19-19.23-8-3.23-7.65,8.64-7.18,13.38-9.13C666.32,542.68,668.29,542.81,668.14,545.63Z"/><path class="cls-1" d="M619,99c1.83,0,7.46,1.58,4.59,3.85-5.08,10.76-16.53,24.78-26.26,8.4-2-4.81-1.22-10.23-6.24-13.19C600.25,97.11,609.68,101.41,619,99Z"/><path class="cls-1" d="M613.84,189.05c17.41-12.85,18.42,20.87-26.62,19.34-7.35-.4-27-4.86-23.66-16.42.82-2,2.69-2.15,4.17-1.91,5.4,1,8.41,6.19,14.45,6.59C593,199.16,606.35,197.85,613.84,189.05Z"/><path class="cls-1" d="M618.43,152c3.86,4.13,3.61,18-4.44,16.16C596.77,170.1,606.44,140.15,618.43,152Z"/><path class="cls-4" d="M578.93,236.53c4.3,3.91,23.07-4.94,20.34,4.12-4.68,23.76-12.22,46.39-19.64,69.45-10.35,28.88-19.44,62.33-42.3,83.48-3.32.89-4.9,5.88-4.31,9.22-7.42,2.2-14.55,6.27-22.39,4.47A8.88,8.88,0,0,0,509,407c0-5-3.39-13-9.76-18-12.45-10.62,1.28-37.37,1.64-51.4-1-5.87,4.78-10.44,3-16.66-6.77-6.81-15.77,9.16-22.18,11.84-8.86,4.22-23.55,10.44-32.57,6.11-3.1-7.82,6.65-10.45,9.91-15.68,8.42-12,22.28-22.37,28.65-35.29,2.66-2.86,6.16-5.23,6.11-9.8,8.91-9.85,11.06-23.84,18-34.75,3.68-9.37,4-9.62,13.81-7.5,7.42,3.64,34.42-2.13,35.77,5.4-1.05,8.65,17.29,44.32,26.85,29,2.69-5.24-9.39-7.47-11.53-13.76-2.34-3.86-13-17.73-4.33-18.85C574.62,237.48,577.23,235.41,578.93,236.53Z"/><path class="cls-1" d="M591.13,98.09h-.32a1.42,1.42,0,0,0,.12-.13Z"/><path class="cls-1" d="M590.81,98.1c-2.83,3.37-7.44,5.2-8.14,10-.25,4-4.18,5.62-5.73,9-2.5,5.86-8.81,7.62-13.77,3.64-9.13-4.89-5.37-16.15-11.88-17.43-4.58-1.12-9.72,5.15-7,9.13a1.59,1.59,0,0,1-.15,1.3c-6.57,4.19-3.43,10.11-16.34,10.37-.7,0-1.46.06-1.66-.65-3.9-4.58-10-7.77-10.15-14.78-.62-6.32-2-7.89-8.52-7.89l0-2.61C535.3,98.56,563,98.62,590.81,98.1Z"/><path class="cls-2" d="M533.67,558.4c3.86-.16,5.29,1.55,4.27,5.24-1.64,7.68-6,14.15-9.59,21-1.56,3.66-4.85,3.79-7.72,4.49-5.75.12-4.83-9.49-4.29-13.42,2.74-5.75-4.49-19.32,5.21-18.72C525.15,556.91,529.8,558.71,533.67,558.4Z"/><path class="cls-1" d="M537.28,404.52a6.77,6.77,0,0,1-3.16.68,4.3,4.3,0,0,1-1.1-2.4l.42-.13A6.56,6.56,0,0,1,537.28,404.52Z"/><path class="cls-1" d="M509.91,153.93c7.26-4,14.56,9,7.43,14-5.07,2.54-13.87,1.55-12.15-5.64C504.14,158.38,507.91,156.37,509.91,153.93Z"/><path class="cls-1" d="M503.62,410.77c1.18-2.49,2.73-3.84,5.33-3.73C508.93,410.53,507.21,412.49,503.62,410.77Z"/><path class="cls-1" d="M507.54,98.16l0,2.61h-.06c-3.42.43-3.43,5.17-4.14,7.83-.29,3.76-7.47,15.11-10.34,8.91-2.86-5.44,2.36-8.86,1-14.24-.9-3.72,0-4.69,3.8-5.26Z"/><path class="cls-1" d="M507.12,433.2c.64.53.14,1.6-.77,2.81a6.44,6.44,0,0,1-2.29-2.39C505.41,433,506.58,432.76,507.12,433.2Z"/><path class="cls-3" d="M488.58,224.13c3.05,1.12,19.18,4.84,16.58,10.18-1.29,5-4.63,17.89-5.85,20.77-2.62,1.61-16.63,34-17,22.37,1.51-2.32-.1-4.69-.42-7.08-.64-4.7.8-9.22.85-13.88.09-10.11.79-20.22,1.24-30.33.06-1.32-.13-2.74,1.39-3.44S487.55,223.75,488.58,224.13Z"/><path class="cls-2" d="M423.4,339c3.77,2,14-4.62,14,1.26-.28,5.74-.7,6.22-7.9,6.09C423.53,348,418.45,340.68,423.4,339Z"/><path class="cls-5" d="M398.09,263.79c11.87,4.22,13.05,19.62,10.84,30.14-.43,3.88-1.38,8.44-6.48,10.31-5.61,3.08-8.08,10.86-2.94,15.82,14.23,20.66,20.85,50.28,2.7,70.89-15.83,15-40.37,17.69-61,19.3-22.31,1-21.11-8.7-34.58-20.82-4.65-3.11-10.39-1-15.16-3.89-2.43-1.47-5.48-1.15-8.29-.66a4.89,4.89,0,0,1-4.14-1c-5.82-4.65-13.34-5.36-20.67-6.78-7-1.25-15.59,6.9-20.19-.5-4.4-5.69-9.26-10.83-15.75-14.19-5.09-1.43-7.05-2.46-7.29-8.06-8.93-14.5-9.43-41.9,12-44.52,2.26.82,3.85-.33,5.51-1.42,9.94-5.19,16.15,13.71,35.32,7.39,5.71-.16,10.26-5.39,16.2-2.84,12.66,3.83,32.69,5.46,39.07-9,3.57-8.43,10.61,1.85,23.06-2.65C361,297.52,372.77,284,367,268.55c-.62-1.8.23-2.4,1.74-2.8a17.41,17.41,0,0,0,8.62-4.7C383.9,257.73,392,260.51,398.09,263.79ZM377,357.63c-.95-2.44-1.05-5.28-3-7.27-4.91-5.2-6.77,1.72-11,2-2.37-.21-4.58-.84-6.07-2.86-4.54-3.42-9.73-1.46-10.81,4.06-.15,9.14-3.62,6.93-9.8,10.67-4.62,3.84.83,9,5.55,8.24,8.27,1.91,8.45-9.81,15.28-8.28C363.62,365.58,374,363.31,377,357.63Zm-4.75-23.82c9.45-3.69,5.88-17.28-3.26-17.53C357.75,317,361.34,337.71,372.24,333.81Zm-52.58,8c1.29-13.12-15.19-14.36-16.46-2.23C305,351.1,317.54,355.7,319.66,341.77Z"/><path class="cls-1" d="M374,350.36c1.91,2,2,4.83,3,7.27-3,5.68-13.37,7.95-19.8,6.55-6.83-1.53-7,10.19-15.28,8.28-4.72.75-10.17-4.4-5.55-8.24,6.18-3.74,9.65-1.53,9.8-10.67,1.08-5.52,6.27-7.48,10.81-4.06,1.49,2,3.7,2.65,6.07,2.86C367.26,352.08,369.12,345.16,374,350.36Z"/><path class="cls-1" d="M369,316.28c9.14.25,12.71,13.84,3.26,17.53C361.34,337.71,357.75,317,369,316.28Z"/><path class="cls-6" d="M359,272.41c3.88,9-9.94,21.91-19.18,19.73-4.87-1.94-10.38-1.22-14.32-5.41-1.27-.91-2.53-3.2-4.64-1.74s-4.89,2.75-4.95,6.25c.5,15.47-17.71,17.89-28.32,11.71-4.84-4.32-11.39-11.63-16.43-3.14-2.22,5.84-10,9.87-15.33,6-3.32-2.14-21.52-15.34-9.11-14.83,3.66-.86,5-1.95,3.73-4.34-6-14,15-27.4,27-29.32,5.21,1.39,11,1.16,15.3,5.24a7.32,7.32,0,0,0,4.64,1.62c8.31,2.31,1.3-19.69,21.4-17.61C329,247.06,336,260.08,341,254,344.74,250.4,357.68,268.7,359,272.41Z"/><path class="cls-6" d="M324.21,454.19c.55,18.58-15.63,50.17-36.28,50.84-6,.46-7,9.68-5.27,14a2.24,2.24,0,0,1-.37,2.74c-8.2,10.94-22.23,19-36.16,18.07-9.85-2.06-18.4-8.56-24.83-16.21-.69-.89-1.63-1.49-2.56-1-9.67,3.82-10.58,16.48-21.35,19.5-35.11,17.55-52.91-29-59.48-13.16-4.87,12.68-20.7,16.33-32.8,18.2-20.61,2.78-31.8-16.38-38.79-32.85-.89-1.56-26.77,2.52-27.57,3.91-1.57,2.71-2.25,2.53-5.11,1.11C14,503.43,6.07,494.46,6.94,468c-.48-29.19,14.4-72,42.24-84.51,5.19-4.85,31.53-3,30,6.43,0,6.31,7.33,7,9.61,1.68,3.32-18.63,9.6-20.89,26.42-27.35,18.77-7.21,35.47,7,41.15,23.32,11,12.28,12.85-13.39,21.94-15.68,15.1-10.79,37.64-5.57,49.48,7.35,1.29.59,1.48,2.12,1.62,3.48-.56,6.24,11.42,16.59,15.67,11.28,4.81-9.52,19.23-9.67,26.18-2.46,2.17,2.67,7.65,2.59,7.86,6.72,1.74,6.7,11.69,5.78,13.29-.41,1.34-2.24,3.44-3.3,5.37-1.76C309.2,401.7,314,414.89,312.18,427,304.81,444.37,320.54,432.42,324.21,454.19Z"/><path class="cls-1" d="M303.2,339.54c1.27-12.13,17.75-10.89,16.46,2.23C317.54,355.7,305,351.1,303.2,339.54Z"/><path class="cls-5" d="M309.29,513c1.9,15.52,3.3,30.74,3.91,46.23,0,2.69-8,4.46-10.56,5.2-11.11.81-5.84-15.93-9.46-22.74-.34-4.91-6.35-10.29-2.13-14.67,1.64-1.4.64-3.35,1.42-5.06C293.56,517.44,311.89,501.42,309.29,513Z"/><path class="cls-5" d="M279,537.84c11.83,1.85,9.88,32.37,4.21,39.88-10.69,4.73-20.95-19.42-22.24-28.14-.27-1.53-.05-2.49,1.66-3C268.72,545.18,273.57,540.46,279,537.84Z"/><path class="cls-5" d="M99.64,556.82c4.17-.44,12.14-4.32,11.37,3.28-2.09,5.73-1.33,17.42-8.23,20.09-6.32-2.06-5.39-12-7.72-17.31C94.11,558.71,95.19,557.57,99.64,556.82Z"/><path class="cls-5" d="M79.29,552.59c-.81,5.57,5.22,9.68,4,14.91-3.1,44.28-31.43-21.81-31.78-35-1.51-5.21,5.73-2.92,8.66-4,1.49-.47,2.58.52,3,2,.65,2.54,2.37,4.36,4.11,6.07,3.8,3.72,5.12,9.45,10.17,11.78C78.86,548.64,79.27,550.88,79.29,552.59Z"/></g></g></svg>