<svg xmlns="http://www.w3.org/2000/svg" viewBox="0 0 878.51 884.11"><defs><style>.cls-1{fill:#bf7c52;}.cls-2{fill:#cfaa89;}.cls-3{fill:#fff1d2;}.cls-4{fill:#fad8b8;}.cls-5{fill:#fafafa;}.cls-6{fill:#895e29;}.cls-7{fill:#ffd630;}</style></defs><g id="レイヤー_2" data-name="レイヤー 2"><g id="レイヤー_1-2" data-name="レイヤー 1"><path class="cls-1" d="M88.79,560.24s-53,4.12-56.16,58.38S31,726.85,59.77,744.37s61.47,52.27,152.1,73.89,228.29,69.09,292,45.86,205.26-169.74,196.46-261,14.37-134.2,12.79-193.73Z"/><path class="cls-2" d="M487.37,233.75S432.56,132.92,410,121.91l-6.26,43.3-6.86-40.14-11.42,30.82s-13-38-32-38c0,0,8,35,3,44,0,0-22.4-27.3-47.2-27.65l11.2,27.65s-37,0-49,10l3,7,28,5,1.29,6.72-6.29,5.28s-40-11-94,18l41,16-3,7s-27,5-33,13l15.6,12.62s-48.6,6.38-48.6,17.38c0,0,18,6,25,15s8.93,21.78,8.93,21.78L219.89,335l-75.4,85.86s-17-6-33-6-26,3-31,5-20,13-20,13l28,4-14,11s-30,22-39,39H66.14S36.24,525.16,37.37,533s12.12,7.87,12.12,7.87-46,40-44,61c0,0,24-8,29-8s7.62,4.4,7.62,4.4L47,626.37l50.4,2.91,17,21.61,47.86,15.17s1.09,12.32,12.62,10.58,27.27,6.08,27.27,6.08,53.59,33.82,145.92,0,251.33-13.83,251.33-13.83l17.93,10s17.22-36,.15-43l26.92,0S637,601.31,601.76,603.6Z"/><path class="cls-3" d="M418.09,208.36s-68.65-9.54-95.12,0-63.17,62.42-63.17,62.42S196.92,328,157.71,399.44,57.21,540.61,59.85,570.25,216.37,683.1,216.37,683.1s72.41,15.51,152.77,14.65,140.9,31.77,167.63,11S730.34,323.28,730.34,323.28s-.62-50.57-96.73-56.48S418.09,208.36,418.09,208.36Z"/><path class="cls-4" d="M455.49,246.89s-48.87,2.25-60.43,15.62-38.87,63.34-38.87,63.34-28,53.44,56.17,70.74,109,12.93,123.09-7.39c0,0,31.15,9.3,28.1-31,0,0,19.1-70.06-46-95.69S455.49,246.89,455.49,246.89Z"/><path class="cls-5" d="M483.4,242.15S523.46,214,537,225.93s45.63,68.53,45.57,90.74-9.49,55.71-9.49,55.71l-6.89,0s6.33-43.59-3.67-65.53-79.09-56.65-79.09-56.65Z"/><path class="cls-6" d="M856.44,170.08c6.53,11.78,24.93,20.19,21.69,32.56-3.79,14.5-7.6,34-22.87,40.47-4.14,1.75-17.15-17.45-26.24-27.19C837.79,198.35,841.87,181.24,856.44,170.08Zm-1.08,61.79,14.29-26.51c-1.5-10.58-9.67-22.66-13.29-20.2-8.11,5.51-15.45,16.58-16.67,26.2C838.91,217.43,849.74,225,855.36,231.87Z"/><path class="cls-7" d="M869.65,205.36l-14.29,26.51c-5.62-6.88-16.45-14.44-15.67-20.51,1.22-9.62,8.56-20.69,16.67-26.2C860,182.7,868.15,194.78,869.65,205.36Z"/><path class="cls-6" d="M842.91,133.88c-9.34,18.26-9.9,37.81-13.53,56.71-.16.85-1.77,2.22-2.25,2a13.66,13.66,0,0,1-5-2.82c-8-7.87-16.33-15.51-23.73-23.93-14.79-16.82,8-26.29,8.66-40.41.26-5.51,4.25-11,7.13-16.17a16,16,0,0,1,6.26-5.66c.49-.28,3.17,2.79,4.46,4.59C830.88,116.59,836.71,125,842.91,133.88Zm-11.14,6.82c.75-9.5-2.66-16.69-9.39-22.28-.55-.47-2.3-.13-3.09.41-16.78,11.62-17.76,43.5-1.52,55,1.54,1.09,4.26,8.11,6.3,1.59C827.67,163.94,829.4,151.84,831.77,140.7Z"/><path class="cls-7" d="M822.38,118.42c6.73,5.59,10.14,12.78,9.39,22.28-2.37,11.14-4.1,23.24-7.7,34.76-2,6.52-4.76-.5-6.3-1.59-16.24-11.54-15.26-43.42,1.52-55C820.08,118.29,821.83,118,822.38,118.42Z"/><path class="cls-6" d="M477.18,850.93l.09-.07Zm.73-.54.29-.21c-3.57-4.58-5.3-11.3-12.84-11.29-2.47,0-4.94.46-7.41.71C460.87,847.55,465.63,852.89,477.91,850.39ZM356.82,852.7l.28-.06Zm.43-.09.39-.09h0l.47-.11c-.56-.84-.92-2.09-1.71-2.48-9.34-4.61-18.66-9.28-28-13.83,4.1,1.87,9.82,0,13.78,2.34.58.34,2.29-1.25,3.48-1.94l-20.89-9.61c-.17,1.3-.86,2.87-.48,4.1a7.75,7.75,0,0,0,3.77,4.94c-6.26-3-12.54-6-18.87-8.89-3.58-1.62-8.27-.8-12.45-1.1,3.09,5.54,5.11,14.65,9.47,16,15.83,4.78,32.44,6.94,51.43,10.61ZM203.83,821c.92.34,1.86.65,2.81.93Zm10.61-3.85-.11.05h0l-2.49,1c5.66,10,17.19,6.34,25.25,10.78.22.12,1.5-1,1.44-1.11-4.2-9.26-12.14-11.4-24.2-10.72ZM203.66,821c-14.69-5.4-26-17.59-40.9-22.1-2.44-.74-7-1.44-7.47-.54-2.19,4.18.83,6.76,4.52,8C174.39,811.29,189,816.1,203.66,821ZM798.45,352.54c.63,5.06-3.09,12-7,15.93s-2-4.6-5.45-4.63c-7.6-.08-17.06-3.15-22.25.29-5,3.31,4.86,6.87,6.78,11.13,1,2.21,2,6.78,1.59,6.93-7,2.85-14.25,5.19-21.43,7.65l-19,6.54c5,3.78,9.86,7.67,14.93,11.32,7,5,19.65,9,16.8,17.8-3.58,11.05-17.39,3.17-26.27,6.14-4.86,1.62-10.24,1.65-15.39,2.39,2.85,4.2,5.38,8.66,8.59,12.56,12.43,15.09,7.48,34.62,13.21,51.41.26.77-2.59,3.69-3.12,3.48a58.56,58.56,0,0,1-9-4.9c-5.49-3.44-10.9-7-16.35-10.53-.82,5.77-1.77,11.53-2.44,17.32-5.63,48.82-8.72,98.06-23.27,145.42-4.84,15.76-13.17,30.21-19.65,45.07-13.06,30-37.87,50.79-53,78.49-7.26,13.31-9.62,33.34-18.35,40.89-32.83,28.38-62.63,67-108.87,70.43-32.92,2.48-67.61-5.86-100.17-14.46-43.89-11.6-88-20.84-132.67-28.85-52.94-9.5-103.57-26.75-150.44-53.87-6.9-4-14-7.7-20.88-11.68-.86-.5-1.19-1.9-1.76-2.89l2.4-.36C70.9,750.86,36.86,744,36.18,712.33c-.73-33.72-17.93-64.5-14.64-98.45.48-4.94,2.3-9.62,7.7-10.09,1-.09,3.76-2,6.86-4.13a16.8,16.8,0,0,1,1.72.52,7.32,7.32,0,0,1,4.36,3.42c-3.37,6-7.29,12.75-9.55,15-8.32,8.33-4.19,21.65-.69,31.16,8.64,23.49,6,49.08,14.72,72,7.43,19.66,26.25,27.62,44.7,34.62.22.08,1.52-1.57,1.37-1.8C84.93,742.7,77,730.86,69.13,719c-1.68-2.52-3.41-5-5.12-7.51.6-.11,1.47-.52,1.76-.27,2.61,2.3,6.2,4.24,7.47,7.17,7.1,16.35,21.43,18.93,36.69,21.32,7.63,1.2,14.76,5.46,22.16,8.2a45.34,45.34,0,0,0,6,1.37,68.74,68.74,0,0,0-3.43-7c-3.08-4.83-6.42-9.49-9.56-14.27-.39-.59-.23-1.53-.33-2.3.9.53,2.26.84,2.62,1.62,17.86,37.93,58.8,29.89,88.49,44.17,7.2,3.47,7.21,2.55,10.68,6.88,5,6.25,8.91,14.72,19.23,13.88,1.23-.1,2.47,0,3.71,0-.46-1-1-1.91-1.37-2.9-1-2.42-1.89-4.87-2.83-7.31,1.74,1.66,4.18,3,5.1,5,3.29,7.26,9.6,8.08,16.27,8.49-2.14-4.47-4.38-8.91-6.38-13.44a38.49,38.49,0,0,1-1.58-5.78c1.16,1.27,2.65,2.35,3.41,3.82,7,13.51,18,20.15,33.22,19.51a16.41,16.41,0,0,0,3.05-.7c-1.19-2.39-2.42-4.77-3.57-7.19s-2.2-4.62-3.15-7c-.1-.26.73-.89,1.13-1.35,1.8,1.84,4.24,3.38,5.27,5.58,3.63,7.71,7.49,14.72,17.7,14,1.52-.11,3.05,0,4.58.08a25.39,25.39,0,0,1-1.41-4.21,14.17,14.17,0,0,1,.3-3.58,22.81,22.81,0,0,1,2.85,2c3.15,2.85,5.76,7.2,9.43,8.42,14.19,4.7,22.48,3.45,10.84-13.39-.43-.61-.05-1.79-.05-2.7A24.52,24.52,0,0,1,345.6,792c1.14,1.18,2.57,2.47,2.93,3.94,3.29,13.43,13.88,16.43,25.42,19.2,3.88.93,12.93-3.39,11.2,7.4-.21,1.32,2.41,4.32,3.86,4.42,3.63.24,7.35-.73,11-1.21-1-2.12-1.85-4.31-3-6.34-5.78-10.25-11.69-20.43-17.32-30.75-.41-.74,1.06-2.51,1.66-3.8a13.5,13.5,0,0,1,2.7,2.69c1.58,2.89,2.45,6.28,4.43,8.82,8.69,11.12,10.74,28.08,27.71,31.93,2.36.53,4.91.24,7.37.33-.86-2-1.7-4.11-2.58-6.15q-4.36-10.18-8.75-20.36c4.71,6.52,10.81,12.47,13.78,19.71,4,9.69,11.34,10.46,18.95,9,1.32-.25-4.09-8-6.85-12.3-4.49-6.94-6.29-15.63-9.14-23.61-.26-.74.16-1.71.26-2.58.71.62,1.66,1.11,2.1,1.89C437.52,805,444,815.7,449.62,826.76c3.69,7.2,9.51,8.46,16.51,8.12-1.71-4.11-3.29-8.29-5.15-12.34-2.72-5.93-5.63-11.77-8.46-17.65q6,7.7,11.91,15.39c8.89,11.46,14.06,25.75,26.66,34.51,1.43,1,1.28,6.53-.09,8.77-2.53,4.16-3.9-1.6-5.85-1.61-4.48,0-8.95.76-13.43,1.22,1,2.49,1.77,5.18,3.18,7.44,3.44,5.5,8.83,5.76,14.73,5.38,38.16-2.51,28.65-33.46,32.74-55.66,3.34-18.12.24-36.39-2.63-54.47-.33-2.1.51-4.39.81-6.59a41.2,41.2,0,0,1,1.69,6c1.84,13.68,3.51,27.39,5.41,41.06.17,1.26,1.49,2.35,2.28,3.52.86-.91,2.64-2.24,2.45-2.66-5.14-11.2,7.27-15.73,9.3-24.28.92-3.88,3-6.44-2.3-8a5.63,5.63,0,0,1-2.7-2.61c-.19-.33,1.14-2.21,1.6-2.15,19.81,2.67,16.39-17.16,23.36-26s14.39,8,18-3.37c.76-2.43,3.3-4.31,5-6.44-.89,2.89-2,5.73-2.58,8.67-.33,1.53-.2,4.5.31,4.63,2.53.68,5.25.62,8.19.85l1.35,3.41c2.68-1.09,6.37-1.42,7.84-3.4,4.41-5.94,7.79-12.63,11.86-18.83,14.5-22.09-10.44-12.91-15.45-19.52a9.3,9.3,0,0,0-2.39-1.65c.87-.22,1.93-.9,2.58-.61,31.29,13.78,34.33-12.55,43.5-30.42a25.21,25.21,0,0,1,11.89-12c-11.15,20.64-22.37,41.24-33.44,61.93q-14.88,27.81-29.45,55.81c-1.45,2.8,10.69,13-4.59,8.24.6,12.86-13.54,17.69-15.74,29-.26,1.31.37,2.8.58,4.2,1.95-.71,4.1-1.09,5.82-2.18,20.44-12.89,23.34-37.5,36.7-55.14a420,420,0,0,0,47.11-77.78c.32-.68,1.48-1.08,2.33-1.31.19-.06,1.16,1.23,1,1.71-.67,2.61-1.57,5.16-2.4,7.74a12.62,12.62,0,0,0,1.85-1.88c2-3.05,4.34-6,5.82-9.27,26.71-59.67,31.36-123.79,37.79-187.56.3-2.95,1.52-5.85,1.53-8.77,0-2.34-.73-6.36-1.93-6.68-2.94-.78-6.34.14-9.55.37a51.88,51.88,0,0,0,2.17,6.37c1.06,2.19,2.76,4.06,3.84,6.24,5.11,10.32-16.05,4-9.87,16s3.84,13.14-11.39,4.67c-21.26-11.82-39.76,0-49,27-6.54,19.11-18.24,36.47-27.57,54.64a32.36,32.36,0,0,0-1.63,4.93A32.37,32.37,0,0,0,606,603c13.41-3.88,47.14,22.28,45.91,35.79-.16,1.75-1.79,4.76-2.74,4.76-2.25,0-4.44-1.73-6.76-2.27q-12.36-2.9-24.81-5.32c-.27,0-1.64,2.65-1.36,2.94,12.74,13,5.34,26.66,1.22,40-.67,2.19-3.57,4.48-5.87,5.09-1.41.37-5.08-2.17-5.28-3.73-1.85-14.23-10.45,1.61-14.1-3.33-2.49-3.38-7.61-8.22-6.71-10.15,5.22-11.24,13.86-9.11,22.45-3.69,2.22,1.4,5.93,4.68,6,4.56,4.37-5,4.13-12.35,1-16.16-25.17-31.05,1.41-21.07,16-20.79a46.77,46.77,0,0,0,7.1-.91c-1.14-2.12-1.88-4.6-3.47-6.3-7.06-7.55-15.68-15.05-25.95-13.08s-17.17,10.4-22.51,20.66c-14.2,27.26-26.59,56-49.45,77.65-4.8,4.55-11.41,7.5-19.12,5.32-4.38-1.24-9.2-.94-13.82-1.33,2.93,5.75,6.25,11.35,8.6,17.33,1.09,2.79.47,6.33.17,9.49-.05.53-3.3,1.51-3.61,1.12-1.69-2.12-3.67-4.46-4.2-7-6.39-30.67-32.13-30.94-55.4-37.16-42-11.23-79.46,12.47-120.11,13.47-45.3,1.1-86.91-6.57-127-27.23-15.44-8-34.71-3.17-50.88-13.19-6.68-4.13-13.54-9.19-21.21-11.95l.89-2.74c7.49,2.42,15.88,4.38,22.62,7,11,4.3,20.72,13.86,35,7.9C154,651.22,119.7,633,85.51,614.52c-40.29-21.78-42.36-34.27-19.43-74.64,24.25-42.71,58.56-78.92,78.35-124.39,15.13-34.76,35.56-66,63.85-91.69.71-.65,1.38-2.63,1.06-2.94-11.75-11.27-9-37-34.29-34.6-3.77.36-7.44.25-7.61-3.65-.1-2.42,2.69-6.48,5-7.26,12-4,24.27-7.08,36.41-10.64a76.56,76.56,0,0,0,7.92-3.3c-2.15-1.31-4.25-2.7-6.44-3.92-3.68-2-11.15-2.34-9.19-7.42,1.52-3.94,8.37-6.1,13.14-8.45,8.16-4,16.55-7.59,24.85-11.35-10.11-3.76-20.17-7.66-30.35-11.2-4.41-1.53-11.69.84-12.54-5.26-.92-6.62,6.78-5.27,10.71-7,24.06-10.41,49.13-16.74,75.46-17.31,2,0,4,1.65,6,1.56a54.29,54.29,0,0,0,9.72-1.79c.54-.13.84-1.21,1.25-1.85-2.38-1-4.69-2.55-7.14-2.81-10.94-1.15-21.93-1.76-32.86-3-1.8-.2-3.36-2.47-5-3.78,1.61-2,2.85-5.07,4.9-5.77,15-5.11,30.14-9.76,45.24-14.52,4.17-1.31,8.36-2.52,12.54-3.78-4-4-7.73-8.35-12.2-11.73-3.56-2.7-12.78-1.11-9.57-8.48,2.9-6.65,9.91-1.13,14,.65,14.27,6.16,30.28,9.12,41.35,21.74,2.79,3.18,2.73-1.29,2.83-2.61.93-12.34,3.18-25-6.82-35.27-.72-.74-.19-4.22.29-4.34,3.25-.84,7.82-2.72,9.77-1.28,7.34,5.42,14,11.86,20.61,18.17,2.48,2.35,4.3,5.4,6.41,8.13.58-3.5,1.34-7,1.69-10.49.36-3.71.29-8.18,4.93-8.37,2.14-.09,4.8,3,6.55,5.15,2.31,2.86,4,6.26,5.88,9.43.45-.44,1.36-1,1.29-1.31-1-4.73-2.24-9.42-3.32-14.15-.6-2.66-1.06-5.35-1.58-8,2.89-.18,6.32-1.47,8.58-.37C431.08,122,435,148,448.7,166.57c.71,1-2.27,4.64-3.53,7-1.55-.91-3.77-1.45-4.52-2.81-2-3.7-3.08-8-5.18-11.62-7-12.24-11.06-26.38-22.54-35.79a15,15,0,0,0-2.91-1.48,12.76,12.76,0,0,0-.55,3.4c1.53,13.78,3.28,27.53,4.63,41.32.28,2.84-1,6.09-4.92,5.05-3-.79-4.77-1.9-5.42-6.47-1.33-9.42-5.24-18.48-8.19-27.66-.19-.59-1.2-.91-1.82-1.36a8.58,8.58,0,0,0-1.41,2.19c-.34,1.26-.19,2.65-.54,3.9-1.95,7.13,3.95,19.09-4.84,20.78-10.4,2-4.34-11.55-8.89-16.81-2.89-3.34-3.59-8.56-6.45-11.94-3.38-4-8-6.9-12.13-10.29.32,3.92.62,7.84.95,11.76.28,3.13,1.57,6.55.71,9.32-2.82,9.11,6.23,24.21-9.35,25.76-3.87.38-8.07-17.12-18.05-21.6-4-1.81-8.25-3.18-12.38-4.75,1.62,3.52,3,7.19,4.93,10.51,2.15,3.67,5.76,7.39,2,11.38-3.45,3.68-6.91-.13-10.59-1.31-15-4.84-28.12,2.69-41.52,7.73,0,.06.46,2.38,1,2.5,4,1,8.2,1.33,12.15,2.49,7.55,2.23,21.49,5,21.44,7.31-.36,18.92-18.67,17.35-27.56,14.8-24-6.87-44.59,1-66,8-1.88.62-3.4,2.29-5.09,3.46a42.8,42.8,0,0,0,5.06,2.65c8.16,3.05,16.75,5.21,24.44,9.16,7.38,3.79,11.17,11.12,3.13,17-4.44,3.24-12.21,1.6-18.23,3.11-4.63,1.17-8.88,3.83-13.3,5.83,4.18,2.68,8.11,5.95,12.61,7.86s6.43,4.83,4.36,8.65c-1.16,2.14-4.91,3.53-7.71,4-12,2.11-24.1,3.68-36.12,5.7-1.59.27-2.92,2-4.37,3.09a47.15,47.15,0,0,0,4.43,2.36c9.75,3.93,17.67,10.25,21.58,20,6.23,15.57,12.29,10.87,18.08.25,14-25.63,40.25-41.06,55.63-64.66,31.37-48.12,75.74-36.57,119.63-30.93,1.14.15,2.09,1.79,3.13,2.73-1.53.87-3.13,2.59-4.59,2.48C381.48,209.33,363,208,344.65,206c-27.5-3.07-41.89,14.76-57.35,33.14-35.5,42.22-74.62,81.63-107.52,125.72-24.1,32.3-39.56,70.9-60.88,105.45-20.34,33-47.77,61.72-59,99.95-7.77,26.3,15.31,31.1,30.19,40.6,40.86,26.09,88.06,40.82,126.33,72.25,10.89,8.94,30.06,7,44,13.18,30.67,13.59,61.9,4.38,92.68,3.81,17.59-.33,34.84-9.53,52.61-11.8,36.05-4.59,69.36,9.61,103.52,17.87,29.16,7.05,36.29-17.81,46.89-35.17,29.54-48.36,56.16-98.35,78.81-150.37q28.56-65.56,57.32-131C703,365,717.88,341.23,723.05,315.52c3.15-15.74-18.57-24.11-32.89-30.39C653.38,269,614,276.86,575.73,274.93c-3.78-.19-4.48.8,1.33,10.63,13.36,22.61,15.84,46.37,9.12,71.32-.81,3-3.64,5.68-6.08,7.92-.73.68-3.29-.64-5-1.05.78-2.88,1.7-5.73,2.31-8.65,4.12-19.67,4.45-39-4.8-57.63-10.39-21-15.92-44.7-33.25-61.8-8.42-8.3-49.39-3.1-55.94,6.48,0,.07,2.45,2.48,3.92,2.73,44.14,7.36,87.48,45.53,84.71,80.22-1.66,20.91,4.83,43.65-8.5,63.41-5.74,8.51-21.1-1.69-21.71,9-1.4,24.54-27.11,22.56-36.74,37.34-1.59,2.45-3,5-4.55,7.49,2.46-.81,4.9-1.67,7.37-2.42,2-.61,4.09-1.08,6.13-1.61-1.11,2.08-1.68,5-3.42,6.13C487.06,460.09,462,474,449.85,501.75c-3,6.86-7.4,13.1-11.05,19.68-.4.73-.09,1.85-.11,2.79,1.05-.18,2.28-.08,3.13-.6,7.28-4.41,19.18-11.19,22.37-4.33,4.25,9.16-9.46,6.27-14.82,8.46-37.18,15.18-45.38,52.69-63.52,82.09C369.12,637,347,658.18,319.29,671.34c-25.66,12.21-58.23,1.3-67.15-17.21-10.79-22.39-12.15-46-11.52-70.67,1.52-59.54,27.68-110.23,54.33-161,14.05-26.78,31.14-51.2,50-75.11,5.82-7.39,9.62-16.35,12.76-25.84l2.71.9c-4.2,12.49-5.75,25.62-1.51,40.07,7.38,25.19,32.91,27.63,53.48,34.09,33.36,10.48,67.49,16.14,101.87,3.75a32.93,32.93,0,0,0,11.5-7.53c5.88-5.8,8.88-14.29,21-9.53,8.67,3.41,16.45-5.9,13.84-12.83-4.2-11.16-.9-20,0-30.56,3.32-41.11-12.34-60.38-51.23-76.54-21.75-9-47.62-11.51-62.17-34.14-2.18-3.39-4.38-6.44-.19-9.28,3.85-2.61,5.67.08,8.09,3.33,8.1,10.9,16.05,20,32.36,10.49,10.48-6.07,23.73-7.36,35.72-10.82,1.15-.33,2.23-.85,3.35-1.28a20.16,20.16,0,0,0-2.93-2.17c-20.71-10.21-42.16-19.06-59-35.87-9.41-9.42-15-20.63-9.7-32.73,4.64-10.55,16.45-15.21,27.68-14.62,43.79,2.3,84.62,12,110.69,52.07,5.08,7.82,7,18.14,2.37,25.75-8.35,13.69-23.7,14.07-37.74,13.14-11.24-.74-15.24-2.78-7,10.82,16.36,26.9,40.73,39.67,71.71,28.89,9.64-3.34,14.68-18.23,23.55-25.8,19.59-16.71,42-26.3,68.59-20.29,1.76.4,4.55,3.77,4.2,4.95-7.23,24.11,17,11.61,23.71,20.05,5.18,6.48,14.74,9.27,21.61,14.64,2.44,1.91,4,9.51,3.78,9.6-32.71,14.48,2.72,20.3,5.22,28.22C779.16,317.06,795.89,331.81,798.45,352.54ZM791,357.1c1.31-2.32,2.09-6.22,1-8.45-12.38-25.33-25-50.49-47.4-69.1-2.72-2.26-9.92-2.9-7.36-8.64,2.1-4.71,7.44-2.31,11.63-2.2,2.43.06,4.89-1.41,7.34-2.2-1.27-1.94-2.14-4.41-3.89-5.74C739,250.54,724,244.57,706.93,244.36c-3.08,0-6.13-2-9.2-3.09,1.83-2.22,3.7-4.4,5.46-6.66,1.56-2,3-4.07,4.48-6.12-2.27-.89-4.55-2.6-6.8-2.56-24.62.4-43.39,12.74-59.52,30-3,3.22-5.19,7.22-7.75,10.86l11.25,1.46c16.57-2.22,30.65,5.52,45.63,8.43,25.67,5,47,31.14,39.86,46.59Q694.91,399.93,660,476.79c-4.57,10.11-7.24,21.08-10.78,31.66,9.92.13,20,1.54,29.67-.11,5.53-.95-2.18-5.19-1.07-8a8.28,8.28,0,0,1,4.3-4.2c2.69-1,5.73-1.06,8.63-1.52-3.81-3.1-7.58-6.25-11.44-9.28-1.82-1.42-3.82-2.62-5.73-3.91,2-1.78,4.36-5.39,5.87-5,14,3.07,29-2,42.45,6.29,12.14,7.55,12.92,7,12.67,4.18-1.46-16.15-3.78-32-17.22-43.48-3.47-3-6.54-6.4-9.8-9.62,4.54-1.79,9-3.84,13.66-5.29,3.12-1,6.54-.88,9.75-1.6,7-1.58,13.91-3.38,20.87-5.09-2.93-2.38-5.71-5-8.84-7.07s-7.18-3-9.74-5.55c-4.43-4.37-8.09-9.53-11.74-14.61-.21-.3,2.37-3.6,4.07-4.1,9.61-2.88,19.38-5.23,29-8,2-.59,3.8-2.23,5.69-3.39a36.82,36.82,0,0,0-3.53-5.42c-2-2.16-4.74-3.68-6.46-6-4.07-5.48-.74-8.86,4.41-9.3,9.75-.83,19.59-.52,29.4-.72C786.5,357.59,790.39,358.23,791,357.1ZM597.16,759.16,589.68,753l-17,27.43c2.37,1.16,5.4,3.89,7,3.21C590.24,779.14,590.56,766.86,597.16,759.16ZM561,220c13.92-5.11,34-1.64,25.67-23.22-13.3-34.6-72.32-61.7-108.12-51.83-16.55,4.57-22.24,9.72-17.93,16.74C484.16,200,522.29,212,561,220Zm22.9,535.15c.12-.2-2.74-2.16-4.21-3.29-5.44,8.33-10.94,16.62-16.16,25.09-.29.48,1.68,2.36,3.71,5.11C573.48,772.21,578.84,763.76,583.94,755.16Zm-4.48,34.55c-2.12-1.25-4.32-3.65-6.36-3.52-6.44.4-7.33,6.52-9.72,11l9.09,3.3Zm-6-39.18-8.32-5.16c-5,8.74-9.93,17.47-15.74,27.7,3.32,1.69,7.12,3.91,7.28,3.67C562.53,768.15,568,759.32,573.5,750.53Zm-3.59,55.69c.11-.24-2-2.15-3.18-2.28-12.67-1.4-13,10.13-16.26,17.26-1.37,2.95,4.94,3.08,10.71,2.57C563.67,818.88,566.91,812.6,569.91,806.22Zm-4.32-20.52c-2-1.15-4.59-2.84-4.71-2.68-3.34,4.44-6.48,9-9.38,13.77-.14.23,2.26,2,3.47,3.06Zm-11.26-3c.14-.21-2.92-2.69-5.4-4.93-3.37,6.38-6.4,11.87-9.06,17.55-.25.54,2.16,3.32,2.81,3.15C550.49,796.29,550.53,788,554.33,782.67Zm-10.94,39.22,9.77-15.72c-1.29-.77-3.66-2.28-3.71-2.21-3.32,4.87-6.45,9.86-10,15.46Zm5.48,21.69c2.22-2.16,2.39-6.43,3.5-9.74-1.17-.34-2.32-.76-3.51-1-4.59-1-5.88,2.2-7.29,5.61-.79,1.91-2.41,3.48-3.65,5.2.26-2.24.61-4.47.75-6.71.1-1.65-.07-3.32-.13-5a46.49,46.49,0,0,0-5,1.32c-10.94,4.23-2.85,14.84-7.75,20.88.8,1.88,1.05,3.85,2,4.23s2.77-.43,3.84-1.23C537.48,852.78,543.64,848.66,548.87,843.58Zm-7.35-36.87c.19-.37-2.12-3-3-2.84-5.47.93-5,5.89-6.69,10.39l2.7,4.08C536.93,814.49,539.41,810.7,541.52,806.71ZM517.57,411.44c-7.52-5.12-14.38.87-20.73,2.52-22.7,5.89-46.17-9.06-68.16,3.1-34.6,19.13-73.09,22.35-111.07,27.82-9.95,1.43-25.57-.42-28.82,5.05-12,20.07-20,42.5-29,64.24-2.43,5.85-3.12,12.43-4.61,18.67a22,22,0,0,0,4.21.09c34.39-5.78,68.78-11.63,100.87-17.07,27.48-9,53-15.38,77.12-27.36,27.32-13.58,44.13-37.13,63.8-58.22C506.83,424.2,512.11,417.73,517.57,411.44ZM469.5,872.61c-1.78-3.37-2.74-8-5.53-9.79a26.31,26.31,0,0,0-13.88-3.75c-8.49.17-18.22-7.12-25.32,3.41-8.25-14.55-24.29-5.49-35.3-12.9-2.18,1.36-5,2.12-5.4,3.56-1,3.62-2.09,7.89,4.06,8.77,22.71,3.25,45.38,6.74,68.09,10C460.59,872.5,465.07,872.39,469.5,872.61Zm-18.17-24.78a4.84,4.84,0,0,0,3.22-1.24c-1.49-9.12-7.78-11.54-18.48-10.55,1.36-.69-.31,0-.26.16C438.16,843.77,444.52,846.2,451.33,847.83Zm-4.88-353a26.7,26.7,0,0,0,1.39-3.69c-1.42.23-3,.09-4.23.72C394.47,517.77,340.26,525.07,286.75,535c-17.81,3.31-39.53,2.29-38.22,30.42.65,13.87.11,27.79.11,44.84,2.6,4.39-4.81,18.55,8.87,19,10.93.34,23.36-3.12,32.89-8.7C338,592.64,396.86,580.92,425.7,525,430.85,515,440.56,505.73,446.45,494.88Zm-15.53,348c.48.11,1.73-.89,1.68-1.06-2.74-8.3-9.9-8.45-19.07-9,.16-.68-.6.63-.3,1.62C416,843.59,424.39,841.44,430.92,842.93Zm-6.5-432.76-18-6.56C382.09,394.76,354.54,390,348.3,358c0,0-3.32-.06-3.88.74-12.49,17.94-25.93,35.37-36.56,54.36-3.92,7-18.76,17.11-6.82,27.75,20.83-3.24,36.46-5.38,52-8.16s31.2-5.31,46.31-9.68C408.19,420.47,416.09,414.57,424.42,410.17ZM406.33,838.54a25,25,0,0,0,2.46-1.28c-2.55-6.44-8.44-6.76-14.06-7.4-1.33-.15-2.74.49-4.12.76C393.18,838.31,400.75,835.77,406.33,838.54Zm-6.54-267.92a9.13,9.13,0,0,0,.33-2.7,14.93,14.93,0,0,0-3,1.29c-39.27,28.16-81.77,50.93-127.43,65.79-16.38,5.34-8.28,11.45-6.89,18.31,1.12,5.51,5.19,8.88,11.21,10.78,15.82,5,31.4,13.43,42.49.33,5.6-1.57,7.18-1.64,8.33-2.39C359.65,639.66,382.91,607.75,399.79,570.62ZM388.78,846l3.65-2.38c-5.48-2.35-10.94-4.77-16.48-7-.58-.23-1.65.75-2.49,1.17C376.66,843.7,380.53,848.23,388.78,846Zm-6.31-14c.37-.35,2.18-1.42,2-2-3-11.58-13.61-11.26-22.28-14-.44-.13-1.75,1-1.7,1.08C364.37,826.47,371.61,831.07,382.47,832Zm-2.2,27.2c.54.21,1.46-.55,2.2-.85C378.58,851.23,373,846.64,363,847c.18-.16-1.39.64-1.31,1.24C363.15,859.75,373.48,856.53,380.27,859.2Zm-14.72-17.51a6.11,6.11,0,0,0,2.15-.91c-2.6-10.5-11-11.88-19.13-13.59-.54-.11-1.3.76-1.95,1.18C351.31,835.11,355.58,842.49,365.55,841.69ZM356,825.17c.49-.33,2.22-1.16,2.13-1.49-3-11.1-12.83-9.72-21-11.31-.81-.15-1.77.46-2.67.71C338.09,822.85,347.39,822.65,356,825.17Zm-26.33-5.41,2.52-1.32c-3.18-4.88-6.24-10-13.23-9.51-2.51.17-5,.74-7.48,1.13C313.89,819.24,321.78,818.58,329.69,819.76Zm-23.86-4.32c.26.17,1.86-1,1.8-1.22-3.32-13.33-15.84-7.22-24.38-11.51-.56.74-1.94,2-1.73,2.37C286.81,814.93,298.26,810.62,305.83,815.44Zm-6.57,26a23.12,23.12,0,0,0,3.36-1c-6.89-6.48-9.65-18.13-23.86-17.2l.06-.06h0c-.11.06-1.11.86-1.05,1C283.13,832.08,285.88,843.41,299.26,841.42Zm-20.67-3.59c.51.15,1.34-.82,2-1.26-4.34-4.79-8.68-9.59-13.09-14.31-.07-.07-1.6.9-1.54,1.08,3.59,10.67-3.78,3.46-4.6,2.39-5-6.56-12.66-4.72-19.53-6.79l-2.33.67a25.31,25.31,0,0,0,1.37,3.31C249.56,837.66,265.52,834.13,278.59,837.83Zm-32.43-23.48c.74,0,1.54-.67,2.32-1-7.87-5.77-9.67-18.47-21.9-19.21a25,25,0,0,0-5,.71c1.38,6.16,7.17,6.24,11.22,8-1.4,1.27-3.92,2.9-3.7,3.45C232.24,814.11,239.44,813.85,246.16,814.35Zm-20.15-26c.72,0,2.08-1.44,2-1.53-4-6.57-6.78-14.68-19.44-13.68.29-1.1-.77.6-.31,1.58C211.86,782.16,216.52,788.51,226,788.31Zm-2.22,23.33c.4.07,1.71-2.14,1.53-2.35-5.51-6.28-7.44-16.47-17.28-17.94-4.68-.7-9.74,1.12-14.63,1.8,3.74,9.25,11.35,11.62,23.34,10.62l-13,4.16C210.42,809.2,217.09,810.53,223.79,811.64Zm-20.66-28,5.17-1c-3.47-4.27-6.15-10.82-10.58-12.38-12.63-4.43-26-6.88-39.06-10a46,46,0,0,0-7.17-.6c2.66,2.4,4.94,6.06,8,7,12.71,3.81,25.68,6.72,38.51,10.14,1.63.44,3,2,4.44,3l-1.53-.12c-1.31-.11-2.63-.21-3.93-.35-5.07-.53-10.13-1.08-15.19-1.62,4.06,3.06,7.9,6.48,12.23,9.07,3.25,2,3.83-4.33,6.67-4.33A3.82,3.82,0,0,1,203.13,783.66Zm-14.71,16.17c.8.16,1.77-.56,2.44-.79-2.34-9-9.68-10.59-16.48-12.8-.5-.16-2,1.12-1.95,1.18C175.87,794,181.09,798.32,188.42,799.83Zm-9.83-17a4.63,4.63,0,0,0,.38-2.44c-2.21-8.77-10.92-6.45-16.54-9.43-.35-.19-2.1,1.14-2,1.47C162.54,781,170.51,779.81,178.59,782.88Zm-11.31,11.89c.63.1,2.12-1.28,2.05-1.41-5.1-10.45-15.08-13-25.81-15.41-.08.07-1.06.68-1,.89C146.76,790.35,156.7,793.12,167.28,794.77Zm-13.72-19.09c.46.17,1.87-.85,1.83-1-3.4-10-13.82-7.05-20.73-11.67a20.38,20.38,0,0,0-2.64,2C136.69,773.53,146,773,153.56,775.68Zm-9.16-13.93c.38.16,1.29-.92,4.17-3.1-9.06-3-16.29-5.44-23.58-7.72-.37-.12-1.79,1.47-1.68,1.65C128.07,760.72,137.35,758.7,144.4,761.75Zm-5.55,26.07c.44,0,1.52-1.3,1.39-1.65C135,772.41,122,772,110.52,768.93c-.66-.17-1.6.66-2.44,1C115,782.71,126.05,786.86,138.85,787.82Zm-13.77-19.93c.45.28,1.82-.93,5.8-3.11-12.41-4.62-22.17-8.27-32-11.8-.28-.1-1.58,1.45-1.47,1.62C104,764.54,116.35,762.39,125.08,767.89ZM111,752.61c1.93.92,4.55.37,6.85.5-2-2.11-3.66-5.19-6.14-6.16-7.88-3.11-16.07-5.43-24.53-8.19C92,748.64,102.69,748.67,111,752.61Zm-7.93,22c.14.11,1-.68,1-.66-.84-8.6-7.22-10.13-13.33-11.91-.53-.15-1.27.45-1.91.7C93.53,766.76,98.26,770.75,103.05,774.65Z"/><path class="cls-2" d="M792,348.65c1.09,2.23.31,6.13-1,8.45-.64,1.13-4.53.49-6.95.54-9.81.2-19.65-.11-29.4.72-5.15.44-8.48,3.82-4.41,9.3,1.72,2.31,4.48,3.83,6.46,6a36.82,36.82,0,0,1,3.53,5.42c-1.89,1.16-3.64,2.8-5.69,3.39-9.64,2.78-19.41,5.13-29,8-1.7.5-4.28,3.8-4.07,4.1,3.65,5.08,7.31,10.24,11.74,14.61,2.56,2.54,6.63,3.47,9.74,5.55s5.91,4.69,8.84,7.07c-7,1.71-13.89,3.51-20.87,5.09-3.21.72-6.63.64-9.75,1.6-4.65,1.45-9.12,3.5-13.66,5.29,3.26,3.22,6.33,6.65,9.8,9.62,13.44,11.48,15.76,27.33,17.22,43.48.25,2.78-.53,3.37-12.67-4.18-13.42-8.33-28.45-3.22-42.45-6.29-1.51-.34-3.89,3.27-5.87,5,1.91,1.29,3.91,2.49,5.73,3.91,3.86,3,7.63,6.18,11.44,9.28-2.9.46-5.94.51-8.63,1.52a8.28,8.28,0,0,0-4.3,4.2c-1.11,2.78,6.6,7,1.07,8-9.62,1.65-19.75.24-29.67.11,3.54-10.58,6.21-21.55,10.78-31.66q34.75-76.95,70.37-153.51c7.14-15.45-14.19-41.59-39.86-46.59-15-2.91-29.06-10.65-45.63-8.43L633.6,266.8c2.56-3.64,4.74-7.64,7.75-10.86,16.13-17.27,34.9-29.61,59.52-30,2.25,0,4.53,1.67,6.8,2.56-1.49,2-2.92,4.13-4.48,6.12-1.76,2.26-3.63,4.44-5.46,6.66,3.07,1.08,6.12,3.06,9.2,3.09,17.11.21,32,6.18,45.42,16.41,1.75,1.33,2.62,3.8,3.89,5.74-2.45.79-4.91,2.26-7.34,2.2-4.19-.11-9.53-2.51-11.63,2.2-2.56,5.74,4.64,6.38,7.36,8.64C767,298.16,779.65,323.32,792,348.65Z"/><path class="cls-6" d="M660,665.36c.46,1.28,1.7,2.95,1.28,3.77q-19.2,37.22-38.74,74.25c-.16.31-.87.34-2.7,1,1.19-4.58,1.54-8.73,3.28-12.19,10.7-21.33,21.67-42.52,32.71-63.68C656.57,667.11,658.59,666.39,660,665.36Z"/><path class="cls-7" d="M586.71,196.79C595,218.37,575,214.9,561,220c-38.75-8.06-76.88-20-100.38-58.31-4.31-7,1.38-12.17,17.93-16.74C514.39,135.09,573.41,162.19,586.71,196.79Zm-25.05,6.45C576.44,198,574.87,185.36,568,178c-17.41-18.81-42.15-23.58-66.42-28-5-.91-11.55-2.58-13.31,2.68-2.15,6.43-4.15,15.13,3,20.14C512.21,187.43,535.36,197.29,561.66,203.24Z"/><path class="cls-6" d="M568,178c6.86,7.41,8.43,20.07-6.35,25.29-26.3-6-49.45-15.81-70.39-30.52-7.14-5-5.14-13.71-3-20.14,1.76-5.26,8.34-3.59,13.31-2.68C525.86,154.37,550.6,159.14,568,178Zm-17,12.22c2.15.75,4.73.29,7.11.39-.64-3.47-.06-8.69-2.11-10.11-17.29-12-36.88-18.51-58.18-22.39-.78.41-3.19,1.45-3.12,1.68.73,2.25,1.3,5.13,3,6.39C513.64,178.06,532.53,183.69,551,190.17Z"/><path class="cls-5" d="M496.84,414c6.35-1.65,13.21-7.64,20.73-2.52-5.46,6.29-10.74,12.76-16.42,18.84-19.67,21.09-36.48,44.64-63.8,58.22-24.13,12-49.64,18.4-77.12,27.36-32.09,5.44-66.48,11.29-100.87,17.07a22,22,0,0,1-4.21-.09c1.49-6.24,2.18-12.82,4.61-18.67,9-21.74,17.08-44.17,29-64.24,3.25-5.47,18.87-3.62,28.82-5.05,38-5.47,76.47-8.69,111.07-27.82C450.67,404.9,474.14,419.85,496.84,414Z"/><path class="cls-6" d="M499.39,850.26c2.12,4,7.82,7.77,4.43,13.86-2.93-3.87-6.35-7.46-8.71-11.65Q481.34,828,468.28,803.12c-1.31-2.48-.7-6-1-9,.78,0,2-.23,2.27.17,1.69,2.28,3.18,4.72,4.73,7.11l-2.14,1.24C481.33,818.48,490.88,834.1,499.39,850.26Z"/><path class="cls-6" d="M489.94,347.76C494,348.9,501.6,345,501,352.33c-.5,6.35-7.68,6.3-12.46,5.48-10.6.76-19.11-2.09-25.95-9.15-2.15-2.22-4.64-5.45-.82-7.75,2.53-1.53,6-2.47,8.9,1.51C475.42,349,483.49,346,489.94,347.76Z"/><path class="cls-5" d="M447.84,491.19a26.7,26.7,0,0,1-1.39,3.69C440.56,505.73,430.85,515,425.7,525c-28.84,55.92-87.66,67.64-135.3,95.56-9.53,5.58-22,9-32.89,8.7-13.68-.43-6.27-14.59-8.87-19,0-17,.54-31-.11-44.84-1.31-28.13,20.41-27.11,38.22-30.42,53.51-9.95,107.72-17.25,156.86-43.11C444.81,491.28,446.42,491.42,447.84,491.19Z"/><path class="cls-6" d="M436.43,251.74c.36.46-.91,3.16-1.95,3.63-3.41,1.53-5.46-.12-7.5-3.25-6.43-9.87-2.71-19.58.11-29.23.32-1.07,3.8-1.63,5.79-1.58.7,0,1.34,2.55,2.09,4.1C430.5,234.59,429.72,243.4,436.43,251.74Z"/><path class="cls-6" d="M432,369.18c-3.35,7.73-4.09,19.6-17,20-7.34.24-13.26-6.81-12-13.07,2.11-10.59,9.47-19.37,21.11-20.56C431.71,354.79,431.65,362.23,432,369.18Zm-8.48.86c-2.18-1.72-3.74-3.24-4-3.07a40.48,40.48,0,0,0-6.94,6.51c-.38.49,1.6,2.83,2.48,4.32C417.62,375.52,420.09,373.25,423.56,370Z"/><path class="cls-5" d="M406.41,403.61l18,6.56c-8.33,4.4-16.23,10.3-25.1,12.86-15.11,4.37-30.78,6.9-46.31,9.68s-31.14,4.92-52,8.16c-11.94-10.64,2.9-20.75,6.82-27.75,10.63-19,24.07-36.42,36.56-54.36.56-.8,3.87-.78,3.88-.74C354.54,390,382.09,394.76,406.41,403.61Z"/><path class="cls-6" d="M419.5,222.41c1.34,1-4.74,11.23-6.54,17.45-1.24,4.28-1.15,9-1.4,13.52-.18,3.21,5.95,8.34-1.48,9.09-5.24.54-7.38-4.42-7.36-10,1.87-7.41,2.66-15.38,6-22C410.59,226.85,411,216.06,419.5,222.41Z"/><path class="cls-6" d="M403.77,325c3.52-.1,8.46-.35,7.45,5.11-1.26,6.84-7.44,3.77-11.56,4.48-10.05,2.28-15.84-4.54-21.81-10.32-1.16-1.13-.81-5.07.29-6.79.65-1,5.5-1.08,6.14-.09C389,324.86,396.15,325.2,403.77,325Z"/><path class="cls-5" d="M400.12,567.92a9.13,9.13,0,0,1-.33,2.7c-16.88,37.13-40.14,69-75,91.41-1.15.75-2.73.82-8.33,2.39-11.09,13.1-26.67,4.66-42.49-.33-6-1.9-10.09-5.27-11.21-10.78-1.39-6.86-9.49-13,6.89-18.31,45.66-14.86,88.16-37.63,127.43-65.79A14.93,14.93,0,0,1,400.12,567.92Z"/><path class="cls-6" d="M388.11,263.68c3.7,6.06-3,8.15-4.87,11.93-7.56,15.55-17.42,30.66-22.85,46.82l-2.71-.9c3.83-11.47,6.69-23.71,11-34.86a60.56,60.56,0,0,1,9.48-15.48C380.71,268.05,384.75,266.14,388.11,263.68Z"/><path class="cls-6" d="M357.63,852.52h0l-.39.09Z"/><path class="cls-6" d="M356.82,852.7l.28-.06Z"/><path class="cls-6" d="M310.79,45.39C303.64,59,305.07,75,291.74,80c-2.66,1-26.4-7.18-23.67-15,4.45-12.82,1.55-34.83,22.41-36.17C296.82,28.34,303.9,39.44,310.79,45.39Zm-20.55,23.8c5-5,7.29-12.69,11.35-20.73-4.95-4.29-11.11-11.78-12.94-10.84-8.53,4.37-9.57,14.68-10.87,22.84C276.8,66.64,288.53,70.9,290.24,69.19Z"/><path class="cls-7" d="M301.59,48.46c-4.06,8-6.36,15.73-11.35,20.73-1.71,1.71-13.44-2.55-12.46-8.73,1.3-8.16,2.34-18.47,10.87-22.84C290.48,36.68,296.64,44.17,301.59,48.46Z"/><path class="cls-6" d="M253.68,21.61c2.42.72,4.36,3.05,6.12,4.33-3.49,15.3-6.59,29.08-10,42.78-.11.44-3.72.57-5.37,0-8.55-3.13-16.91-6.76-25.49-9.75-3.89-1.36-6.28-3-4.71-7.35C220,35.44,225.89,19.29,232,3.24c.55-1.43,2.9-2.18,4.41-3.24.66,1.44,1.91,2.89,1.9,4.33C238.25,14.8,244.84,19,253.68,21.61ZM240.89,57.13c9.75-2.75,4.55-14.93,9.16-21.11-1.13-9.88-10.74-10.77-14.91-16.68-3.63,9.39-8.64,18.6-10,28.31C224.79,50.29,236.58,58.35,240.89,57.13Z"/><path class="cls-7" d="M250.05,36c-4.61,6.18.59,18.36-9.16,21.11-4.31,1.22-16.1-6.84-15.74-9.48,1.35-9.71,6.36-18.92,10-28.31C239.31,25.25,248.92,26.14,250.05,36Z"/><path class="cls-6" d="M214.44,817.16l-.09.05h0Z"/><path class="cls-6" d="M203.83,821l2.81.93C205.69,821.66,204.75,821.35,203.83,821Z"/><path class="cls-6" d="M135.58,414.69c.95,0,1.73,4.62,2.59,7.09-1.95.32-4.17,1.4-5.8.83-21.28-7.48-41.74-6-61.37,5.19-1.11.63-1.68,2.21-2.5,3.34,2.86.54,5.69,1.25,8.57,1.59,6.51.77,18.18.1,18.7,2.22,2.68,10.92-9.26,9.91-14.94,13.36-13.43,8.18-25.89,17-35.15,29.91-1.55,2.16-2.91,4.44-4.36,6.67,3,.11,6,.18,8.94.34,7.59.4,15.16.84,22.74,1.27-.49,2.51-.17,5.71-1.61,7.43-8.08,9.67-16.89,18.74-24.76,28.57-2.71,3.39-3.41,8.38-5,12.63,3.25-.4,6.49-1,9.75-1.16a39.07,39.07,0,0,1,5.88.48c-.63,2.89-.55,6.21-2,8.58-8.74,14.12-21.2,24.76-33.38,35.8-4.71,4.28-7,11.23-10.32,17-.41.72-.06,1.89-.06,2.85a8.81,8.81,0,0,0,2.73-.12c4.94-1.87,10.11-3.35,14.66-5.92,6.37-3.61,12.48-1.29,18.16.63-2.29.37-6.9,3.58-10.9,6.36-10-2.54-18,4.53-25.28,10.73C8.11,612.7,6.89,617,2.28,614c-4.41-2.88-1.23-5.58-.37-9.08C8,580,25.7,563.75,43.35,547.34c.69-.64.9-3.14.54-3.34-11.17-6.13-11.71-9.75-1.79-24.67C47,512,53,505.58,58.31,498.56c1.47-1.95,2.07-4.55,3.06-6.85-2.19-.26-4.53-1.12-6.57-.66-7.52,1.67-14.9,3.94-22.43,5.6-1.9.42-5.15.05-5.94-1.16-.93-1.43-.72-5,.45-6.21,15.72-16.81,31.31-33.78,50.56-46.77a18.93,18.93,0,0,0,2.62-2.67c-1.89-.33-3.79-.6-5.66-1-8-1.68-20.09,7-22.7-.14-2.88-7.92,10.94-10.35,17.2-15.09C89,408.4,112.83,413.83,135.58,414.69Z"/><path class="cls-6" d="M112.83,643.43c2.59,5.43,9.83,8.71,18.2,11.41l-.89,2.74a30.55,30.55,0,0,0-18.54-1.06c-.81.21-2.67-1.2-3.09-2.24C96.91,625.19,71.29,627.64,47,626.37c-3.92-.2-9.23-1.81-6.91-9.34,1.23-4,4.05-9.54,2.06-13.43,2.48-4.42,4.66-8.44,5.67-10l.57.18c1.56.5,1.73,8.89.66,13.19-2.3,9.29,1.89,9.34,9.66,11.5C77.6,623.68,100.48,617.52,112.83,643.43Z"/><path class="cls-6" d="M48,593.39l-.14.21-.85-.3A1.57,1.57,0,0,1,48,593.39Z"/><path class="cls-6" d="M47,593.3l.85.3c-1,1.56-3.19,5.58-5.67,10a7.32,7.32,0,0,0-4.36-3.42,16.8,16.8,0,0,0-1.72-.52C40.1,596.88,44.71,593.67,47,593.3Z"/></g></g></svg>