<svg xmlns="http://www.w3.org/2000/svg" viewBox="0 0 851.67 736.58"><defs><style>.cls-1{fill:#895e29;}.cls-2{fill:#fff1d2;}.cls-3{fill:#fff;}.cls-4{fill:#f0485b;}.cls-5{fill:#fad8b8;}.cls-6{fill:#cfaa89;}</style></defs><g id="レイヤー_2" data-name="レイヤー 2"><g id="レイヤー_1-2" data-name="レイヤー 1"><path class="cls-1" d="M814.08,342.72C838.4,376.41,856.8,413,850.37,457.09c-4.78,32.81-21,60.08-47.06,78.1-35.67,24.61-73.63,45.18-120.25,44-32.95-.82-64.59-3.62-94.42-18.28-2.06-1-4-2.37-6.66-4-1.51,11.07-2.59,22.06-4.68,32.85-1,5.21-4.49,8.91-10.91,6.27-3.95-1.63-5.38,2.09-6.4,4.2a35.33,35.33,0,0,1-11.4,13.37c-2.42,1.8-7.37,4.14-4.85,8.17,5.12,8.18-1.57,24.41,16.49,24,13.76-.34,24.79,5.18,30.2,18.44,5.63,13.81.18,23-14.17,25C542,694,507.75,698.71,473.34,701.83c-9.95.9-5.89-10.75-7.68-16.61-4.92-16.07-6.53-34.1-12.35-48.46-4.15-10.25-9.84-29.92-22.59-32.25-21.68-4-44.9,0-62.43,15.35-6.35,5.57-9.55,16.78,2.34,24.84,8,5.45,2.2,15.57,3.94,23.5,2.89,13.11,2.88,26.85,5.46,40.06,1.62,8.29-3.2,11.06-8.62,11.18-25.38.54-48.76,9.63-72.94,15.44-9.45,2.26-21.73,3.65-28.17-5.13-7.64-10.42-5.6-22.62,3.2-32.75,1.25-1.44,3.33-3,5-3.06,20.18-.12,20-9.07,12.78-24.62-8.7-18.69-14.8-38.59-22.2-57.89-.86-2.24-3.05-5.86-4.26-5.72-4.05.47-2.2,4.27-2,6.62,2.6,35-7.75,65.88-30,92.75-3.8,4.59-9,10.68-15.57,4.74-4.92-4.47-2.48-10.94-.26-16.55,6.51-16.52,5.37-33.81,4.19-50.87-1.57-22.7.79-45.85-7.24-69.76-3.18,29.54-4.54,57.65-9.8,85-3.09,16.1-1.19,37.18-22.28,44.52-10.67,3.72-19.83,2.73-18-13.21,5.09-45.15,9.1-90.42,14.59-135.52,4.77-39.23-8.36-72.72-30.36-103.82-.83-1.18-3.91-1.83-5.39-1.27-2.67,1-6.72-.42-7.5,4.77-2,13.55-12.27,18.39-24.09,19.51-8.63.82-22.56,2.51-22.83-8.25C87.65,440.28,64,435,55.59,418.09,47,400.75,43.13,382,42.55,362.75c-.95-31.42-8.26-59.7-31.28-83.46-10-10.35-15.46-26.56-7.34-40.78,9.7-17,23.52-5,33.94,0,10,4.76,22.57,8,26.85,20.87a2.35,2.35,0,0,0,2,1.13c.59-.08,1.58-1.15,1.5-1.64-2.9-17.47,4.15-37.44-8.27-52.14-9.14-10.84-17-21.92-22.49-34.65-8.85-20.53-13.51-41.81-8.49-64.32.8-3.59-.47-7.77.77-11.09,1.09-2.91,1.42-8.22,7-7,1.79.38,4.92,2.24,4.79,2.7-1.22,4.46,5.15,6.91.51,13.87-6.46,9.67-5.67,23.26-3,35.72,3.36,15.75,7.27,31.22,16.39,44.69C57.63,190,62,194,65.37,194c4.15,0,1.33-5.51,1.6-8.34,1.6-16.6,3.87-33.35,3-49.88-.45-8.12-8-15.63-11-23.88-2.29-6.16-8.76-16-1-19,11.33-4.47,4.12,10.67,10,14,.92.52.93,2.63,4.37,3.8,0-14.55.08-29.11-.06-43.66,0-3.42-2.06-7.26,2.29-9.33,1.91-.91,4.62-1.88,6.29-1.19,4.14,1.71,3.18,5.93,2.95,9.33-2.63,39.21-6,78.39-7.87,117.63-1.06,21.81,0,43.73.6,65.59.07,2.87.65,6.74,6.6,5.25C106.36,248.39,130,244,154,242.37c5.27-.36,5.81-3.83,5.86-7.82.56-51-3.11-101.7-7.13-152.44a8.25,8.25,0,0,1,5.16-8.38c1.84-.82,6.25.26,7.06,1.79,1.47,2.75,2.86,5.74,1,10-5.51,12.19-2.58,25.23-1.25,37.86.29,2.78,2.78.75,3.94-1.36,7-12.7,15.2-24.78,15.49-40.23a6.37,6.37,0,0,1,8.55-5.92c4.68,1.54,3.7,5.86,3.14,9.5-2.59,16.88-11.32,31.3-21.19,44.29-13.79,18.13-6.72,37.52-6.78,56.56,0,3.35,2.14,3,4.11,1,17.81-17.6,32.12-36.61,26-64-1.21-5.45,2.87-6.22,6.65-6.64,4.31-.47,7.06.72,6.92,6.14-.65,25-6.78,47.56-26.66,64.84-10.61,9.23-20.6,19.37-17,35.65.39,1.74.73,3.49,1.09,5.23,1.3-.72,3.1-1.12,3.81-2.23,5.65-8.87,14.3-14.05,23-19.31,13.77-8.35,22.44-3.37,23.56,13,2.35,34.36-2.12,68.27-4.92,102.38-1.32,16.17,14.52,23.62,25.16,36.36C237.64,331.85,233,306.2,248,287c15.41-19.72,5.69-39.63,6.89-59,.36-5.68-9.36-14.75-9.62-24.89-.24-9.14,2.65-16.32,7.77-23.69,5-7.18-.41-15.41-.41-23.22,0-29,8.53-54.33,27.69-76.67,21.65-25.23,45-49.88,74.31-64.06,43.1-20.82,88.6-19,135.1-4.45,42.95,13.39,70.94,40.85,91.48,78.34,5,9.07,11.2,18,11.76,29.12.15,2.79,1.06,5.9,4.58,7.53,26.09,12.1,33.93,46.06,16.1,69.45-1.62,2.12-2.41,3.85,1.08,4.19,39.13,3.81,72.32,23.17,105.65,41.45,16.44,9,28.27,23.79,40.72,38.18C779.1,300.14,798,320.47,814.08,342.72Zm1.45,166.43c16.26-21.92,30.24-45.4,26.13-73.72-3.41-23.52-9.95-47.05-23.52-67.05-15.71-23.13-33.76-44.52-52.72-65.25-13.76-15.05-24.37-33.26-41-45.43C676.87,223,623.72,205.56,564.55,209.16a51.85,51.85,0,0,0-22.2,7.06c-18.3,10.74-5.66,30.72-12.26,45.2-1.51,3.32-3.84,9.73-3.38,10,12,6.11,7,18.54,10.13,27.63,6,17.36-.21,38.78,12,53.53,20.45,24.62,25.83,51.38,21.59,82.07-1,7.45-6.31,13.66-3.55,22.64,7.35,23.84,14,48,14.74,73.34.15,4.7-2.94,11.53,4.61,15.78C620.39,565.63,657,572,695.63,569.44c11.41-.9,22.61-1.53,33.62-6.2C761,549.81,793.81,538.43,815.53,509.15ZM597.35,196.85c14.07-10.76,13.68-26.69,10.71-42.27-2.07-10.85-9-15.49-20.71-16-11.17-.47-42.44,19.4-40.45,29.33,1.56,7.83-1.6,15.37.79,22.29,1.14,3.32-4.42,10.89,4.52,10.33s17.66-1.89,26.48-2.89c0,.5.11,1,.16,1.51C585.12,198.53,593.09,200.11,597.35,196.85Zm-16.5-68.55c4-1.14,2.59-4.11,1.83-6.05-13.42-34.37-29.33-67.12-63-86.62-34.47-20-71.52-28.84-111.46-24.79-32,3.25-58.69,17.54-82.79,38.17C288,81,256.05,115.29,265.21,170.28c.63,3.79.34,5.68,5.39,3.71,11.47-4.47,23.06-9.8,35.07-11.5,40.35-5.73,81.07-7.24,121.8-6.53,36.42.64,70.55,10,101.49,29.67,4.46,2.84,6.89,2.42,7-3.17.16-8.47-.51-17,.19-25.4,2.34-28.17-7.07-53.31-19.14-77.87-.89-1.82-4.19-3.47-1.41-5.75A15.92,15.92,0,0,1,523,70c2-.3,3.45,1.17,4.43,3.94,8.44,23.77,18.68,47,19,76.44C556.07,135.82,568.38,131.89,580.85,128.3Zm-1.51,545.91c1-6.2-2.67-11.4-8-14.22s-10.53-5.13-17.39-2.6c-4.15,1.54-11.38,6.19-14.42-1.69-2.66-6.9-3.27-14.57-5-21.86-1.95-8.14-2.42-17.91-15.8-15.26-12.55-1.5-24.77,3.57-36.9,6.92-10,2.78-20.37,8.78-14.2,23.87,3.9,9.53,5.42,20,8.21,30,1.3,4.63.51,12,7.94,11.18,28.16-3.15,56.25-6.93,84.35-10.62C572.49,679.39,578.4,679.93,579.34,674.21ZM569.05,529.14c1.46-6.41-.36-8.52-6.48-8.6-23.3-.28-45.79,4.5-68.57,8.55-41,7.28-82.53,11.48-122.95,21.84-31.36,8-62.58,16.65-93.8,25.21-5.08,1.39-7.37,4.45-5.19,10.51,5.94,16.54,10.38,33.69,17.39,49.74,1.77,4.06-1.19,16.29,12.11,12.46,14.31-4.12,29-8.34,44.39-4.57,10.8,2.65,10.77-4.26,8.61-11.26-4.49-14.59,2.1-22,14.94-27.57a147.36,147.36,0,0,1,45.3-11.35c9-.82,20.47-7.74,28.5,2.19,4.88,6,7.59,13.76,11.53,20.57,2.41,4.16,6,6.46,10.91,4,14.78-7.36,31.06-9.25,46.85-12.78,8.44-1.89,20.56.83,25.14-4,10.51-11.2,12.12-28.26,24.88-39.83C571.68,556,569.84,540.92,569.05,529.14Zm-2.32-26.63c.2-2.13-1.92-6.42-2.91-6.39-9.07.21-18.28.35-27.16,2-31.39,5.94-62.51,13.49-94,18.53-41.06,6.57-81.09,17.15-121.31,27.24-18.14,4.55-35.61,12.2-56.06,13.1,3.55,3.32-2.61,11.74,6.66,10.66,6.09-.7,12-3,18-4.63,26.69-7,53.18-15,80.13-20.91,36.94-8.06,74.18-14.68,111.35-21.62,24.84-4.63,49.29-11.61,74.85-12C560.24,508.47,566.15,508.82,566.73,502.51ZM553,484c8.3-1.67,11-3.78,6.68-12.23-3.22-6.27-5-13.46-6.39-20.44a257.13,257.13,0,0,0-25.87-70.79c-.8-1.47-3.29-3.68-3.76-3.41a20.32,20.32,0,0,0-5.33,4.86c-6.85,8.4-12.55,18.06-20.56,25.13-20.16,17.81-41.19,34.66-62.19,51.49-10.78,8.63-24.89,15.1-37.11,12.05-11.21-2.79-16.71-1-22.86,6.66a30.23,30.23,0,0,1-5,4.61c-7.77,6.15-28.83,4.44-28.59-2.38.53-15.31-9.24-24.15-18.44-33.78-15.69-16.41-37.08-26.08-51.6-43.88-1.8-2.21-4.75-3.48-7.17-5.19-.83,2.85-2.11,5.64-2.43,8.54a854.37,854.37,0,0,0-5.32,93.34c.61,6.34,1.16,10.65,1.41,15,1.89,32.83,4.06,35.08,26.86,30,48.14-10.81,95.14-26.14,144.05-34.13C470.86,502.61,511.74,492.28,553,484Zm5.56-57.77c7.75-17.34-8.41-64.8-26.72-76.91C530.56,380.26,557,399,558.54,426.23Zm-29-215.95c2.92-4.52,4.08-8.12-1.8-12.34-26.55-19.07-56.84-27.68-88.52-31.56-33.2-4.06-66.45-.92-101.79,2.34-25.46-1.86-49.75,9.85-74.58,19.24-3.18,1.21-8.37.1-8.75,5.86-.8,12.07-1.27,19.65,16.89,16.67,38.31-6.27,77.33-8.09,116-12.54,44.68-5.14,87.68.91,129.49,17C522,217.05,526.4,215.12,529.52,210.28Zm-65.44,214c41.53-25,67.86-75.7,59.68-122.42-2.46-14.09-9-28.38-26.8-33.14-23.1-6.18-46.71-6.26-70.15-8.32C415,259.33,402,258.89,392,266c-5.34,3.83-8.06,11.2-16,12.66-23.4,4.33-32.15-.61-39.62-22.72a4.27,4.27,0,0,0-3.65-1.95c-22.87,5.83-47,5.46-65.65,25.89-14.18,15.5-18.78,31.49-19.42,52.89.85,5.88.68,14.45,3.41,21.95,10.89,29.9,36.34,46.91,60.2,64.9,15.48,11.67,28.66,25.18,39,41.42,2.16,3.41-.38,10.15,4.93,11.43,6.82,1.64,12.83-1.46,16.81-7.51,6.67-10.13,14.3-13.73,26.46-7.64,7.92,4,17.11,2.69,24.95-3.28C436.82,443.89,449.74,432.87,464.08,424.25Zm57.53-174.17c-.05-7.1,5.72-16.5-4.23-21.23-34.75-16.52-71.56-23.53-113.66-22.55C369.8,204.67,333.06,213,296,217c-10.72,1.16-27.37-4.58-30.13,14.39-1.27,8.69-.95,17.61-1.52,26.42-.32,4.78,1.1,4.92,5.39,3.45,14.05-4.83,28.25-9.24,42.53-13.37,11.2-3.24,25-2.84,33.25-9.52,8.75-7.11,16.7-9,26.38-8.33,2.56.19,5.13,3.54,7.14,5.91.61.72-.62,4.36-1.08,4.37a16.13,16.13,0,0,1-6.93-1.12c-8-3.6-14.28-1.44-18.54,5.81-3.38,5.74-7.83,12.18-1.4,18.41s14.13,4.77,21.87,2.19c11.06-3.68,15.32-19,30.5-16.36,11.67,2,23.82,1.2,35.74,1.86,23.48,1.3,47.82-.56,69.39,10.34C525.55,270.07,521.67,257.24,521.61,250.08ZM357.23,710c11.75-.31,13.46-6.75,8.93-14.43-3.16-5.35-2.52-9.67-2.4-14.86.2-8.59,1.79-22-5.64-23.78-16.15-3.8-33.51-6.37-50.19,1.81-7.21,3.53-6.91,7.18-4,12.76,2.61,5,5.24,9.93,7.8,14.92,1.23,2.4,5.14,4.2,2.8,7.43-2.2,3-5.42,4.56-9.62,4.77a96.24,96.24,0,0,0-18.33,2.72c-9.07,2.25-11.72,9.36-9.62,17.37,1.72,6.61,8.09,7.5,14.38,7.5C313.67,722.31,334.23,710.63,357.23,710ZM249.43,602.59c-2.17-10.34.48-15.14,11.87-14.57-3.9-21.92-7.83-43.13-11.41-64.4-1.8-10.69.74-24.59-5.14-31.66-19.31-23.19-26.33-61.16-12.37-87.83,3.21-6.13,5.8-13.13,10.57-17.78,7.63-7.45,3.51-9.85-3.16-13.37-12.36-6.51-18.61-19.47-28.92-29.82-1,6.12-1.89,10.85-2.63,15.6-5.33,34.34-19.42,63.18-51,80.92-4.63,2.6-3.55,4.66-.71,8.07,12.41,14.85,24.34,30.66,28.72,49.53,7.9,34.07.77,68.36-2.21,102.5-2.44,27.92-5.27,55.81-7.74,83.73-.18,2,.68,5.49,1.84,5.87,2.62.85,4.76-1,6.44-3.58,7.09-11.09,9.18-23.7,10.77-36.27,4.17-32.95,8.58-65.94,5.75-99.3-.32-3.82,1-5.92,4.34-7.18,3.83-1.44,7.55-2.66,10.52,1.63,15,21.75,14.75,47.1,15.56,71.72.8,24.07,4.17,48.3-2.75,77.28C247.93,662.64,256,634.12,249.43,602.59Zm3.74-213.49c-.75.3-1.54.36-1.83.78-14.51,20.2-18.26,42.85-14.06,66.84.72,4.12,5.26,7.58,8,11.35.73-1.26,2-2.48,2.13-3.79C249.43,439.37,251.27,414.45,253.17,389.1ZM205.68,269.89c-.91-13.67,6.43-27.88,2.89-42.34-.94-3.85-3.14-7.47-5.3-10.86-.32-.51-4,.35-5.44,1.44-10.18,7.69-19.27,16.45-23.42,28.93-2.49,7.46-9,7.24-14.13,6.83-30.74-2.46-59.73,2.94-87,17.39-3.48,1.85-8.71,3.2-10-.31-5.61-14.82-20-17.82-31.47-24.53-5-2.95-11.08-8.24-17.66-3.94C9,245.86,10,252.92,11.82,256.69c3.78,8,6.83,16.53,13.35,23.42,6.67,7.05,15.22,13.41,17.74,23.32,6.35,25.07,8.75,50.75,10.06,79.39,1.65,4.69,3.92,12,6.79,19.12,9.48,23.41,24.11,32.74,47.76,29.34,9.73-1.4,19.07-5.1,25.9,5.77.46.73,4.38,0,6.21-.94,24.23-12.64,45.19-30.46,51.59-56.95C199.81,343.57,208.19,307.54,205.68,269.89ZM125.54,450.2c1.35-7.59-5.89-10-11.23-10.23-8.13-.32-14.49,7-16.8,12.59-2.4,5.8,4.19,10.7,11.82,9C118.79,463.47,124.09,458.27,125.54,450.2Z"/><path class="cls-2" d="M841.66,435.43c4.11,28.32-9.87,51.8-26.13,73.72-21.72,29.28-54.55,40.66-86.28,54.09-11,4.67-22.21,5.3-33.62,6.2C657,572,620.39,565.63,586.28,546.38c-7.55-4.25-4.46-11.08-4.61-15.78-.76-25.38-7.39-49.5-14.74-73.34-2.76-9,2.52-15.19,3.55-22.64,4.24-30.69-1.14-57.45-21.59-82.07-12.26-14.75-6-36.17-12-53.53-3.17-9.09,1.91-21.52-10.13-27.63-.46-.24,1.87-6.65,3.38-10,6.6-14.48-6-34.46,12.26-45.2a51.85,51.85,0,0,1,22.2-7.06c59.17-3.6,112.32,13.87,159.83,48.54,16.67,12.17,27.28,30.38,41,45.43,19,20.73,37,42.12,52.72,65.25C831.71,388.38,838.25,411.91,841.66,435.43Z"/><path class="cls-3" d="M608.06,154.58c3,15.58,3.36,31.51-10.71,42.27-4.26,3.26-12.23,1.68-18.5,2.32-.05-.51-.11-1-.16-1.51-8.82,1-17.63,2.34-26.48,2.89s-3.38-7-4.52-10.33c-2.39-6.92.77-14.46-.79-22.29-2-9.93,29.28-29.8,40.45-29.33C599.06,139.09,606,143.73,608.06,154.58Z"/><path class="cls-4" d="M582.68,122.25c.76,1.94,2.13,4.91-1.83,6.05-12.47,3.59-24.78,7.52-34.36,22.11-.36-29.44-10.6-52.67-19-76.44-1-2.77-2.42-4.24-4.43-3.94a15.92,15.92,0,0,0-7.42,3.41c-2.78,2.28.52,3.93,1.41,5.75,12.07,24.56,21.48,49.7,19.14,77.87-.7,8.41,0,16.93-.19,25.4-.11,5.59-2.54,6-7,3.17C498,165.94,463.89,156.6,427.47,156c-40.73-.71-81.45.8-121.8,6.53-12,1.7-23.6,7-35.07,11.5-5.05,2-4.76.08-5.39-3.71C256.05,115.29,288,81,325.4,49c24.1-20.63,50.76-34.92,82.79-38.17,39.94-4,77,4.83,111.46,24.79C553.35,55.13,569.26,87.88,582.68,122.25Z"/><path class="cls-1" d="M571.39,660c5.28,2.82,9,8,8,14.22-.94,5.72-6.85,5.18-11.18,5.75-28.1,3.69-56.19,7.47-84.35,10.62-7.43.83-6.64-6.55-7.94-11.18-2.79-10-4.31-20.5-8.21-30-6.17-15.09,4.16-21.09,14.2-23.87,12.13-3.35,24.35-8.42,36.9-6.92,13.38-2.65,13.85,7.12,15.8,15.26,1.75,7.29,2.36,15,5,21.86,3,7.88,10.27,3.23,14.42,1.69C560.86,654.86,566.18,657.2,571.39,660Z"/><path class="cls-4" d="M562.57,520.54c6.12.08,7.94,2.19,6.48,8.6.79,11.78,2.63,26.87-6.44,35.09-12.76,11.57-14.37,28.63-24.88,39.83-4.58,4.87-16.7,2.15-25.14,4-15.79,3.53-32.07,5.42-46.85,12.78-4.9,2.44-8.5.14-10.91-4-3.94-6.81-6.65-14.55-11.53-20.57-8-9.93-19.48-3-28.5-2.19a147.36,147.36,0,0,0-45.3,11.35c-12.84,5.56-19.43,13-14.94,27.57,2.16,7,2.19,13.91-8.61,11.26-15.39-3.77-30.08.45-44.39,4.57-13.3,3.83-10.34-8.4-12.11-12.46-7-16-11.45-33.2-17.39-49.74-2.18-6.06.11-9.12,5.19-10.51,31.22-8.56,62.44-17.17,93.8-25.21,40.42-10.36,82-14.56,123-21.84C516.78,525,539.27,520.26,562.57,520.54Z"/><path class="cls-1" d="M563.82,496.12c1,0,3.11,4.26,2.91,6.39-.58,6.31-6.49,6-10.49,6-25.56.38-50,7.36-74.85,12C444.22,527.46,407,534.08,370,542.14c-27,5.88-53.44,13.86-80.13,20.91-6,1.58-11.91,3.93-18,4.63-9.27,1.08-3.11-7.34-6.66-10.66,20.45-.9,37.92-8.55,56.06-13.1,40.22-10.09,80.25-20.67,121.31-27.24,31.53-5,62.65-12.59,94-18.53C545.54,496.47,554.75,496.33,563.82,496.12Z"/><path class="cls-4" d="M559.66,471.77c4.33,8.45,1.62,10.56-6.68,12.23-41.24,8.28-82.12,18.61-123.59,25.38-48.91,8-95.91,23.32-144,34.13-22.8,5.12-25,2.87-26.86-30-.25-4.32-.8-8.63-1.41-15a854.37,854.37,0,0,1,5.32-93.34c.32-2.9,1.6-5.69,2.43-8.54,2.42,1.71,5.37,3,7.17,5.19,14.52,17.8,35.91,27.47,51.6,43.88,9.2,9.63,19,18.47,18.44,33.78-.24,6.82,20.82,8.53,28.59,2.38a30.23,30.23,0,0,0,5-4.61c6.15-7.64,11.65-9.45,22.86-6.66,12.22,3,26.33-3.42,37.11-12.05,21-16.83,42-33.68,62.19-51.49,8-7.07,13.71-16.73,20.56-25.13a20.32,20.32,0,0,1,5.33-4.86c.47-.27,3,1.94,3.76,3.41a257.13,257.13,0,0,1,25.87,70.79C554.68,458.31,556.44,465.5,559.66,471.77Z"/><path class="cls-4" d="M531.82,349.32c18.31,12.11,34.47,59.57,26.72,76.91C557,399,530.56,380.26,531.82,349.32Z"/><path class="cls-3" d="M527.72,197.94c5.88,4.22,4.72,7.82,1.8,12.34-3.12,4.84-7.54,6.77-13.1,4.64-41.81-16.06-84.81-22.11-129.49-17-38.63,4.45-77.65,6.27-116,12.54-18.16,3-17.69-4.6-16.89-16.67.38-5.76,5.57-4.65,8.75-5.86,24.83-9.39,49.12-21.1,74.58-19.24,35.34-3.26,68.59-6.4,101.79-2.34C470.88,170.26,501.17,178.87,527.72,197.94Z"/><path class="cls-3" d="M523.76,301.83c8.18,46.72-18.15,97.45-59.68,122.42-14.34,8.62-27.26,19.64-40.62,29.83-7.84,6-17,7.24-24.95,3.28-12.16-6.09-19.79-2.49-26.46,7.64-4,6.05-10,9.15-16.81,7.51-5.31-1.28-2.77-8-4.93-11.43-10.32-16.24-23.5-29.75-39-41.42-23.86-18-49.31-35-60.2-64.9-2.73-7.5-2.56-16.07-3.41-21.95.64-21.4,5.24-37.39,19.42-52.89,18.69-20.43,42.78-20.06,65.65-25.89a4.27,4.27,0,0,1,3.65,1.95c7.47,22.11,16.22,27,39.62,22.72,7.92-1.46,10.64-8.83,16-12.66,9.95-7.15,22.92-6.71,34.77-5.67,23.44,2.06,47.05,2.14,70.15,8.32C514.77,273.45,521.3,287.74,523.76,301.83Z"/><path class="cls-5" d="M517.38,228.85c10,4.73,4.18,14.13,4.23,21.23s3.94,20-13.07,11.39c-21.57-10.9-45.91-9-69.39-10.34-11.92-.66-24.07.15-35.74-1.86-15.18-2.61-19.44,12.68-30.5,16.36-7.74,2.58-15.46,4-21.87-2.19s-2-12.67,1.4-18.41c4.26-7.25,10.52-9.41,18.54-5.81a16.13,16.13,0,0,0,6.93,1.12c.46,0,1.69-3.65,1.08-4.37-2-2.37-4.58-5.72-7.14-5.91-9.68-.69-17.63,1.22-26.38,8.33-8.22,6.68-22.05,6.28-33.25,9.52-14.28,4.13-28.48,8.54-42.53,13.37-4.29,1.47-5.71,1.33-5.39-3.45.57-8.81.25-17.73,1.52-26.42,2.76-19,19.41-13.23,30.13-14.39,37.11-4,73.85-12.35,107.77-10.72C445.82,205.32,482.63,212.33,517.38,228.85Zm-82.49,12.22c5.83-.64,12.28-2.24,10.87-11.25.39-6.83-2.85-11.87-10.21-11-7.54.89-8.92,7.94-8.93,14.12C426.61,237.55,430.07,241.59,434.89,241.07Zm-112-11.9c.24-3.51-3.54-6.88-7.69-6.68-5.91.29-10.37,3.28-10.13,9.92.16,4.26,1.31,8.52,6.45,7.79C319.67,240.17,322.45,234.9,322.85,229.17Z"/><path class="cls-1" d="M445.76,229.82c1.41,9-5,10.61-10.87,11.25-4.82.52-8.28-3.52-8.27-8.13,0-6.18,1.39-13.23,8.93-14.12C442.91,218,446.15,223,445.76,229.82Z"/><path class="cls-1" d="M366.16,695.61c4.53,7.68,2.82,14.12-8.93,14.43-23,.59-43.56,12.27-65.88,16.21-6.29,0-12.66-.89-14.38-7.5-2.1-8,.55-15.12,9.62-17.37a96.24,96.24,0,0,1,18.33-2.72c4.2-.21,7.42-1.75,9.62-4.77,2.34-3.23-1.57-5-2.8-7.43-2.56-5-5.19-10-7.8-14.92-2.92-5.58-3.22-9.23,4-12.76,16.68-8.18,34-5.61,50.19-1.81,7.43,1.75,5.84,15.19,5.64,23.78C363.64,685.94,363,690.26,366.16,695.61Z"/><path class="cls-1" d="M315.16,222.49c4.15-.2,7.93,3.17,7.69,6.68-.4,5.73-3.18,11-11.37,11-5.14.73-6.29-3.53-6.45-7.79C304.79,225.77,309.25,222.78,315.16,222.49Z"/><path class="cls-6" d="M261.3,588c-11.39-.57-14,4.23-11.87,14.57,6.59,31.53-1.5,60-21.67,91.09,6.92-29,3.55-53.21,2.75-77.28-.81-24.62-.53-50-15.56-71.72-3-4.29-6.69-3.07-10.52-1.63-3.36,1.26-4.66,3.36-4.34,7.18,2.83,33.36-1.58,66.35-5.75,99.3-1.59,12.57-3.68,25.18-10.77,36.27-1.68,2.62-3.82,4.43-6.44,3.58-1.16-.38-2-3.89-1.84-5.87,2.47-27.92,5.3-55.81,7.74-83.73,3-34.14,10.11-68.43,2.21-102.5-4.38-18.87-16.31-34.68-28.72-49.53-2.84-3.41-3.92-5.47.71-8.07,31.59-17.74,45.68-46.58,51-80.92.74-4.75,1.6-9.48,2.63-15.6,10.31,10.35,16.56,23.31,28.92,29.82,6.67,3.52,10.79,5.92,3.16,13.37-4.77,4.65-7.36,11.65-10.57,17.78-14,26.67-6.94,64.64,12.37,87.83,5.88,7.07,3.34,21,5.14,31.66C253.47,544.89,257.4,566.1,261.3,588Z"/><path class="cls-4" d="M251.34,389.88c.29-.42,1.08-.48,1.83-.78-1.9,25.35-3.74,50.27-5.72,75.18-.1,1.31-1.4,2.53-2.13,3.79-2.78-3.77-7.32-7.23-8-11.35C233.08,432.73,236.83,410.08,251.34,389.88Z"/><path class="cls-6" d="M208.57,227.55c3.54,14.46-3.8,28.67-2.89,42.34,2.51,37.65-5.87,73.68-14.46,109.27-6.4,26.49-27.36,44.31-51.59,56.95-1.83,1-5.75,1.67-6.21.94-6.83-10.87-16.17-7.17-25.9-5.77-23.65,3.4-38.28-5.93-47.76-29.34-2.87-7.09-5.14-14.43-6.79-19.12-1.31-28.64-3.71-54.32-10.06-79.39-2.52-9.91-11.07-16.27-17.74-23.32-6.52-6.89-9.57-15.4-13.35-23.42C10,252.92,9,245.86,14.09,242.5c6.58-4.3,12.63,1,17.66,3.94,11.43,6.71,25.86,9.71,31.47,24.53,1.34,3.51,6.57,2.16,10,.31,27.28-14.45,56.27-19.85,87-17.39,5.14.41,11.64.63,14.13-6.83,4.15-12.48,13.24-21.24,23.42-28.93,1.46-1.09,5.12-1.95,5.44-1.44C205.43,220.08,207.63,223.7,208.57,227.55ZM175.12,338.16c-1.31-5.08.14-12.77-8-12.89-8.45-.12-12.39,7.77-13.8,14.07-.9,4,3.35,10.92,10.14,10.76C170.47,349.93,174.58,345.76,175.12,338.16Zm-93.75,8c.54-5.7-1.13-11.52-7.1-11.48-6.47.05-10.79,5.55-10.22,12.25.44,5.09,3.56,9.64,9.75,9.53C80.52,356.36,81.68,351.69,81.37,346.17Z"/><path class="cls-1" d="M167.12,325.27c8.14.12,6.69,7.81,8,12.89-.54,7.6-4.65,11.77-11.66,11.94-6.79.16-11-6.73-10.14-10.76C154.73,333,158.67,325.15,167.12,325.27Z"/><path class="cls-4" d="M114.31,440c5.34.2,12.58,2.64,11.23,10.23-1.45,8.07-6.75,13.27-16.21,11.35-7.63,1.71-14.22-3.19-11.82-9C99.82,447,106.18,439.65,114.31,440Z"/><path class="cls-1" d="M74.27,334.69c6,0,7.64,5.78,7.1,11.48.31,5.52-.85,10.19-7.57,10.3-6.19.11-9.31-4.44-9.75-9.53C63.48,340.24,67.8,334.74,74.27,334.69Z"/></g></g></svg>