<svg xmlns="http://www.w3.org/2000/svg" viewBox="0 0 373.93 551.95"><defs><style>.cls-1{fill:#dae2bc;}</style></defs><g id="レイヤー_2" data-name="レイヤー 2"><g id="レイヤー_3" data-name="レイヤー 3"><path class="cls-1" d="M80.44,104c-1.54,7.4-6.28,2-8.84,1.31-13.76-3.85-27.44-3.71-41.33-1.11a229.42,229.42,0,0,0-25.13,5.69c-1.94.59-3.44-.62-4.49-2.19-1.49-2.2-.13-4.11,1.14-5.59,4.55-5.31,7.28-11.36,9.58-18,4.09-11.76,6-23.52,3.69-35.82a14.48,14.48,0,0,0-1.25-4c-3.54-6.81-.27-7.14,5.36-6C35.54,41.51,46.9,32.75,57.5,22.07,63.7,15.82,70.22,9.94,73.73,1.56c.81-1.93,3-1.87,4.66-.9,14.81,8.49,30.52,8.77,46.6,5,4.41-1,9.31-.45,13.14-3.86.77-.68,2.55-.52,3.7.69,1.31,1.39.81,2.87.16,4.11-3.72,7.14-9.44,13.43-10.85,21.54-1.78,10.29-4.09,20.7-1.62,31.22,1,4.18,1.27,6.47-4.53,6C110.7,64.16,99.8,70.54,90.35,81,84.3,87.77,82.81,95.79,80.44,104Zm-70.9-1.59c7.05-.07,12.06-1.3,16.93-2,13.58-1.82,27-3.46,40.65-.81,2.71.52,7.21,4.7,9.32-1,2.37-6.42,4.09-13,8.86-18.32,8.87-9.82,18.13-18.79,32.64-19,2.08,0,5.67.41,6.06-2.09.79-5.08.12-10.37.66-15.51,1.14-10.8,1.41-21.86,7.86-31.37a12.81,12.81,0,0,0,1.09-2.87,13.16,13.16,0,0,0-2.92-.22c-1.9.25-3.78.72-5.67,1.1-15.34,3.06-30.56,4.17-45.3-2.78-.85-.4-2.49-.62-2.94-.15-2.61,2.76-5,5.77-7.42,8.65A138.74,138.74,0,0,1,45.62,38c-7,5.09-15.21,5.32-23.43,5.58-1.17,0-4.29-1.57-3.6,2.48,1.64,9.54,2.72,19.15-.09,28.68-2.12,7.17-4.38,14.29-6.7,21.83,2-1.14,3.82-2.31,5.74-3.15,6-2.63,12.05-5.34,16.51-10.17,5.3-5.73,8.71-12.45,7.11-20.77-.12-.64,1-1.75,1.79-2.25a2.16,2.16,0,0,1,2.12.3,4.77,4.77,0,0,1,1.23,3c-.45,4.07-1.19,8.1-1.83,12.15,5.25-5.91,15.27-6.66,16.19-17.1.38-4.36,2.88-8.69,2.22-13.5-.08-.55,1.07-1.64,1.83-1.84,1.15-.31,2,.12,2.55,1.65,1.54,4.51-.71,8.87-.33,13.86a75.57,75.57,0,0,0,5.82-4.91c6.07-6.23,16.77-10.2,11.19-22.33a1.93,1.93,0,0,1,.86-1.7,2.84,2.84,0,0,1,2.22.33C90,32.32,88.15,36,89.78,38.93c4.14-3.35,8.27-6.56,12.23-10,1.14-1,2.07-.79,3.24-.49a2.19,2.19,0,0,1,1.78,2.3,2.71,2.71,0,0,1-1.49,2.5c-3.51,2.29-7.88,3.52-10.06,7.88,4.15-2.65,8.46-1.48,12.65-.91,1.45.2,3.93-.87,4.24,1.87.21,1.8,1,4-2.5,3.88-4.57-.12-9-2.2-13.81.09-3.58,1.71-8.13,1.42-11.63,3.22C81.31,50.91,79,54.16,76,57c.89-.08,1.49-.1,2.08-.19,3.63-.54,7.19-1.92,11-.79,1.15.34,2,.76,2,2.06s-.69,1.86-2,2c-5.54.63-11.26.63-16.55,2.13-8.93,2.53-14.32,10.41-21.76,16,3.68.66,7,1.27,10.42,1.86.66.12,1.79,0,1.91.29a4.83,4.83,0,0,1,.42,3.11A2.54,2.54,0,0,1,61,85.18c-5.72,0-11.37-3.53-17.13-.38-4.74,2.6-9.41,5.33-14.22,7.79C23.61,95.68,17.48,98.54,9.54,102.41Z"/><path class="cls-1" d="M117.77,326.24c6.07,2.69.58,5.76-.51,7.82-5.84,11.09-8.24,22.85-8.58,35.24a202.87,202.87,0,0,0,.23,22.6c.15,1.77-1.16,2.83-2.7,3.44-2.16.87-3.55-.65-4.58-2C97.92,388.45,93.23,385,88,381.8c-9.32-5.68-19.06-9.48-30-9.77a12.4,12.4,0,0,0-3.65.32c-6.49,1.78-6.17-1.08-4.19-5.71,5.78-13.44.36-24.8-6.84-35.86-4.21-6.46-8.05-13.15-14.59-17.71-1.5-1-1.05-2.88.09-4.15,10-11.14,13.16-24.55,12.89-39-.08-4,1.33-8.07-.89-12-.44-.78,0-2.29,1.28-3,1.43-.87,2.61-.17,3.55.61,5.44,4.51,9.77,10.58,16.47,13.29,8.49,3.42,17,7.33,26.47,7.15,3.76-.07,5.78.11,4.3,5-3.65,12-.19,22.56,7.07,32.6C104.56,319.93,111.17,322.69,117.77,326.24Zm-14.46,60.5c1.25-6.06,1.12-10.58,1.46-14.88,1-12,2-23.75,6.81-35,1-2.22,5.36-5.31.84-8.18-5.07-3.21-10.42-5.91-14.07-11-6.79-9.42-12.77-19-10.3-31.51.36-1.79,1.4-4.78-.67-5.58-4.21-1.62-8.88-2-13.18-3.43-9-3-18.49-5.25-25.45-12.53a11.41,11.41,0,0,0-2.26-1.47,11.8,11.8,0,0,0-.73,2.47c-.13,1.68-.08,3.37-.1,5.06-.21,13.72-2.07,27-10.75,38.33-.5.66-1,2-.67,2.49,1.88,2.75,4,5.31,6,8a121.68,121.68,0,0,1,14.48,24.41c3.07,6.95,1.76,14,.47,21.13-.19,1-2.15,3.39,1.46,3.54,8.48.36,16.92,1.2,24.57,5.38,5.76,3.14,11.45,6.39,17.48,9.77-.6-2-1.27-3.7-1.64-5.5-1.15-5.62-2.36-11.32-5.67-16-3.94-5.6-9.07-9.77-16.5-9.93-.57,0-1.31-1.18-1.6-1.95a1.93,1.93,0,0,1,.65-1.77,4.28,4.28,0,0,1,2.82-.49c3.4,1.14,6.73,2.52,10.08,3.82-4.1-5.6-2.89-14.33-11.67-17.05-3.67-1.13-6.92-4.07-11.17-4.39-.48,0-1.21-1.23-1.24-1.91-.05-1,.47-1.72,1.88-1.89,4.16-.49,7.48,2.25,11.83,2.85-1.17-2.22-2-4.17-3.14-5.9-4.22-6.35-5.65-16.26-17.08-13.72-.36.08-1.25-.63-1.29-1.05A2.43,2.43,0,0,1,55.7,307c2.36-2.12,5.18.1,8-.75-2.11-4.17-4.1-8.31-6.29-12.34a2.67,2.67,0,0,1,.17-2.86,1.92,1.92,0,0,1,2.31-1.1,2.34,2.34,0,0,1,1.86,1.74c1.32,3.43,1.57,7.4,4.9,10.08-1.5-4.05.3-7.53,1.56-11,.44-1.2,0-3.53,2.39-3.29,1.58.16,3.59-.14,2.86,2.86-.94,3.9-3.55,7.32-2.47,11.86.81,3.38-.28,7.23.62,10.56.8,3,3.16,5.54,5.07,8.66.09-.78.19-1.3.22-1.82.21-3.22-.32-6.52,1.34-9.56.51-.92,1-1.52,2.13-1.29s1.47.94,1.36,2.05c-.48,4.86-1.54,9.77-1.23,14.58.52,8.12,6.28,14.2,9.66,21.61,1.25-3,2.39-5.82,3.52-8.6.23-.54.33-1.54.6-1.58A4.22,4.22,0,0,1,97,337a2.21,2.21,0,0,1,1,2.47c-1,4.91-5.13,9.1-3.49,14.62,1.36,4.54,2.84,9.05,4.06,13.63C100.14,373.44,101.47,379.22,103.31,386.74Z"/><path class="cls-1" d="M328.13,230.26c1.71,4.93-3.11,3.53-4.93,4.06-9.78,2.85-18.08,8-25.63,14.72a169.91,169.91,0,0,0-13.32,12.69c-1,1.07-2.31.92-3.52.39-1.69-.75-1.55-2.38-1.3-3.72a36.45,36.45,0,0,0-.58-14.11c-1.71-8.44-4.76-16-10.57-22.42a9.57,9.57,0,0,0-2.19-1.88c-4.6-2.69-2.72-4.1,1.11-5.54,11.15-4.21,14.95-13.58,17.6-23.8,1.55-6,3.43-11.86,2.57-18.09-.2-1.44,1.14-2.2,2.52-2.26,12.09-.52,21.78-6.2,30.25-14.4,2.32-2.26,5.52-3.73,6.64-7.16a2.2,2.2,0,0,1,4.07,1.38c.29,5.58-1,11.41,1.09,16.7,2.59,6.71,4.91,13.68,10.18,19,2.1,2.09,3.1,3.33-.62,5.2C332.35,195.6,328,203.4,326,213.08,324.68,219.29,326.64,224.55,328.13,230.26ZM284.27,255.7c4.28-2.66,6.9-5.25,9.64-7.45,7.64-6.11,15.22-12.06,24.53-15.59,1.84-.7,6.09.08,5.33-4.07-.86-4.65-2.17-9.18-1.15-14.06,1.9-9.07,4.34-17.79,13.12-23.33,1.26-.8,3.6-1.87,2.95-3.48-1.34-3.28-3.64-6.14-5.15-9.37-3.17-6.76-7-13.37-6.43-21.35a8.64,8.64,0,0,0-.36-2.1,10.86,10.86,0,0,0-1.86,1c-1.07.86-2.05,1.83-3.07,2.75-8.27,7.51-17.17,13.83-28.66,15.22-.67.09-1.74.56-1.85,1-.61,2.59-.95,5.23-1.44,7.85a97.9,97.9,0,0,1-6.61,21.76c-2.46,5.59-7.38,8.78-12.31,12-.71.46-3.19.68-1.31,2.8,4.41,5,8.51,10.24,10.2,16.89,1.28,5,2.45,10,3.73,15.31.84-1.43,1.51-2.77,2.37-4,2.72-3.77,5.45-7.62,6.45-12.12,1.18-5.34.86-10.55-3.09-14.85-.31-.33,0-1.4.28-2a1.62,1.62,0,0,1,1.41-.61,3.21,3.21,0,0,1,1.83,1.32c1.18,2.56,2.17,5.21,3.23,7.82,1.09-5.43,6.94-9.6,3.77-16.07-1.33-2.71-1.35-6.18-3.48-8.76-.24-.29.07-1.37.45-1.76a1.42,1.42,0,0,1,2.16,0c2.55,2.07,2.74,5.48,4.76,8.27.68-1.9,1.39-3.44,1.79-5,1.47-5.92,6.59-12.24-1.16-17.29a1.32,1.32,0,0,1-.08-1.31,2.05,2.05,0,0,1,1.47-.64c2.55.16,2.77,3,4.82,4.11,1.32-3.51,2.7-6.93,3.9-10.41a2.24,2.24,0,0,1,1.8-1.49,1.51,1.51,0,0,1,1.91.69,1.83,1.83,0,0,1,0,2c-1.32,2.65-3.55,5-3.32,8.37,1.59-3.1,4.64-4,7.4-5.23,1-.43,2.09-2,3.26-.48.77,1,2,1.95-.14,3.21-2.83,1.63-6.29,2.05-8.4,5.19-1.57,2.33-4.45,3.85-5.95,6.21-1.33,2.11-1.56,4.87-2.38,7.68.52-.38.88-.62,1.21-.89,2-1.67,3.7-3.8,6.41-4.54.83-.23,1.46-.28,1.93.48s.25,1.35-.47,1.91c-3.16,2.43-6.65,4.55-9.35,7.4-4.54,4.81-5,11.44-7.58,17.48,2.49-1,4.77-1.88,7-2.79.44-.18,1.09-.67,1.26-.54.58.44,1.28,1,1.38,1.68a1.81,1.81,0,0,1-.92,1.94c-3.48,2.16-8.21,2.15-10.6,6.15-2,3.29-3.84,6.63-5.9,9.87C290.45,246.51,287.73,250.48,284.27,255.7Z"/><path class="cls-1" d="M339.36,526c.56,7.18-5.21,3.53-7.74,3.55-13.62.14-26.1,3.93-38.12,10A221.42,221.42,0,0,0,272,551.43c-1.61,1.06-3.3.36-4.69-.8-1.95-1.62-1.21-3.73-.44-5.43,2.74-6.06,3.63-12.33,4-19,.61-11.85-.79-23.12-6.18-33.76a13.5,13.5,0,0,0-2.2-3.32c-5.06-5.29-2.15-6.46,3.3-6.95,15.84-1.43,23.9-12.48,30.75-25.09,4-7.36,8.4-14.48,9.38-23.09.23-2,2.22-2.5,4-2.07,15.83,3.82,30.28-.11,44-7.86,3.76-2.13,8.4-2.89,11-7,.52-.84,2.2-1.16,3.57-.36,1.57.92,1.51,2.41,1.25,3.72-1.5,7.53-5.07,14.81-4.19,22.6,1.11,9.9,1.78,20,6.84,29,2,3.56,2.89,5.59-2.55,6.69-13.39,2.73-21.66,11.48-27.51,23.61C338.56,510.08,339.34,517.82,339.36,526Zm-65.31,17.44c6.43-1.94,10.69-4.4,15-6.3,11.94-5.28,23.75-10.35,37-11.58,2.62-.24,7.86,2.38,8.26-3.42.45-6.51.26-13,3.22-19.13,5.5-11.36,11.57-22,24.79-26.13,1.9-.59,5.3-1.14,5-3.53-.63-4.86-2.65-9.53-3.53-14.38-1.84-10.18-4.54-20.38-1.17-30.8a12.72,12.72,0,0,0,.23-2.92,12.73,12.73,0,0,0-2.73.58c-1.68.74-3.27,1.67-4.89,2.52-13.23,6.89-26.86,12-42.21,9.53-.89-.14-2.44.1-2.73.65-1.65,3.22-3,6.6-4.49,9.9a132.41,132.41,0,0,1-15.85,26.47c-5.06,6.53-12.5,8.93-19.95,11.36-1.07.35-4.35-.29-2.63,3.23,4,8.29,7.59,16.8,7.55,26.27,0,7.13-.19,14.25-.3,21.77,1.57-1.59,2.88-3.14,4.41-4.42,4.78-4,9.6-8.1,12.4-13.71,3.32-6.66,4.65-13.71,1-20.9-.28-.56.45-1.87,1-2.54a2.06,2.06,0,0,1,2-.29,4.58,4.58,0,0,1,1.93,2.43c.67,3.85,1.06,7.74,1.56,11.62,3.23-6.82,12.2-10.17,10.26-20-.81-4.1.32-8.72-1.57-13-.22-.48.54-1.79,1.18-2.18,1-.58,1.89-.43,2.78.83,2.61,3.72,1.71,8.32,3.4,12.78,1.51-2.26,2.95-4.05,4-6.05,3.89-7.32,12.63-13.81,4.29-23.42a1.83,1.83,0,0,1,.33-1.78,2.67,2.67,0,0,1,2.12-.29c3.24,1.16,2.58,5,4.85,7.26,2.9-4.17,5.82-8.21,8.54-12.39a2.91,2.91,0,0,1,2.83-1.31,2.09,2.09,0,0,1,2.25,1.63,2.58,2.58,0,0,1-.7,2.68c-2.6,3-6.27,5.33-7.11,9.9,3.1-3.53,7.35-3.61,11.34-4.2,1.38-.21,3.36-1.85,4.38.58.67,1.59,2,3.36-1.25,4.21-4.22,1.11-8.84.39-12.62,3.77-2.82,2.52-7.06,3.47-9.78,6-2.43,2.3-3.66,5.89-5.65,9.32.79-.31,1.34-.49,1.85-.73,3.18-1.46,6.07-3.67,9.83-3.65,1.14,0,2,.18,2.34,1.36s-.14,1.89-1.26,2.36c-4.89,2.05-10.13,3.58-14.58,6.36-7.49,4.7-10.33,13.34-15.66,20.41,3.55-.38,6.8-.72,10-1.08.63-.07,1.64-.48,1.82-.24a4.55,4.55,0,0,1,1.22,2.74,2.43,2.43,0,0,1-1.85,2.24c-5.22,1.57-11.35-.2-15.78,4.22-3.64,3.64-7.19,7.39-10.94,10.93C285.13,533.5,280.28,537.76,274.05,543.41Z"/><path class="cls-1" d="M273.94,389.05a27.25,27.25,0,0,1-12.67-17.69c-1.87-8.2-5.17-16.5-3-25.14,1.1-4.4,5.68-3.82,9.11-4.71,4-1,6.5,1.76,9,3.85,6.33,5.37,9.55,12.57,11.14,20.64,1.71,8.62,3.34,17.23,1.78,26.05-.77,4.34-3.27,1.92-5.23,1.14C280.64,391.86,277.3,390.43,273.94,389.05Zm12.12.21c.18-5.49.26-10.28-.67-15.16-1.91-10-3.89-19.84-12.74-26.49-3.08-2.32-6.23-2.27-9.54-.79-2.53,1.14-1.85,3.54-1.71,5.43.27,3.67,1,7.31,1.48,11,1.33,10.42,5.45,19,15.27,24.07a7.11,7.11,0,0,0,1.13.37,6.7,6.7,0,0,0-.28-1.36c-2-4.45-4.1-8.86-6-13.34-1.53-3.51-2.64-7.23-4.45-10.59-.61-1.14-1.27-2.06-1-3.28a1.79,1.79,0,0,1,2-1.5,3.33,3.33,0,0,1,2.93,2.3c1.83,5.18,3.27,10.52,5.39,15.57C279.84,380.18,281.68,385.1,286.06,389.26Z"/><path class="cls-1" d="M102.51,170.16a27.23,27.23,0,0,1,10-19.3c6.47-5.38,12.38-12.08,21-14.07,4.42-1,6,3.33,8.32,6,2.72,3.1,1.38,6.6.63,9.74-1.93,8.08-6.89,14.21-13.37,19.28-6.91,5.42-13.85,10.77-22.42,13.37-4.22,1.28-3.19-2-3.39-4.15C103,177.41,102.79,173.78,102.51,170.16Zm5.29,10.91c5-2.33,9.29-4.42,13.22-7.46,8.06-6.23,15.93-12.45,17.86-23.35.67-3.79-.79-6.58-3.61-8.86-2.16-1.75-4-.05-5.61.92-3.16,1.91-6.07,4.22-9.13,6.29-8.69,5.9-14.52,13.48-14.56,24.51a7,7,0,0,0,.18,1.18,6.71,6.71,0,0,0,1.09-.87c3.06-3.8,6.05-7.66,9.16-11.42,2.44-2.95,5.26-5.63,7.43-8.76.74-1.06,1.27-2.07,2.48-2.37a1.79,1.79,0,0,1,2.25,1.12,3.34,3.34,0,0,1-.72,3.65c-3.8,4-7.91,7.67-11.45,11.85C113.09,171.4,109.53,175.27,107.8,181.07Z"/><path class="cls-1" d="M130.78,481.75c-7,3.77-14.64,2.58-21.87-2.42-8.13-5.63-17.07-9.73-23.56-20.26-3.31-5.37-.5-10,.44-14.64,1.1-5.44,4.8-5.64,7.87-6.43,7.89-2.05,15.82,1.12,23.7,6.92,8.41,6.2,16.78,12.45,23.73,22.5,3.43,4.94,0,5.47-1.62,6.94C136.61,476.89,133.68,479.29,130.78,481.75Zm6.27-13.38c-4.73-5.36-8.89-10-13.63-13.5-9.73-7.27-19.36-14.3-29.63-10.64-3.57,1.27-5.11,4.85-5.47,9.95-.27,3.91,2.17,5.41,3.89,7,3.36,3.16,6.93,5.75,10.38,8.67,9.8,8.31,19.44,11.81,28.77,5.53a6,6,0,0,0,.89-.92,6.86,6.86,0,0,0-1.34-1c-4.91-1.94-9.82-3.74-14.72-5.77-3.85-1.59-7.67-3.85-11.52-5-1.31-.38-2.45-.51-3.37-2a3.56,3.56,0,0,1-.31-3.66,2.41,2.41,0,0,1,3.49-1.13c5.46,2.83,10.86,6.23,16.35,8.6C126,466.81,131.2,469.38,137.05,468.37Z"/></g></g></svg>
