<svg xmlns="http://www.w3.org/2000/svg" viewBox="0 0 620.53 129.08"><g id="レイヤー_2" data-name="レイヤー 2"><g id="レイヤー_3" data-name="レイヤー 3" style="fill: #f0485b"><path d="M53.42,65.08c-3,6.21,4.2,13.21.71,20.46-.55,1.16-1.33,3.1-2.05,3.13-4.06.13-4.64-3-4.84-6.09C46.17,65.74,45.16,48.89,44.12,32c-5.24.56-5.12,5.66-7.45,8.6C29.13,50.06,24.81,44,20.74,37.31c-4.53-7.51-8.88-15.12-14.19-24.2C6.36,39,7,63,9.93,86.89a34.86,34.86,0,0,1-.47,11.62c-.36,1.62-3.23,2.71-4.53-.41-.52-1.26-1.4-2.51-1.48-3.81C2.6,80.62,1.67,67,1.16,53.26.57,37.52.39,21.77,0,6,0,3.82-.09,1.22,2.47.7c6.15-1.23,6.71,4.8,9,8C17.72,17.4,23.35,26.57,29.53,36,37,25.54,40.3,14.23,44.74,3.5c.79-1.9,1.88-1.59,2.89-1.15a6.27,6.27,0,0,1,2.84,2.39,8.45,8.45,0,0,1,1.13,4c0,13.88-.09,27.76,0,41.63,0,4.33.51,8.65.81,13C52.4,63.66,52.68,63.91,53.42,65.08Z"/><path d="M476.92,45.94c4.39-6.35,8.87-5.32,14.53-2.32,1.48.78,5.41-4.48,8.63-5.3,9.46-2.4,13.84,5.22,13.28,19.75-.24,6,1.67,12.3,3.66,18.1,1,3-.81,4.41-1.31,6.52-.13.58-1.91,1.24-2.82,1.09-2.39-.37-3.57-2.21-3.9-4.48-1.36-9.26-2.58-18.53-4.06-27.76-.32-2-.12-5.72-3.25-4.85s-6.86,3.58-6.1,7.06c1.72,7.92-.41,16.32,3.55,24,1.05,2-1.12,5.52-3.64,5.56-6.83.11-5.21-5.79-5.85-9.76-1-6.5-1.6-13.08-2.65-19.59-.22-1.36-1.7-2.52-2.6-3.77-1.16,1.13-2.41,2.17-3.47,3.39-7,8-4.87,17.43-3.74,26.6.4,3.26,0,6.4-3.38,6.89s-4.47-2.68-4.47-5.61c0-13.48-.09-27,.41-40.42.14-3.54,3.69-4.88,4.81-2.64S476,43,476.92,45.94Z"/><path d="M197,76.61c2.35-13.33,4.4-24.7,6.33-36.09.45-2.66,1.62-4.35,4.46-4s3.27,2.09,2.73,4.74c-4.78,23.41-9.27,46.87-14.23,70.23-1.86,8.76-7.29,14.89-16.32,17.15-2.35.59-4.94,1.14-5.86-2.2-.83-3,.63-6,3.27-6.16,13.87-.87,13.42-12,14.56-20.91,2.48-19.38-7.21-36.08-13.34-53.54a10,10,0,0,1,.62-6.89c1.71-3.58,4.37-2.38,6.2.06a17.22,17.22,0,0,1,2.19,5.39C190.6,54.44,193.5,64.53,197,76.61Z"/><path d="M254.17,57.93c-3.69-17.68,1.18-34.8,12.89-49.77a16,16,0,0,1,18.4-5.28c2.86,1.05,7.83,2.61,7.07,7.77A6.33,6.33,0,0,1,290,14.74c-.68.42-2.66-.89-3.84-1.73-8.92-6.33-13.76-.17-17.84,6.26-8.2,13-9,26.71-6.38,41.91C264.63,77.07,273,81.37,287.28,80c3.2-.32,8.93-5.53,9.23,2.53.4,10.7-8.92,6.34-13.28,6.28C266,88.58,255,81.27,254.17,57.93Z"/><path d="M326.21,57.89c-.66-1.4,2.48-9.36-2.27-9.26-7.1.14-12.74,5.29-11.62,14.52a118.6,118.6,0,0,1,.53,20.73c-.07,1.4-.18,5.83-3.6,5.18-5.79-1.09-3.67-6.42-3.75-9.79C305,60,304.9,40.7,305,21.41c0-4.75,1-9.52,1.73-14.26.31-2,1.56-3.32,3.9-2.81,4.59,1,2.44,4.79,2.41,7.08-.12,9.57-.85,19.12-1.31,28.69a33.19,33.19,0,0,0,.26,3.85c1.2-.43,2.38-.89,3.58-1.28,4.66-1.5,9.58-5.56,14.12-2.87,6,3.55,3.69,10.74,4.21,16.44.65,7.14-.78,14.53,4.89,20.65,1.07,1.15,0,4.58-.6,6.83-.18.7-2.77,1.56-2.89,1.38-2.24-3.13-5-6.18-6.14-9.73C327.6,70.69,327.4,65.58,326.21,57.89Z"/><path d="M62.65,73.5C63.93,60.08,64.4,46.14,79.72,40c2.42-1,5.74-.67,8.37,0,7.18,1.93,6.49,8.14,5,13-3.19,10.53-9,18.8-22,17.81-.58,0-1.77,1.71-1.85,2.69-.26,3.14,0,6.1,3.82,7.41,6.93,2.34,13.28-.52,19.84-1.72,2-.37,5.15-1.06,5.48,1.75a6.71,6.71,0,0,1-6,7.44c-7.59.73-15.58,1.69-22.85,0C63,86.91,62.23,79.87,62.65,73.5ZM85.6,55.16c1.93-7.19-.15-8.88-2.87-8.5-8.47,1.16-9.66,8.61-11.59,15-.67,2.25,2.37,1.67,3.54,1.63C82.24,63,84.65,57.33,85.6,55.16Z"/><path d="M546.63,77.14c-3.88,5.43-7.37,14.5-15.13,6.5-6.65-6.84-4.37-16.4-1.38-24.87,2.65-7.53,6.57-14.27,14.58-17.17,3.75-1.36,5.95.47,6.34,4.62.71,7.72,1.58,15.43,2.55,23.12.14,1.07,1.21,2,1.69,2.87,2.27,3.66,9.24,7.89.82,11.16C551.87,85,549.35,80.33,546.63,77.14Zm-12.25-6.29,2.68,6.87c7.86-5.9,5.8-15,7.44-23,.18-.87-.63-1.94-1-2.92C537.55,56.34,535.29,62.7,534.38,70.85Z"/><path d="M168.72,41.75c-.68,8.5-6.29,4.31-9.76,5.2-13.47,3.44-9.43,14.25-9,23,.3,6,2.58,11.85,3.46,17.84.29,2-.85,4.34-1.69,6.37-.2.47-2.41.79-2.73.39-2.07-2.5-5.2-5.07-5.52-7.89-1.83-16.06-2.91-32.2-4.36-48.3-.28-3.09-.27-6.12,3.33-6.79,4-.74,3.3,2.74,3.78,5.11,1.92,9.44,6.82,3.07,10.59,1.86s7.22-1.38,10.57.45C168.3,39.5,168.5,41.27,168.72,41.75Z"/><path d="M114.11,45.94c4-6.46,8.44-8.44,14.11-8.07,2.27.15,5-.18,5.75,2.3a8.09,8.09,0,0,1-.74,6.22c-.76,1.08-3.54.83-5.44,1-10.39,1-8.39,9.61-9.62,15.93-1.89,9.69,3.71,19.52-.12,29.24-.49,1.23-1.68,2.18-2.54,3.26-1.25-1.45-3.49-2.81-3.61-4.34-1.41-17.72-2.53-35.46-3.66-53.2-.14-2.26.64-5.3,3-4.78,4.1.91,2.62,5.06,3,8A42.28,42.28,0,0,1,114.11,45.94Z"/><path d="M450.8,75.9c-1.38,1.75,4.68,5,.59,9-1.21,1.18-1.67,3.52-3.81,2.81-2.86-1-2.92-3.81-2.9-6.38.08-11.86.73-23.75,0-35.57-.26-4.43-3.45.23-5.31.27-2.15,0-3.74,3.78-6.4,1.72a4.43,4.43,0,0,1-1.08-4.06c1.22-2.71,2.51-6.34,5.88-6.45,7.09-.24,8-4.29,7.29-9.91-.36-2.94-.88-6.58,3.07-7.08,4.49-.56,3.88,3.62,3.29,5.89-1.28,4.91,1.86,5.51,5.09,6.58a4,4,0,0,1,2.66,5c-.46,2.1-1.84,3.43-4,4.63-6,3.28-2.45,9.57-3.47,14.41C450.52,62.43,451.07,68.45,450.8,75.9Z"/><path d="M581.26,46.33c-1.21,1.94-3.42,3.89-3.43,5.84,0,4.71,4.67,2.87,7.16,3.8,5.62,2.13,9.28,6.35,8.85,11.61-.46,5.56-4.32,10-11.13,9.81-1.17,0-2.36.55-3.54.57-3.63,0-7.7,1.29-10.17-2.68a4,4,0,0,1-.12-3.51c2.62-4,6.82-1.82,10.34-2.19,2.35-.24,5.67.24,6-2.25.39-2.67-2.36-3.84-5.22-4.17-4.84-.56-11.87.28-11.93-6.43-.06-6.39,3.86-12.35,10.12-15.41,4.34-2.13,9.29-4.44,13,1.07.82,1.19,1.09,3.92.32,4.77-1.49,1.64-.91,5.54-4.28,4.91C585.6,51.76,583.12,51.07,581.26,46.33Z"/><path d="M419.66,71.5c-1.77-4.6-5.45-6.41-9.59-8.28-2.72-1.23-6.7-2.91-5.63-7.21,1.41-5.64,6.13-8.51,11-10.43,8.13-3.18,11.24-.08,8.71,8.26-.39,1.27-1.91,2.2-2.91,3.28-.89-1.07-1.77-2.16-2.69-3.21-.36-.41-1-1.1-1.19-1A36.77,36.77,0,0,0,414,54.75c.48.64.83,1.6,1.47,1.86,10.31,4.3,13.4,11.71,9.78,22.15-1.37,3.94-5.58,4.66-8.22,4.86-5.15.38-11.06,3.69-15.68-1.49-.65-.73-.81-3-.24-3.56,3.57-3.52,8.42-2.25,12.75-2.81C416.67,75.39,418.58,74.56,419.66,71.5Z"/><path d="M351.09,50.18c3.72-5.27,9.16-6.11,15.2-4.53,1.63.43,3.8,1.1,4.45,2.34a4.81,4.81,0,0,1-1.1,4.59c-1.67,1.22-4.3,2.24-6.17,1.8-2.59-.61-4.12,0-5.45,1.84-5.88,8.29-7.19,17.23-4,26.9.37,1.14.29,3.32-.37,3.73-1.81,1.12-1.14,5.86-4.61,3.81-1.39-.82-2-3.71-2.16-5.73C345.82,74.12,345,63.28,344,52.46c-.43-4.72-3.24-11.9,2.8-12.7S348.28,46.94,351.09,50.18Z"/><path d="M615.87,8.06c-.67,9.71-1.54,18.9-1.8,28.1a17.67,17.67,0,0,0,2.49,8.6c.93,1.66,1.61,3.14.59,4.45s-2.9,2.79-4.25,2.66-2.78-2.16-3.22-3.65c-3.84-13.06.1-26.4-1.23-39.58C608.09,5.05,606.54.05,612,0,617.09,0,614.76,5.53,615.87,8.06Z"/><path d="M396.87,78c-1.61,2-.75,8.19-4.52,7.8-6.14-.64-10.59-5.42-12-11.82-1-4.35-1.18-8.86-1.82-13.29-.09-.6-.7-1.55-1.14-1.59-2.63-.25-4.78-1.75-4.06-4.15,1.32-4.34,5.61-4.25,9.25-4.37,2.21-.08,2.63,1.86,2.74,3.73.28,4.47-.14,9.17,1.19,13.29.73,2.23-1.62,10.63,6.63,5.74C395.57,71.93,397.37,74.13,396.87,78Z"/><path d="M620.44,73.38c.53,4.41-1.29,7.35-5,7.67-1.48.14-4.41-2.78-4.63-4.57-.47-3.72.54-7.66,5.3-8.46C621.12,67.18,619.53,71.52,620.44,73.38Z"/><path d="M373.24,36.63c-.36-3.49.83-6.28,4.46-6.82,3-.45,5,3,4.25,4.43-1.83,3.35-.45,9.39-4.85,9.94C372.92,44.7,373.2,39.92,373.24,36.63Z"/></g></g></svg>
