<svg xmlns="http://www.w3.org/2000/svg" viewBox="0 0 578.91 188.7"><defs><style>.cls-1{fill:#895e29;}.cls-2{fill:#9ce0ff;}.cls-3{fill:#fff;}</style></defs><g id="レイヤー_2" data-name="レイヤー 2"><g id="レイヤー_1-2" data-name="レイヤー 1"><path class="cls-1" d="M577.76,127.42c1.16,14.65,2.22,29.83-.89,44.63a42.46,42.46,0,0,1-2.07,5.82c-4.49,3.08-9.25,2.27-13.82,2.54-21.57,1.27-43.08-3.28-64.54-1.37-22.74,2-45.11-2.35-67.7-2-18.56.31-37.15.58-55.68-.23-26.15-1.13-52.29-1.3-78.45-1.36-23.7-.06-47.22,1.86-70.72,4.62-10.29,1.2-20.69.71-31,1.39-23.6,1.57-47.07,4.88-70.73,5.35-19.35.39-38.74-.3-58.08.37-12.77.44-25.54,1.17-38.32,1.49-7.42.19-14.49-1.89-21.55-2.35C1.35,183.78-.39,181,.22,177.49c2.57-14.93-.68-29.82-.16-44.77.71-20.47-.76-41,.49-61.47,1.16-19.09.74-38.16,1.18-57.13,3-2.86,5.81-3.87,9.77-2.34,2.41.92,5.4.56,8.11.45,16.91-.71,33.82.26,50.78-1,9.24-.67,18.86-1.29,28.4.5,6.86,1.29,14.21-.56,21.07-1.64,10.28-1.62,20.72-.19,30.9-2.66,2.83-.69,5.87-1.21,8.71-1.93,18-4.6,36.14-2.5,54.37-1.77,23.45.93,47-.09,70.45.29,26.77.42,53.45-1.75,80.21-1.73,14.46,0,28.75,2.19,43.21,2.12,20.07-.1,40.13,2,60.17,2.15,20.62.15,41.26-1.77,61.88-2.8A302.63,302.63,0,0,0,567.42,0a14.89,14.89,0,0,1,5.88,3.87c.56,4.7,1.51,9.54,1.65,14.42.61,20.66-.41,41.34-.27,62C574.79,95.93,576.52,111.73,577.76,127.42Zm-11.51,37.93c-.37-6.66,2.36-14.12-3.27-20.39,4.13-10.7,1.72-21.58,1.91-32.28.16-9.52-1.15-19.06-1.5-28.6-.7-19.59,1.59-39.18.19-58.77-.3-4.23.53-8.7-1.91-12.46-6.68-.52-12.81,1.27-19,1.58-16.82.82-33.68,1-50.51,1.69-23.49,1-46.89-1.16-70.33-1.9-7.61-.24-15.23-.43-22.86-.94-9.23-.63-18.55-2.63-27.7-1.72-9.56.94-19-.06-28.43.46-25.93,1.44-51.84.56-77.75.87-10.3.13-20.53,1.21-30.94.66-7.69-.41-15.55.31-23.45-.15-14.39-.83-28.87-1.81-43.28.72-20.55,3.62-41.26,6.36-62.12,6.9-21,.54-42.11-.25-63.14.26-10.47.25-21.07.7-30.75,3.1-3.7,50.31-1.88,99.71,1.53,150.31,7.56,2,15.13,3.73,23.1,3.54q35.6-.87,71.19-1.52c12.8-.25,25.74.71,38.38-.84,24.91-3.06,49.95-3.76,74.9-5.85,11.36-1,23-.86,34.08-2.57,19.84-3,39.67-.41,59.41-2.43,9.82-1,19.6,1.39,29.39,1.48,30,.26,60,.14,90,1.68,6.28.32,12.59-.08,18.86.31,36.22,2.28,72.42,2.54,108.62-.3A7,7,0,0,0,566.25,165.35Z"/><path class="cls-2" d="M563,145c5.63,6.27,2.9,13.73,3.27,20.39a7,7,0,0,1-5.36,2.84c-36.2,2.84-72.4,2.58-108.62.3-6.27-.39-12.58,0-18.86-.31-30-1.54-60-1.42-90-1.68C333.58,166.41,323.8,164,314,165c-19.74,2-39.57-.62-59.41,2.43-11.08,1.71-22.72,1.62-34.08,2.57-25,2.09-50,2.79-74.9,5.85-12.64,1.55-25.58.59-38.38.84q-35.59.71-71.19,1.52c-8,.19-15.54-1.52-23.1-3.54-3.41-50.6-5.23-100-1.53-150.31,9.68-2.4,20.28-2.85,30.75-3.1,21-.51,42.1.28,63.14-.26,20.86-.54,41.57-3.28,62.12-6.9,14.41-2.53,28.89-1.55,43.28-.72,7.9.46,15.76-.26,23.45.15,10.41.55,20.64-.53,30.94-.66,25.91-.31,51.82.57,77.75-.87,9.39-.52,18.87.48,28.43-.46,9.15-.91,18.47,1.09,27.7,1.72,7.63.51,15.25.7,22.86.94,23.44.74,46.84,2.86,70.33,1.9,16.83-.7,33.69-.87,50.51-1.69,6.21-.31,12.34-2.1,19-1.58,2.44,3.76,1.61,8.23,1.91,12.46,1.4,19.59-.89,39.18-.19,58.77.35,9.54,1.66,19.08,1.5,28.6C564.7,123.38,567.11,134.26,563,145ZM527.5,86.25c4.17-3.43,7.87-7.6,6-14.2l-3.42-4.35c-1.29-6.47,5-11.61.82-17.91-6.85-2-12.41,4.94-19.34,3.18-2.16-1.15-3.54-3.25-5.08-5.16-8.56-10.58-20-13.1-31.93-9.35a14.74,14.74,0,0,0-9.7,8.51c-3.68,8.35-8,16.47-8.76,25.71-10.34.1-13-9.92-19.42-14-9.33,3.51-10.89,15.5-4.86,34.92-3.13-.13-6.38-.64-8.61,2.06-.73,7.86,1,11.44,10.66,22.11.44,8.33-11,10.25-9.75,18.73a11.76,11.76,0,0,0,10.14,3.78c8.74-.79,17.51-.61,26.24-2.42,11.73-2.42,22.86-6,33-12.38s17.71-15.78,24-26C520.41,94.72,523,89.94,527.5,86.25ZM399,62.82a30.32,30.32,0,0,0-.45-3.85c-6.7-2.25-43.2,2.87-45.8,6.55-.38,1.82-.77,3.94.1,5.64,2,2.73,4.44,3.73,7.77,3.85l8.47-4c-.87,19.85,1.4,37.86,1.86,55.61,2.2,3.84,4.87,5.63,9,3.9,1.29-1.72,2.62-3.42,3.85-5.18.29-.41.25-1,.2-.83-7-18.38-4-36.71-4.59-54.4,6.75-3,13.27-.22,19.05-2.77A40.15,40.15,0,0,0,399,62.82ZM341.7,120.11c4.06-4.49,3.94-8.24-1.1-12.42-10,8.58-21.79,10.29-34.16,7.72-3.23-4.86-2.67-9.25-.8-13.59,9.09-5.12,21.05,2.8,28.87-6.09a7.72,7.72,0,0,0-2.48-6c-8.52-1.41-17.28.4-27.37-.86A91.14,91.14,0,0,1,304.32,68c5.36-1.84,10.25-.32,14.79-.68,2.91,1.51,2.24,6.2,6.65,6.09,4.8-3.44,5.16-8.15,3.46-13.32-13.31-6.41-32.64-4.39-37.4,3.91a41.86,41.86,0,0,1,1.78,9.39c.71,17.14,4.52,34.39-2.49,50.64,1.85,3.31,4.31,3.9,7.23,4a151.76,151.76,0,0,0,30.93-2.28C333.78,124.9,338.37,123.8,341.7,120.11ZM281,99.87c1.36-3.92,2.32-6.51-.64-10.31-8.79-1-18.85,1-28.81-.77-.9-7.46,1.2-14.3,1.5-21.11,8.36-3.35,16.31-2.26,23.63.36,4.92-2.74,4.22-6.55,3.81-11-11.87-2.9-23.78-1.87-35.33-2.06-4.8,3.2-5.08,7.05-4.16,10.88,1.63,6.8.62,13.46.27,20.28-.68,13.33-3.54,26.56-1.87,40.33a9.24,9.24,0,0,0,4.3,4.31c11.91-.91,23.69-3.07,35.48-3.35,3.78-3.49,4.47-7,1.05-11.51-9.88-1.33-20.11,6.71-30.38.58-.22-4.72-.44-9.29-.63-13.35C259.49,97.31,271,102,281,99.87Zm-68.4,29.41c9.48-13.59,24.1-63.84,21.07-72.16-5.81-.69-7.73-.27-8.92,4.1-1.78,6.54-4.41,12.79-5.51,19.59a91.48,91.48,0,0,1-9,28.5C204.63,94.4,199.33,80.56,195,66.36c-1.07-3.48-1.63-7.82-7.23-8a12.13,12.13,0,0,0-6,6.73c-.19,17.49-4,34.12-8.44,51.86-4.1-8.09-4.71-15.66-5.85-23.12-1.45-9.44-.6-19-1.56-28.45-.38-3.76-1.49-6.31-5.63-6.79-2.1.65-3.8,1.86-5.14,5A319,319,0,0,0,159.83,109c1.4,7.6,3.1,15.43,6.8,22.54,1.83,3.53,3.76,6.07,8.61,4.3,10.57-14.84,11.16-32.43,15.56-49,4.74,12.17,8.28,24.47,13.61,36.12C206.15,126.7,208.29,129.2,212.56,129.28ZM140.05,69.4c5.35-.34,8.09-2.13,8.7-7.31-2.31-4.17-6.32-4.83-9.94-3.54-13.58,4.85-27.47,5.63-41.71,4.88a21,21,0,0,0-17,7c-.11,2.34-1,4.81,2.47,8C90,79,96.87,71.33,105.7,75c.78,20.67,1.56,41.46,2.33,62,2.9.9,4.91,1.79,7.9.5-.07-2.59,2.41-4.49,3.33-6.53-3-19.48-3.28-38.37-2.16-57.85C125.18,71.7,132.58,69.87,140.05,69.4Z"/><path class="cls-1" d="M533.54,72.05c1.83,6.6-1.87,10.77-6,14.2-4.48,3.69-7.09,8.47-10,13.22-6.29,10.19-13.76,19.45-24,26s-21.22,10-33,12.38c-8.73,1.81-17.5,1.63-26.24,2.42a11.76,11.76,0,0,1-10.14-3.78c-1.24-8.48,10.19-10.4,9.75-18.73-9.64-10.67-11.39-14.25-10.66-22.11,2.23-2.7,5.48-2.19,8.61-2.06-6-19.42-4.47-31.41,4.86-34.92,6.42,4.12,9.08,14.14,19.42,14,.8-9.24,5.08-17.36,8.76-25.71a14.74,14.74,0,0,1,9.7-8.51c11.9-3.75,23.37-1.23,31.93,9.35,1.54,1.91,2.92,4,5.08,5.16,6.93,1.76,12.49-5.23,19.34-3.18,4.13,6.3-2.11,11.44-.82,17.91Zm-16.68-.24c-1.06-3.52,5.07-5.1,3.82-9.56-3.62-.44-6.44,2.23-10.58,2.1-5-3.06-6.6-8.91-10.54-12.91C489.41,41.16,476.29,43,469.83,55.8c-1.21,2.4-2.35,4.85-3.39,7.33-1.77,4.25-2.37,8.45-.48,13,1.38,3.31,1.78,7-1.82,9.81-9.14-4.21-18.31-8.13-26.83-14.72-1.7,7.2-.17,13.06,3.06,19.19,2,1.58,5.21,2.84,5.6,6.64-.86,2.15-1.66,4.49-4.12,6.22-1.82.39-4.63-2.21-6.09,1.16,1.16,5.23,8.49,3,9.92,8.32.11,5.8-3.58,10.57-6,16.08,4.85.52,9.41.43,12.49,2.2,31.14-3.26,52-18.56,62.14-47.74,1.84-2.11,5.63-1.73,6.83-5.17C519.73,76.34,517.29,75.14,516.86,71.81Z"/><path class="cls-3" d="M520.68,62.25c1.25,4.46-4.88,6-3.82,9.56.43,3.33,2.87,4.53,4.27,6.31-1.2,3.44-5,3.06-6.83,5.17-10.1,29.18-31,44.48-62.14,47.74-3.08-1.77-7.64-1.68-12.49-2.2,2.43-5.51,6.12-10.28,6-16.08-1.43-5.35-8.76-3.09-9.92-8.32,1.46-3.37,4.27-.77,6.09-1.16,2.46-1.73,3.26-4.07,4.12-6.22-.39-3.8-3.59-5.06-5.6-6.64-3.23-6.13-4.76-12-3.06-19.19,8.52,6.59,17.69,10.51,26.83,14.72,3.6-2.81,3.2-6.5,1.82-9.81-1.89-4.55-1.29-8.75.48-13,1-2.48,2.18-4.93,3.39-7.33,6.46-12.85,19.58-14.64,29.73-4.36,3.94,4,5.54,9.85,10.54,12.91C514.24,64.48,517.06,61.81,520.68,62.25Z"/><path class="cls-1" d="M398.54,59a30.32,30.32,0,0,1,.45,3.85,40.15,40.15,0,0,1-.54,4.49c-5.78,2.55-12.3-.23-19.05,2.77.58,17.69-2.44,36,4.59,54.4.05-.21.09.42-.2.83-1.23,1.76-2.56,3.46-3.85,5.18-4.13,1.73-6.8-.06-9-3.9-.46-17.75-2.73-35.76-1.86-55.61l-8.47,4c-3.33-.12-5.76-1.12-7.77-3.85-.87-1.7-.48-3.82-.1-5.64C355.34,61.84,391.84,56.72,398.54,59Z"/><path class="cls-3" d="M392.85,58.42a20.62,20.62,0,0,1,5.69.55,30.32,30.32,0,0,1,.45,3.85,40.15,40.15,0,0,1-.54,4.49c-2.63,1.16-5.41,1.22-8.29,1.22h-1c-3.17,0-6.45.06-9.79,1.55.58,17.69-2.44,36,4.59,54.4,0,0,0,0,0,0a1.32,1.32,0,0,1-.22.87c-1.23,1.76-2.56,3.46-3.85,5.18a7.65,7.65,0,0,1-2.94.66c-2.55,0-4.43-1.72-6.06-4.56-.46-17.75-2.73-35.76-1.86-55.61l-8.47,4c-3.33-.12-5.76-1.12-7.77-3.85-.87-1.7-.48-3.82-.1-5.64,2.16-3,27.67-7.1,40.11-7.1m0-6h0a164.82,164.82,0,0,0-24.92,2.49c-17.09,2.9-18.9,5.46-20.09,7.15a6,6,0,0,0-1,2.23c-.43,2.08-1.24,5.94.64,9.6a4.75,4.75,0,0,0,.51.83c3,4,7,6.09,12.38,6.29h.22a5.89,5.89,0,0,0,2.27-.45c0,9.46.57,18.5,1.11,27.31.41,6.52.79,12.67.95,18.88a6.07,6.07,0,0,0,.79,2.82c2.88,5,6.67,7.58,11.27,7.58a13.62,13.62,0,0,0,5.26-1.13,6,6,0,0,0,2.48-1.93l1.05-1.39c1-1.27,2-2.58,2.92-3.95a7,7,0,0,0,.65-7c-4.52-12.25-4.27-24.5-4-37.45.06-3.16.13-6.39.12-9.62a35.74,35.74,0,0,1,3.71-.13h1c2.86,0,6.79,0,10.71-1.73a6,6,0,0,0,3.53-4.74c.07-.56.15-1.06.22-1.53a23.54,23.54,0,0,0,.37-3.71,23.27,23.27,0,0,0-.36-3.69c-.05-.31-.1-.62-.14-.91a6,6,0,0,0-4-4.94,24.7,24.7,0,0,0-7.59-.86Z"/><path class="cls-1" d="M340.6,107.69c5,4.18,5.16,7.93,1.1,12.42-3.33,3.69-7.92,4.79-12.43,5.59A151.76,151.76,0,0,1,298.34,128c-2.92-.08-5.38-.67-7.23-4,7-16.25,3.2-33.5,2.49-50.64A41.86,41.86,0,0,0,291.82,64c4.76-8.3,24.09-10.32,37.4-3.91,1.7,5.17,1.34,9.88-3.46,13.32-4.41.11-3.74-4.58-6.65-6.09-4.54.36-9.43-1.16-14.79.68a91.14,91.14,0,0,0,.34,20.94c10.09,1.26,18.85-.55,27.37.86a7.72,7.72,0,0,1,2.48,6c-7.82,8.89-19.78,1-28.87,6.09-1.87,4.34-2.43,8.73.8,13.59C318.81,118,330.63,116.27,340.6,107.69Z"/><path class="cls-3" d="M311.64,56.28a41.31,41.31,0,0,1,17.58,3.78c1.7,5.17,1.34,9.88-3.46,13.32h-.15c-4.25,0-3.63-4.6-6.5-6.09-.52,0-1,.06-1.57.06-2.26,0-4.61-.31-7.06-.31a18.53,18.53,0,0,0-6.16.93,91.14,91.14,0,0,0,.34,20.94,68.44,68.44,0,0,0,8.56.48c3.66,0,7.17-.19,10.59-.19a49.88,49.88,0,0,1,8.22.57,7.72,7.72,0,0,1,2.48,6c-3.32,3.77-7.38,4.52-11.65,4.52-2.8,0-5.69-.32-8.52-.32a17.2,17.2,0,0,0-8.7,1.89c-1.87,4.34-2.43,8.73.8,13.59a49.9,49.9,0,0,0,10.12,1.1,35.77,35.77,0,0,0,24-8.82c5,4.18,5.16,7.93,1.1,12.42-3.33,3.69-7.92,4.79-12.43,5.59A151.59,151.59,0,0,1,302.71,128c-1.45,0-2.91,0-4.37-.06-2.92-.08-5.38-.67-7.23-4,7-16.25,3.2-33.5,2.49-50.64A41.86,41.86,0,0,0,291.82,64c2.85-5,10.94-7.69,19.82-7.69m0-6c-11.82,0-21.18,4-25,10.71a6,6,0,0,0-.58,4.55,37,37,0,0,1,1.57,8.06c.17,4,.49,7.92.8,11.75,1.05,12.87,2.05,25-2.8,36.27a6,6,0,0,0,.27,5.31c3.42,6.11,8.66,6.95,12.3,7,1.5,0,3,.06,4.54.06a159.07,159.07,0,0,0,27.6-2.43c5.24-.93,11.21-2.35,15.84-7.48,3.22-3.56,4.66-7.08,4.4-10.76s-2.27-7.11-6.12-10.3a6,6,0,0,0-7.75.07,29.58,29.58,0,0,1-20.12,7.37,42.93,42.93,0,0,1-6.16-.48,6.54,6.54,0,0,1,0-3.7,15.64,15.64,0,0,1,3.95-.4c1.25,0,2.56.07,3.94.15s3,.17,4.58.17c4.46,0,11-.68,16.15-6.56a6,6,0,0,0,1.49-4.15,13.73,13.73,0,0,0-4.33-10.11A6,6,0,0,0,333,83.85a56.26,56.26,0,0,0-9.2-.65c-1.76,0-3.54,0-5.27.09s-3.53.1-5.32.1c-1.08,0-2.1,0-3.07-.06a82.93,82.93,0,0,1-.23-10.28h.56c1,0,2.13.07,3.28.15.84,0,1.7.11,2.58.14,1.1,2.08,3.5,6,9.27,6h.3a6,6,0,0,0,3.34-1.12c8.64-6.19,7.26-15.23,5.67-20.07a6,6,0,0,0-3.1-3.54,47.46,47.46,0,0,0-20.18-4.37Z"/><path class="cls-1" d="M280.32,89.56c3,3.8,2,6.39.64,10.31-10,2.16-21.47-2.56-31.78,3.31.19,4.06.41,8.63.63,13.35,10.27,6.13,20.5-1.91,30.38-.58,3.42,4.52,2.73,8-1.05,11.51-11.79.28-23.57,2.44-35.48,3.35a9.24,9.24,0,0,1-4.3-4.31c-1.67-13.77,1.19-27,1.87-40.33.35-6.82,1.36-13.48-.27-20.28-.92-3.83-.64-7.68,4.16-10.88,11.55.19,23.46-.84,35.33,2.06.41,4.42,1.11,8.23-3.81,11-7.32-2.62-15.27-3.71-23.63-.36-.3,6.81-2.4,13.65-1.5,21.11C261.47,90.54,271.53,88.59,280.32,89.56Z"/><path class="cls-3" d="M258.26,55c7.35,0,14.77.28,22.19,2.09.41,4.42,1.11,8.23-3.81,11a38.15,38.15,0,0,0-12.83-2.45A28.63,28.63,0,0,0,253,67.68c-.3,6.81-2.4,13.65-1.5,21.11a58.8,58.8,0,0,0,10.13.76c4.33,0,8.58-.28,12.65-.28a54,54,0,0,1,6,.29c3,3.8,2,6.39.64,10.31a31.37,31.37,0,0,1-6.67.61c-3.73,0-7.57-.39-11.41-.39-4.65,0-9.28.57-13.7,3.09.19,4.06.41,8.63.63,13.35a16.46,16.46,0,0,0,8.69,2.33c6.53,0,13-3.06,19.35-3.06a18.38,18.38,0,0,1,2.34.15c3.42,4.52,2.73,8-1.05,11.51-11.79.28-23.57,2.44-35.48,3.35a9.24,9.24,0,0,1-4.3-4.31c-1.67-13.77,1.19-27,1.87-40.33.35-6.82,1.36-13.48-.27-20.28-.92-3.83-.64-7.68,4.16-10.88,1.13,0,2.27,0,3.41,0,3.22,0,6.47-.06,9.73-.06m0-6c-1.65,0-3.3,0-4.94,0l-4.79,0c-1.11,0-2.21,0-3.31,0h-.1a6,6,0,0,0-3.33,1c-4.25,2.83-8.86,8.13-6.67,17.27,1.09,4.52.75,9.29.39,14.34-.1,1.37-.2,2.79-.27,4.23-.22,4.15-.64,8.26-1.1,12.61-1,9.22-1.95,18.76-.74,28.75a6.23,6.23,0,0,0,.46,1.69,15.15,15.15,0,0,0,7,7.21,6,6,0,0,0,2.8.69l.45,0c4.92-.37,9.83-1,14.57-1.52,7.12-.85,13.84-1.65,20.6-1.81a6,6,0,0,0,3.93-1.59c6.28-5.8,6.91-12.74,1.76-19.54a6,6,0,0,0-4-2.33,24.73,24.73,0,0,0-3.14-.2,46.49,46.49,0,0,0-10.92,1.68,38.57,38.57,0,0,1-8.43,1.38,11.89,11.89,0,0,1-2.87-.33c-.07-1.3-.13-2.58-.18-3.82l-.08-1.7a25.75,25.75,0,0,1,7.51-.92c1.78,0,3.58.09,5.48.19s3.92.2,5.93.2a36.43,36.43,0,0,0,7.94-.75,6,6,0,0,0,4.4-3.89l.05-.17c1.47-4.22,3.29-9.48-1.63-15.8A6,6,0,0,0,281,83.6a60.16,60.16,0,0,0-6.69-.33c-2.1,0-4.25.07-6.33.14s-4.22.14-6.32.14c-1.56,0-3,0-4.32-.12.11-2.41.45-4.84.81-7.36.18-1.28.36-2.58.51-3.9a22.83,22.83,0,0,1,5.17-.58,32.1,32.1,0,0,1,10.81,2.1,6,6,0,0,0,4.94-.41c8.06-4.49,7.35-11.7,6.93-16l-.07-.75a6,6,0,0,0-4.55-5.28c-8.13-2-16.15-2.26-23.61-2.26Z"/><path class="cls-1" d="M233.63,57.12c3,8.32-11.59,58.57-21.07,72.16-4.27-.08-6.41-2.58-8.15-6.4-5.33-11.65-8.87-23.95-13.61-36.12-4.4,16.61-5,34.2-15.56,49-4.85,1.77-6.78-.77-8.61-4.3-3.7-7.11-5.4-14.94-6.8-22.54a319,319,0,0,1-4.65-45.36c1.34-3.1,3-4.31,5.14-5,4.14.48,5.25,3,5.63,6.79,1,9.46.11,19,1.56,28.45,1.14,7.46,1.75,15,5.85,23.12,4.47-17.74,8.25-34.37,8.44-51.86a12.13,12.13,0,0,1,6-6.73c5.6.13,6.16,4.47,7.23,8,4.34,14.2,9.64,28,15.16,43a91.48,91.48,0,0,0,9-28.5c1.1-6.8,3.73-13,5.51-19.59C225.9,56.85,227.82,56.43,233.63,57.12Z"/><path class="cls-3" d="M230.09,56.85a32.32,32.32,0,0,1,3.54.27c3,8.32-11.59,58.57-21.07,72.16-4.27-.08-6.41-2.58-8.15-6.4-5.33-11.65-8.87-23.95-13.61-36.12-4.4,16.61-5,34.2-15.56,49a8.39,8.39,0,0,1-2.86.58c-2.86,0-4.33-2.14-5.75-4.88-3.7-7.11-5.4-14.94-6.8-22.54a319,319,0,0,1-4.65-45.36c1.34-3.1,3-4.31,5.14-5,4.14.48,5.25,3,5.63,6.79,1,9.46.11,19,1.56,28.45,1.14,7.46,1.75,15,5.85,23.12,4.47-17.74,8.25-34.37,8.44-51.86a12.13,12.13,0,0,1,6-6.73c5.6.13,6.16,4.47,7.23,8,4.34,14.2,9.64,28,15.16,43a91.48,91.48,0,0,0,9-28.5c1.1-6.8,3.73-13,5.51-19.59.9-3.33,2.23-4.37,5.38-4.37m0-6h0c-5.92,0-9.57,2.88-11.18,8.79-.6,2.2-1.3,4.36-2,6.64a91.89,91.89,0,0,0-3.61,13.57,103.18,103.18,0,0,1-2.87,12.89c-3.52-9.54-6.81-18.77-9.67-28.13-.11-.35-.21-.69-.31-1-.93-3.27-3.1-10.94-12.52-11.16h-.14a6,6,0,0,0-2.71.65,18.19,18.19,0,0,0-8.89,10,6.25,6.25,0,0,0-.36,2,153,153,0,0,1-2.66,25.63c-.48-4.16-.55-8.39-.63-12.84-.07-4.24-.14-8.62-.59-13-.74-7.3-4.41-11.39-10.91-12.14a5.32,5.32,0,0,0-.69,0,6,6,0,0,0-1.78.27,13.82,13.82,0,0,0-8.87,8.31,6,6,0,0,0-.49,2.61A320.87,320.87,0,0,0,153.93,110c1.38,7.53,3.21,16.23,7.37,24.23,1.26,2.42,4.21,8.11,11.08,8.11a14.24,14.24,0,0,0,4.91-.94,6,6,0,0,0,2.83-2.16c6.93-9.72,9.9-20.28,12.14-30.76,2,5.63,4.16,11.32,6.69,16.86,1.09,2.4,4.43,9.73,13.5,9.9h.11a6,6,0,0,0,4.92-2.57c5.65-8.09,12-25.87,16.06-39.81,4-13.56,8.16-31.14,5.73-37.83a6,6,0,0,0-4.93-3.91,36.85,36.85,0,0,0-4.24-.31Z"/><path class="cls-1" d="M148.75,62.09c-.61,5.18-3.35,7-8.7,7.31-7.47.47-14.87,2.3-23,3.66-1.12,19.48-.8,38.37,2.16,57.85-.92,2-3.4,3.94-3.33,6.53-3,1.29-5,.4-7.9-.5-.77-20.52-1.55-41.31-2.33-62-8.83-3.63-15.75,4-23.11,3.5-3.46-3.24-2.58-5.71-2.47-8a21,21,0,0,1,17-7c14.24.75,28.13,0,41.71-4.88C142.43,57.26,146.44,57.92,148.75,62.09Z"/><path class="cls-3" d="M142.07,58a7.39,7.39,0,0,1,6.68,4.13c-.61,5.18-3.35,7-8.7,7.31-7.47.47-14.87,2.3-23,3.66-1.12,19.48-.8,38.37,2.16,57.85-.92,2-3.4,3.94-3.33,6.53a7.21,7.21,0,0,1-2.94.65,16.89,16.89,0,0,1-5-1.15c-.77-20.52-1.55-41.31-2.33-62a12.79,12.79,0,0,0-4.92-1c-6.34,0-11.8,4.5-17.48,4.5-.23,0-.47,0-.71,0-3.46-3.24-2.58-5.71-2.47-8a21,21,0,0,1,15.74-7l1.24,0c3,.16,5.93.25,8.88.25,11.15,0,22.08-1.29,32.83-5.13a9.76,9.76,0,0,1,3.26-.59m0-6h0a15.57,15.57,0,0,0-5.28.94c-9.13,3.26-18.92,4.78-30.81,4.78-2.72,0-5.52-.08-8.57-.24-.51,0-1,0-1.55,0a26.89,26.89,0,0,0-20.14,8.93,6,6,0,0,0-1.6,3.8q0,.38-.06.75a13,13,0,0,0,4.43,12,6,6,0,0,0,3.68,1.61l1.13,0c3.9,0,7.39-1.36,10.46-2.57A25.51,25.51,0,0,1,99.88,80c.7,18.49,1.4,37,2.09,55.39l.06,1.74a6,6,0,0,0,4.22,5.51l.79.25a18.82,18.82,0,0,0,5.95,1.17A13.26,13.26,0,0,0,118.3,143a6,6,0,0,0,3.62-5.21c.18-.29.54-.78.79-1.13a17.52,17.52,0,0,0,2-3.23,6.1,6.1,0,0,0,.46-3.37,260.68,260.68,0,0,1-2.34-51.89l2.57-.49a123.62,123.62,0,0,1,15-2.24c8.56-.55,13.37-4.78,14.29-12.6a6.12,6.12,0,0,0-.71-3.61A13.4,13.4,0,0,0,142.07,52Z"/></g></g></svg>