<svg xmlns="http://www.w3.org/2000/svg" viewBox="0 0 631.55 117.49"><g id="レイヤー_2" data-name="レイヤー 2"><g id="レイヤー_3" data-name="レイヤー 3" style="fill: #895e29"><path d="M295.44,54.33a5.35,5.35,0,0,0,3.22-3.6,119.73,119.73,0,0,1,7.23-17,52.52,52.52,0,0,1,9.69-14.41,4.53,4.53,0,0,0,1-1.26c.85-1.94,2.52-3.52,4.34-3.24a6.34,6.34,0,0,1,5.22,4.48c1.46,4.61,2,9.36,2.65,14.12a194,194,0,0,1,1.43,20.13c.1,2.76-.46,5.66-.29,8.54.15,2.48-.12,4.88,1.24,7.28,1.06,1.87-.66,4.11-.38,6.19.92,7-.7,14,.41,21.1.44,2.83.8,5.75,1.26,8.64A4.48,4.48,0,0,1,329,110a3.84,3.84,0,0,1-4.6-3.2c-.81-3.63-.32-7.33-.27-11,.08-5.39-.14-10.79.17-16.17.28-5-.64-10-1-14.93-.39-6.45.58-13-.9-19.39a19.3,19.3,0,0,1,.09-5.77c.33-4-2.56-7.35-1.89-11.32-2.07-.54-3.05.74-3.79,1.94a158.25,158.25,0,0,0-8.54,16.71c-2.88,6.25-4,13.13-7.32,19.21-2.49,4.57-4.95,4.71-7.82.29-2.74-4.2-3.57-9.13-5.31-13.72-1.26-3.31-2.13-6.84-4.53-9.71-.78-.94-.74-2.54-1.19-3.8-.31-.85-.71-1.73-1.91-1.61s-1.55.88-1.69,1.86c-.6,3.93-1.06,7.88-2,11.76-1.43,6-1.21,12.21-1.09,18.25.1,4.95.55,10,.53,14.93,0,6.22-.4,12.56-3.1,18.41-1.11,2.39-3.38,3.65-5.46,5-1.66,1-3.44.12-4.55-1.18s-1.66-3.21,0-4.41c4.7-3.41,5.27-8.58,6-13.6a57,57,0,0,0,.55-12c-.44-6.18-1.21-12.37-.54-18.53.62-5.64,1.49-11.29,2.11-16.92.36-3.23.72-6.52,1.35-9.66s.51-6.35,2.43-9c2.21-3,6-2.57,7.84.67,3.52,6.17,5.35,13.06,8.35,19.4C292.73,46.4,293.22,50.67,295.44,54.33Z"/><path d="M125.54,75.44c6.24-2.3,11.07-6.56,16-10.52,4.56-3.66,9.1-7.29,14.32-10a23.84,23.84,0,0,1,4.86-1.59c.78-.2,1.86-1.13,2.42.11a3.84,3.84,0,0,1,.42,3.35c-.86,2.12-2.64,3-4.34,4A100.82,100.82,0,0,0,141,73.15a20.73,20.73,0,0,1-1.9,1.61c-4,2.63-4.13,2.77-.84,6.12,5.3,5.39,10.88,10.47,17.72,14a50.2,50.2,0,0,0,4.78,2.51c1.94.75,1.42,4.21-.66,6.55a3.68,3.68,0,0,1-5.51.31c-1.13-1-2.21-2.11-3.3-3.19-3.06-3-7.31-4.34-10.48-7.28-3-2.75-6.1-5.38-9.18-8a30.83,30.83,0,0,1-3.85-4.88l-2.51.92c.22,4.2.69,8.39.6,12.57a52.82,52.82,0,0,0,1.77,16.56c.37,1.24-2.29,5.9-3.5,6.47-1.37.64-4.4-1.27-4.47-2.82-.27-5.46-1-10.94-.72-16.38.46-10.2-.77-20.4.47-30.61.41-3.44-.43-7.09-.39-10.66a98.35,98.35,0,0,0-.3-13.42c-.53-4.13,0-8.3-.91-12.4a12.56,12.56,0,0,1,0-3.92c.69-6.32-.18-12.64.27-18.95.12-1.73,0-3.55,1.91-4.52,1.19-.6,2.33-1.14,3.76-.55s1.49,1.72,1.54,2.93a79.83,79.83,0,0,1-1,16.12c-.87,5.14.25,10.29,0,15.41-.27,5.8.47,11.56.33,17.37-.09,3.81.66,7.73.79,11.65.06,2-.36,3.82-.28,5.74C125.12,73.33,124.64,74.37,125.54,75.44Z"/><path d="M389.46,58.07c2.86-1,4.47-3.5,6.78-5,2.55-1.69,5.26-3,7.94-4.46,2.38-1.25,9.45,0,10.68,2.24,2.28,4.17,6.32,7.52,6.27,12.87,0,1.65,1.19,3.23.13,5-.76,1.27,1.26.52,1.34,1.53.09,1.27.42,2.5.44,3.82,0,2.79,1.06,5.43,1.1,8.33,0,1.9,1.48,4.15,1.36,6.32-.19,3.28,1.6,5.64,3.05,8.22,1.1,2-1.61,6.85-3.85,6.8-2.4,0-3.17-2.36-4-3.93-1.53-2.85-1-6.27-1.67-9.41-.7-3.42-.78-7-1.62-10.34-.71-2.88-.32-5.83-1.14-8.69-1.25-4.31-2.31-8.67-3.39-13-.64-2.56-5.64-4-7.91-2.49-5,3.48-10.39,6.71-13.24,12.39-1.92,3.84-4.67,7.2-4.15,12.34.33,3.17.06,6.69.31,10A35.84,35.84,0,0,0,389.45,98c.63,2.09-.39,3.41-1.6,4.73a3,3,0,0,1-3.84.51,6.75,6.75,0,0,1-2.91-5.95,113.85,113.85,0,0,0,.34-11.53c-.15-5.68.43-11.33.44-17,0-6.65,1.86-13.11,1.45-19.76-.18-2.84.34-5.76-.11-8.54-.72-4.51-.8-9.13-1.87-13.53s-.71-8.56-1.53-12.76c-.45-2.3,1-3.22,2.58-3.48s2.76.41,3.29,2.45c.89,3.43.4,6.89.85,10.33.92,7.1,2.75,14.09,2.87,21.28a28.81,28.81,0,0,1-.52,7.69A6.77,6.77,0,0,0,389.46,58.07Z"/><path d="M28,52.77a44.81,44.81,0,0,0,9.81-16.2c1.5-4.14,3.68-7.92,5.45-11.9a135.46,135.46,0,0,0,7.1-20.1c.48-1.83.9-3.83,3.07-4.41a4.54,4.54,0,0,1,4.63,1.51c1.4,1.44.84,3,.32,4.36-1.08,3-3.45,5.26-4.33,8.39-1.67,6-5,11.29-7.3,17s-4.58,11.29-6.65,17a46.73,46.73,0,0,1-7.27,13.15A5.37,5.37,0,0,0,32,64.89c-.25,8.15-.78,16.28-1.17,24.42a91.15,91.15,0,0,0,1.83,21.1c.35,1.87-1.5,5.71-3.09,6.12s-4.37-1.88-4.73-4.28a121.59,121.59,0,0,1-1-22c.09-2.68,1.24-5.3.89-7.77-.47-3.36.55-6.58.07-9.89-.71-4.9-1.19-9.84-1.71-14.76-.16-1.45-1.17-2.37-1.76-3.54A204.18,204.18,0,0,1,13.2,35.34c-.91-2.44-2.62-4.51-3.55-7.06-1.07-2.91-1.74-6.1-3.88-8.57C3.26,16.83,2,13.23.24,10c-.7-1.28.32-1.78.5-2.61.87-.15,1.21,1.33,2.43.34.79-.65,5,2.45,4.93,3.7-.23,3.08,2.33,4.73,3.69,6.69,1.47,2.14,2,4.67,3.63,6.63S17.59,29,18.7,31a13.63,13.63,0,0,1,1.48,5.11c.13,2.78,1.48,4.91,2.19,7.34a4.65,4.65,0,0,0,1.35,2.34C25.77,47.62,26.65,50.16,28,52.77Z"/><path d="M600.81,92.62c-.86,2,1.43,3.39.4,5.49-.6,1.24-.46,2.65-2.22,3.2s-3.18-.62-4-1.64a10.64,10.64,0,0,1-2.75-7.11c0-2.93-1.59-5.73-2.52-8.45-1.14-3.35-1-6.64-1.41-9.9-.54-4.79-.54-9.63-2.87-14-.4-.76.2-1.26-.09-2-1-2.65-3.14-2.74-5.13-2.33-6.72,1.39-13.37,3.08-17.16,9.7-1.5,2.63,0,5.38,0,8a61.46,61.46,0,0,0,2.34,17c1.15,3.87-.28,7.41-2.41,10.62-1.09,1.66-3,1.5-4.34,0-1.65-1.9-2-3.7-1.56-6.4.74-4.93,1.45-10.06.11-15.06-.37-1.4.23-2.52.31-3.78a31.17,31.17,0,0,0-1.06-10.55c-.65-2.3-.44-4.92-.37-7.23.17-6-1-11.88-1.58-17.79-.28-2.91-.29-6-1.19-8.7-.52-1.54-.38-3.18-1-4.53-1.79-3.67-.85-7.7-1.72-11.49-.23-1-.95-1.59-1.2-2.56-.85-3.29-.58-6.65-1.09-9.94C548,1.66,547.68.29,549.59.32c1.69,0,3.79-.3,4.38,2.23a26.56,26.56,0,0,1,.87,7.21c-.34,5.08,2.17,9.74,1.51,14.75a1.22,1.22,0,0,0,.09.81c2.69,3.95,1.81,8.64,2.64,13,.94,4.91,1.41,9.89,2.14,14.84.2,1.3,1.08,1.77,2.21,1,4.49-3.1,10-3,14.91-4.71,4.72-1.7,8.33.63,11.5,3.46,1.11,1,1,3.35,1.45,5.09a82.23,82.23,0,0,1,2.15,11.3c.31,2.89.3,6.05,1.88,8.75a1.25,1.25,0,0,1,.07,1c-1.11,2-.17,3.54,1,5.1s.45,3.8,1.54,5.67C598.7,91.09,599.1,92.34,600.81,92.62Z"/><path d="M455.17,49.2c2.85-.51,4.93.25,5.71,4.37,1.13,6,5.86,7.77,9.77,10.72a27.29,27.29,0,0,1,7.59,8c2.34,4,3.74,8.21,5.62,12.31,1,2.23,3.61,3.4,4.54,5.86.76,2,3.17,3.19,2.51,6-.43,1.82-.7,3.74-2.72,3.75s-4.45-.5-5.17-2.88c-1.12-3.73-3.85-6.73-5-10.13-1.3-3.73-4.48-6.44-4.89-10.48-.18-1.73-1.94-2.58-2.85-3.94-.71-1.08-2.68.09-3.2,1.66-1.17,3.56-.34,7.34-1.31,10.94-1.46,5.42-3.54,10.55-8.46,13.63-3.55,2.22-7.79,1.45-10.38-3.62a43.34,43.34,0,0,1-4.74-20.2c0-5.53,1.82-10.36,3.06-15.48C446.12,56,451.53,49.85,455.17,49.2Zm-2.6,42.05a9.54,9.54,0,0,0,4.78-5.4c1.24-3.1,1.52-6.37,1.94-9.58.56-4.23,1.43-8.58-1-12.63a5.77,5.77,0,0,1-.42-2.31c-.2-1.39.05-3-1.23-4.06-.15,0-.25,0-.32,0-4.77,2.42-5.37,7.28-6.46,11.66-1,3.94-.66,8-.4,12.16A25.56,25.56,0,0,0,452.57,91.25Z"/><path d="M95.61,69c.66-2.79,0-5.76-.62-8.76-.32-1.64-.34-3.22,2.22-3.23,1,0,2-.08,3-.09,2.65,0,4,1.87,3.5,4.41a30.26,30.26,0,0,0-.55,4.65,88.78,88.78,0,0,1-10.89,37.35c-1.94,3.61-5.13,5.78-9,7.19a40,40,0,0,0-5.73,2.64,3.6,3.6,0,0,1-3.84-.18c-1.62-1.16-3.61-1.41-5.43-2.06a10.25,10.25,0,0,1-6.73-6.79c-3.31-9.67-3.42-19.73-3.83-29.74A57.35,57.35,0,0,1,58.17,63c.7-4.43,2.6-6,6.62-4.43,2,.77,1.8,3.08,1.44,4.48-1,4-.6,7.94-.72,11.93-.13,4.25-1.22,8.69-.56,12.78.81,5,.75,10.39,4.44,14.63,2,2.3,7.6,2.89,10.22,1.64,5.63-2.7,8.33-7.68,10.75-12.84A58.56,58.56,0,0,0,95.61,69Z"/><path d="M519.2,61.71a8.36,8.36,0,0,0,4,2.26c3.42,1.22,7,2.12,10.35,3.42a14.11,14.11,0,0,1,8.95,16,67.47,67.47,0,0,1-1.39,7.92,15.34,15.34,0,0,1-6.39,8.17c-4.11,2.55-8.56,5.31-13.53,3.79-4.14-1.26-9-.47-12.46-4-.59-.6-1.85-.5-2.8-.88-3-1.22-4-3.78-2.11-6.31,4.66.52,8.74,2.54,12.73,4.84,1.27.73,2.65.11,4,0,5.07-.36,9.6-2.36,12.08-6.67a19,19,0,0,0,3-10.57c-.19-4.23-2.38-5.67-5.34-7.21a30.76,30.76,0,0,0-10.2-3.35c-4-.53-8.48-4.48-8.95-7.89-.09-.68-.28-1.4.36-1.74,2.63-1.42,3.2-4.49,5.25-6.38,4.86-4.45,9.86-8.55,16.71-9.64,2.5-.4,3.38,1,3.82,2.77.59,2.33-.53,3.87-3,3.74-3.81-.19-6.35,1.6-8.68,4.26C523.55,56.73,520.65,58.54,519.2,61.71Z"/><path d="M183.19,75c-2.89-1.26-5.07,1.4-7.28-.31-.74-.58-2.26-.46-2.16-1.77s.38-2.64,1.67-3.23c1.48-.68,3-1.75,4.7-1.38,2.55.55,5-.28,7.6,0,2.3.26,4.69,2.08,4.94,4.3.62,5.42.74,10.87,1,16.31.18,3.37-.12,6.81,1.21,10.18a8.52,8.52,0,0,0,3.41,4.07c1.54,1.06,2.69-.23,3.76-1.14,1.8-1.52,3.53-2.82,6.12-1.6,1.54.73,2.45,1.9,2.19,3.37-.53,2.86-.9,6-4.72,6.69-4.59.83-9.15,1.73-13.34-1.4-2.14-1.59-2.73-4.09-3.75-6.29-2.34-5.07-1.81-10.53-2-15.91-.13-3.61.08-7.25-1-10.83C185,74,183.47,75.24,183.19,75Z"/><path d="M609.43,59a8.55,8.55,0,0,1,4.28-2.54,2.94,2.94,0,0,1,3.7,1.54c1.88,3.39,3.62,6.66,4.28,10.82,1,6.15.13,12.67,3.1,18.52a10.63,10.63,0,0,0,3.77,4.7c3,1.84,3.73,4.55,2.25,7.58a2,2,0,0,1-1.64,1.23c-1.77.37-5.47-1.27-6.37-2.74a39.23,39.23,0,0,1-5.32-13.58c-.83-4.47-2-8.8-2.1-13.46-.06-3.25-.11-7.25-4.14-9.2C610.38,61.49,610,60,609.43,59Z"/><path d="M621.27,37c-.52,5-5.31,9.81-9.83,9.93-2.11,0-4-1.7-4.19-4.51-.27-3.53-1-7.1,1.36-10.43,1.85-2.58,4.25-4.61,7.66-2.77C620.64,31.53,621.69,32.84,621.27,37Z"/><path d="M179.75,49.94c-2.59-.16-4.82-4.12-3.93-8a6.15,6.15,0,0,0,.2-2.65c-.77-3.84,2.25-6.64,6.1-5.74,1.45.34,1.84,1.38,2.16,2.55,1,3.52.33,7.14.28,10.68C184.54,48.58,182.61,50.23,179.75,49.94Z"/><path d="M351.5,75.49c-2.31-1-4,1.11-5.81-.26-.6-.46-1.81-.36-1.73-1.41a2.84,2.84,0,0,1,1.33-2.58c1.19-.54,2.38-1.4,3.76-1.1,2,.43,4-.23,6.08,0,1.84.21,3.75,1.66,3.95,3.44.49,4.33.59,8.69.82,13,.15,2.7-.09,5.45,1,8.14A6.78,6.78,0,0,0,363.6,98c1.23.85,2.14-.18,3-.91,1.44-1.21,2.82-2.26,4.9-1.28,1.23.59,2,1.53,1.74,2.69-.41,2.29-.72,4.8-3.76,5.35-3.68.67-7.32,1.39-10.67-1.11-1.71-1.27-2.19-3.27-3-5-1.87-4-1.45-8.42-1.59-12.72-.1-2.89.06-5.8-.79-8.66C353,74.69,351.73,75.65,351.5,75.49Z"/><path d="M348.76,55.42c-2.07-.13-3.85-3.29-3.14-6.37a5,5,0,0,0,.16-2.13c-.62-3.06,1.79-5.3,4.87-4.58,1.16.27,1.47,1.1,1.73,2,.77,2.82.26,5.71.23,8.54C352.59,54.34,351,55.65,348.76,55.42Z"/></g></g></svg>
